<svg width="11" height="19" viewBox="0 0 11 19" fill="none" xmlns="http://www.w3.org/2000/svg">
<path d="M0.2776 10.1684L8.8216 18.7094C9.00129 18.8894 9.24515 18.9908 9.49954 18.991C9.75393 18.9913 9.99801 18.8905 10.1781 18.7109C10.3582 18.5312 10.4595 18.2873 10.4598 18.0329C10.4601 17.7785 10.3593 17.5344 10.1796 17.3544L2.3136 9.48936L10.1796 1.62536C10.3502 1.44334 10.4433 1.20205 10.4391 0.952595C10.4349 0.703141 10.3337 0.465123 10.1571 0.288967C9.98038 0.112811 9.74206 0.0123555 9.4926 0.00888221C9.24313 0.00540896 9.00211 0.0991908 8.8206 0.27036L0.2766 8.81236C0.0991293 8.99347 -0.000186735 9.23699 2.63592e-07 9.49056C0.000187263 9.74413 0.0998619 9.98751 0.2776 10.1684Z" fill="white"/>
</svg>
