<svg width="94" height="115" viewBox="0 0 94 115" fill="none" xmlns="http://www.w3.org/2000/svg">
<g clip-path="url(#clip0_26_1103)">
<path opacity="0.34" d="M49.5579 114.563C73.9142 114.563 93.6589 111.804 93.6589 108.4C93.6589 104.996 73.9142 102.237 49.5579 102.237C25.2016 102.237 5.45691 104.996 5.45691 108.4C5.45691 111.804 25.2016 114.563 49.5579 114.563Z" fill="#FF7708"/>
<path d="M48.7859 22.7029C49.0373 22.6874 49.273 22.5751 49.4435 22.3897C49.614 22.2043 49.7061 21.96 49.7006 21.7082C49.695 21.4563 49.5922 21.2165 49.4137 21.0388C49.2352 20.861 48.9947 20.7593 48.7428 20.7549C48.4914 20.7704 48.2557 20.8826 48.0852 21.0681C47.9147 21.2535 47.8226 21.4977 47.8281 21.7496C47.8337 22.0014 47.9364 22.2413 48.115 22.4191C48.2935 22.5968 48.534 22.6985 48.7859 22.7029Z" fill="white"/>
<path d="M2.58185 31.6808C1.66385 27.7668 1.67187 19.5009 0.744873 15.5869C15.8115 13.5442 30.9495 12.2165 46.1589 11.6038C46.2449 10.2138 46.3309 8.81383 46.4249 7.42383C60.4502 7.93916 74.4725 8.45718 88.4919 8.97784C89.6329 9.02084 90.9978 9.20986 91.4698 10.2479C91.6589 10.8334 91.6856 11.4593 91.5469 12.0588C90.6629 19.2088 91.7009 26.4278 91.4609 33.5168" fill="#FF7708"/>
<path d="M86.5349 44.7708L9.01489 46.3068L8.01489 17.7758L85.9599 15.8018L86.5349 44.7708Z" fill="white"/>
<path d="M86.5429 45.4831L9.01796 47.0281C8.83086 47.0309 8.65001 46.9608 8.51374 46.8325C8.37748 46.7043 8.29647 46.5281 8.28791 46.3411L7.28791 17.8101C7.28367 17.7151 7.29926 17.6202 7.33369 17.5316C7.36812 17.4429 7.42066 17.3624 7.48793 17.2951C7.61904 17.1583 7.79852 17.0782 7.98793 17.0721L85.9329 15.0981C86.0279 15.0947 86.1225 15.1108 86.211 15.1451C86.2996 15.1795 86.3802 15.2316 86.448 15.2981C86.5848 15.4292 86.6648 15.6087 86.6709 15.7981L87.2459 44.7671C87.246 44.9548 87.1723 45.135 87.0408 45.2689C86.9094 45.4028 86.7306 45.4797 86.5429 45.4831ZM9.69593 45.5831L85.8049 44.0721L85.2559 16.5371L8.75593 18.4771L9.69593 45.5831Z" fill="#CE3932"/>
<path d="M88.9379 49.3547L11.418 50.8997L10.418 22.3687L88.363 20.3857L88.9379 49.3547Z" fill="white"/>
<path d="M88.9549 50.0667L11.4299 51.6116C11.2428 51.6144 11.062 51.5443 10.9257 51.416C10.7894 51.2878 10.7085 51.1115 10.6999 50.9246L9.69992 22.3936C9.69561 22.2986 9.71114 22.2037 9.74558 22.1151C9.78001 22.0264 9.83256 21.9458 9.89987 21.8786C10.031 21.7418 10.2105 21.6618 10.3999 21.6556L88.3449 19.6816C88.5329 19.6813 88.7139 19.7529 88.8509 19.8817C88.9877 20.0128 89.0678 20.1922 89.0739 20.3817L89.6489 49.3506C89.6508 49.5373 89.5789 49.7172 89.449 49.8513C89.3191 49.9853 89.1416 50.0627 88.9549 50.0667ZM12.0999 50.1666L88.2089 48.6556L87.6599 21.1206L11.1599 23.0606L12.0999 50.1666Z" fill="#CE3932"/>
<path d="M92.4379 33.493C92.6009 28.171 92.0859 22.85 92.1719 17.528C92.1889 16.249 92.2489 14.9791 92.3519 13.7081C92.5897 12.5944 92.6447 11.4494 92.5149 10.3181C92.0429 8.47306 90.1149 8.08604 88.4719 8.00904C86.0769 7.88904 83.6719 7.82904 81.2789 7.74304C71.6056 7.38238 61.9322 7.02471 52.2589 6.67005C51.1259 6.62705 49.9839 6.54102 48.8509 6.54102C48.2959 6.52014 47.744 6.63331 47.242 6.87091C46.74 7.10852 46.3026 7.46361 45.9669 7.90607C45.1769 8.97007 45.2669 10.361 45.1859 11.623C45.5039 11.288 45.8209 10.962 46.1389 10.623C37.2122 10.9924 28.3026 11.5991 19.4099 12.4431C15.0099 12.8637 10.6122 13.3474 6.2169 13.894C4.5949 14.094 2.52587 14.006 1.24687 15.207C0.11387 16.28 0.0618687 17.602 0.207869 19.061C0.440006 22.9743 0.910229 26.8699 1.61589 30.726C1.66301 30.8895 1.75262 31.0375 1.87559 31.155C1.99856 31.2726 2.15049 31.3554 2.3159 31.395C7.43123 32.219 12.5469 33.046 17.6629 33.876C25.8082 35.1894 33.9566 36.5054 42.1079 37.824C43.9359 38.116 45.7639 38.4681 47.6009 38.7081C49.1289 38.9081 50.7009 38.8971 52.2359 38.9741C60.3812 39.3947 68.5239 39.818 76.6639 40.244L81.0929 40.476C81.7762 40.5604 82.4645 40.5978 83.1529 40.588C84.0889 40.502 85.0159 39.4291 85.7189 38.8881C87.3409 37.6434 88.9602 36.3961 90.5769 35.1461C90.9199 34.8801 91.2639 34.622 91.6069 34.356C92.5939 33.601 91.5899 31.927 90.5859 32.691C89.4859 33.532 88.3859 34.382 87.2989 35.223C85.7895 36.2534 84.3396 37.3682 82.9559 38.562C82.7069 38.811 82.6209 38.648 82.9219 38.699C83.8059 38.862 82.9819 38.5991 83.0419 38.6221C82.7794 38.5644 82.5091 38.5498 82.2419 38.579C81.0569 38.519 79.8819 38.459 78.6969 38.39L54.4379 37.132C52.2749 37.02 50.1209 36.9171 47.9579 36.7971C47.7579 36.7881 48.3699 36.8571 48.0009 36.7971C47.7689 36.7541 47.5369 36.7201 47.3009 36.6851C46.3139 36.5221 45.3179 36.367 44.3309 36.204L21.0309 32.444C17.1682 31.8174 13.3086 31.1937 9.45189 30.5731C8.07889 30.3501 6.71386 30.1271 5.34086 29.9121C4.58988 29.7335 3.82689 29.6102 3.05791 29.543C2.95667 29.5343 2.85628 29.5173 2.75786 29.4921L3.45787 30.161C3.06327 28.2429 2.7881 26.3022 2.63389 24.35C2.42789 22.29 2.08491 20.161 2.04191 18.093C2.0181 17.8439 2.04686 17.5925 2.12639 17.3552C2.20591 17.1179 2.3344 16.9 2.50352 16.7155C2.67265 16.531 2.87861 16.3841 3.10814 16.2842C3.33766 16.1844 3.58558 16.1339 3.83586 16.1361C5.10586 15.9561 6.39386 15.81 7.66386 15.655C10.2219 15.346 12.7799 15.063 15.3379 14.788C25.5779 13.7154 35.8466 12.9714 46.1439 12.556C46.4014 12.5454 46.6447 12.4352 46.8225 12.2487C47.0003 12.0621 47.0987 11.8137 47.0969 11.556C47.1569 10.629 46.9769 9.22103 47.8869 8.66303C48.2433 8.47829 48.6482 8.40841 49.0459 8.46302C50.0669 8.48002 51.0889 8.54002 52.1099 8.57502L64.6099 9.03907C72.4209 9.33107 80.2319 9.60607 88.0509 9.90607C88.4816 9.90726 88.9116 9.93867 89.3379 10.0001C89.9299 10.1121 90.4969 10.249 90.6169 10.936C90.6399 11.4661 90.5939 11.9969 90.4799 12.515C90.3252 13.9397 90.2309 15.3731 90.1969 16.8151C90.0509 22.3771 90.6179 27.9301 90.4459 33.4921C90.4611 33.749 90.5741 33.9902 90.7617 34.1663C90.9493 34.3424 91.1973 34.4399 91.4546 34.4388C91.712 34.4376 91.9591 34.3379 92.1451 34.1602C92.3312 33.9824 92.442 33.74 92.4549 33.483L92.4379 33.493Z" fill="#CE3932"/>
<path d="M87.7889 34.179C88.4152 34.1657 89.0377 34.2788 89.6193 34.5113C90.201 34.7438 90.7299 35.0911 91.1745 35.5324C91.6191 35.9737 91.9702 36.5 92.207 37.08C92.4438 37.6599 92.5615 38.2815 92.5529 38.9079C92.4159 48.4179 93.1449 59.2159 92.6389 68.1859C92.4929 70.8209 92.2269 73.7139 90.3559 75.5679C88.4559 77.4559 85.5149 77.6789 82.8459 77.7819L28.3929 80.0219C22.8154 80.3838 17.219 80.3464 11.6469 79.9099C10.3726 79.8983 9.13593 79.4776 8.1189 78.7099C7.0799 77.7399 6.83985 76.2099 6.65985 74.8049C5.21785 63.5259 3.75989 42.9049 2.31689 31.6219L6.06787 27.2869L58.8679 24.9609L60.7679 34.7199L87.7889 34.179Z" fill="#FCAA23"/>
<path d="M88.313 41.2952L79.747 41.4672C79.2621 41.476 78.7936 41.2919 78.4443 40.9556C78.095 40.6192 77.8934 40.158 77.884 39.6732L77.8751 39.1671C77.8662 38.6823 78.0502 38.2138 78.3865 37.8644C78.7229 37.5151 79.1842 37.3136 79.669 37.3041L88.235 37.1321C88.7199 37.1233 89.1885 37.3072 89.5378 37.6436C89.8871 37.98 90.0885 38.4413 90.098 38.9261L90.107 39.4321C90.112 39.6724 90.0696 39.9113 89.9821 40.1351C89.8946 40.3589 89.7637 40.5632 89.597 40.7363C89.4303 40.9094 89.231 41.0479 89.0107 41.1438C88.7903 41.2397 88.5533 41.2911 88.313 41.2952Z" fill="#FF7708"/>
<path d="M49.5069 72.2629C35.0779 73.0629 20.5809 74.992 6.33289 72.083C6.44489 73.036 6.54794 73.9539 6.65894 74.8039C6.83894 76.2119 7.07992 77.74 8.11792 78.709C9.13299 79.4804 10.371 79.9014 11.6459 79.9089C17.2179 80.3498 22.8145 80.3873 28.3919 80.021L82.8449 77.781C85.5139 77.669 88.4579 77.4459 90.3549 75.5669C90.9418 74.9677 91.4005 74.2552 91.7029 73.4729C77.6329 73.1529 63.6009 71.4819 49.5069 72.2629Z" fill="#FF7708"/>
<path d="M87.8568 35.1569C88.4365 35.1524 89.0092 35.2826 89.5298 35.5374C90.0505 35.7921 90.5048 36.1644 90.8568 36.6248C91.6898 37.7498 91.5569 39.0539 91.5569 40.3759C91.5399 43.3289 91.5909 46.2809 91.6509 49.2429C91.7799 55.1569 91.9769 61.0789 91.7109 66.9929C91.6109 69.3789 91.6419 72.2629 90.1749 74.2929C88.5959 76.4729 85.6519 76.6929 83.1879 76.8079C76.7509 77.1169 70.3039 77.3399 63.8579 77.6079C50.7509 78.1489 37.6439 78.7748 24.5379 79.2128C21.3449 79.3128 18.1519 79.3679 14.9679 79.2039C13.4238 79.1944 11.8839 79.0421 10.3679 78.7488C9.70272 78.6144 9.09767 78.2714 8.64073 77.7697C8.18378 77.268 7.89872 76.6337 7.82688 75.9589C7.46465 73.9368 7.20965 71.8969 7.06291 69.8478C6.82224 67.6072 6.5962 65.3642 6.38487 63.1188C5.38487 52.6128 4.6249 42.0809 3.2949 31.6099C3.2009 31.8419 3.11488 32.0738 3.01988 32.3098C4.27288 30.8678 5.51985 29.4169 6.77085 27.9749C6.53885 28.0749 6.3159 28.1748 6.0839 28.2748C13.3366 27.9575 20.5922 27.6372 27.8509 27.3138C36.7349 26.9192 45.6185 26.5272 54.5019 26.1378C56.3729 26.0518 58.0899 26.4979 58.5879 28.6439C59.0689 30.7439 59.4119 32.8928 59.8239 35.0038C59.8847 35.2085 60.0107 35.3876 60.1828 35.514C60.3548 35.6404 60.5635 35.707 60.7769 35.7039C68.6736 35.5492 76.5676 35.3918 84.4589 35.2318C85.5919 35.2148 86.7249 35.1888 87.8589 35.1718C88.1103 35.1563 88.346 35.0441 88.5165 34.8586C88.687 34.6732 88.7792 34.429 88.7736 34.1772C88.768 33.9253 88.6652 33.6854 88.4867 33.5077C88.3081 33.33 88.0678 33.2282 87.8159 33.2238C79.9192 33.3785 72.0255 33.5359 64.1349 33.6959C63.0019 33.7219 61.8689 33.7388 60.7349 33.7648L61.6879 34.4648C61.2589 32.2498 60.9879 29.9238 60.3659 27.7528C59.6369 25.1868 57.2659 24.0708 54.7869 24.1818L42.0239 24.7488L7.61186 26.2429C6.59086 26.2859 5.74887 26.1568 5.02787 26.9898C4.08387 28.0898 3.12787 29.1789 2.18687 30.2769C1.87456 30.5661 1.61084 30.9038 1.40586 31.2769C1.12286 32.0149 1.54289 33.3879 1.62889 34.1699C2.77089 44.0489 3.52886 53.9698 4.47886 63.8768C4.70186 66.1948 4.9339 68.5118 5.1909 70.8298C5.28827 72.9833 5.5957 75.1221 6.10887 77.2158C6.94187 79.8338 9.10888 80.6409 11.6449 80.9069C14.9822 81.2244 18.3358 81.3363 21.6869 81.2418C35.2659 81.0018 48.8529 80.1778 62.4239 79.6198C69.2309 79.3368 76.0368 79.0788 82.8438 78.7788C85.2728 78.6788 87.9339 78.5129 90.0109 77.1049C90.9661 76.3799 91.7563 75.4601 92.329 74.4066C92.9017 73.353 93.2439 72.1897 93.3329 70.9938C94.1329 65.3288 93.7969 59.4148 93.6849 53.7158C93.6249 50.5748 93.5389 47.4328 93.5049 44.2918C93.4879 42.8328 93.4789 41.3738 93.4959 39.9138C93.5981 38.7308 93.4217 37.5403 92.9809 36.4378C92.5124 35.4649 91.7772 34.645 90.8608 34.0737C89.9445 33.5024 88.8847 33.2032 87.8048 33.2108C86.5608 33.1828 86.6038 35.1319 87.8568 35.1569Z" fill="#CE3932"/>
<path d="M8.75391 52.3667C8.92591 55.2597 9.23494 58.1437 9.67194 61.0017C9.68904 61.3763 9.84892 61.7301 10.1188 61.9905C10.3886 62.2508 10.748 62.398 11.1229 62.4017C11.8099 62.3587 12.6419 61.7407 12.5229 60.9507C12.0849 58.084 11.7789 55.2057 11.6049 52.3157C11.6015 52.1285 11.5613 51.9439 11.4865 51.7723C11.4117 51.6007 11.3039 51.4456 11.1692 51.3157C11.0345 51.1858 10.8754 51.0837 10.7012 51.0153C10.527 50.9468 10.3411 50.9133 10.1539 50.9167C9.9668 50.9202 9.78218 50.9604 9.6106 51.0351C9.43901 51.1099 9.28384 51.2178 9.15393 51.3525C9.02402 51.4873 8.92191 51.6462 8.85345 51.8204C8.785 51.9946 8.75153 52.1805 8.75494 52.3677L8.75391 52.3667Z" fill="white"/>
<path d="M10.0659 65.7322C10.0645 65.804 10.0676 65.8758 10.0749 65.9472C10.0724 66.139 10.1195 66.328 10.2119 66.4961C10.2736 66.6698 10.3766 66.826 10.5119 66.9512C10.6375 67.0866 10.7981 67.1845 10.9759 67.2342C11.146 67.3186 11.3353 67.3572 11.5249 67.3461C11.6539 67.3291 11.7739 67.3032 11.9029 67.2862C12.1393 67.2184 12.3528 67.0877 12.5209 66.9081C12.5899 66.8141 12.6669 66.7081 12.7359 66.6161C12.8633 66.3979 12.9258 66.1478 12.9159 65.8952C12.9172 65.8234 12.9142 65.7516 12.9069 65.6802C12.9093 65.4885 12.8622 65.2993 12.7699 65.1312C12.7081 64.9575 12.6052 64.8014 12.4699 64.6762C12.3443 64.5408 12.1837 64.4428 12.0059 64.3931C11.8358 64.3086 11.6465 64.27 11.4569 64.2812C11.3279 64.2982 11.2079 64.3241 11.0789 64.3411C10.8424 64.4088 10.6289 64.5395 10.4609 64.7192L10.2459 65.0112C10.1264 65.2326 10.0644 65.4806 10.0659 65.7322Z" fill="white"/>
<path d="M77.78 13.3038C82.18 22.5828 79.96 35.1308 68.544 40.3498C54.133 46.9418 39.3609 37.8688 37.6869 22.7708C36.3869 11.0978 46.0389 2.63475 56.9479 1.27775C66.6309 0.0767517 74.21 5.78575 77.78 13.3038Z" fill="white"/>
<path d="M39.4978 30.085C38.4589 30.8503 37.5341 31.7594 36.7509 32.7849C36.4718 33.1026 36.2796 33.4871 36.1929 33.9009C36.1912 34.2653 36.2643 34.6262 36.4076 34.9612C36.5509 35.2963 36.7613 35.5984 37.0259 35.8489C37.8949 36.904 38.8265 37.9058 39.8158 38.8489C40.0185 39.1006 40.2729 39.3059 40.5617 39.451C40.8504 39.5961 41.167 39.6775 41.4899 39.6899C41.9128 39.6089 42.3016 39.4026 42.6059 39.098C43.5059 38.334 44.2279 38.1539 44.8719 37.1669" fill="white"/>
<path d="M37.2409 32.2219C36.2969 29.6809 32.6409 32.5909 31.5249 33.4919C29.0789 35.4659 25.9889 37.363 26.0829 40.692C26.1829 44.254 29.4309 48.2629 33.1559 48.3569C36.6839 48.4509 43.4819 42.7089 42.5119 40.2969" fill="white"/>
<path d="M53.7628 14.4629C52.8728 14.7202 52.0539 15.1786 51.3694 15.8029C50.6848 16.4271 50.1529 17.2003 49.8148 18.0629" fill="white"/>
<path d="M76.946 13.8109C80.131 20.6429 79.512 29.2349 74.363 34.9519C71.5542 38.0139 67.8858 40.1556 63.8387 41.0965C59.7915 42.0375 55.5545 41.7336 51.683 40.2247C47.8116 38.7158 44.4864 36.0723 42.1434 32.6408C39.8003 29.2093 38.5489 25.15 38.553 20.9949C38.39 12.4199 44.87 5.68188 52.707 3.19488C57.4182 1.5583 62.5731 1.75753 67.144 3.75286C71.4662 5.88511 74.9256 9.43636 76.944 13.8129C77.493 14.9459 79.1499 13.9129 78.6089 12.7919C76.6076 8.53844 73.3474 5.00285 69.2699 2.66387C65.0168 0.369134 60.1007 -0.383064 55.356 0.534906C46.618 2.08891 38.301 8.48287 36.842 17.6069C36.1561 22.132 36.862 26.7588 38.8659 30.8736C40.8698 34.9884 44.0772 38.3969 48.0627 40.6471C52.0482 42.8973 56.6235 43.8829 61.1819 43.4731C65.7404 43.0634 70.0666 41.2777 73.587 38.3529C81.2 32.1729 82.642 21.4009 78.617 12.7749C78.08 11.6569 76.424 12.6869 76.946 13.8109Z" fill="#CE3932"/>
<path d="M71.352 16.5151C72.4727 19.0019 72.764 21.7831 72.1829 24.4481C71.6018 27.1131 70.1791 29.5206 68.1249 31.3151C65.9198 33.1 63.2098 34.1471 60.3775 34.3086C57.5451 34.4701 54.7337 33.7378 52.34 32.2151C47.611 29.2541 44.54 23.3061 46.117 17.7441C47.507 12.8861 52.537 9.59011 57.361 8.93811C60.2386 8.51973 63.174 9.05593 65.7178 10.4647C68.2616 11.8734 70.2737 14.077 71.446 16.7381C71.961 17.8801 73.618 16.8501 73.111 15.7171C71.872 12.9818 69.8456 10.6781 67.2907 9.10022C64.7358 7.52237 61.7685 6.74213 58.768 6.85913C53.168 7.05913 47.361 10.2411 44.914 15.4251C42.107 21.3731 44.665 28.5921 49.566 32.6001C52.0084 34.6402 55.0138 35.8888 58.1828 36.1802C61.3518 36.4715 64.5346 35.7917 67.308 34.2311C70.3472 32.4208 72.6228 29.5655 73.7096 26.1992C74.7964 22.8328 74.6198 19.1858 73.2129 15.9401C72.7419 14.8151 70.862 15.3591 71.352 16.5151Z" fill="#CE3932"/>
<path d="M38.9918 29.2518C38.2465 29.798 37.5515 30.4098 36.9149 31.0798C36.3065 31.6707 35.7997 32.3579 35.4149 33.1138C34.6249 34.9938 36.3589 36.6328 37.5149 37.8948C38.0922 38.5494 38.7054 39.1713 39.3518 39.7578C39.6732 40.1016 40.076 40.3589 40.5231 40.5059C40.9702 40.6529 41.4472 40.6849 41.9099 40.5988C42.6551 40.2865 43.3426 39.8515 43.9439 39.3118C44.6377 38.8794 45.2387 38.3134 45.7119 37.6467C45.8362 37.4198 45.8662 37.1532 45.7954 36.9043C45.7247 36.6554 45.5589 36.4444 45.3339 36.3168C45.1062 36.1964 44.8408 36.1684 44.593 36.2388C44.3453 36.3093 44.1343 36.4726 44.0039 36.6948C43.7069 37.0781 43.3397 37.4015 42.9219 37.6478C42.6729 37.8108 42.4409 37.9827 42.2099 38.1627C42.0039 38.3712 41.768 38.5479 41.5099 38.6868C41.0809 38.8498 40.6259 38.2868 40.3599 38.0258C39.8449 37.5258 39.3468 37.0257 38.8668 36.4977C38.4038 36.0144 37.9698 35.5042 37.5669 34.9697C37.2409 34.5147 37.0259 34.1627 37.3349 33.6567C38.0508 32.5891 38.9589 31.6637 40.0128 30.9277C40.2274 30.788 40.3806 30.5716 40.4412 30.3228C40.5018 30.074 40.4652 29.8115 40.3389 29.5887C40.2738 29.4779 40.1874 29.3812 40.0845 29.3042C39.9816 29.2272 39.8643 29.1715 39.7396 29.1403C39.615 29.1091 39.4854 29.103 39.3584 29.1225C39.2314 29.142 39.1095 29.1866 38.9999 29.2537L38.9918 29.2518Z" fill="#CE3932"/>
<path d="M38.1759 31.9391C36.7939 28.6171 33.1029 30.9861 31.2319 32.4801C28.6139 34.5571 25.1639 36.7371 25.1039 40.4801C25.1557 42.2646 25.7153 43.9974 26.7171 45.4751C27.7189 46.9528 29.1213 48.1142 30.7599 48.8231C33.7039 50.0161 36.5449 48.7111 38.9489 46.9521C40.3027 46.0001 41.4989 44.8417 42.4939 43.5191C43.1939 42.5491 43.8849 41.2361 43.4469 40.0191C43.0259 38.8431 41.1469 39.3841 41.5759 40.5771C41.6619 40.8091 41.6699 40.8431 41.5669 41.1861C41.4294 41.5853 41.2326 41.9615 40.9829 42.3021C40.3265 43.2073 39.5496 44.0188 38.6739 44.7141C37.1799 45.9591 34.9829 47.5381 32.9229 47.3661C30.1679 47.1431 27.9449 44.5251 27.2669 41.9931C26.4599 38.9721 28.5969 37.0061 30.7859 35.3071C31.3859 34.8351 35.7129 31.0241 36.3219 32.4921C36.7769 33.6511 38.6569 33.1101 38.1759 31.9431V31.9391Z" fill="#CE3932"/>
<path d="M53.4889 13.5277C52.4382 13.8322 51.4738 14.3792 50.6732 15.1247C49.8726 15.8702 49.2584 16.7933 48.8799 17.8197C48.8484 17.9454 48.842 18.0761 48.8611 18.2042C48.8801 18.3324 48.9241 18.4556 48.9908 18.5667C49.1267 18.7814 49.3378 18.9376 49.5829 19.0047C49.7086 19.036 49.8393 19.0422 49.9675 19.023C50.0957 19.0038 50.2189 18.9595 50.3299 18.8927C50.5363 18.748 50.69 18.5403 50.7679 18.3007C50.6559 18.5927 50.8019 18.2237 50.8369 18.1547C50.8799 18.0687 50.9229 17.9747 50.9739 17.8887C51.0768 17.6959 51.1914 17.5095 51.3169 17.3306C51.3509 17.2786 51.3859 17.2366 51.4169 17.1846C51.2629 17.4166 51.3739 17.2447 51.4079 17.1937C51.4679 17.1167 51.5369 17.0387 51.5969 16.9617C51.7485 16.7903 51.909 16.6271 52.0779 16.4727C52.1549 16.3957 52.2499 16.3356 52.3269 16.2576C52.2669 16.3176 52.1808 16.3776 52.2928 16.2836C52.3448 16.2496 52.3869 16.2147 52.4389 16.1837C52.6147 16.0554 52.798 15.9378 52.9879 15.8317C53.0819 15.7797 53.1769 15.7316 53.2799 15.6766C53.3365 15.6562 53.3911 15.6304 53.4429 15.5997C53.3829 15.6517 53.2539 15.6767 53.3999 15.6167C53.6104 15.5309 53.8254 15.4565 54.0439 15.3937C54.2902 15.3182 54.4972 15.1493 54.6207 14.9232C54.7442 14.6971 54.7745 14.4317 54.7049 14.1837C54.6227 13.9404 54.4509 13.7376 54.2245 13.6165C53.998 13.4953 53.7339 13.465 53.4859 13.5317L53.4889 13.5277Z" fill="white"/>
<path d="M77.7789 13.3049C74.2079 5.78588 66.6289 0.0869197 56.9469 1.27992C46.0289 2.63592 36.3899 11.0989 37.6859 22.7729C39.3599 37.8729 54.1318 46.9519 68.5428 40.3519C79.9598 35.1319 82.1909 22.5829 77.7789 13.3049ZM60.7789 34.4889C54.9509 35.6819 49.1139 32.3599 46.2649 27.3389C44.8194 24.8372 44.2289 21.9324 44.5829 19.0649C45.0131 16.5013 46.2137 14.1295 48.0249 12.2649C51.5779 8.48791 57.2349 6.4279 62.2649 8.2389C62.3575 8.27316 62.4466 8.31639 62.5309 8.36793C65.5189 9.19027 68.1456 10.9893 69.9921 13.4783C71.8385 15.9673 72.7985 19.0028 72.7189 22.1009C72.5609 28.6429 66.8099 33.2519 60.7759 34.4889H60.7789Z" fill="#E57D61"/>
<path d="M78.3539 14.644C78.7427 16.1044 78.9162 17.6136 78.8689 19.124C78.6539 24.145 76.723 30.5141 73.35 34.1021C69.6572 38.0632 64.5597 40.4202 59.1499 40.668C54.2749 40.908 48.6699 38.4961 44.2059 36.5311C50.2059 42.4311 59.4409 44.513 68.5399 40.351C79.4189 35.373 81.9509 23.76 78.3539 14.644Z" fill="#E57D61"/>
<path d="M69.6678 31.2087C71.5541 29.2615 72.812 26.7926 73.2788 24.1221C73.7456 21.4515 73.3997 18.7024 72.2859 16.2307C71.0586 13.3783 68.911 11.0194 66.1859 9.5307C64.741 8.75858 63.1725 8.24455 61.5509 8.01172C61.7909 8.08072 62.0319 8.14874 62.2719 8.23474C62.3645 8.26902 62.4536 8.31219 62.5378 8.36371C65.5259 9.18605 68.1525 10.9851 69.999 13.4741C71.8455 15.9631 72.8054 18.9987 72.7258 22.0967C72.5628 28.6377 66.8118 33.2547 60.7778 34.4907C58.8469 34.8479 56.8606 34.7689 54.9641 34.2595C53.0676 33.7502 51.309 32.8232 49.8169 31.5467C51.9511 33.4462 54.5781 34.7049 57.3959 35.1777C59.6092 35.5183 61.8715 35.3368 64.0022 34.6476C66.1329 33.9585 68.0731 32.7809 69.6678 31.2087Z" fill="#E57D61"/>
<path d="M39.4978 30.085C38.4589 30.8503 37.5341 31.7594 36.7509 32.7849C36.4718 33.1026 36.2796 33.4871 36.1929 33.9009C36.1912 34.2653 36.2643 34.6262 36.4076 34.9612C36.5509 35.2963 36.7613 35.5984 37.0259 35.8489C37.8949 36.904 38.8265 37.9058 39.8158 38.8489C40.0185 39.1006 40.2729 39.3059 40.5617 39.451C40.8504 39.5961 41.167 39.6775 41.4899 39.6899C41.9128 39.6089 42.3016 39.4026 42.6059 39.098C43.5059 38.334 44.2279 38.1539 44.8719 37.1669" fill="white"/>
<path d="M33.1469 48.3591C35.6019 48.4191 38.1679 46.4961 39.8849 44.9341C40.8259 44.1639 41.6098 43.2197 42.1939 42.1531C43.1729 40.0931 41.7479 40.5051 40.4599 39.6381C40.1894 39.4404 39.953 39.1999 39.7599 38.9261C39.0299 38.0331 38.3089 37.1321 37.5799 36.2391C37.0287 35.661 36.628 34.9564 36.4129 34.1871C36.1979 33.0631 37.5549 32.4702 36.8769 31.5872C36.4649 31.0462 35.6499 31.1871 35.0919 31.3121C33.7629 31.7687 32.548 32.5065 31.5299 33.4752C29.0839 35.4492 25.9939 37.3462 26.0879 40.6752C26.1769 44.2532 29.4209 48.2651 33.1469 48.3591Z" fill="#29B2A1"/>
<path d="M29.9439 35.8269C31.9464 34.1666 34.0504 32.633 36.2439 31.2349C35.8556 31.1891 35.4622 31.2183 35.0849 31.3209C33.7569 31.7795 32.5423 32.517 31.5229 33.4838C29.2049 35.3638 26.3039 37.1659 26.0979 40.1959C27.1301 38.5374 28.4297 37.0611 29.9439 35.8269Z" fill="#29B2A1"/>
<path d="M39.8849 44.943C40.8259 44.1728 41.6099 43.2286 42.194 42.162C43.027 40.402 42.1079 40.4451 41.0179 39.9561C39.1929 42.0002 37.1195 43.8082 34.8459 45.338C33.3989 46.254 31.8297 46.961 30.1849 47.438C31.0761 47.9959 32.0958 48.3151 33.146 48.365C35.601 48.428 38.1679 46.505 39.8849 44.943Z" fill="#29B2A1"/>
<path d="M53.7628 14.4629C52.8728 14.7202 52.0539 15.1786 51.3694 15.8029C50.6848 16.4271 50.1529 17.2003 49.8148 18.0629" fill="#E57D61"/>
</g>
<defs>
<clipPath id="clip0_26_1103">
<rect width="93.7017" height="114.409" fill="white" transform="translate(0.14917 0.153809)"/>
</clipPath>
</defs>
</svg>
