<svg width="18" height="18" viewBox="0 0 18 18" fill="none" xmlns="http://www.w3.org/2000/svg">
<g clip-path="url(#clip0_26_1633)">
<path d="M15.8687 9.1579C16.3544 5.36393 13.6725 1.89455 9.87855 1.40883C6.08457 0.923109 2.6152 3.60498 2.12948 7.39895C1.64375 11.1929 4.32562 14.6623 8.1196 15.148C11.9136 15.6338 15.383 12.9519 15.8687 9.1579Z" fill="#FFCB4A"/>
<path d="M12.35 2.21973C13.8276 3.21885 14.8627 4.74961 15.2397 6.49306C15.6166 8.2365 15.3062 10.0581 14.3733 11.5784C13.4403 13.0987 11.9567 14.2004 10.2316 14.6539C8.50651 15.1074 6.67295 14.8777 5.11298 14.0127C5.88764 14.5365 6.76036 14.898 7.67852 15.0754C8.59668 15.2527 9.54124 15.2423 10.4553 15.0447C11.3693 14.8471 12.2338 14.4664 12.9967 13.9256C13.7596 13.3848 14.4051 12.6951 14.8942 11.8981C15.3833 11.1011 15.7059 10.2132 15.8426 9.28814C15.9792 8.36305 15.9271 7.41987 15.6894 6.51546C15.4516 5.61106 15.0332 4.76417 14.4592 4.02588C13.8853 3.28759 13.1678 2.67319 12.35 2.21973Z" fill="#F2AF41"/>
<path d="M8.918 13.0794C11.5911 13.0794 13.758 10.9125 13.758 8.23941C13.758 5.56636 11.5911 3.39941 8.918 3.39941C6.24494 3.39941 4.078 5.56636 4.078 8.23941C4.078 10.9125 6.24494 13.0794 8.918 13.0794Z" fill="#FFE878"/>
<path d="M4.711 8.58035C4.71141 7.77379 4.9133 6.9801 5.29834 6.27137C5.68337 5.56264 6.23935 4.96132 6.91578 4.52202C7.59222 4.08272 8.36768 3.81936 9.17174 3.75585C9.9758 3.69234 10.783 3.8307 11.52 4.15835C10.9586 3.7963 10.3283 3.55437 9.66882 3.44777C9.00935 3.34117 8.33494 3.37222 7.68805 3.53896C7.04116 3.70571 6.43577 4.00453 5.90999 4.41663C5.38421 4.82874 4.94942 5.34521 4.63297 5.93354C4.31652 6.52187 4.12526 7.16933 4.07122 7.83518C4.01719 8.50102 4.10155 9.17085 4.319 9.80251C4.53645 10.4342 4.88228 11.014 5.33473 11.5055C5.78718 11.997 6.33646 12.3895 6.948 12.6584C6.26241 12.2214 5.69803 11.6187 5.30703 10.906C4.91604 10.1932 4.71104 9.39333 4.711 8.58035Z" fill="#F2AF41"/>
<path d="M2.74197 7.07262C2.60022 7.52498 2.63267 8.01398 2.83297 8.44362C2.86534 8.50835 2.91803 8.56069 2.98298 8.59263C3.15598 8.66063 3.31897 8.46762 3.37497 8.29262C3.45543 7.89567 3.48167 7.48963 3.45298 7.08563C3.50455 6.30594 3.76083 5.55364 4.19598 4.90462C4.55789 4.35697 4.96533 3.84081 5.41398 3.36162C5.62398 3.12762 5.84297 2.86162 5.37497 3.00462C4.45576 3.44384 3.74733 4.22847 3.40398 5.18762C3.10619 5.78615 2.88382 6.41933 2.74197 7.07262Z" fill="white"/>
<path d="M2.84998 9.9593C2.895 10.042 2.95815 10.1135 3.03469 10.1684C3.11122 10.2233 3.19918 10.2602 3.29198 10.2763C3.32548 10.283 3.36021 10.2799 3.39198 10.2673C3.42395 10.2501 3.44954 10.2231 3.46498 10.1903C3.52138 10.0608 3.53876 9.91757 3.51498 9.7783C3.49098 9.5153 3.44498 8.7703 3.00598 8.8783C2.56698 8.9863 2.69698 9.6963 2.84998 9.9593Z" fill="white"/>
<path d="M11.197 10.7677L9.22902 9.72768L7.25602 10.7597L7.63702 8.56668L6.04602 7.00969L8.24602 6.69468L9.23502 4.70068L10.216 6.70068L12.416 7.02568L10.816 8.57668L11.197 10.7677Z" fill="#FFCB4A"/>
<path d="M9.97401 6.37171L10.061 6.38671L9.233 4.69971L9.19 4.78571L9.97401 6.37171Z" fill="#F2AF41"/>
<path d="M7.39101 8.24349L6.12101 7.00049L6.04401 7.01149L7.37801 8.31749L7.39101 8.24349Z" fill="#F2AF41"/>
<path d="M12.421 7.02126L11.921 6.94727L10.582 8.24726L10.954 10.4423L8.98398 9.40226L7.34198 10.2613L7.25598 10.7613L9.22898 9.72926L11.197 10.7693L10.825 8.56926L12.421 7.02126Z" fill="#F2AF41"/>
<path d="M0 16.9202C0.66109 16.7975 1.32896 16.7147 2 16.6722C1.86893 16.8234 1.76924 16.9991 1.70675 17.1891C1.64426 17.3792 1.62021 17.5798 1.636 17.7792C1.8731 17.5457 2.13692 17.3409 2.422 17.1692C2.65004 17.0453 2.88625 16.937 3.129 16.8452C4.04 16.4842 5.584 16.1352 5.65 16.0452C5.683 16.0012 4.96 16.0032 4.957 15.9562C4.94914 15.8735 4.91396 15.7957 4.857 15.7352C4.59706 15.5235 4.2872 15.382 3.957 15.3242C3.59933 15.1976 3.21549 15.1632 2.841 15.2242C2.732 15.2662 2.69 15.3312 2.569 15.3732C2.417 15.4252 2.262 15.4732 2.114 15.5292C1.57627 15.7256 1.06946 15.9981 0.608999 16.3382C0.383766 16.5075 0.179348 16.7029 0 16.9202Z" fill="#EF0A0A"/>
<path d="M3.35701 15.7405C3.34217 15.8073 3.3481 15.8771 3.37401 15.9405C3.39326 15.9928 3.43097 16.0361 3.48002 16.0625C3.5865 16.1064 3.70087 16.1278 3.81601 16.1255C4.39763 16.1403 4.97961 16.1213 5.55901 16.0685C5.59125 16.0691 5.62316 16.0619 5.65201 16.0475C5.65783 16.043 5.66256 16.0372 5.66585 16.0307C5.66914 16.0241 5.6709 16.0169 5.67101 16.0095C5.70319 15.71 5.62379 15.4091 5.44801 15.1645C5.35331 15.0165 5.21837 14.8985 5.05901 14.8245C4.68392 14.6839 4.2745 14.663 3.88701 14.7645C3.65508 14.8085 3.4418 14.9214 3.27501 15.0885C3.24558 15.1197 3.22282 15.1567 3.20812 15.197C3.19343 15.2373 3.1871 15.2802 3.18953 15.3231C3.19197 15.3659 3.2031 15.4079 3.22227 15.4463C3.24144 15.4847 3.26823 15.5188 3.30101 15.5465C3.30528 15.55 3.31052 15.5521 3.31601 15.5525L3.35701 15.7405Z" fill="#C1332D"/>
<path d="M0.700982 14.0334C0.700982 14.0334 0.479982 13.4334 5.16698 13.0754C7.19598 12.9204 8.99798 12.9524 8.99798 12.9524V15.1524C8.99798 15.1524 6.61898 15.1524 5.58298 15.2724C3.44298 15.5124 3.47698 16.0554 3.47698 16.0554L0.700982 14.0334Z" fill="#FF4936"/>
<path d="M17.999 16.9202C17.3379 16.7975 16.67 16.7147 15.999 16.6722C16.1301 16.8234 16.2297 16.9991 16.2922 17.1891C16.3547 17.3792 16.3788 17.5798 16.363 17.7792C16.1259 17.5457 15.8621 17.3409 15.577 17.1692C15.349 17.0453 15.1127 16.937 14.87 16.8452C13.959 16.4842 12.415 16.1352 12.349 16.0452C12.316 16.0012 13.039 16.0032 13.042 15.9562C13.0499 15.8735 13.085 15.7957 13.142 15.7352C13.4019 15.5235 13.7118 15.382 14.042 15.3242C14.3997 15.1976 14.7835 15.1632 15.158 15.2242C15.267 15.2662 15.309 15.3312 15.43 15.3732C15.582 15.4252 15.737 15.4732 15.885 15.5292C16.4227 15.7256 16.9295 15.9981 17.39 16.3382C17.6152 16.5075 17.8197 16.7029 17.999 16.9202Z" fill="#EF0A0A"/>
<path d="M14.647 15.7405C14.6618 15.8073 14.6559 15.8771 14.63 15.9405C14.6107 15.9928 14.573 16.0361 14.524 16.0625C14.4175 16.1064 14.3031 16.1278 14.188 16.1255C13.6064 16.1403 13.0244 16.1213 12.445 16.0685C12.4128 16.0691 12.3808 16.0619 12.352 16.0475C12.3462 16.043 12.3414 16.0372 12.3382 16.0307C12.3349 16.0241 12.3331 16.0169 12.333 16.0095C12.3008 15.71 12.3802 15.4091 12.556 15.1645C12.6507 15.0165 12.7856 14.8985 12.945 14.8245C13.3201 14.6839 13.7295 14.663 14.117 14.7645C14.3489 14.8085 14.5622 14.9214 14.729 15.0885C14.7584 15.1197 14.7812 15.1567 14.7959 15.197C14.8106 15.2373 14.8169 15.2802 14.8145 15.3231C14.812 15.3659 14.8009 15.4079 14.7817 15.4463C14.7626 15.4847 14.7358 15.5188 14.703 15.5465C14.6987 15.55 14.6935 15.5521 14.688 15.5525L14.647 15.7405Z" fill="#C1332D"/>
<path d="M17.299 14.0333C17.299 14.0333 17.52 13.4333 12.833 13.0753C10.799 12.9223 8.99902 12.9533 8.99902 12.9533V15.1533C8.99902 15.1533 11.378 15.1533 12.414 15.2733C14.554 15.5133 14.52 16.0563 14.52 16.0563L17.299 14.0333Z" fill="#FF4936"/>
</g>
<defs>
<clipPath id="clip0_26_1633">
<rect width="17.999" height="17.2499" fill="white" transform="translate(0 0.529297)"/>
</clipPath>
</defs>
</svg>
