<svg width="76" height="19" viewBox="0 0 76 19" fill="none" xmlns="http://www.w3.org/2000/svg">
<g clip-path="url(#clip0_940_1740)">
<path d="M20.1922 6.58496H27.7713V7.99128H24.7912V15.8969H23.1525V7.99128H20.1855V6.58496H20.1922ZM27.4475 9.15444H28.8484V10.4556H28.8748C28.9211 10.2716 29.007 10.0942 29.1325 9.92332C29.2581 9.75246 29.4101 9.58817 29.5885 9.45016C29.7669 9.30559 29.9651 9.19387 30.1832 9.10187C30.4012 9.01644 30.6259 8.97044 30.8506 8.97044C31.0224 8.97044 31.1479 8.97701 31.214 8.98358C31.2801 8.99015 31.3462 9.0033 31.4188 9.00987V10.4425C31.3131 10.4228 31.2074 10.4096 31.0951 10.3965C30.9827 10.3833 30.877 10.3768 30.7713 10.3768C30.5202 10.3768 30.2823 10.4293 30.0576 10.5279C29.833 10.6265 29.6413 10.7776 29.4761 10.9682C29.311 11.1653 29.1788 11.4019 29.0797 11.6911C28.9806 11.9802 28.9343 12.3088 28.9343 12.6834V15.8903H27.4409V9.15444L27.4475 9.15444ZM38.2844 15.8969H36.8174V14.9571H36.791C36.606 15.2989 36.3351 15.5683 35.9716 15.772C35.6082 15.9757 35.2382 16.0809 34.8615 16.0809C33.9695 16.0809 33.3219 15.864 32.9254 15.4237C32.529 14.9834 32.3307 14.3197 32.3307 13.4325V9.15444H33.8241V13.288C33.8241 13.8794 33.9364 14.3 34.1677 14.5431C34.3924 14.7863 34.7162 14.9111 35.1258 14.9111C35.443 14.9111 35.7007 14.8651 35.9122 14.7666C36.1236 14.668 36.2954 14.5431 36.421 14.3788C36.5531 14.2211 36.6456 14.024 36.7051 13.8005C36.7646 13.5771 36.791 13.334 36.791 13.0711V9.16102H38.2844V15.8969ZM40.8284 13.7348C40.8746 14.1685 41.0398 14.4708 41.324 14.6483C41.6147 14.8191 41.9583 14.9111 42.3614 14.9111C42.5002 14.9111 42.6588 14.898 42.8372 14.8783C43.0156 14.8586 43.1874 14.8126 43.3394 14.7534C43.4979 14.6943 43.6235 14.6023 43.7292 14.484C43.8283 14.3657 43.8746 14.2146 43.868 14.024C43.8614 13.8334 43.7887 13.6757 43.6565 13.5574C43.5244 13.4325 43.3592 13.3405 43.1543 13.2617C42.9495 13.1894 42.7182 13.1237 42.4539 13.0711C42.1896 13.0185 41.9253 12.9594 41.6544 12.9002C41.3768 12.8411 41.1059 12.7622 40.8482 12.6768C40.5905 12.5914 40.3592 12.4731 40.1544 12.3219C39.9495 12.1774 39.7844 11.9868 39.6654 11.7568C39.5399 11.5268 39.4804 11.2442 39.4804 10.9025C39.4804 10.5345 39.5729 10.2322 39.7513 9.98246C39.9297 9.73274 40.161 9.53559 40.4319 9.38445C40.7094 9.2333 41.0134 9.12816 41.3504 9.06244C41.6874 9.0033 42.0112 8.97044 42.3151 8.97044C42.6654 8.97044 43.0024 9.00987 43.3195 9.08216C43.6367 9.15444 43.9275 9.27273 44.1852 9.44359C44.4429 9.60788 44.6543 9.82474 44.8261 10.0876C44.9979 10.3505 45.1036 10.6725 45.1499 11.0471H43.5905C43.5178 10.6922 43.3592 10.449 43.1015 10.3308C42.8438 10.2059 42.5464 10.1468 42.216 10.1468C42.1103 10.1468 41.9848 10.1533 41.8394 10.173C41.694 10.1928 41.5619 10.2256 41.4297 10.2716C41.3041 10.3176 41.1984 10.3899 41.1059 10.4819C41.02 10.5739 40.9738 10.6922 40.9738 10.8433C40.9738 11.0273 41.0398 11.1719 41.1654 11.2836C41.2909 11.3953 41.4561 11.4874 41.661 11.5662C41.8658 11.6385 42.0971 11.7042 42.3614 11.7568C42.6257 11.8094 42.8966 11.8685 43.1742 11.9276C43.4451 11.9868 43.7094 12.0656 43.9737 12.1511C44.238 12.2365 44.4693 12.3548 44.6741 12.5059C44.879 12.6571 45.0442 12.8411 45.1697 13.0645C45.2953 13.288 45.3614 13.5705 45.3614 13.8991C45.3614 14.3 45.2688 14.6351 45.0838 14.9177C44.8988 15.1937 44.6609 15.4237 44.3702 15.5946C44.0794 15.7654 43.749 15.8969 43.3922 15.9757C43.0354 16.0546 42.6786 16.094 42.3284 16.094C41.8989 16.094 41.5024 16.048 41.139 15.9494C40.7755 15.8509 40.4584 15.7063 40.194 15.5157C39.9297 15.3186 39.7183 15.0754 39.5663 14.7863C39.4143 14.4971 39.335 14.1488 39.3218 13.748H40.8284V13.7348ZM45.7578 9.15444H46.8878V7.1304H48.3811V9.15444H49.7291V10.265H48.3811V13.8663C48.3811 14.024 48.3877 14.1554 48.401 14.2737C48.4142 14.3854 48.4472 14.484 48.4935 14.5628C48.5397 14.6417 48.6124 14.7008 48.7115 14.7403C48.8106 14.7797 48.9362 14.7994 49.108 14.7994C49.2137 14.7994 49.3194 14.7994 49.4252 14.7928C49.5309 14.7863 49.6366 14.7731 49.7423 14.7468V15.8969C49.5771 15.9166 49.4119 15.9297 49.26 15.9494C49.1014 15.9692 48.9428 15.9757 48.7776 15.9757C48.3811 15.9757 48.064 15.9363 47.8261 15.864C47.5882 15.7917 47.3966 15.68 47.2644 15.5354C47.1256 15.3909 47.0397 15.2134 46.9869 14.9966C46.9406 14.7797 46.9076 14.53 46.901 14.254V10.2782H45.771V9.15444H45.7578ZM50.7864 9.15444H52.2004V10.0679H52.2269C52.4383 9.6736 52.7291 9.39759 53.1057 9.22673C53.4824 9.05587 53.8854 8.97044 54.3282 8.97044C54.8634 8.97044 55.3259 9.06244 55.7224 9.25302C56.1189 9.43702 56.4493 9.69331 56.7136 10.0219C56.9779 10.3505 57.1695 10.7316 57.3017 11.1653C57.4338 11.5991 57.4999 12.0656 57.4999 12.5585C57.4999 13.012 57.4405 13.4522 57.3215 13.8728C57.2026 14.3 57.0242 14.6746 56.7863 15.0031C56.5484 15.3317 56.2444 15.588 55.8744 15.7852C55.5044 15.9823 55.0749 16.0809 54.5727 16.0809C54.3546 16.0809 54.1365 16.0612 53.9185 16.0217C53.7004 15.9823 53.489 15.9166 53.2907 15.8312C53.0925 15.7457 52.9009 15.634 52.7357 15.496C52.5639 15.358 52.4251 15.2003 52.3062 15.0229H52.2797V18.3875H50.7864V9.15444ZM56.0066 12.5322C56.0066 12.2299 55.9669 11.9342 55.8876 11.6451C55.8083 11.3559 55.6894 11.1062 55.5308 10.8828C55.3722 10.6593 55.174 10.4819 54.9427 10.3505C54.7048 10.219 54.4339 10.1468 54.1299 10.1468C53.5022 10.1468 53.0264 10.3636 52.7093 10.7973C52.3921 11.2311 52.2335 11.8094 52.2335 12.5322C52.2335 12.874 52.2731 13.1894 52.359 13.4785C52.4449 13.7677 52.5639 14.0174 52.7357 14.2277C52.9009 14.438 53.0991 14.6023 53.3304 14.7206C53.5617 14.8454 53.8326 14.9046 54.1365 14.9046C54.4801 14.9046 54.7643 14.8323 55.0022 14.6943C55.24 14.5563 55.4317 14.3723 55.5837 14.1554C55.7356 13.932 55.848 13.6823 55.914 13.3997C55.9735 13.1171 56.0066 12.828 56.0066 12.5322ZM58.6431 6.58496H60.1364V7.99128H58.6431V6.58496ZM58.6431 9.15444H60.1364V15.8969H58.6431V9.15444ZM61.4712 6.58496H62.9646V15.8969H61.4712V6.58496ZM67.5438 16.0809C67.002 16.0809 66.5196 15.9889 66.0967 15.8114C65.6738 15.634 65.317 15.3843 65.0196 15.0754C64.7289 14.76 64.5042 14.3854 64.3522 13.9517C64.2003 13.518 64.121 13.0382 64.121 12.5191C64.121 12.0065 64.2003 11.5334 64.3522 11.0996C64.5042 10.6659 64.7289 10.2913 65.0196 9.97589C65.3104 9.66045 65.6738 9.41731 66.0967 9.23987C66.5196 9.06244 67.002 8.97044 67.5438 8.97044C68.0857 8.97044 68.568 9.06244 68.9909 9.23987C69.4138 9.41731 69.7707 9.66703 70.068 9.97589C70.3587 10.2913 70.5834 10.6659 70.7354 11.0996C70.8874 11.5334 70.9667 12.0065 70.9667 12.5191C70.9667 13.0382 70.8874 13.518 70.7354 13.9517C70.5834 14.3854 70.3587 14.76 70.068 15.0754C69.7773 15.3909 69.4138 15.634 68.9909 15.8114C68.568 15.9889 68.0857 16.0809 67.5438 16.0809ZM67.5438 14.9046C67.8742 14.9046 68.165 14.8323 68.4094 14.6943C68.6539 14.5563 68.8522 14.3723 69.0108 14.1488C69.1693 13.9254 69.2817 13.6691 69.361 13.3865C69.4337 13.104 69.4733 12.8148 69.4733 12.5191C69.4733 12.2299 69.4337 11.9474 69.361 11.6582C69.2883 11.3691 69.1693 11.1193 69.0108 10.8959C68.8522 10.6725 68.6539 10.495 68.4094 10.357C68.165 10.219 67.8742 10.1468 67.5438 10.1468C67.2134 10.1468 66.9227 10.219 66.6782 10.357C66.4337 10.495 66.2355 10.679 66.0769 10.8959C65.9183 11.1193 65.806 11.3691 65.7267 11.6582C65.654 11.9474 65.6143 12.2299 65.6143 12.5191C65.6143 12.8148 65.654 13.104 65.7267 13.3865C65.7993 13.6691 65.9183 13.9254 66.0769 14.1488C66.2355 14.3723 66.4337 14.5563 66.6782 14.6943C66.9227 14.8388 67.2134 14.9046 67.5438 14.9046ZM71.4028 9.15444H72.5327V7.1304H74.0261V9.15444H75.3741V10.265H74.0261V13.8663C74.0261 14.024 74.0327 14.1554 74.0459 14.2737C74.0591 14.3854 74.0922 14.484 74.1384 14.5628C74.1847 14.6417 74.2574 14.7008 74.3565 14.7403C74.4556 14.7797 74.5811 14.7994 74.753 14.7994C74.8587 14.7994 74.9644 14.7994 75.0701 14.7928C75.1758 14.7863 75.2816 14.7731 75.3873 14.7468V15.8969C75.2221 15.9166 75.0569 15.9297 74.9049 15.9494C74.7463 15.9692 74.5878 15.9757 74.4226 15.9757C74.0261 15.9757 73.7089 15.9363 73.471 15.864C73.2331 15.7917 73.0415 15.68 72.9094 15.5354C72.7706 15.3909 72.6847 15.2134 72.6318 14.9966C72.5856 14.7797 72.5525 14.53 72.5459 14.254V10.2782H71.416V9.15444L71.4028 9.15444Z" fill="#191919"/>
<path d="M18.4475 6.58504H11.6018L9.48732 0.105469L7.36621 6.58503L0.520508 6.57846L6.06447 10.5871L3.94336 17.0601L9.48732 13.058L15.0247 17.0601L12.9102 10.5871L18.4475 6.58504Z" fill="#00B67A"/>
<path d="M13.3859 12.0522L12.9102 10.5869L9.4873 13.0575L13.3859 12.0522Z" fill="#005128"/>
</g>
<defs>
<clipPath id="clip0_940_1740">
<rect width="75" height="18.44" fill="white" transform="translate(0.490234)"/>
</clipPath>
</defs>
</svg>
