<svg width="479" height="454" viewBox="0 0 479 454" fill="none" xmlns="http://www.w3.org/2000/svg">
<path d="M131.678 83.6716C129.107 84.3046 126.799 88.4197 128.513 89.0166C129.725 89.4417 129.6 87.2666 132.243 86.2401C133.776 85.6432 133.326 83.2668 131.678 83.6716Z" fill="#4B187A"/>
<path d="M134.628 93.5232C135.51 92.5487 134.542 88.9582 132.894 90.0525C131.696 90.9795 133.111 95.2076 134.628 93.5232Z" fill="#4B187A"/>
<path d="M105.129 109.802C105.459 115.003 105.459 120.22 105.129 125.421C105.129 126.739 106.863 126.778 107.164 125.421C107.803 120.34 108.012 115.214 107.788 110.098C111.693 109.264 114.833 104.898 116.065 102.2C116.699 103.071 117.643 103.665 118.703 103.859C119.762 104.053 120.855 103.832 121.756 103.243C122.919 102.166 122.035 100.71 120.576 101.23C119.446 101.631 118.541 100.95 117.94 99.9281C117.144 98.5896 116.201 93.5001 118.182 92.5527C120.047 91.6619 122.889 93.9093 123.319 91.9807C124.524 88.2026 124.786 84.1871 124.083 80.2844C130.764 80.2844 145.945 78.15 147.145 64.8914C148.529 49.6024 100.553 61.1494 92.899 71.5727C85.8153 81.216 99.0716 106.076 105.129 109.802Z" fill="#4B187A"/>
<path d="M139.695 100.783C141.9 100.627 142.182 98.7167 141.9 96.7564C141.044 91.29 139.481 85.9583 137.249 80.8954C137.149 80.6763 136.969 80.5041 136.746 80.4145C136.522 80.3249 136.273 80.3247 136.05 80.4141C135.826 80.5034 135.646 80.6753 135.546 80.8942C135.446 81.1131 135.434 81.3621 135.512 81.5895C137.172 86.9632 138.551 92.4196 139.643 97.9367C139.727 98.3549 139.765 98.3188 139.331 98.3708C137.559 98.5833 134.85 97.5636 135.035 101.165C135.008 102.012 135.06 102.86 135.191 103.698C133.386 104.029 131.523 103.65 129.991 102.639C128.695 101.773 127.82 102.865 128.151 104.376C128.498 105.961 129.348 107.391 130.574 108.454C131.799 109.517 133.336 110.156 134.954 110.275C134.954 112.375 134.85 114.736 132.467 115.36C129.67 115.705 126.836 115.606 124.069 115.066C123.102 114.887 122.43 116.309 123.409 116.8C124.299 117.239 125.254 117.533 126.238 117.668C126.462 120.644 126.92 123.597 127.608 126.5C127.63 126.643 127.682 126.78 127.76 126.902C127.838 127.024 127.941 127.128 128.061 127.208C128.182 127.289 128.318 127.343 128.46 127.367C128.603 127.392 128.749 127.387 128.89 127.352C129.03 127.317 129.162 127.253 129.277 127.164C129.391 127.075 129.486 126.964 129.555 126.836C129.624 126.709 129.665 126.569 129.677 126.424C129.689 126.28 129.67 126.135 129.622 125.998C129.204 123.396 128.684 120.635 128.424 117.894C130.169 118.104 131.938 117.956 133.624 117.46C137.095 116.14 137.337 112.843 137.095 109.651C137.095 108.887 137.095 107.81 135.707 108.036C135.707 108.036 133.102 108.767 130.812 105.278C132.164 105.861 133.646 106.077 135.108 105.902C138.388 105.502 137.38 104.439 137.38 100.973C138.14 100.804 138.919 100.741 139.695 100.783Z" fill="#4B187A"/>
<path d="M49.3477 139.272C49.5408 139.602 49.857 139.841 50.2268 139.938C50.5965 140.035 50.9895 139.981 51.3193 139.788C51.6492 139.594 51.8888 139.278 51.9854 138.909C52.0821 138.539 52.0279 138.146 51.8349 137.816C49.7999 134.673 47.15 133.545 44.8935 131.673C43.0332 129.782 41.4841 127.609 40.3037 125.233C39.1076 123.499 37.6063 123.951 38.4293 126.276C40.6293 132.446 43.4894 133.142 49.3477 139.272Z" fill="#4B187A"/>
<path d="M55.2369 122.267C54.6606 116.788 54.8593 111.255 55.827 105.832C56.1752 103.824 55.16 103.469 54.0905 105.348C52.345 108.411 51.9901 118.957 53.1364 122.561C53.5117 123.743 55.2889 123.185 55.2369 122.267Z" fill="#4B187A"/>
<path d="M50.396 128.6C47.7755 118.934 48.5239 115.081 49.4057 105.832C49.5097 104.74 47.9926 104.778 47.6715 105.624C45.0985 112.373 45.779 122.543 48.1915 129.26C48.3324 129.478 48.5402 129.644 48.7836 129.734C49.0271 129.824 49.293 129.832 49.5415 129.757C49.79 129.683 50.0077 129.53 50.1618 129.321C50.3159 129.113 50.3981 128.859 50.396 128.6Z" fill="#4B187A"/>
<path d="M61.2584 121.277C61.2664 117.257 61.638 113.246 62.3686 109.294C62.7711 107.209 61.5546 105.963 60.4422 108.615C59.1924 112.635 58.6927 116.85 58.968 121.051C59.1399 123.821 61.2313 124.142 61.2584 121.277Z" fill="#4B187A"/>
<path d="M69.4138 137.52C69.8886 130.493 65.9341 126.17 67.4196 114.962C67.5914 113.659 66.2891 112.64 65.5633 114.962C63.2413 122.4 66.5469 131.175 67.2975 137.346C67.5304 139.27 69.2443 139.966 69.4138 137.52Z" fill="#4B187A"/>
<path d="M245.516 236.419C240.557 234.897 236.039 232.2 232.346 228.558C227.496 223.007 225.088 233.163 244.91 238.28C245.157 238.36 245.425 238.339 245.657 238.222C245.888 238.104 246.063 237.899 246.143 237.653C246.224 237.406 246.203 237.137 246.085 236.906C245.968 236.675 245.763 236.5 245.516 236.419Z" fill="#4B187A"/>
<path d="M241.369 240.165C236.906 238.753 232.62 236.831 228.597 234.438C227.918 234.029 226.039 234.664 227.591 236.347C231.452 239.38 236.042 241.348 240.901 242.056C243.381 242.094 243.47 240.715 241.369 240.165Z" fill="#4B187A"/>
<path d="M220.493 225.225C219.989 226.247 221.47 227.486 222.23 226.455C226.455 220.732 234.932 224.72 240.189 220.834C240.499 220.645 240.721 220.341 240.807 219.988C240.892 219.635 240.835 219.263 240.646 218.953C240.458 218.643 240.154 218.42 239.802 218.333C239.45 218.247 239.077 218.304 238.767 218.491C233.245 221.625 223.738 218.629 220.493 225.225Z" fill="#4B187A"/>
<path d="M227.85 219.479C229.222 219.323 229.853 218.548 229.342 217.745C228.6 216.574 225.661 217.23 224.141 217.467C221.152 217.919 218.319 217.725 218.224 219.081C218.055 221.404 224.639 219.846 227.85 219.479Z" fill="#4B187A"/>
<path d="M229.639 246.049C222.917 243.527 216.357 240.595 209.995 237.267C209.147 236.829 207.508 237.405 209.109 239.001C211.68 241.552 225.196 247.107 229.006 247.679C229.865 247.679 230.591 246.399 229.639 246.049Z" fill="#4B187A"/>
<path d="M238.47 243.914C233.27 242.488 230.783 242.345 225.582 239.367C224.436 238.709 223.254 240.292 224.384 241.101C228.445 243.999 233.28 245.612 238.267 245.734C238.467 245.694 238.649 245.592 238.787 245.442C238.925 245.292 239.011 245.101 239.034 244.899C239.057 244.696 239.014 244.491 238.913 244.314C238.812 244.137 238.657 243.997 238.47 243.914Z" fill="#4B187A"/>
<path d="M358.347 107.446C358.347 114.562 361.8 117.263 365.169 122.753C366.342 124.666 368.088 123.658 367.805 122.335C367.018 118.654 361.662 116.938 360.292 107.342C360.268 107.092 360.148 106.861 359.957 106.697C359.767 106.533 359.521 106.449 359.27 106.462C359.019 106.476 358.783 106.585 358.611 106.769C358.439 106.952 358.344 107.195 358.347 107.446Z" fill="#4B187A"/>
<path d="M374.297 104.097C375.009 98.1059 372.251 88.1235 369.368 83.0837C369.238 82.847 369.022 82.67 368.764 82.5899C368.507 82.5098 368.228 82.5329 367.987 82.6544C367.746 82.7758 367.562 82.9861 367.473 83.2409C367.385 83.4956 367.398 83.7749 367.512 84.0197C370.216 90.3202 371.615 97.1034 371.624 103.96C371.581 106.094 374.03 106.386 374.297 104.097Z" fill="#4B187A"/>
<path d="M386.013 122.041C384.297 112.805 385.839 96.0053 383.236 87.7684C382.875 86.6221 380.749 86.032 381.19 88.2026C383.544 99.5076 381.532 111.195 383.393 122.267C383.666 123.915 386.325 123.741 386.013 122.041Z" fill="#4B187A"/>
<path d="M379.311 104.929C380.525 101.355 378.287 88.7407 377.14 85.512C375.994 82.2832 373.81 82.1204 374.938 86.5543C376.412 92.5015 377.117 98.6131 377.036 104.74C377.093 104.987 377.227 105.21 377.419 105.376C377.611 105.542 377.851 105.643 378.104 105.665C378.357 105.686 378.61 105.626 378.827 105.494C379.044 105.362 379.213 105.164 379.311 104.929Z" fill="#4B187A"/>
<path d="M362.427 87.6985C365.779 94.7991 366.959 102.732 365.818 110.501C365.563 112.235 368.156 112.719 368.403 111.039C369.658 102.699 368.188 94.1774 364.213 86.7398C364.086 86.5029 363.87 86.3263 363.612 86.2487C363.355 86.1711 363.077 86.1989 362.84 86.326C362.604 86.4532 362.427 86.6692 362.349 86.9266C362.272 87.1839 362.3 87.4616 362.427 87.6985Z" fill="#4B187A"/>
<path d="M347.467 81.7295C342.737 72.8572 330.736 71.7584 322.081 74.6141C313.735 77.3635 310.52 87.2147 309.932 95.282C309.39 102.712 309.801 114.374 312.015 120.445C312.796 123.064 314.332 125.394 316.431 127.144C318.53 128.894 321.098 129.987 323.815 130.285V136.389C323.85 136.643 323.976 136.875 324.169 137.043C324.362 137.211 324.609 137.303 324.865 137.303C325.121 137.303 325.368 137.211 325.561 137.043C325.754 136.875 325.88 136.643 325.915 136.389C326.141 134.354 326.175 132.295 326.297 130.246C330.426 129.794 336.379 126.445 337.456 122.091C337.535 121.862 337.522 121.612 337.42 121.393C337.317 121.174 337.134 121.004 336.908 120.918C336.682 120.832 336.431 120.837 336.21 120.933C335.988 121.029 335.812 121.207 335.719 121.43C332.04 129.344 316.926 131.686 313.317 115.792C311.508 104.12 310.391 85.4783 319.944 78.5867C325.027 74.9216 340.682 73.8385 345.333 83.0816C347.357 88.1778 347.406 93.8459 345.471 98.9765C344.271 98.6181 342.98 98.7174 341.849 99.2553C340.717 99.7932 339.825 100.731 339.346 101.889C338.735 102.963 340.198 104.043 340.929 103.035C346.029 95.949 348.74 110.948 343.443 111.068C342.803 111.084 340.442 110.098 340.442 111.973C340.442 112.945 341.449 113.587 342.333 113.813C342.151 120.224 342.971 126.623 344.763 132.781C344.845 133.048 345.028 133.273 345.274 133.406C345.52 133.539 345.808 133.57 346.077 133.493C346.345 133.415 346.573 133.236 346.71 132.992C346.847 132.748 346.883 132.46 346.809 132.191C345.534 126.132 344.745 119.98 344.451 113.795C349.986 112.511 349.518 103.973 347.592 100.851C348.978 99.2727 351.483 89.2564 347.467 81.7295Z" fill="#4B187A"/>
<path d="M330.392 110.028C330.014 108.292 328.468 108.138 327.771 109.282C326.926 110.536 325.757 111.538 324.389 112.183C323.02 112.827 321.503 113.09 319.998 112.943C319.112 112.943 318.754 113.739 319.112 114.679C322.252 122.916 332.59 120.16 330.392 110.028ZM328.465 112.093C328.64 117.716 324.093 119.19 321.61 115.233C322.903 115.189 324.175 114.889 325.352 114.351C326.528 113.813 327.587 113.047 328.465 112.097V112.093Z" fill="#4B187A"/>
<path d="M324.838 104.183C326.573 104.064 326.421 99.0487 324.37 99.5688C322.718 99.9893 322.808 104.324 324.838 104.183Z" fill="#4B187A"/>
<path d="M315.191 99.6274C313.457 99.9643 313.09 104.118 315.191 104.018C317.063 103.923 316.769 99.3131 315.191 99.6274Z" fill="#4B187A"/>
<path d="M327.905 92.9915C323.609 91.7751 322.162 95.6301 325.094 95.3339C325.735 95.1793 326.403 95.184 327.042 95.3476C327.68 95.5112 328.268 95.8287 328.755 96.2723C331.396 98.6825 332.786 94.3775 327.905 92.9915Z" fill="#4B187A"/>
<path d="M316.317 93.0957C315.734 93.0974 315.16 93.2348 314.639 93.4969C314.118 93.7591 313.666 94.1388 313.317 94.606C312.345 95.6981 313.317 96.9485 314.097 96.2181C314.403 95.8631 314.795 95.5923 315.236 95.4316C315.676 95.271 316.151 95.2257 316.613 95.3002C318.036 95.42 318.662 93.0912 316.317 93.0957Z" fill="#4B187A"/>
<path d="M322.775 110.155C323.747 109.85 324.023 108.283 322.775 108.296C321.545 108.32 320.316 108.203 319.112 107.95C319.632 104.982 320.765 101 319.998 100.609C318.599 99.8991 316.991 106.614 316.821 107.794C316.29 111.489 322.203 110.331 322.775 110.155Z" fill="#4B187A"/>
<path d="M313.696 320.563C320.102 323.028 329.958 324.294 340.404 324.798C337.916 312.136 334.948 297.607 334.799 284.884C334.785 283.688 336.519 283.324 336.657 284.572C338.242 298.17 340.722 311.647 344.082 324.918C355.556 325.281 367.04 324.969 378.477 323.982C379.415 313.084 380.663 276.487 381.357 247.921C361.234 256.147 324.093 255.801 302.382 249.658C305.177 274.16 309.55 301.614 313.696 320.563Z" fill="#4B187A"/>
<path d="M114.395 288.719C112.216 289.023 110.008 289.07 107.818 288.859C115.153 303.891 121.454 319.406 126.675 335.296C134.362 360.734 141.218 410.072 141.652 418.384C144.116 419.702 167.473 419.044 173.218 418.384C173.218 412.797 176.634 349.791 174.952 326.812C174.048 314.562 169.073 277.165 165.182 249.155C139.031 257.017 104.447 257.365 78.7457 246.917C80.7399 278.761 84.1992 308.767 77.8073 326.326C68.5725 349.25 57.6324 371.449 45.0791 392.737C46.3995 394.387 63.3346 404.885 73.0366 410.508C101.148 370.941 117.353 347.41 122.65 333.093C118.081 317.783 112.235 302.884 105.175 288.551C102.315 288.077 99.5083 287.328 96.7931 286.313C95.7689 285.929 95.8254 284.025 97.4511 284.577C102.95 286.353 108.717 287.158 114.492 286.955C115.645 286.926 115.872 288.506 114.395 288.719Z" fill="#4B187A"/>
<path d="M69.0184 410.517C68.8409 410.222 68.5531 410.008 68.2183 409.924C67.8836 409.841 67.5292 409.893 67.2333 410.071C66.9374 410.248 66.7241 410.536 66.6403 410.871C66.5566 411.206 66.6093 411.56 66.7868 411.856C66.9247 412.082 81.5444 435.463 80.1946 436.928C78.4446 438.825 42.5622 415.89 39.4646 410.897C37.493 407.718 43.0958 403.974 46.8401 399.029C47.7309 397.853 46.2115 395.984 45.0019 397.033C42.3029 399.472 39.8817 402.202 37.7824 405.172C32.9868 411.68 40.0231 415.862 44.6017 419.297C53.2823 425.751 62.4037 431.591 71.8989 436.772C77.2055 439.698 86.5955 442.893 81.8474 432.746C78.1637 425.01 73.874 417.577 69.0184 410.517Z" fill="#4B187A"/>
<path d="M195.782 432.223C188.194 427.864 180.288 424.085 172.13 420.918C171.942 420.839 171.74 420.798 171.537 420.798C171.333 420.798 171.132 420.838 170.944 420.917C170.756 420.996 170.586 421.111 170.443 421.256C170.301 421.402 170.188 421.574 170.113 421.763C170.038 421.953 170.001 422.155 170.005 422.358C170.009 422.562 170.054 422.763 170.136 422.949C170.219 423.135 170.338 423.303 170.486 423.443C170.634 423.582 170.808 423.691 170.999 423.762C177.173 426.199 183.236 428.909 189.169 431.884C191.848 433.222 201.315 437.507 193.037 437.715L145.958 438.861C140.509 438.981 140.532 438.131 141.601 433.012C142.399 429.476 143.562 426.033 145.072 422.738C145.66 421.409 143.548 420.145 142.8 421.456C140.98 424.7 139.683 428.21 138.956 431.857C136.695 442.766 141.368 441.783 149.94 441.609L194.45 440.618C201.473 440.44 201.401 436.089 195.782 432.223Z" fill="#4B187A"/>
<path d="M260.805 389.682C306.979 396.748 366.847 401.505 413.74 404.761C415.633 404.892 415.63 401.95 413.74 401.822C362.666 398.507 306.606 392.777 261.031 387.331C259.781 387.188 259.469 389.476 260.805 389.682Z" fill="#4B187A"/>
<path d="M438.001 66.1646C437.745 54.2083 436.673 32.853 422.051 30.1398C420.853 29.9137 420.32 31.8627 421.445 32.2041C434.207 36.0795 434.512 55.2145 435.206 66.4789C435.215 66.5183 435.215 66.5593 435.206 66.5987C436.368 187.5 440.266 280.391 439.371 398.812C439.265 412.695 432.986 425.764 422.816 429.042C421.807 429.365 421.984 431.244 423.25 431.054C436.59 429.051 442.842 410.802 442.823 398.846C442.656 287.518 440.517 184.321 438.001 66.1646Z" fill="#4B187A"/>
<path d="M326.261 41.1218C319.77 42.3337 321.061 53.7835 327.096 53.1301C333.707 52.4066 333.533 39.7652 326.261 41.1218ZM326.573 43.9164C329.246 43.2766 330.155 48.7528 326.956 49.9895C324.462 50.955 324.249 44.4726 326.573 43.9164Z" fill="#4B187A"/>
<path d="M257.542 71.5434C305.731 66.1169 356.443 58.7551 405.202 52.4536C407.248 52.1891 407.237 48.9807 405.202 49.243C356.204 55.5964 301.559 62.341 257.16 68.7488C255.581 68.9771 255.964 71.7197 257.542 71.5434Z" fill="#4B187A"/>
<path d="M421.809 65.2081C421.615 40.0113 422.693 16.9783 389.271 22.104C352.516 27.7385 314.562 34.9919 277.898 39.6134C246.262 43.5928 247.993 65.0883 248.154 92.5754C248.355 126.9 248.606 160.383 249.038 196.973C249.054 198.24 251.299 198.136 251.276 196.973C250.693 159.264 251.114 122.36 251.087 85.806C251.068 61.4164 251.708 46.2675 278.47 42.4238C315.858 37.0516 353.176 30.714 390.537 25.0705C415.11 21.3579 418.707 35.7086 418.893 57.8327C419.851 171.064 422.119 284.278 423.457 397.508C423.751 422.444 418.372 433.426 391.754 429.75C354.044 424.549 312.799 423.037 276.249 416.665C253.691 412.733 253.66 395.841 253.689 377.586C253.759 335.4 252.744 289.227 251.955 246.205C251.93 244.817 249.852 245.025 249.854 246.343C249.94 288.911 250.227 335.764 250.689 379.114C250.892 398.333 252.423 415.795 275.989 419.564C314.167 425.669 353.038 428.244 392.255 432.752C417.782 435.692 427.075 425.447 426.849 399.018C425.863 287.642 422.664 176.425 421.809 65.2081Z" fill="#4B187A"/>
<path d="M387.641 124.921C383.042 124.695 370.444 127.23 366.053 128.202C365.333 143.031 366.789 157.885 370.374 172.292C370.69 173.366 368.861 173.664 368.499 172.674C364.915 162.861 363.432 148.117 362.912 137.549C358.988 135.138 354.661 133.453 350.14 132.575C345.871 134.795 333.428 147.464 328.38 149.216C325.307 147.011 323.179 144.599 320.24 136.722C300.544 142.413 285.377 171.948 278.8 180.834C272.223 189.72 259.902 200.053 240.815 214.828C245.356 221.091 248.871 228.036 251.227 235.404C267.91 229.01 283.419 219.897 297.126 208.437C297.947 194.236 299.847 180.118 302.808 166.205C303.11 164.815 304.842 165.095 304.544 166.465C299.667 197.007 298.817 215.575 302.057 246.205C323.177 252.468 361.974 252.762 381.518 244.208C381.778 232.2 381.934 221.996 381.9 216.269C372.148 212.52 361.056 192.141 356.529 183.299C356.041 182.344 357.366 181.438 357.951 182.344C362.842 189.889 374.871 211.102 383.34 213.476C390.542 215.493 398.555 210.11 400.086 200.114C401.745 189.374 392.464 133.425 387.641 124.921Z" fill="#F56B0C"/>
<path d="M180.615 185.094C175.188 175.964 156.77 132.044 131.487 128.209C121.087 133.138 107.315 133.799 102.56 127.359C84.9986 131.135 75.6877 150.36 71.957 166.24C71.6427 167.576 69.8565 167.35 70.2205 165.998C71.2558 160.598 72.8556 155.322 74.9935 150.256C74.4373 148.296 73.7251 145.624 72.685 141.373C69.0674 140.383 54.7755 141.703 49.3446 142.847C47.0451 181.024 56.2768 205.647 61.848 213.058C64.1994 216.188 70.5258 217.832 75.5045 217.354C75.7301 196.028 78.5925 174.812 84.0263 154.188C84.077 153.981 84.2078 153.803 84.3899 153.693C84.572 153.582 84.7905 153.549 84.9974 153.599C85.2043 153.65 85.3826 153.781 85.493 153.963C85.6035 154.145 85.6371 154.364 85.5864 154.57C78.4167 183.923 76.9109 213.357 78.6451 243.358C96.7988 252.244 134.402 255.211 164.84 245.735C163.365 235.151 162.099 226.213 161.369 220.938C143.821 207.372 138.87 203.252 128.849 180.192C128.345 179.03 129.769 178.266 130.359 179.41C135.559 189.496 140.737 200.012 149.449 207.42C165.802 222.037 185.012 233.099 205.864 239.906C207.821 231.333 211.822 223.361 217.526 216.669C213.447 213.893 184.296 191.296 180.615 185.094Z" fill="#F56B0C"/>
<path d="M287.111 330.645C262.382 330.645 266.289 378.927 288.468 380.362C313.698 381.997 309.601 330.645 287.111 330.645ZM284.007 343.279C285.318 339.551 289.698 339.513 290.948 343.695C291.642 346.02 291.954 354.872 290.756 357.248C290.404 357.776 289.921 358.204 289.355 358.491C288.788 358.777 288.157 358.912 287.523 358.883C286.889 358.853 286.273 358.66 285.736 358.322C285.199 357.984 284.758 357.513 284.457 356.954C283.084 354.487 282.989 346.162 284.007 343.279ZM288.621 366.012C288.725 368.024 288.621 369.95 288.9 372.067C289.178 374.183 286.505 373.959 286.186 372.329C285.919 370.176 285.832 368.005 285.926 365.838C278.533 364.363 277.707 355.211 278.395 349.873C278.517 348.918 280.321 348.78 280.373 349.873C280.631 355.299 280.043 362.021 287.14 362.986C294.238 363.952 294.455 354.191 294.36 349.434C294.324 347.596 296.526 347.7 296.621 349.434C296.928 355.722 297.003 365.351 288.621 366.012Z" fill="#F56B0C"/>
<path d="M331.049 333.161C305.018 333.984 308.079 380.794 330.321 383.383C358.405 386.65 356.09 332.372 331.049 333.161ZM331.449 366.29C329.835 367.47 320.621 365.871 319.597 364.641C318.053 362.783 318.035 353.065 319.337 351.903C320.639 350.741 331.619 352.529 332.333 354.055C332.914 355.292 332.786 365.36 331.415 366.357L331.449 366.29ZM341.149 369.932C339.223 369.932 334.556 361.379 334.538 360.162C334.52 358.946 340.577 351.625 342.225 352.163C343.458 352.649 342.626 369.95 341.115 370.002L341.149 369.932Z" fill="#F56B0C"/>
<path d="M376.17 336.024C350.971 334.952 350.259 386.306 377.192 386.67C402.581 387.003 403.535 337.19 376.17 336.024ZM390.521 361.29C390.885 362.471 390.641 366.672 389.133 367.764C386.25 368.763 383.095 368.621 380.315 367.366C379.555 366.701 379.862 363.097 379.914 362.523C380.215 359.717 370.371 359.954 370.667 362.297C370.963 364.639 370.802 366.425 370.129 366.88C369.154 367.535 364.053 367.816 362.717 366.375C361.862 364.369 361.698 362.135 362.249 360.024C366.934 351.453 388.072 352.961 390.552 361.29H390.521Z" fill="#F56B0C"/>
<path d="M216.258 23.6573C215.168 22.9066 213.832 24.5391 214.784 25.3938C217.14 27.5101 229.187 38.1301 232.137 39.2764C232.349 39.3304 232.571 39.3222 232.777 39.2527C232.984 39.1832 233.166 39.0555 233.302 38.8849C233.438 38.7143 233.521 38.5081 233.542 38.2911C233.564 38.0742 233.522 37.8557 233.422 37.662C231.755 35.1003 218.818 25.4254 216.258 23.6573Z" fill="#F56B0C"/>
<path d="M250.125 27.501C250.304 25.769 246.467 14.8913 245.753 12.7863C245.632 12.5541 245.44 12.3674 245.204 12.2541C244.968 12.1409 244.702 12.1072 244.446 12.1582C244.189 12.2092 243.956 12.3421 243.782 12.5369C243.607 12.7317 243.501 12.9779 243.478 13.2385C243.498 15.963 246.255 26.427 248.199 28.1612C248.349 28.3124 248.538 28.4184 248.745 28.467C248.952 28.5155 249.168 28.5047 249.369 28.4358C249.571 28.3668 249.748 28.2426 249.882 28.0772C250.016 27.9118 250.1 27.7121 250.125 27.501Z" fill="#F56B0C"/>
<path d="M225.195 58.129C223.703 57.3128 210.897 58.6491 208.814 59.2053C208.566 59.2884 208.352 59.4505 208.204 59.667C208.057 59.8835 207.984 60.1424 207.998 60.404C208.011 60.6656 208.11 60.9155 208.279 61.1155C208.449 61.3156 208.679 61.4547 208.934 61.5115C210.393 61.6698 223.737 61.3555 225.281 60.1753C225.453 60.0615 225.593 59.9053 225.686 59.7218C225.78 59.5383 225.825 59.3337 225.816 59.1279C225.807 58.9221 225.746 58.722 225.637 58.547C225.528 58.372 225.376 58.228 225.195 58.129Z" fill="#F56B0C"/>
</svg>
