<svg width="328" height="311" viewBox="0 0 328 311" fill="none" xmlns="http://www.w3.org/2000/svg">
<path d="M90.1686 57.1522C88.4081 57.5856 86.8277 60.4034 88.0014 60.8122C88.8313 61.1032 88.7457 59.6138 90.5555 58.911C91.6052 58.5022 91.2971 56.875 90.1686 57.1522Z" fill="#4B187A"/>
<path d="M92.1889 63.898C92.7929 63.2307 92.13 60.7721 91.0016 61.5214C90.1812 62.1562 91.1502 65.0514 92.1889 63.898Z" fill="#4B187A"/>
<path d="M71.99 75.045C72.2159 78.6064 72.2159 82.1787 71.99 85.7401C71.99 86.6426 73.1773 86.6693 73.3834 85.7401C73.821 82.2609 73.9641 78.7509 73.8107 75.2477C76.4846 74.6766 78.6347 71.687 79.4783 69.8396C79.9125 70.436 80.5589 70.8427 81.2847 70.9756C82.0099 71.1084 82.7583 70.9571 83.3752 70.5538C84.1716 69.8163 83.5663 68.8195 82.5672 69.1754C81.7935 69.45 81.1738 68.9837 80.7622 68.2838C80.2172 67.3673 79.5715 63.8823 80.928 63.2336C82.205 62.6236 84.1511 64.1625 84.4455 62.8419C85.2706 60.2549 85.45 57.5053 84.9686 54.8329C89.5434 54.8329 99.9386 53.3714 100.76 44.2926C101.708 33.8235 68.8566 41.7303 63.6155 48.8676C58.765 55.4708 67.8422 72.4937 71.99 75.045Z" fill="#4B187A"/>
<path d="M95.6588 68.8693C97.1686 68.7625 97.3617 67.4542 97.1686 66.1119C96.5825 62.3688 95.5122 58.7179 93.9839 55.2511C93.9154 55.1011 93.7922 54.9832 93.6395 54.9218C93.4861 54.8605 93.3156 54.8603 93.1629 54.9216C93.0095 54.9827 92.8862 55.1004 92.8178 55.2503C92.7493 55.4002 92.7411 55.5707 92.7945 55.7264C93.9311 59.406 94.8754 63.1423 95.6232 66.9201C95.6807 67.2065 95.7067 67.1817 95.4095 67.2173C94.1961 67.3628 92.3412 66.6646 92.4679 69.1308C92.4494 69.7108 92.485 70.2914 92.5747 70.8653C91.3387 71.0919 90.063 70.8324 89.014 70.1401C88.1266 69.5471 87.5274 70.2949 87.7541 71.3295C87.9917 72.4148 88.5737 73.394 89.4132 74.1219C90.252 74.8498 91.3045 75.2873 92.4124 75.3688C92.4124 76.8068 92.3412 78.4235 90.7094 78.8508C88.7942 79.087 86.8536 79.0192 84.9589 78.6495C84.2968 78.5269 83.8366 79.5006 84.507 79.8368C85.1164 80.1374 85.7703 80.3387 86.4441 80.4312C86.5975 82.469 86.9111 84.491 87.3822 86.4788C87.3973 86.5768 87.4329 86.6706 87.4863 86.7541C87.5397 86.8376 87.6103 86.9089 87.6924 86.9636C87.7753 87.0191 87.8684 87.0561 87.9656 87.0725C88.0636 87.0896 88.1635 87.0862 88.2601 87.0622C88.3559 87.0383 88.4463 86.9945 88.5251 86.9335C88.6031 86.8726 88.6682 86.7966 88.7154 86.7089C88.7627 86.6219 88.7908 86.5261 88.799 86.4268C88.8072 86.3282 88.7942 86.2289 88.7613 86.1351C88.4751 84.3534 88.119 82.4628 87.941 80.5859C89.1359 80.7297 90.3472 80.6284 91.5017 80.2887C93.8784 79.3849 94.0441 77.1273 93.8784 74.9416C93.8784 74.4184 93.8784 73.6809 92.928 73.8357C92.928 73.8357 91.1442 74.3362 89.5762 71.9472C90.5019 72.3464 91.5167 72.4943 92.5178 72.3744C94.7638 72.1005 94.0736 71.3727 94.0736 68.9993C94.594 68.8838 95.1274 68.84 95.6588 68.8693Z" fill="#4B187A"/>
<path d="M33.7932 95.2244C33.9254 95.4503 34.1419 95.614 34.3951 95.6804C34.6483 95.7468 34.9174 95.7099 35.1432 95.5777C35.3691 95.4449 35.5332 95.2285 35.5993 94.9758C35.6655 94.7225 35.6284 94.4534 35.4963 94.2274C34.1028 92.0752 32.2883 91.3028 30.7432 90.021C29.4693 88.7261 28.4086 87.2382 27.6003 85.6112C26.7813 84.4239 25.7533 84.7334 26.3168 86.3254C27.8233 90.5503 29.7817 91.0269 33.7932 95.2244Z" fill="#4B187A"/>
<path d="M37.8257 83.5803C37.4311 79.8286 37.5672 76.0399 38.2298 72.3265C38.4682 70.9515 37.7731 70.7084 37.0407 71.9951C35.8455 74.0925 35.6025 81.3138 36.3874 83.7816C36.6444 84.591 37.8613 84.2089 37.8257 83.5803Z" fill="#4B187A"/>
<path d="M34.5115 87.9167C32.7171 81.2979 33.2295 78.6596 33.8334 72.3264C33.9046 71.5787 32.8657 71.6047 32.6459 72.184C30.884 76.8053 31.35 83.7692 33.0019 88.3686C33.0984 88.5179 33.2407 88.6316 33.4074 88.6932C33.5741 88.7548 33.7562 88.7603 33.9263 88.709C34.0965 88.6583 34.2456 88.5535 34.3511 88.4104C34.4566 88.268 34.5129 88.0941 34.5115 87.9167Z" fill="#4B187A"/>
<path d="M41.9497 82.9023C41.9552 80.1496 42.2096 77.4031 42.7099 74.697C42.9855 73.2693 42.1525 72.4161 41.3908 74.2321C40.535 76.9847 40.1929 79.8709 40.3814 82.7476C40.4991 84.6443 41.9312 84.8641 41.9497 82.9023Z" fill="#4B187A"/>
<path d="M47.534 94.0247C47.8591 89.213 45.1513 86.2528 46.1685 78.5782C46.2861 77.686 45.3944 76.9882 44.8974 78.5782C43.3074 83.6713 45.5709 89.68 46.0849 93.9055C46.2444 95.223 47.418 95.6996 47.534 94.0247Z" fill="#4B187A"/>
<path d="M168.119 161.745C164.724 160.703 161.63 158.856 159.101 156.363C155.78 152.562 154.131 159.516 167.704 163.02C167.874 163.074 168.057 163.06 168.216 162.98C168.374 162.899 168.494 162.759 168.549 162.59C168.604 162.421 168.59 162.237 168.509 162.079C168.429 161.921 168.289 161.801 168.119 161.745Z" fill="#4B187A"/>
<path d="M165.28 164.31C162.224 163.344 159.289 162.028 156.534 160.389C156.069 160.109 154.783 160.544 155.845 161.696C158.489 163.773 161.632 165.121 164.959 165.605C166.657 165.631 166.718 164.687 165.28 164.31Z" fill="#4B187A"/>
<path d="M150.984 154.08C150.639 154.78 151.653 155.629 152.174 154.923C155.067 151.004 160.871 153.735 164.471 151.074C164.683 150.944 164.835 150.736 164.894 150.494C164.952 150.253 164.913 149.998 164.784 149.786C164.655 149.573 164.447 149.421 164.206 149.361C163.965 149.302 163.709 149.341 163.497 149.469C159.716 151.615 153.206 149.564 150.984 154.08Z" fill="#4B187A"/>
<path d="M156.022 150.146C156.962 150.039 157.394 149.508 157.044 148.958C156.536 148.157 154.523 148.606 153.483 148.768C151.436 149.078 149.496 148.945 149.431 149.873C149.315 151.464 153.824 150.397 156.022 150.146Z" fill="#4B187A"/>
<path d="M157.248 168.34C152.645 166.613 148.153 164.605 143.796 162.326C143.216 162.026 142.094 162.421 143.19 163.513C144.95 165.26 154.205 169.064 156.814 169.456C157.402 169.456 157.9 168.579 157.248 168.34Z" fill="#4B187A"/>
<path d="M163.294 166.877C159.734 165.901 158.031 165.803 154.469 163.764C153.685 163.313 152.875 164.397 153.649 164.951C156.43 166.936 159.74 168.04 163.155 168.124C163.292 168.096 163.417 168.026 163.511 167.924C163.606 167.821 163.665 167.69 163.68 167.552C163.696 167.413 163.667 167.273 163.598 167.151C163.528 167.03 163.422 166.934 163.294 166.877Z" fill="#4B187A"/>
<path d="M245.38 73.4318C245.38 78.3044 247.744 80.1539 250.051 83.9132C250.854 85.2231 252.05 84.5329 251.856 83.627C251.317 81.1064 247.65 79.9314 246.712 73.3606C246.695 73.1894 246.613 73.0312 246.482 72.9189C246.352 72.8066 246.184 72.7491 246.012 72.758C245.84 72.7676 245.678 72.8422 245.561 72.9682C245.443 73.0935 245.378 73.2599 245.38 73.4318Z" fill="#4B187A"/>
<path d="M256.301 71.1385C256.788 67.036 254.9 60.2006 252.926 56.7496C252.837 56.5876 252.689 56.4664 252.512 56.4115C252.336 56.3567 252.145 56.3725 251.98 56.4557C251.815 56.5388 251.689 56.6828 251.628 56.8573C251.568 57.0317 251.577 57.2229 251.655 57.3906C253.507 61.7048 254.464 66.3496 254.471 71.0447C254.441 72.5059 256.118 72.7059 256.301 71.1385Z" fill="#4B187A"/>
<path d="M264.324 83.4255C263.149 77.1012 264.205 65.5976 262.422 59.9574C262.175 59.1725 260.72 58.7684 261.021 60.2547C262.633 67.9958 261.256 75.9988 262.53 83.5803C262.717 84.7087 264.538 84.5896 264.324 83.4255Z" fill="#4B187A"/>
<path d="M259.735 71.7082C260.566 69.2609 259.034 60.6233 258.248 58.4124C257.464 56.2015 255.968 56.0901 256.741 59.1262C257.75 63.1985 258.233 67.3834 258.177 71.5788C258.216 71.7479 258.308 71.9006 258.439 72.0143C258.571 72.128 258.735 72.1971 258.909 72.2122C259.082 72.2266 259.255 72.1855 259.404 72.0951C259.552 72.0047 259.668 71.8691 259.735 71.7082Z" fill="#4B187A"/>
<path d="M248.173 59.9095C250.469 64.7716 251.277 70.2037 250.495 75.5235C250.321 76.7108 252.096 77.0423 252.265 75.8919C253.125 70.1811 252.118 64.3459 249.396 59.253C249.309 59.0908 249.162 58.9699 248.985 58.9168C248.809 58.8636 248.619 58.8827 248.456 58.9697C248.295 59.0568 248.173 59.2047 248.12 59.381C248.067 59.5571 248.086 59.7473 248.173 59.9095Z" fill="#4B187A"/>
<path d="M237.93 55.8223C234.691 49.7471 226.473 48.9947 220.547 50.9501C214.832 52.8327 212.631 59.5783 212.228 65.1024C211.857 70.1902 212.138 78.1757 213.654 82.3328C214.189 84.1261 215.241 85.7216 216.678 86.9199C218.115 88.1182 219.874 88.8666 221.734 89.0707V93.2504C221.758 93.4243 221.845 93.5832 221.977 93.6982C222.109 93.8132 222.278 93.8762 222.453 93.8762C222.629 93.8762 222.798 93.8132 222.93 93.6982C223.062 93.5832 223.148 93.4243 223.172 93.2504C223.327 91.8569 223.35 90.447 223.434 89.044C226.261 88.7345 230.337 86.4413 231.075 83.4599C231.129 83.3031 231.12 83.1319 231.05 82.9819C230.98 82.832 230.854 82.7155 230.7 82.6567C230.545 82.5978 230.373 82.6012 230.222 82.6669C230.07 82.7327 229.949 82.8546 229.886 83.0072C227.366 88.4263 217.017 90.03 214.546 79.1466C213.307 71.1543 212.542 58.3893 219.084 53.6703C222.564 51.1607 233.284 50.419 236.469 56.7482C237.855 60.2378 237.888 64.119 236.563 67.6322C235.742 67.3868 234.858 67.4547 234.083 67.8231C233.308 68.1914 232.697 68.8339 232.369 69.6266C231.951 70.362 232.953 71.1016 233.453 70.4113C236.945 65.5591 238.802 75.8297 235.175 75.9119C234.736 75.9229 233.12 75.2477 233.12 76.5316C233.12 77.1972 233.809 77.6368 234.414 77.7915C234.29 82.1814 234.851 86.5631 236.078 90.7798C236.135 90.9626 236.26 91.1167 236.428 91.2078C236.597 91.2988 236.794 91.3201 236.978 91.2673C237.162 91.2139 237.318 91.0914 237.412 90.9243C237.505 90.7572 237.53 90.56 237.479 90.3758C236.606 86.2269 236.066 82.0144 235.865 77.7792C239.655 76.9 239.334 71.0536 238.016 68.9159C238.965 67.835 240.68 60.9764 237.93 55.8223Z" fill="#4B187A"/>
<path d="M226.238 75.1996C225.979 74.0109 224.92 73.9054 224.443 74.6888C223.865 75.5475 223.064 76.2336 222.127 76.6752C221.19 77.1162 220.151 77.2963 219.121 77.1956C218.514 77.1956 218.269 77.7407 218.514 78.3844C220.664 84.0246 227.743 82.1375 226.238 75.1996ZM224.918 76.6136C225.038 80.4639 221.925 81.4733 220.224 78.7637C221.11 78.7336 221.981 78.5282 222.787 78.1598C223.592 77.7914 224.317 77.2669 224.918 76.6163V76.6136Z" fill="#4B187A"/>
<path d="M222.434 71.1972C223.622 71.1157 223.518 67.6815 222.114 68.0376C220.983 68.3255 221.044 71.2938 222.434 71.1972Z" fill="#4B187A"/>
<path d="M215.829 68.0779C214.641 68.3086 214.39 71.1528 215.829 71.0843C217.111 71.0193 216.909 67.8627 215.829 68.0779Z" fill="#4B187A"/>
<path d="M224.535 63.5339C221.593 62.701 220.602 65.3407 222.61 65.1378C223.049 65.032 223.506 65.0352 223.944 65.1472C224.381 65.2592 224.783 65.4766 225.117 65.7804C226.925 67.4308 227.877 64.4829 224.535 63.5339Z" fill="#4B187A"/>
<path d="M216.6 63.6052C216.201 63.6064 215.808 63.7005 215.451 63.88C215.094 64.0595 214.785 64.3195 214.546 64.6394C213.88 65.3872 214.546 66.2434 215.08 65.7433C215.289 65.5002 215.558 65.3148 215.86 65.2047C216.161 65.0948 216.486 65.0637 216.803 65.1148C217.777 65.1968 218.206 63.6021 216.6 63.6052Z" fill="#4B187A"/>
<path d="M221.022 75.2867C221.687 75.0778 221.876 74.0048 221.022 74.0137C220.18 74.0302 219.338 73.95 218.514 73.7768C218.87 71.7445 219.646 69.0178 219.12 68.75C218.162 68.2638 217.061 72.862 216.945 73.67C216.581 76.2001 220.63 75.4072 221.022 75.2867Z" fill="#4B187A"/>
<path d="M214.805 219.363C219.191 221.051 225.94 221.917 233.093 222.263C231.389 213.592 229.357 203.644 229.255 194.932C229.245 194.113 230.433 193.863 230.527 194.718C231.613 204.029 233.311 213.257 235.612 222.345C243.468 222.593 251.332 222.38 259.163 221.704C259.806 214.241 260.66 189.182 261.135 169.621C247.356 175.254 221.924 175.017 207.058 170.811C208.971 187.588 211.966 206.387 214.805 219.363Z" fill="#4B187A"/>
<path d="M78.3349 197.558C76.8428 197.766 75.3309 197.798 73.8313 197.653C78.8539 207.947 83.1685 218.57 86.7436 229.451C92.0072 246.87 96.7018 280.654 96.999 286.345C98.6862 287.248 114.68 286.797 118.614 286.345C118.614 282.52 120.953 239.376 119.801 223.642C119.182 215.253 115.775 189.646 113.111 170.466C95.2043 175.85 71.523 176.088 53.9242 168.934C55.2897 190.739 57.6584 211.285 53.2816 223.309C46.9581 239.006 39.4669 254.207 30.8711 268.784C31.7752 269.913 43.3715 277.102 50.0149 280.952C69.2641 253.859 80.3604 237.746 83.9875 227.943C80.8589 217.459 76.8558 207.257 72.0215 197.443C70.0632 197.118 68.1413 196.605 66.2821 195.91C65.5807 195.647 65.6194 194.343 66.7326 194.721C70.498 195.937 74.4469 196.489 78.4013 196.35C79.1908 196.33 79.3463 197.412 78.3349 197.558Z" fill="#4B187A"/>
<path d="M47.2629 280.958C47.1414 280.756 46.9443 280.61 46.7151 280.552C46.4859 280.496 46.2432 280.531 46.0406 280.653C45.838 280.774 45.6919 280.971 45.6345 281.201C45.5772 281.43 45.6133 281.673 45.7349 281.875C45.8293 282.03 55.8401 298.04 54.9158 299.043C53.7175 300.342 29.1472 284.638 27.0261 281.219C25.6761 279.042 29.5125 276.478 32.0764 273.092C32.6864 272.287 31.646 271.007 30.8177 271.725C28.9696 273.395 27.3117 275.265 25.8742 277.298C22.5904 281.755 27.4085 284.618 30.5437 286.97C36.4877 291.39 42.7336 295.389 49.2354 298.936C52.869 300.94 59.2988 303.128 56.0476 296.18C53.5252 290.882 50.5878 285.793 47.2629 280.958Z" fill="#4B187A"/>
<path d="M134.064 295.822C128.868 292.837 123.455 290.249 117.869 288.08C117.74 288.026 117.602 287.998 117.463 287.998C117.323 287.998 117.185 288.026 117.056 288.08C116.928 288.134 116.811 288.213 116.713 288.312C116.616 288.412 116.539 288.53 116.487 288.659C116.436 288.789 116.411 288.927 116.413 289.066C116.416 289.206 116.447 289.344 116.503 289.471C116.56 289.599 116.642 289.714 116.743 289.809C116.844 289.905 116.963 289.979 117.094 290.028C121.322 291.697 125.473 293.552 129.536 295.589C131.37 296.506 137.853 299.44 132.185 299.582L99.9474 300.367C96.2162 300.449 96.232 299.867 96.964 296.362C97.5104 293.941 98.3067 291.583 99.3407 289.327C99.7433 288.417 98.2972 287.551 97.785 288.449C96.5387 290.67 95.6506 293.074 95.1528 295.571C93.6046 303.041 96.8044 302.368 102.674 302.249L133.152 301.57C137.961 301.448 137.912 298.469 134.064 295.822Z" fill="#4B187A"/>
<path d="M178.588 266.692C210.205 271.53 251.2 274.787 283.31 277.017C284.606 277.107 284.604 275.092 283.31 275.004C248.337 272.735 209.95 268.811 178.743 265.082C177.887 264.984 177.673 266.551 178.588 266.692Z" fill="#4B187A"/>
<path d="M299.922 45.1644C299.747 36.9774 299.013 22.3544 289.001 20.4966C288.18 20.3418 287.815 21.6763 288.586 21.9101C297.325 24.5638 297.533 37.6664 298.009 45.3796C298.015 45.4066 298.015 45.4347 298.009 45.4617C298.804 128.248 301.473 191.855 300.861 272.943C300.788 282.45 296.488 291.399 289.525 293.643C288.834 293.864 288.955 295.151 289.822 295.021C298.956 293.65 303.237 281.154 303.224 272.967C303.11 196.735 301.645 126.072 299.922 45.1644Z" fill="#4B187A"/>
<path d="M223.409 28.0162C218.964 28.8461 219.848 36.6863 223.98 36.2389C228.507 35.7434 228.388 27.0873 223.409 28.0162ZM223.622 29.9298C225.453 29.4917 226.075 33.2415 223.885 34.0883C222.177 34.7495 222.031 30.3107 223.622 29.9298Z" fill="#4B187A"/>
<path d="M176.354 48.8474C209.351 45.1317 244.076 40.0907 277.463 35.7758C278.864 35.5947 278.857 33.3977 277.463 33.5773C243.912 37.9278 206.494 42.5461 176.092 46.9338C175.011 47.0902 175.273 48.9682 176.354 48.8474Z" fill="#4B187A"/>
<path d="M288.835 44.5094C288.703 27.256 289.441 11.4842 266.555 14.994C241.387 18.8522 215.399 23.8189 190.293 26.9835C168.63 29.7084 169.816 44.4273 169.926 63.249C170.064 86.7527 170.235 109.68 170.531 134.735C170.542 135.602 172.079 135.531 172.064 134.735C171.664 108.914 171.953 83.6439 171.934 58.6137C171.921 41.913 172.359 31.5399 190.685 28.9079C216.286 25.2293 241.839 20.8897 267.422 17.0253C284.248 14.4831 286.711 24.3097 286.839 39.4591C287.495 116.994 289.048 194.517 289.964 272.05C290.165 289.125 286.482 296.645 268.255 294.128C242.434 290.567 214.191 289.531 189.164 285.168C173.717 282.476 173.696 270.909 173.716 258.409C173.764 229.522 173.069 197.905 172.529 168.446C172.511 167.496 171.089 167.638 171.09 168.541C171.149 197.689 171.345 229.771 171.662 259.455C171.801 272.615 172.849 284.572 188.986 287.153C215.128 291.334 241.745 293.097 268.598 296.184C286.078 298.197 292.441 291.182 292.287 273.084C291.611 196.82 289.421 120.665 288.835 44.5094Z" fill="#4B187A"/>
<path d="M265.439 85.3977C262.29 85.2429 253.663 86.9787 250.657 87.6443C250.164 97.7984 251.161 107.97 253.615 117.835C253.832 118.57 252.579 118.774 252.332 118.096C249.877 111.377 248.862 101.281 248.506 94.0446C245.819 92.3937 242.856 91.2399 239.76 90.6387C236.837 92.1588 228.317 100.834 224.86 102.034C222.756 100.524 221.299 98.8721 219.286 93.4783C205.8 97.3752 195.414 117.599 190.91 123.684C186.407 129.769 177.97 136.844 164.9 146.961C168.01 151.25 170.417 156.005 172.03 161.05C183.454 156.672 194.073 150.432 203.459 142.585C204.021 132.861 205.322 123.194 207.35 113.667C207.557 112.715 208.743 112.907 208.539 113.845C205.199 134.758 204.617 147.473 206.836 168.446C221.297 172.735 247.864 172.936 261.246 167.079C261.424 158.857 261.531 151.869 261.508 147.948C254.83 145.381 247.235 131.426 244.135 125.372C243.801 124.718 244.708 124.097 245.109 124.718C248.458 129.884 256.695 144.41 262.494 146.035C267.425 147.416 272.912 143.73 273.961 136.886C275.097 129.532 268.741 91.2207 265.439 85.3977Z" fill="#F56B0C"/>
<path d="M123.679 126.601C119.963 120.349 107.351 90.2749 90.0386 87.6489C82.9172 91.024 73.4869 91.4767 70.2309 87.0669C58.2058 89.6525 51.8302 102.817 49.2757 113.691C49.0604 114.605 47.8373 114.451 48.0866 113.525C48.7955 109.827 49.891 106.214 51.3549 102.746C50.974 101.403 50.4864 99.5738 49.7742 96.6629C47.297 95.985 37.5107 96.8889 33.7919 97.6722C32.2173 123.814 38.5387 140.674 42.3536 145.749C43.9637 147.892 48.2956 149.018 51.7048 148.691C51.8593 134.088 53.8193 119.56 57.5401 105.438C57.5748 105.296 57.6643 105.174 57.789 105.099C57.9137 105.023 58.0633 105 58.205 105.035C58.3467 105.07 58.4688 105.159 58.5444 105.284C58.62 105.409 58.6431 105.558 58.6083 105.7C53.6989 125.799 52.6678 145.954 53.8553 166.497C66.286 172.581 92.0346 174.613 112.877 168.124C111.867 160.877 111 154.757 110.5 151.145C98.4843 141.855 95.0941 139.034 88.2322 123.244C87.8871 122.448 88.8622 121.925 89.2662 122.709C92.8269 129.615 96.3725 136.816 102.338 141.888C113.536 151.897 126.69 159.472 140.968 164.133C142.308 158.263 145.048 152.804 148.953 148.222C146.16 146.321 126.199 130.848 123.679 126.601Z" fill="#F56B0C"/>
<path d="M196.601 226.266C179.668 226.266 182.343 259.327 197.53 260.31C214.806 261.429 212.001 226.266 196.601 226.266ZM194.475 234.917C195.373 232.365 198.372 232.339 199.228 235.202C199.703 236.794 199.917 242.856 199.097 244.483C198.855 244.844 198.525 245.137 198.137 245.334C197.749 245.53 197.317 245.622 196.883 245.602C196.449 245.582 196.027 245.45 195.659 245.218C195.291 244.987 194.989 244.664 194.783 244.281C193.843 242.592 193.778 236.892 194.475 234.917ZM197.635 250.484C197.706 251.861 197.635 253.18 197.826 254.63C198.016 256.079 196.186 255.925 195.967 254.809C195.784 253.335 195.725 251.848 195.789 250.365C190.727 249.355 190.161 243.088 190.632 239.433C190.716 238.779 191.951 238.684 191.987 239.433C192.163 243.148 191.761 247.751 196.62 248.412C201.481 249.073 201.629 242.389 201.564 239.132C201.54 237.873 203.048 237.945 203.113 239.132C203.323 243.438 203.374 250.031 197.635 250.484Z" fill="#F56B0C"/>
<path d="M226.687 227.989C208.863 228.553 210.959 260.606 226.189 262.379C245.419 264.616 243.834 227.449 226.687 227.989ZM226.961 250.674C225.856 251.482 219.547 250.387 218.845 249.545C217.788 248.273 217.776 241.618 218.667 240.823C219.559 240.027 227.077 241.251 227.566 242.296C227.964 243.143 227.877 250.037 226.938 250.72L226.961 250.674ZM233.603 253.168C232.284 253.168 229.089 247.311 229.076 246.478C229.064 245.645 233.211 240.632 234.34 241.001C235.184 241.334 234.614 253.18 233.58 253.216L233.603 253.168Z" fill="#F56B0C"/>
<path d="M257.584 229.95C240.329 229.216 239.841 264.38 258.283 264.629C275.668 264.857 276.322 230.748 257.584 229.95ZM267.41 247.25C267.66 248.059 267.492 250.936 266.46 251.683C264.486 252.367 262.325 252.27 260.422 251.411C259.901 250.956 260.112 248.488 260.147 248.095C260.353 246.173 253.613 246.336 253.815 247.94C254.018 249.544 253.908 250.767 253.447 251.078C252.779 251.527 249.286 251.719 248.372 250.732C247.786 249.359 247.674 247.829 248.051 246.383C251.259 240.515 265.733 241.547 267.432 247.25H267.41Z" fill="#F56B0C"/>
<path d="M148.084 16.0576C147.338 15.5436 146.423 16.6614 147.075 17.2467C148.688 18.6958 156.938 25.9678 158.958 26.7527C159.103 26.7897 159.255 26.7841 159.396 26.7365C159.538 26.6889 159.662 26.6015 159.755 26.4847C159.848 26.3678 159.905 26.2266 159.92 26.0781C159.935 25.9295 159.906 25.7799 159.837 25.6473C158.696 23.8932 149.837 17.2683 148.084 16.0576Z" fill="#F56B0C"/>
<path d="M171.275 18.6895C171.398 17.5035 168.77 10.0551 168.281 8.61368C168.199 8.45468 168.067 8.32684 167.906 8.24926C167.744 8.17175 167.562 8.14867 167.386 8.18359C167.21 8.21852 167.051 8.30952 166.932 8.44291C166.812 8.5763 166.739 8.74488 166.724 8.92333C166.737 10.7889 168.625 17.9541 169.956 19.1416C170.059 19.2451 170.188 19.3177 170.33 19.351C170.472 19.3842 170.62 19.3768 170.757 19.3296C170.896 19.2824 171.017 19.1973 171.109 19.0841C171.201 18.9708 171.258 18.8341 171.275 18.6895Z" fill="#F56B0C"/>
<path d="M154.204 39.6619C153.183 39.103 144.414 40.018 142.988 40.3989C142.818 40.4558 142.671 40.5668 142.57 40.715C142.469 40.8633 142.419 41.0405 142.429 41.2197C142.438 41.3988 142.506 41.5699 142.621 41.7069C142.738 41.8439 142.895 41.9391 143.07 41.978C144.069 42.0864 153.206 41.8712 154.263 41.0631C154.381 40.9851 154.477 40.8782 154.541 40.7525C154.605 40.6269 154.636 40.4868 154.63 40.3459C154.624 40.2049 154.582 40.0679 154.507 39.9481C154.432 39.8283 154.328 39.7297 154.204 39.6619Z" fill="#F56B0C"/>
</svg>
