<svg width="23" height="26" viewBox="0 0 23 26" fill="none" xmlns="http://www.w3.org/2000/svg">
<path d="M11.093 12.7935L0.793457 23.7241C1.10902 24.9162 2.19595 25.7928 3.48449 25.7928C4.00166 25.7928 4.48376 25.6526 4.89574 25.4071L4.93081 25.3896L16.5277 18.7015L11.1018 12.7935H11.093Z" fill="#EA4335"/>
<path d="M21.5066 10.9263H21.4979L16.4927 8.01611L10.8564 13.0388L16.519 18.6926L21.4979 15.8175C22.3744 15.3441 22.9617 14.4237 22.9617 13.3631C22.9617 12.3025 22.3744 11.3909 21.5154 10.9175L21.5066 10.9263Z" fill="#FBBC04"/>
<path d="M0.784898 2.97607C0.723539 3.20398 0.688477 3.44065 0.688477 3.69485V23.0142C0.688477 23.2596 0.723539 23.505 0.784898 23.7329L11.4351 13.0828L0.784898 2.97607Z" fill="#4285F4"/>
<path d="M11.1631 13.3544L16.4926 8.0249L4.91325 1.31047C4.4925 1.05627 4.00163 0.916016 3.4757 0.916016C2.18716 0.916016 1.10023 1.79257 0.784668 2.98469L11.1631 13.3631V13.3544Z" fill="#34A853"/>
</svg>
