<svg width="57" height="57" viewBox="0 0 57 57" fill="none" xmlns="http://www.w3.org/2000/svg">
<path d="M14.9626 42.9611L24.5444 28.695L14.9626 14.4288V42.9611ZM19.1147 49.136H38.1717L28.59 34.8699L19.1147 49.136ZM32.7421 28.695L42.2174 42.9611V14.4288L32.7421 28.695ZM38.1717 8.25389H19.1147L28.59 22.52L38.1717 8.25389ZM8.14893 6.55047C8.2199 5.13095 8.71673 3.92436 9.63942 2.9307C10.6331 2.00801 11.8397 1.51118 13.2592 1.4402H43.9208C45.3403 1.51118 46.5469 2.00801 47.5406 2.9307C48.4632 3.92436 48.9601 5.13095 49.0311 6.55047V50.8394C48.9601 52.259 48.4632 53.4655 47.5406 54.4592C46.5469 55.3819 45.3403 55.8787 43.9208 55.9497H13.2592C11.8397 55.8787 10.6331 55.3819 9.63942 54.4592C8.71673 53.4655 8.2199 52.259 8.14893 50.8394V6.55047Z" fill="#F56B0C"/>
</svg>
