<svg width="76" height="61" viewBox="0 0 76 61" fill="none" xmlns="http://www.w3.org/2000/svg">
<path d="M23.0792 45.8152L33.3453 30.53L23.0792 15.2449V45.8152ZM27.5279 52.4312H47.9461L37.6799 37.146L27.5279 52.4312ZM42.1286 30.53L52.2807 45.8152V15.2449L42.1286 30.53ZM47.9461 8.62891H27.5279L37.6799 23.9141L47.9461 8.62891ZM15.7788 6.80381C15.8549 5.2829 16.3872 3.99012 17.3758 2.92548C18.4404 1.93689 19.7332 1.40457 21.2541 1.32853H54.1058C55.6267 1.40457 56.9195 1.93689 57.9841 2.92548C58.9727 3.99012 59.505 5.2829 59.5811 6.80381V54.2563C59.505 55.7772 58.9727 57.07 57.9841 58.1346C56.9195 59.1232 55.6267 59.6555 54.1058 59.7316H21.2541C19.7332 59.6555 18.4404 59.1232 17.3758 58.1346C16.3872 57.07 15.8549 55.7772 15.7788 54.2563V6.80381Z" fill="#F56B0C"/>
</svg>
