<svg width="38" height="31" viewBox="0 0 38 31" fill="none" xmlns="http://www.w3.org/2000/svg">
<g clip-path="url(#clip0_940_1431)">
<path d="M0.749023 4.55949C0.787046 3.53287 1.14826 2.67736 1.83267 1.99295C2.51708 1.30854 3.3726 0.947321 4.39921 0.909298H20.8251C21.8517 0.947321 22.7072 1.30854 23.3916 1.99295C24.076 2.67736 24.4372 3.53287 24.4753 4.55949V15.5101C24.4372 16.5367 24.076 17.3922 23.3916 18.0766C22.7072 18.761 21.8517 19.1222 20.8251 19.1602H12.327L7.7072 22.6393C7.40302 22.8295 7.07982 22.8485 6.73762 22.6964C6.39541 22.5443 6.22431 22.2781 6.22431 21.8979V19.1602H4.39921C3.3726 19.1222 2.51708 18.761 1.83267 18.0766C1.14826 17.3922 0.787046 16.5367 0.749023 15.5101V4.55949ZM15.3498 20.9853H20.8251C22.384 20.9473 23.6768 20.415 24.7034 19.3884C25.73 18.3618 26.2623 17.069 26.3004 15.5101V8.20968H33.6007C34.6273 8.2477 35.4829 8.60892 36.1673 9.29333C36.8517 9.97774 37.2129 10.8333 37.2509 11.8599V22.8104C37.2129 23.8371 36.8517 24.6926 36.1673 25.377C35.4829 26.0614 34.6273 26.4226 33.6007 26.4606H31.7756V29.1983C31.7756 29.5785 31.6045 29.8447 31.2623 29.9968C30.9201 30.1488 30.5969 30.1298 30.2927 29.9397L25.673 26.4606H19C17.9734 26.4226 17.1178 26.0614 16.4334 25.377C15.749 24.6926 15.3878 23.8371 15.3498 22.8104V20.9853ZM13.7528 4.10321C13.6768 3.4188 13.2966 3.03858 12.6121 2.96253C11.9277 3.03858 11.5475 3.4188 11.4715 4.10321V4.90169C11.0152 4.97774 10.5969 5.14884 10.2167 5.415C9.30416 5.87128 8.80986 6.68877 8.73381 7.86747C8.84788 9.00816 9.32317 9.78763 10.1597 10.2059C10.8441 10.5861 11.5095 10.8523 12.1559 11.0044L12.2699 11.0614C12.9924 11.2515 13.5247 11.4416 13.8669 11.6317C14.1331 11.8218 14.2471 11.9929 14.2091 12.145C14.2091 12.4112 14.095 12.6013 13.8669 12.7154C13.5627 12.9055 13.1635 13.0006 12.6692 13.0006C12.0608 12.9625 11.3954 12.7914 10.673 12.4872C10.5209 12.4492 10.3688 12.4112 10.2167 12.3732C9.53229 12.2211 9.05701 12.4492 8.79085 13.0576C8.63876 13.742 8.88591 14.2363 9.53229 14.5405C9.64636 14.5785 9.76043 14.6165 9.8745 14.6545C10.3308 14.8447 10.8631 14.9968 11.4715 15.1108V15.9663C11.5475 16.6507 11.9277 17.031 12.6121 17.107C13.2966 17.031 13.6768 16.6507 13.7528 15.9663V15.1679C14.2091 15.0918 14.6464 14.9207 15.0646 14.6545C15.9391 14.1602 16.4144 13.3047 16.4905 12.088C16.3764 10.9473 15.9011 10.1679 15.0646 9.7496C14.3802 9.33135 13.6768 9.04618 12.9543 8.89409L12.8973 8.83705C12.2129 8.64694 11.6806 8.45683 11.3004 8.26671C11.0722 8.11462 10.9772 7.98154 11.0152 7.86747C10.9772 7.67736 11.0912 7.50626 11.3574 7.35417C11.6996 7.16405 12.1178 7.06899 12.6121 7.06899C13.1445 7.06899 13.7338 7.16405 14.3802 7.35417C15.0646 7.46823 15.5209 7.20207 15.749 6.55569C15.8631 5.87128 15.5969 5.39599 14.9505 5.12983C14.5703 5.05378 14.1711 4.97774 13.7528 4.90169V4.10321Z" fill="#F56B0C"/>
</g>
<defs>
<clipPath id="clip0_940_1431">
<rect width="37.5" height="30" fill="white" transform="matrix(1 0 0 -1 0.25 30.51)"/>
</clipPath>
</defs>
</svg>
