<svg width="54" height="61" viewBox="0 0 54 61" fill="none" xmlns="http://www.w3.org/2000/svg">
<path d="M12.3892 45.8152L22.6554 30.53L12.3892 15.2449V45.8152ZM16.8379 52.4312H37.2562L26.99 37.146L16.8379 52.4312ZM31.4387 30.53L41.5908 45.8152V15.2449L31.4387 30.53ZM37.2562 8.62891H16.8379L26.99 23.9141L37.2562 8.62891ZM5.08887 6.80381C5.16491 5.2829 5.69723 3.99012 6.68583 2.92548C7.75046 1.93689 9.04324 1.40457 10.5642 1.32853H43.4159C44.9368 1.40457 46.2296 1.93689 47.2942 2.92548C48.2828 3.99012 48.8151 5.2829 48.8911 6.80381V54.2563C48.8151 55.7772 48.2828 57.07 47.2942 58.1346C46.2296 59.1232 44.9368 59.6555 43.4159 59.7316H10.5642C9.04324 59.6555 7.75046 59.1232 6.68583 58.1346C5.69723 57.07 5.16491 55.7772 5.08887 54.2563V6.80381Z" fill="#F56B0C"/>
</svg>
