<svg width="22" height="23" viewBox="0 0 22 23" fill="none" xmlns="http://www.w3.org/2000/svg">
<g clip-path="url(#clip0_940_1222)">
<path d="M5.64653 16.6545L9.41079 11.05L5.64653 5.44542V16.6545ZM7.27771 19.0804H14.7644L11.0001 13.4758L7.27771 19.0804ZM12.6313 11.05L16.3538 16.6545V5.44542L12.6313 11.05ZM14.7644 3.01956H7.27771L11.0001 8.62412L14.7644 3.01956ZM2.96973 2.35036C2.99761 1.79269 3.19279 1.31867 3.55528 0.928306C3.94565 0.565822 4.41966 0.370638 4.97733 0.342754H17.023C17.5806 0.370638 18.0546 0.565822 18.445 0.928306C18.8075 1.31867 19.0027 1.79269 19.0306 2.35036V19.7496C19.0027 20.3073 18.8075 20.7813 18.445 21.1717C18.0546 21.5341 17.5806 21.7293 17.023 21.7572H4.97733C4.41966 21.7293 3.94565 21.5341 3.55528 21.1717C3.19279 20.7813 2.99761 20.3073 2.96973 19.7496V2.35036Z" fill="#F56B0C"/>
</g>
<defs>
<clipPath id="clip0_940_1222">
<rect width="22" height="22" fill="white" transform="matrix(1 0 0 -1 0 22.05)"/>
</clipPath>
</defs>
</svg>
