<svg width="43" height="57" viewBox="0 0 43 57" fill="none" xmlns="http://www.w3.org/2000/svg">
<g clip-path="url(#clip0_940_1603)">
<path d="M7.67257 42.766L17.2543 28.4999L7.67257 14.2337V42.766ZM11.8247 48.941H30.8817L21.3 34.6748L11.8247 48.941ZM25.452 28.4999L34.9273 42.766V14.2337L25.452 28.4999ZM30.8817 8.05882H11.8247L21.3 22.325L30.8817 8.05882ZM0.858887 6.3554C0.929863 4.93588 1.42669 3.72929 2.34938 2.73563C3.34304 1.81294 4.54963 1.31611 5.96915 1.24513H36.6308C38.0503 1.31611 39.2569 1.81294 40.2505 2.73563C41.1732 3.72929 41.67 4.93588 41.741 6.3554V50.6444C41.67 52.0639 41.1732 53.2705 40.2505 54.2641C39.2569 55.1868 38.0503 55.6837 36.6308 55.7546H5.96915C4.54963 55.6837 3.34304 55.1868 2.34938 54.2641C1.42669 53.2705 0.929863 52.0639 0.858887 50.6444V6.3554Z" fill="#F56B0C"/>
</g>
<defs>
<clipPath id="clip0_940_1603">
<rect width="42" height="56" fill="white" transform="matrix(1 0 0 -1 0.299805 56.5)"/>
</clipPath>
</defs>
</svg>
