<svg width="32" height="33" viewBox="0 0 32 33" fill="none" xmlns="http://www.w3.org/2000/svg">
<path d="M0.941406 16.55C0.941406 11.1971 3.76494 6.25592 8.47082 3.55004C13.1179 0.844159 18.8238 0.844159 23.5296 3.55004C28.1767 6.25592 31.0591 11.1971 31.0591 16.55C31.0591 21.9618 28.1767 26.903 23.5296 29.6089C18.8238 32.3147 13.1179 32.3147 8.47082 29.6089C3.76494 26.903 0.941406 21.9618 0.941406 16.55ZM16.7061 9.25592C16.2355 8.96181 15.7061 8.96181 15.2943 9.25592L12.0002 11.1383C11.2943 11.4912 11.0591 12.3736 11.4708 13.0206C11.8238 13.7265 12.7061 13.9618 13.3532 13.55L14.5885 12.903V21.2559H12.2355C11.412 21.2559 10.8238 21.903 10.8238 22.6677C10.8238 23.4912 11.412 24.0795 12.2355 24.0795H16.0002H19.7649C20.5296 24.0795 21.1767 23.4912 21.1767 22.6677C21.1767 21.903 20.5296 21.2559 19.7649 21.2559H17.412V10.4324C17.412 9.96181 17.1179 9.49122 16.7061 9.25592Z" fill="#414042"/>
</svg>
