<svg width="69" height="69" viewBox="0 0 69 69" fill="none" xmlns="http://www.w3.org/2000/svg">
<path d="M36.1394 6.49503L65.8894 23.0228C67.4388 23.9525 68.0587 26.0185 67.129 27.5679C66.3026 29.1174 64.2366 29.7372 62.6871 28.8075L34.5899 13.2095L6.38939 28.8075C4.83991 29.7372 2.77394 29.1174 1.94755 27.5679C1.01786 26.0185 1.63766 23.9525 3.18714 23.1261L32.9371 6.49503C33.9702 5.97854 35.1064 5.97854 36.1394 6.49503ZM34.5899 22.6096C36.036 22.6096 37.379 23.436 38.1021 24.6756C38.8252 26.0185 38.8252 27.5679 38.1021 28.8075C37.379 30.1504 36.036 30.8735 34.5899 30.8735C33.0405 30.8735 31.6976 30.1504 30.9745 28.8075C30.2513 27.5679 30.2513 26.0185 30.9745 24.6756C31.6976 23.436 33.0405 22.6096 34.5899 22.6096ZM16.4094 32.5263C17.8555 32.5263 19.1984 33.3527 19.9216 34.5922C20.6446 35.9352 20.6446 37.4846 19.9216 38.7242C19.1984 40.0671 17.8555 40.7902 16.4094 40.7902C14.8599 40.7902 13.517 40.0671 12.7939 38.7242C12.0708 37.4846 12.0708 35.9352 12.7939 34.5922C13.517 33.3527 14.8599 32.5263 16.4094 32.5263ZM48.6385 36.6582C48.6385 35.2121 49.3616 33.8692 50.7045 33.1461C51.9441 32.423 53.4935 32.423 54.8364 33.1461C56.076 33.8692 56.9024 35.2121 56.9024 36.6582C56.9024 38.2077 56.076 39.5506 54.8364 40.2736C53.4935 40.9968 51.9441 40.9968 50.7045 40.2736C49.3616 39.5506 48.6385 38.2077 48.6385 36.6582ZM24.8799 56.9047L22.1941 51.7399V55.6652C22.1941 57.5246 20.6446 58.9707 18.8885 58.9707H13.9302C12.0708 58.9707 10.6246 57.5246 10.6246 55.6652V51.7399L7.83558 56.9047C7.11248 58.1443 5.6663 58.5575 4.42672 57.9378C3.18714 57.2146 2.77394 55.7685 3.39373 54.5289L7.31908 47.298C8.97186 44.3024 11.9675 42.5463 15.3763 42.5463H17.3391C19.0952 42.5463 20.6446 42.9595 22.0908 43.7858L25.4996 37.3813C27.1524 34.3857 30.1481 32.6296 33.5569 32.6296H35.5196C38.9285 32.6296 41.9241 34.3857 43.5769 37.3813L46.9857 43.7858C48.4319 42.9595 49.9814 42.5463 51.7374 42.5463H53.7002C57.1091 42.5463 60.1047 44.3024 61.7574 47.298L65.6828 54.5289C66.3026 55.7685 65.8894 57.2146 64.6498 57.9378C63.4102 58.5575 61.9641 58.1443 61.241 56.9047L58.5552 51.7399V55.6652C58.5552 57.5246 57.0057 58.9707 55.2496 58.9707H50.2913C48.4319 58.9707 46.9857 57.5246 46.9857 55.6652V51.7399L44.1967 56.9047C43.4736 58.1443 42.0274 58.5575 40.7878 57.9378C39.5482 57.2146 39.1351 55.7685 39.7549 54.5289L43.5769 47.6079C43.3703 47.4013 43.1637 47.1947 43.0604 46.9881L40.3746 41.8232V47.4013C40.3746 49.2607 38.8252 50.7068 37.0691 50.7068H32.1107C30.2513 50.7068 28.8052 49.2607 28.8052 47.4013V41.8232L26.0162 46.9881C25.8095 47.1947 25.7063 47.4013 25.4996 47.6079L29.3217 54.5289C29.9415 55.7685 29.5283 57.2146 28.2887 57.9378C27.0491 58.5575 25.603 58.1443 24.8799 56.9047Z" fill="#F56B0C"/>
<path d="M32.9371 6.49503C33.9702 5.97854 35.1064 5.97854 36.1394 6.49503L65.8894 23.0228C67.5421 23.9525 68.0587 26.0185 67.2323 27.5679C66.3026 29.1174 64.2366 29.7372 62.6871 28.8075L34.5899 13.2095L6.38939 28.8075C4.83991 29.7372 2.77394 29.1174 1.94755 27.5679C1.01786 26.0185 1.63766 23.9525 3.18714 23.1261L32.9371 6.49503Z" fill="#F56B0C"/>
</svg>
