<svg width="33" height="33" viewBox="0 0 33 33" fill="none" xmlns="http://www.w3.org/2000/svg">
<path d="M16.8124 31.1787C11.5553 31.1787 6.75527 28.4358 4.1267 23.8644C1.49813 19.3501 1.49813 13.8072 4.1267 9.23579C6.75527 4.72151 11.5553 1.92151 16.8124 1.92151C22.0124 1.92151 26.8124 4.72151 29.441 9.23579C32.0696 13.8072 32.0696 19.3501 29.441 23.8644C26.8124 28.4358 22.0124 31.1787 16.8124 31.1787ZM12.6981 9.23579C11.8981 9.23579 11.3267 9.86437 11.3267 10.6072C11.3267 11.4072 11.8981 11.9787 12.6981 11.9787H16.4696L13.5553 14.6644C13.1553 15.0072 12.9838 15.6358 13.2124 16.1501C13.441 16.6644 13.9553 17.0072 14.5267 17.0072H17.441C18.5838 17.0072 19.4981 17.9215 19.4981 19.0644C19.4981 20.2072 18.5838 21.1215 17.441 21.1215H15.841C15.0981 21.1215 14.4124 20.7787 13.9553 20.0929L13.841 19.8644C13.441 19.2358 12.5838 19.0072 11.9553 19.4072C11.3267 19.8072 11.0981 20.6644 11.4981 21.2929L11.6696 21.5215C12.5267 23.0072 14.1267 23.8644 15.8981 23.8644H17.441C20.1267 23.8644 22.2981 21.7501 22.2981 19.0644C22.2981 16.6072 20.4124 14.5501 18.0124 14.3215L20.9267 11.6358C21.3267 11.2358 21.4981 10.6644 21.2696 10.1501C21.041 9.63579 20.5267 9.23579 20.0124 9.23579H12.6981Z" fill="#414042"/>
</svg>
