<svg width="29" height="29" viewBox="0 0 29 29" fill="none" xmlns="http://www.w3.org/2000/svg">
<g clip-path="url(#clip0_940_1235)">
<path d="M6.5127 3.29999C7.71582 3.29999 8.83301 3.98749 9.47754 5.01874C10.0791 6.09296 10.0791 7.42499 9.47754 8.45624C8.83301 9.53046 7.71582 10.175 6.5127 10.175C5.26661 10.175 4.14942 9.53046 3.50489 8.45624C2.90332 7.42499 2.90332 6.09296 3.50489 5.01874C4.14942 3.98749 5.26661 3.29999 6.5127 3.29999ZM22.3252 3.29999C23.5283 3.29999 24.6455 3.98749 25.29 5.01874C25.8916 6.09296 25.8916 7.42499 25.29 8.45624C24.6455 9.53046 23.5283 10.175 22.3252 10.175C21.0791 10.175 19.9619 9.53046 19.3174 8.45624C18.7158 7.42499 18.7158 6.09296 19.3174 5.01874C19.9619 3.98749 21.0791 3.29999 22.3252 3.29999ZM0.325195 16.1477C0.325195 13.6125 2.34473 11.55 4.87989 11.55H6.72754C7.41504 11.55 8.05958 11.7219 8.66114 11.9797C8.5752 12.2805 8.5752 12.6242 8.5752 12.925C8.5752 14.6008 9.2627 16.0617 10.4229 17.05C10.4229 17.05 10.4229 17.05 10.3799 17.05H1.22754C0.711914 17.05 0.325195 16.6633 0.325195 16.1477ZM17.7275 17.05H17.6846C18.8447 16.0617 19.5322 14.6008 19.5322 12.925C19.5322 12.6242 19.5322 12.2805 19.4893 11.9797C20.0479 11.7219 20.6924 11.55 21.3799 11.55H23.2275C25.7627 11.55 27.8252 13.6125 27.8252 16.1477C27.8252 16.6633 27.3955 17.05 26.8799 17.05H17.7275ZM9.9502 12.925C9.9502 11.464 10.7236 10.132 12.0127 9.35858C13.2588 8.62811 14.8486 8.62811 16.1377 9.35858C17.3838 10.132 18.2002 11.464 18.2002 12.925C18.2002 14.4289 17.3838 15.7609 16.1377 16.5344C14.8486 17.2648 13.2588 17.2648 12.0127 16.5344C10.7236 15.7609 9.9502 14.4289 9.9502 12.925ZM5.8252 24.1828C5.8252 21.0031 8.36036 18.425 11.54 18.425H16.5674C19.7471 18.425 22.3252 21.0031 22.3252 24.1828C22.3252 24.7844 21.8096 25.3 21.165 25.3H6.94239C6.34082 25.3 5.8252 24.8273 5.8252 24.1828Z" fill="#F56B0C"/>
</g>
<defs>
<clipPath id="clip0_940_1235">
<rect width="28" height="28" fill="white" transform="translate(0.325195 0.549988)"/>
</clipPath>
</defs>
</svg>
