<svg width="83" height="17" viewBox="0 0 83 17" fill="none" xmlns="http://www.w3.org/2000/svg">
<path d="M26.9634 5.04591C24.6844 5.04591 22.8348 6.77273 22.8348 9.15697C22.8348 11.5412 24.6931 13.268 26.9634 13.268C29.2337 13.268 31.092 11.5237 31.092 9.15697C31.092 6.79026 29.2337 5.04591 26.9634 5.04591ZM26.9634 11.6552C25.7187 11.6552 24.6406 10.6296 24.6406 9.16573C24.6406 7.70188 25.7187 6.67631 26.9634 6.67631C28.2081 6.67631 29.2863 7.69312 29.2863 9.16573C29.2863 10.6383 28.2081 11.6552 26.9634 11.6552ZM17.9524 5.04591C15.6734 5.04591 13.8238 6.77273 13.8238 9.15697C13.8238 11.5412 15.6821 13.268 17.9524 13.268C20.2227 13.268 22.081 11.5237 22.081 9.15697C22.081 6.79026 20.2227 5.04591 17.9524 5.04591ZM17.9524 11.6552C16.7077 11.6552 15.6295 10.6296 15.6295 9.16573C15.6295 7.70188 16.7077 6.67631 17.9524 6.67631C19.1971 6.67631 20.2753 7.69312 20.2753 9.16573C20.2753 10.6383 19.1971 11.6552 17.9524 11.6552ZM7.23213 6.30816V8.05251H11.4133C11.2906 9.03425 10.9575 9.75303 10.4666 10.2527C9.8618 10.8575 8.90635 11.5324 7.24089 11.5324C4.67258 11.5324 2.6565 9.46376 2.6565 6.88669C2.6565 4.30961 4.66382 2.24093 7.24089 2.24093C8.62585 2.24093 9.64266 2.7844 10.3877 3.48564L11.6149 2.25846C10.5718 1.25919 9.18685 0.496582 7.23213 0.496582C3.70837 0.496582 0.745605 3.36292 0.745605 6.88669C0.745605 10.4104 3.70837 13.2768 7.23213 13.2768C9.13426 13.2768 10.5718 12.6544 11.6938 11.4886C12.8509 10.3316 13.2015 8.70992 13.2015 7.40385C13.2015 7.00064 13.1664 6.62372 13.1051 6.31692H7.23213V6.30816ZM51.0687 7.66682C50.7269 6.74644 49.6838 5.04591 47.545 5.04591C45.4062 5.04591 43.6618 6.71137 43.6618 9.15697C43.6618 11.4623 45.4062 13.268 47.7466 13.268C49.6312 13.268 50.7269 12.111 51.1739 11.4448L49.7714 10.5069C49.3069 11.1906 48.667 11.6464 47.7466 11.6464C46.8262 11.6464 46.1688 11.2256 45.748 10.4017L51.2528 8.12263L51.0687 7.65805V7.66682ZM45.4588 9.03425C45.415 7.44768 46.686 6.63248 47.6064 6.63248C48.3251 6.63248 48.93 6.99187 49.1316 7.50904L45.45 9.03425H45.4588ZM40.9883 13.0226H42.7941V0.926095H40.9883V13.0226ZM38.0256 5.9663H37.9642C37.561 5.48419 36.7809 5.04591 35.7991 5.04591C33.7392 5.04591 31.8546 6.85162 31.8546 9.1745C31.8546 11.4974 33.7392 13.2768 35.7991 13.2768C36.7809 13.2768 37.561 12.8385 37.9642 12.3389H38.0256V12.9349C38.0256 14.5127 37.1841 15.3542 35.8254 15.3542C34.721 15.3542 34.0372 14.5566 33.7567 13.8904L32.1789 14.5478C32.6348 15.6347 33.8269 16.9759 35.8254 16.9759C37.9467 16.9759 39.7349 15.7311 39.7349 12.6895V5.30012H38.0168V5.9663H38.0256ZM35.9569 11.6552C34.7122 11.6552 33.6691 10.6121 33.6691 9.1745C33.6691 7.73694 34.7122 6.66755 35.9569 6.66755C37.2016 6.66755 38.1571 7.72818 38.1571 9.1745C38.1571 10.6208 37.1929 11.6552 35.9569 11.6552ZM59.5451 0.934861H55.2236V13.0313H57.0293V8.44696H59.5538C61.5524 8.44696 63.5246 7.00064 63.5246 4.68653C63.5246 2.37242 61.5611 0.926095 59.5538 0.926095L59.5451 0.934861ZM59.5889 6.76397H57.0206V2.61785H59.5889C60.9388 2.61785 61.7014 3.73108 61.7014 4.68653C61.7014 5.64197 60.9388 6.7552 59.5889 6.7552V6.76397ZM70.7475 5.02838C69.4414 5.02838 68.0827 5.60691 67.5305 6.87792L69.1346 7.5441C69.4765 6.87792 70.1163 6.65878 70.7825 6.65878C71.7204 6.65878 72.6671 7.21978 72.6847 8.21905V8.34177C72.3603 8.15769 71.6591 7.87719 70.8001 7.87719C69.0732 7.87719 67.3114 8.82388 67.3114 10.6033C67.3114 12.2249 68.7314 13.268 70.318 13.268C71.5276 13.268 72.2025 12.7246 72.6233 12.0847H72.6847V13.0226H74.429V8.3856C74.429 6.23803 72.8249 5.03715 70.7562 5.03715L70.7475 5.02838ZM70.5283 11.6552C69.941 11.6552 69.1083 11.3571 69.1083 10.6296C69.1083 9.69167 70.1339 9.34104 71.0192 9.34104C71.8169 9.34104 72.185 9.51636 72.6671 9.74426C72.5269 10.8663 71.5627 11.6552 70.5196 11.6552H70.5283ZM80.7665 5.29135L78.6978 10.5332H78.6365L76.4889 5.29135H74.5429L77.7599 12.6194L75.9279 16.6954H77.8125L82.7738 5.29135H80.7665ZM64.5064 13.0313H66.3121V0.934861H64.5064V13.0313Z" fill="white"/>
</svg>
