<svg width="54" height="54" viewBox="0 0 54 54" fill="none" xmlns="http://www.w3.org/2000/svg">
<path d="M46.407 42.2059C42.3317 47.2124 36.5258 50.5069 30.138 51.4379C26.2053 51.933 22.2114 51.4768 18.4917 50.1076C14.772 48.7385 11.4352 46.4965 8.76197 43.57C4.65822 39.1474 2.33058 33.3662 2.22499 27.3339C4.42399 -17.7131 72.041 5.59295 46.407 42.2059Z" fill="#8A9EDD"/>
<path d="M23.0339 13.128C22.5274 12.8305 21.9283 12.7321 21.3533 12.8521C20.7782 12.9721 20.2682 13.3017 19.9229 13.777C18.7589 15.507 20.0731 16.672 18.6231 18.202C17.1761 19.716 16.2769 20.002 16.6929 21.446C17.1089 22.89 18.223 23.06 17.741 24.873C17.741 24.873 23.198 19.649 23.929 16.406C24.631 13.144 23.0339 13.128 23.0339 13.128Z" fill="#662948"/>
<path d="M23.4 40.061C23.333 39.561 23.3 39.0299 23.267 38.4609C23.2143 35.5196 23.4314 32.5796 23.9159 29.678C23.9819 29.262 24.0491 29.0459 24.0651 29.0779C24.085 28.9815 24.1128 28.8869 24.1481 28.795C24.2856 28.3234 24.5339 27.8915 24.8724 27.5356C25.211 27.1796 25.6297 26.9099 26.0939 26.749C26.7378 26.5419 27.4266 26.5163 28.0841 26.675C28.7416 26.8338 29.3425 27.1708 29.8209 27.649C29.8416 27.6681 29.8585 27.6907 29.871 27.7159C30.1878 28.0626 30.4215 28.477 30.5541 28.9276C30.6867 29.3781 30.7147 29.853 30.6361 30.316C30.6361 30.366 30.619 30.4159 30.619 30.4659C30.6 30.531 30.5889 30.5982 30.5861 30.666C30.1566 33.0413 29.9556 35.4523 29.986 37.866C29.9669 38.69 30.0225 39.514 30.152 40.3279C36.459 42.2069 17.478 48.428 23.4 40.061Z" fill="#F99370"/>
<path d="M30.6361 30.296C30.6361 30.346 30.619 30.396 30.619 30.446C30.5999 30.5111 30.5889 30.5783 30.586 30.646C30.1566 33.0213 29.9556 35.4324 29.9859 37.846C27.8597 38.6972 25.5318 38.9112 23.286 38.462C23.2331 35.5207 23.45 32.5807 23.9339 29.679C24.0169 29.33 24.0671 29.113 24.0841 29.079C24.1041 28.9826 24.1318 28.888 24.1671 28.796C24.3199 28.3323 24.5735 27.9082 24.91 27.5544C25.2465 27.2006 25.6574 26.9258 26.1129 26.75C26.7517 26.5015 27.4515 26.4545 28.1178 26.6154C28.7841 26.7763 29.385 27.1374 29.8399 27.65C29.8606 27.6691 29.8775 27.6918 29.89 27.717C30.1893 28.0699 30.4103 28.4822 30.5389 28.9267C30.6675 29.3711 30.7008 29.8379 30.6361 30.296Z" fill="#E57D61"/>
<path d="M23.3999 40.06C21.1539 43.104 19.025 45.9819 16.563 49.3089C12.9583 47.6045 9.80638 45.074 7.36306 41.9229C12.6086 40.627 17.997 40.001 23.3999 40.06Z" fill="#EB5648"/>
<path d="M16.3129 49.1929C15.7969 48.9429 15.2821 48.6769 14.7831 48.3779C16.8276 45.9346 19.076 43.6695 21.5041 41.6069C22.1361 41.0736 22.7693 40.5579 23.404 40.0599C22.988 43.1379 24.704 43.6859 30.141 40.3099C31.206 41.0589 32.969 42.9719 32.936 44.2859C33.1686 46.3935 33.7077 48.456 34.5361 50.4079C28.5384 52.4154 21.991 51.9789 16.3129 49.1929Z" fill="#EB5648"/>
<path d="M18.3802 34.887C19.6276 36.0688 21.1467 36.9252 22.8035 37.3808C24.4603 37.8363 26.2039 37.8769 27.8802 37.499C29.1669 37.2635 30.3739 36.7085 31.3902 35.885C43.1682 24.174 27.315 4.41099 19.846 21.496C17.38 26.154 13.1032 29.081 18.3802 34.887Z" fill="#F99370"/>
<path d="M20.373 30.7979L24.4821 28.6979C24.4821 28.6979 24.732 30.9439 23.101 31.5429C22.6224 31.689 22.1121 31.6965 21.6293 31.5647C21.1466 31.4329 20.711 31.167 20.373 30.7979Z" fill="white"/>
<path d="M40.1181 47.762C38.3654 48.8644 36.4895 49.7579 34.529 50.424C34.4655 50.4388 34.4042 50.4613 34.3461 50.491C34.1631 50.558 33.9959 50.607 33.8139 50.657C32.6121 51.0237 31.3824 51.2912 30.1369 51.457C29.5153 48.6961 29.3748 45.8487 29.7211 43.04C29.7371 42.874 29.754 42.691 29.787 42.524C29.887 41.809 30.003 41.077 30.153 40.324C30.9037 40.4103 31.6482 40.5439 32.382 40.724C36.1438 41.6986 39.6433 43.4939 42.6291 45.981C41.8804 46.581 41.0982 47.1476 40.2829 47.681C40.2236 47.698 40.1679 47.7255 40.1181 47.762Z" fill="#F99370"/>
<path d="M23.4829 25.238C23.4401 25.1557 23.4227 25.0625 23.4328 24.9703C23.443 24.8781 23.4803 24.7909 23.54 24.7199C23.5997 24.6489 23.6792 24.5971 23.7683 24.5712C23.8574 24.5453 23.952 24.5465 24.0405 24.5745C24.1289 24.6025 24.2071 24.6561 24.2651 24.7285C24.3231 24.8009 24.3584 24.8889 24.3664 24.9814C24.3744 25.0738 24.3545 25.1665 24.3098 25.2478C24.265 25.3291 24.1973 25.3953 24.1149 25.438C24.0604 25.4666 24.0005 25.4841 23.9392 25.4895C23.8778 25.4949 23.816 25.4881 23.7573 25.4695C23.6985 25.451 23.644 25.4209 23.5969 25.3812C23.5498 25.3414 23.5111 25.2928 23.4829 25.238Z" fill="#01011E"/>
<path d="M40.1221 47.7629C36.7454 49.9157 32.8994 51.2223 28.9102 51.5719C28.3654 47.7741 28.7887 43.9003 30.1411 40.3099C34.9473 40.6611 39.5453 42.4133 43.3662 45.3499C42.3502 46.2385 41.2653 47.0454 40.1221 47.7629Z" fill="#EB5648"/>
<path d="M19.4909 24.5559C19.4617 24.5006 19.4442 24.4399 19.4394 24.3775C19.4345 24.3152 19.4423 24.2525 19.4625 24.1933C19.4828 24.1341 19.515 24.0797 19.557 24.0334C19.5991 23.987 19.65 23.9498 19.7069 23.9239C19.7618 23.8931 19.8224 23.8735 19.8849 23.8666C19.9474 23.8596 20.0106 23.8652 20.0709 23.8832C20.1312 23.9012 20.1872 23.9311 20.2357 23.9712C20.2842 24.0113 20.3242 24.0607 20.3532 24.1166C20.3822 24.1724 20.3996 24.2334 20.4044 24.2962C20.4093 24.3589 20.4017 24.422 20.3817 24.4817C20.3617 24.5413 20.3299 24.5963 20.2882 24.6435C20.2465 24.6906 20.1958 24.7288 20.1391 24.7559C20.0835 24.7858 20.0224 24.8043 19.9596 24.8105C19.8968 24.8166 19.8334 24.8101 19.7731 24.7915C19.7128 24.7729 19.6567 24.7425 19.6083 24.7021C19.5599 24.6616 19.5199 24.612 19.4909 24.5559Z" fill="#01011E"/>
<path d="M20.3719 30.961C20.3376 30.9615 20.3038 30.9524 20.2745 30.9347C20.2451 30.9171 20.2214 30.8915 20.2059 30.861C20.1935 30.8408 20.1859 30.818 20.1834 30.7944C20.181 30.7708 20.1838 30.747 20.1917 30.7247C20.1997 30.7023 20.2125 30.6821 20.2293 30.6653C20.2461 30.6486 20.2665 30.6358 20.2889 30.628L24.398 28.528C24.4396 28.51 24.4866 28.5088 24.5291 28.5247C24.5716 28.5407 24.6061 28.5725 24.6256 28.6135C24.645 28.6545 24.6479 28.7014 24.6334 28.7444C24.6189 28.7874 24.5882 28.8231 24.5479 28.844L20.439 30.944C20.4194 30.9574 20.3955 30.9635 20.3719 30.961Z" fill="#C16256"/>
<path d="M21.2711 18.8339C21.7928 19.1628 22.3756 19.3825 22.9845 19.4798C23.5935 19.5771 24.2159 19.5499 24.8141 19.4C26.6271 18.834 27.3591 19.3999 27.3141 20.8469C27.2691 22.2939 29.909 21.8619 30.225 22.5469C30.541 23.2319 30.1751 24.527 30.7741 25.408C31.3731 26.289 34.351 27.371 34.351 27.371L33.819 30.5319C33.819 30.5319 32.8042 34.907 30.7912 36.354C31.0072 36.204 31.2231 36.0539 31.4401 35.8879C32.3288 35.1381 33.0632 34.2228 33.6029 33.1929C33.7689 32.8599 33.9359 32.5279 34.1029 32.1619C34.3359 31.6299 34.536 31.062 34.735 30.449C34.785 30.283 34.985 29.617 35.035 29.468C35.101 29.235 33.3051 18.0059 32.6061 17.3079C32.5731 17.2749 22.3061 17.2079 21.9601 17.6569C21.6928 18.026 21.462 18.4202 21.2711 18.8339Z" fill="#E57D61"/>
<path d="M21.0049 28.6819C20.7241 28.7014 20.4428 28.6526 20.1851 28.5395C19.9273 28.4265 19.7008 28.2526 19.5249 28.0329C19.4749 27.8999 19.3919 27.5839 19.8909 27.3179C20.7909 26.8359 21.4379 24.9719 21.4539 24.9559C21.4705 24.9112 21.5039 24.8747 21.5469 24.8541C21.5899 24.8335 21.6394 24.8304 21.6846 24.8455C21.7298 24.8605 21.7675 24.8925 21.7896 24.9348C21.8117 24.977 21.8164 25.0262 21.803 25.0719C21.475 26.0698 20.8761 26.9568 20.073 27.6339C19.957 27.7009 19.8231 27.7839 19.8731 27.8839C20.0783 28.0774 20.3301 28.2143 20.604 28.2814C20.878 28.3486 21.1646 28.3436 21.4361 28.2669C21.4818 28.2535 21.531 28.2583 21.5733 28.2804C21.6155 28.3025 21.6473 28.3402 21.6624 28.3854C21.6774 28.4307 21.6744 28.48 21.6538 28.5229C21.6332 28.5659 21.5967 28.5993 21.552 28.6159C21.3735 28.6623 21.1894 28.6844 21.0049 28.6819Z" fill="#C16256"/>
<path d="M21.6339 17.619C21.2834 17.1329 21.1251 16.5343 21.1895 15.9386C21.254 15.3428 21.5367 14.7919 21.983 14.392C23.597 13.011 23.4969 10.932 25.7259 11.281C27.9549 11.63 28.787 11.896 31.199 11.248C31.7008 11.1355 32.2207 11.1318 32.7239 11.2371C33.2272 11.3424 33.7022 11.5543 34.1168 11.8585C34.5313 12.1628 34.8756 12.5523 35.127 13.0009C35.3784 13.4494 35.5309 13.9466 35.574 14.459C35.474 15.989 38.7349 15.989 39.2169 18.069C39.4735 19.2529 39.4735 20.4781 39.2169 21.662C39.2169 22.562 42.0449 23.741 41.4959 25.871C40.9469 28.017 39.1508 27.684 38.8008 29.065C38.4508 30.446 39.516 32.791 37.919 33.573C37.2209 33.8978 36.4502 34.0349 35.6829 33.9707C34.9157 33.9065 34.1784 33.6433 33.544 33.207C33.544 33.207 36.4889 27.568 33.7269 26.407C32.3799 25.841 31.0649 25.06 31.5479 23.063C32.0309 21.066 29.0479 21.682 28.3709 20.651C27.6709 19.62 28.1709 18.372 26.8909 18.089C25.5959 17.786 24.4979 19.283 21.6339 17.619Z" fill="#662948"/>
<path d="M37.423 28.7479C37.3455 29.4092 37.0145 30.0145 36.4995 30.4364C35.9845 30.8583 35.3256 31.0639 34.6621 31.0099C34.0306 30.7972 33.5078 30.3453 33.206 29.7512C32.9042 29.1572 32.8474 28.4683 33.048 27.8329C33.1256 27.1715 33.4571 26.566 33.9724 26.1441C34.4876 25.7221 35.1465 25.5166 35.8103 25.5709C36.443 25.7818 36.9671 26.2336 37.269 26.8283C37.5709 27.423 37.6262 28.1127 37.423 28.7479Z" fill="#F99370"/>
<path d="M36.2921 29.4799H36.2421C36.22 29.4739 36.1992 29.4634 36.1813 29.4491C36.1634 29.4348 36.1487 29.417 36.1378 29.3968C36.127 29.3766 36.1203 29.3544 36.1183 29.3315C36.1163 29.3087 36.1189 29.2857 36.1261 29.2639C36.4421 28.2159 36.4422 27.4839 36.0932 27.1639C35.6442 26.7319 34.6931 27.0969 34.6791 27.0969C34.6349 27.1145 34.5856 27.1139 34.5419 27.0951C34.4982 27.0764 34.4638 27.041 34.4462 26.9969C34.4286 26.9527 34.4291 26.9033 34.4479 26.8597C34.4667 26.816 34.5019 26.7815 34.546 26.7639C34.596 26.7469 35.7111 26.3149 36.3261 26.8969C36.7921 27.3289 36.8261 28.1449 36.4591 29.3589C36.4492 29.395 36.4272 29.4267 36.3969 29.4487C36.3665 29.4707 36.3296 29.4817 36.2921 29.4799Z" fill="#C16256"/>
<path d="M34.6289 29.2309C34.6055 29.2331 34.5823 29.2271 34.5629 29.2139C34.521 29.1937 34.4878 29.159 34.4694 29.1161C34.4511 29.0733 34.4486 29.0252 34.4628 28.9809C34.6379 28.564 34.9161 28.1985 35.2712 27.9186C35.6263 27.6387 36.0467 27.4537 36.4929 27.3809C36.5162 27.3778 36.54 27.3799 36.5625 27.3869C36.5849 27.3939 36.6053 27.4057 36.6228 27.4215C36.6402 27.4373 36.6541 27.4567 36.6633 27.4784C36.6724 27.5 36.6768 27.5234 36.676 27.5469C36.6776 27.57 36.6746 27.5932 36.6669 27.6151C36.6593 27.637 36.6474 27.6571 36.6318 27.6742C36.6162 27.6913 36.5972 27.7051 36.5761 27.7146C36.555 27.7242 36.5322 27.7294 36.509 27.7299C35.361 27.8129 34.796 29.1109 34.779 29.1109C34.7704 29.1444 34.7511 29.1743 34.7241 29.1959C34.697 29.2175 34.6635 29.2298 34.6289 29.2309Z" fill="#C16256"/>
<path d="M36.109 28.449C36.0529 28.6583 35.9165 28.837 35.7291 28.946C35.5418 29.0551 35.3188 29.0856 35.109 29.031C34.8997 28.9733 34.7207 28.8372 34.609 28.6511C34.4973 28.4649 34.4615 28.2428 34.5091 28.031C34.5643 27.8188 34.7015 27.6372 34.8905 27.5262C35.0795 27.4152 35.305 27.3838 35.5172 27.439C35.7294 27.4941 35.9108 27.6313 36.0218 27.8204C36.1329 28.0094 36.1642 28.2348 36.109 28.447V28.449Z" fill="white"/>
<path d="M33.3309 30.412C33.2576 30.4114 33.1852 30.3948 33.119 30.3631C33.0528 30.3315 32.9946 30.2857 32.9481 30.229C32.9052 30.1778 32.8728 30.1186 32.8529 30.0549C32.833 29.9911 32.8259 29.924 32.8322 29.8575C32.8384 29.791 32.8579 29.7264 32.8893 29.6674C32.9207 29.6084 32.9634 29.5563 33.015 29.514L35.015 27.867C35.1187 27.7809 35.2524 27.7396 35.3866 27.7521C35.5208 27.7645 35.6445 27.8298 35.7306 27.9335C35.8167 28.0372 35.8578 28.1708 35.8453 28.305C35.8329 28.4392 35.7676 28.5629 35.6639 28.649L33.6639 30.296C33.5653 30.3637 33.4503 30.4037 33.3309 30.412Z" fill="white"/>
<path d="M26.1622 24.0569H26.1121C25.5814 23.9333 25.0835 23.697 24.6521 23.364C24.2208 23.031 23.8661 22.609 23.6121 22.1269C23.6034 22.105 23.5989 22.0817 23.5992 22.0581C23.5995 22.0346 23.6045 22.0113 23.6138 21.9897C23.6231 21.9681 23.6365 21.9485 23.6534 21.932C23.6702 21.9156 23.6901 21.9027 23.712 21.8939C23.7338 21.8852 23.7573 21.8808 23.7808 21.8811C23.8043 21.8814 23.8275 21.8864 23.8492 21.8956C23.8708 21.9049 23.8906 21.9184 23.907 21.9353C23.9235 21.9521 23.9364 21.972 23.9451 21.9939C24.1797 22.4281 24.5044 22.807 24.8975 23.1054C25.2906 23.4038 25.7429 23.6147 26.2242 23.7239C26.2468 23.7291 26.268 23.7391 26.2864 23.7532C26.3049 23.7673 26.3201 23.7852 26.3311 23.8056C26.3421 23.8261 26.3486 23.8486 26.3501 23.8718C26.3517 23.8949 26.3483 23.9182 26.3401 23.9399C26.324 23.9738 26.2988 24.0027 26.2674 24.0233C26.236 24.044 26.1997 24.0556 26.1622 24.0569Z" fill="#C16256"/>
<path d="M19.74 22.727C19.7182 22.7275 19.6965 22.7233 19.6765 22.7146C19.6565 22.706 19.6386 22.6931 19.624 22.6769C19.5918 22.6432 19.5739 22.5985 19.5739 22.5519C19.5739 22.5054 19.5918 22.4606 19.624 22.4269C20.0103 22.1011 20.4658 21.8675 20.9558 21.7436C21.4457 21.6198 21.9574 21.6089 22.4521 21.712C22.475 21.7152 22.4969 21.723 22.5168 21.7348C22.5367 21.7466 22.5542 21.7622 22.5681 21.7807C22.582 21.7993 22.5921 21.8203 22.5979 21.8428C22.6036 21.8652 22.6048 21.8885 22.6015 21.9114C22.5982 21.9343 22.5904 21.9564 22.5786 21.9763C22.5668 21.9962 22.5512 22.0136 22.5327 22.0275C22.5142 22.0414 22.4931 22.0515 22.4707 22.0572C22.4482 22.063 22.425 22.0642 22.4021 22.061C21.9588 21.9663 21.4998 21.9726 21.0593 22.0792C20.6188 22.1858 20.2081 22.3901 19.8571 22.6769C19.8256 22.7074 19.7838 22.7252 19.74 22.727Z" fill="#C16256"/>
<path d="M32.5489 40.576C32.2047 40.9032 31.8315 41.1984 31.4339 41.4579C30.7528 41.9323 30.0475 42.3709 29.3209 42.772C27.2909 43.872 24.8301 44.801 23.2491 44.319C22.8306 44.2091 22.4513 43.984 22.1544 43.6694C21.8574 43.3547 21.6544 42.9631 21.5689 42.5389C21.5083 42.2378 21.4804 41.9311 21.4859 41.624C21.5103 41.0965 21.6114 40.5753 21.786 40.077V40.0599C22.817 40.0429 23.4 40.077 23.4 40.077C23.35 40.277 22.751 45.117 30.137 40.327C30.948 40.3164 31.7572 40.4 32.5489 40.576Z" fill="#FF7708"/>
<path d="M27.5761 53.136C-7.19192 52.82 -8.30591 2.34895 26.4611 0.501953C61.2761 0.884953 62.2931 51.339 27.5761 53.136ZM26.528 3.56299C-4.21401 5.19299 -3.21581 49.809 27.5092 50.092C58.2012 48.494 57.303 3.87899 26.528 3.56299Z" fill="white"/>
</svg>
