<svg width="53" height="54" viewBox="0 0 53 54" fill="none" xmlns="http://www.w3.org/2000/svg">
<path d="M51.385 26.572C52.001 46.185 29.8091 58.861 13.4071 48.098C12.4597 47.5063 11.5538 46.8504 10.696 46.135C-23.24 11.584 45.264 -21.154 51.385 26.572Z" fill="#8A9EDD"/>
<path d="M44.948 43.8391C42.144 46.968 38.5834 49.3241 34.6073 50.6815C30.6311 52.039 26.373 52.3521 22.241 51.591C22.274 51.691 22.307 51.774 22.341 51.874C21.7702 51.5119 21.1297 51.2734 20.461 51.174C19.0075 46.0394 17.9507 40.8006 17.3 35.504C16.535 28.368 16.635 20.699 20.111 14.544C20.2518 13.7092 20.4745 12.8902 20.776 12.099C25.817 0.255017 43.034 9.38707 40.705 22.0631C38.593 31.7121 42.835 36.0041 44.948 43.8391Z" fill="#662948"/>
<path d="M41.4039 47.066C39.9328 48.1717 38.3426 49.1091 36.663 49.861C36.314 47.881 35.981 45.985 35.632 44.072C37.6766 44.818 39.6165 45.8243 41.4039 47.066Z" fill="#CE3932"/>
<path d="M13.857 44.8041C13.774 45.3861 13.6739 46.185 13.5239 47.204C13.4909 47.487 13.441 47.786 13.408 48.104C13.242 48.004 13.075 47.8881 12.908 47.7881C12.758 47.9211 12.625 48.054 12.476 48.188L12.676 47.639C11.9917 47.1725 11.3312 46.6719 10.697 46.139C11.687 45.5568 12.7494 45.108 13.857 44.8041Z" fill="#CE3932"/>
<path d="M28.1422 36.1061L21.589 36.2109L21.7127 43.9449L28.2659 43.8401L28.1422 36.1061Z" fill="#F99370"/>
<path d="M28.146 37.1851L28.179 39.2311C26.0858 40.0151 23.8 40.1255 21.641 39.547L21.591 36.2531L28.146 37.1851Z" fill="#E57D61"/>
<path d="M32.738 31.579C32.6435 32.7155 32.2957 33.8165 31.7199 34.8009C31.1442 35.7854 30.3552 36.6284 29.411 37.268C24.287 41.227 15.288 37.2351 15.654 30.6811C15.737 27.7531 16.554 26.456 17.284 23.794C17.667 13.863 30.4259 11.617 31.7569 22.247C31.9399 25.757 33.008 28.418 32.738 31.579Z" fill="#F99370"/>
<path d="M25.95 26.443C25.9013 26.3357 25.8959 26.2138 25.9348 26.1026C25.9737 25.9913 26.0539 25.8994 26.1589 25.8458C26.2638 25.7923 26.3853 25.7812 26.4982 25.815C26.6111 25.8487 26.7067 25.9246 26.7651 26.027C26.8138 26.1343 26.8191 26.2562 26.7802 26.3674C26.7413 26.4787 26.6612 26.5706 26.5562 26.6242C26.4513 26.6777 26.3296 26.6888 26.2167 26.655C26.1039 26.6213 26.0084 26.5454 25.95 26.443Z" fill="#01011E"/>
<path d="M20.4941 26.4771C20.4454 26.3698 20.4399 26.2478 20.4788 26.1366C20.5177 26.0254 20.5979 25.9335 20.7028 25.8799C20.8078 25.8263 20.9294 25.8153 21.0423 25.849C21.1552 25.8828 21.2507 25.9587 21.309 26.0611C21.575 26.5771 20.7441 26.9881 20.4941 26.4771Z" fill="#01011E"/>
<path d="M22.4741 30.63C21.6421 30.63 20.311 30.0641 21.359 29.3161C22.459 28.7161 22.6591 26.871 23.0731 26.937C23.4391 27.053 22.4911 29.037 21.5261 29.615C20.8441 30.031 22.2581 30.43 22.8401 30.215C22.8619 30.2078 22.8849 30.2052 22.9077 30.2072C22.9306 30.2092 22.9528 30.2157 22.973 30.2266C22.9932 30.2374 23.011 30.2523 23.0253 30.2703C23.0395 30.2882 23.05 30.3089 23.056 30.3311C23.123 30.6301 22.6921 30.597 22.4741 30.63Z" fill="#C16256"/>
<path d="M35.632 44.088C33.132 51.657 29.61 53.0209 22.241 51.6069C22.274 51.7069 15.5039 51.058 13.8569 44.807C16.2627 43.5285 18.897 42.737 21.609 42.4779L21.659 40.465C21.659 40.465 23.622 41.53 28.213 40.365L28.329 42.365C30.8476 42.4924 33.3221 43.0762 35.632 44.088Z" fill="#26637F"/>
<path d="M32.738 31.579C32.6435 32.7155 32.2955 33.8165 31.7198 34.8009C31.1441 35.7854 30.3552 36.6283 29.411 37.268C33.237 33.009 31.923 29.1499 31.341 26.1389C26.151 22.7289 27.249 18.154 27.249 18.154C25.003 20.732 19.713 21.847 17.983 24.891L17.301 23.7909C17.684 13.8429 30.443 11.6139 31.773 22.2439C31.939 25.7559 33 28.418 32.738 31.579Z" fill="#E57D61"/>
<path d="M27.9789 16.0249C27.9789 16.0249 27.2639 23.511 32.1049 25.241C32.1049 25.241 35.5979 14.0789 27.9789 16.0249Z" fill="#662948"/>
<path d="M28.1299 15.826C26.1299 19.153 16.319 22.48 16.951 28.984C17.134 32.577 19.43 35.255 18.215 38.499C17 41.743 13.091 41.327 13.091 41.327C13.091 41.327 16.851 38.732 13.84 33.427C7.66903 23.365 18.9469 5.928 28.1299 15.826Z" fill="#662948"/>
<path d="M20.132 13.247C20.132 13.247 28.032 10.02 33.44 16.092C33.44 16.092 30.4459 8.89199 20.7969 12.116C20.7759 12.132 19.379 12.585 20.132 13.247Z" fill="#CE3932"/>
<path d="M20.91 51.3079C20.76 51.2749 20.61 51.2249 20.461 51.1919H20.4281C20.4111 51.1919 20.395 51.1749 20.362 51.1749C18.8777 50.7591 17.4308 50.2192 16.0369 49.5609C15.5049 49.3109 14.972 49.029 14.457 48.746C14.4036 48.7089 14.3478 48.6754 14.29 48.6459C13.99 48.4629 13.675 48.2799 13.375 48.0969C13.209 47.9969 13.042 47.8809 12.875 47.7809C12.725 47.9139 12.592 48.0469 12.442 48.1809L12.642 47.632C12.9882 46.6757 13.3823 45.7375 13.823 44.8209C14.1391 45.2476 14.4955 45.6431 14.887 46.002C16.5581 47.6224 18.3365 49.1285 20.21 50.5099C20.226 50.5269 20.226 50.527 20.243 50.527C20.725 50.876 21.208 51.2089 21.674 51.5079C21.443 51.4409 21.176 51.3739 20.91 51.3079Z" fill="#CE3932"/>
<path d="M38.277 49.062C38.2251 49.0961 38.1694 49.124 38.111 49.145L38.011 49.1949C37.562 49.4279 37.111 49.644 36.664 49.86C36.398 49.976 36.1319 50.093 35.8639 50.193C35.0365 50.529 34.1928 50.8233 33.336 51.075C32.2853 51.3908 31.2118 51.6249 30.125 51.775C29.443 51.875 28.761 51.9416 28.079 51.975C27.647 52.008 27.231 52.0081 26.798 52.0081C27.264 51.6751 27.798 51.293 28.362 50.86C30.6805 49.1745 32.8408 47.2813 34.816 45.204C35.133 44.8518 35.412 44.467 35.648 44.056C36.263 45.071 36.879 46.185 37.478 47.366C37.628 47.649 37.778 47.948 37.91 48.248C37.927 48.265 37.927 48.2811 37.943 48.3151C38.0412 48.5698 38.1527 48.819 38.277 49.062Z" fill="#CE3932"/>
<path d="M20.9099 51.309C18.2538 50.6403 15.7218 49.5508 13.4099 48.0819C13.2439 47.9819 11.331 46.6509 10.698 46.1189C10.681 46.1359 10.665 46.136 10.648 46.152C11.6391 45.5187 12.7302 45.0575 13.875 44.788C16.1996 47.3432 18.8378 49.5944 21.727 51.4879C21.446 51.4419 21.1759 51.375 20.9099 51.309Z" fill="#26637F"/>
<path d="M39.824 46.052C36.946 50.909 32.139 51.958 26.782 52.024C29.843 49.745 33.719 46.984 35.615 44.072C37.0897 44.5674 38.5021 45.2318 39.824 46.052Z" fill="#26637F"/>
<path d="M22.4899 32.378C22.2954 32.3777 22.1012 32.3668 21.908 32.345C21.8659 32.3342 21.8295 32.3077 21.8063 32.2709C21.7832 32.2342 21.7749 32.1899 21.7834 32.1473C21.7918 32.1046 21.8163 32.0668 21.8517 32.0417C21.8872 32.0165 21.9309 32.0059 21.9739 32.012C22.4554 32.0744 22.9446 32.0372 23.4112 31.9026C23.8777 31.7681 24.3116 31.5392 24.6859 31.23C24.7219 31.2003 24.7679 31.1855 24.8144 31.1887C24.8609 31.1918 24.9044 31.2127 24.9359 31.247C24.8359 32.112 22.7729 32.394 22.4899 32.378Z" fill="#C16256"/>
<path d="M26.333 24.4929C26.0611 24.4727 25.7878 24.5075 25.5297 24.5952C25.2715 24.6829 25.0336 24.8217 24.8302 25.0033C24.6268 25.1849 24.4621 25.4057 24.3459 25.6524C24.2298 25.899 24.1645 26.1665 24.1539 26.439C24.1509 26.5502 24.1565 26.6616 24.1709 26.772C24.2993 27.275 24.5978 27.7183 25.0155 28.0266C25.4332 28.335 25.9446 28.4895 26.4631 28.4641C26.9817 28.4387 27.4756 28.2349 27.8612 27.8872C28.2468 27.5395 28.5003 27.0691 28.579 26.5559V26.273C28.5106 25.742 28.2374 25.2588 27.8179 24.9263C27.3983 24.5938 26.8656 24.4382 26.333 24.4929ZM26.3829 28.169C26.1464 28.2019 25.9057 28.1843 25.6765 28.1171C25.4474 28.0499 25.2351 27.9347 25.0538 27.7793C24.8725 27.6239 24.7264 27.4317 24.625 27.2155C24.5236 26.9993 24.4694 26.764 24.4658 26.5253C24.4622 26.2865 24.5094 26.0497 24.6042 25.8306C24.6991 25.6114 24.8396 25.4151 25.0161 25.2543C25.1927 25.0935 25.4014 24.9721 25.6284 24.8981C25.8554 24.8241 26.0956 24.7991 26.333 24.825C26.5698 24.7914 26.8109 24.8086 27.0405 24.8755C27.2701 24.9424 27.4828 25.0574 27.6645 25.2128C27.8463 25.3682 27.9928 25.5605 28.0945 25.777C28.1961 25.9934 28.2506 26.2291 28.2541 26.4681C28.2577 26.7072 28.2104 26.9443 28.1152 27.1637C28.0201 27.3831 27.8794 27.5797 27.7024 27.7405C27.5254 27.9013 27.3161 28.0226 27.0886 28.0963C26.8611 28.17 26.6206 28.1954 26.3829 28.169Z" fill="#C16256"/>
<path d="M19.846 24.443C19.566 24.4187 19.284 24.4535 19.0183 24.5451C18.7526 24.6366 18.5092 24.783 18.3036 24.9746C18.0981 25.1663 17.9351 25.399 17.8252 25.6576C17.7153 25.9163 17.661 26.1951 17.6657 26.4761C17.6704 26.7571 17.7341 27.034 17.8526 27.2888C17.9711 27.5437 18.1418 27.7708 18.3537 27.9555C18.5655 28.1401 18.8138 28.2781 19.0824 28.3607C19.351 28.4434 19.634 28.4687 19.913 28.435C20.4272 28.4693 20.9355 28.3086 21.3365 27.9848C21.7374 27.661 22.0015 27.1979 22.0761 26.688C22.09 26.5665 22.0957 26.4443 22.093 26.322C22.072 26.0499 21.9968 25.7847 21.8719 25.5421C21.7469 25.2995 21.5746 25.0844 21.3653 24.9093C21.1559 24.7343 20.9136 24.6028 20.6527 24.5227C20.3918 24.4426 20.1175 24.4155 19.846 24.443ZM19.896 28.119C19.6595 28.152 19.4187 28.1342 19.1896 28.067C18.9605 27.9999 18.7482 27.8847 18.5669 27.7293C18.3856 27.5738 18.2395 27.3817 18.1381 27.1655C18.0367 26.9494 17.9824 26.714 17.9788 26.4752C17.9752 26.2365 18.0225 25.9998 18.1173 25.7807C18.2122 25.5615 18.3527 25.365 18.5292 25.2042C18.7058 25.0435 18.9145 24.922 19.1415 24.848C19.3685 24.774 19.6086 24.7492 19.846 24.775C20.0827 24.7415 20.324 24.7587 20.5536 24.8256C20.7832 24.8924 20.9959 25.0073 21.1776 25.1627C21.3594 25.3182 21.5059 25.5105 21.6076 25.727C21.7092 25.9434 21.7637 26.179 21.7672 26.4181C21.7708 26.6572 21.7235 26.8944 21.6283 27.1138C21.5332 27.3332 21.3924 27.5298 21.2154 27.6906C21.0384 27.8514 20.8292 27.9726 20.6017 28.0463C20.3742 28.12 20.1337 28.1444 19.896 28.1179V28.119Z" fill="#C16256"/>
<path d="M24.27 26.854C22.806 25.873 22.17 26.887 21.858 26.704C21.675 26.404 22.906 25.604 24.37 26.571C24.3951 26.5919 24.4133 26.6201 24.422 26.6516C24.4307 26.6831 24.4295 26.7165 24.4186 26.7473C24.4077 26.7781 24.3876 26.8049 24.3611 26.824C24.3345 26.843 24.3027 26.8535 24.27 26.854Z" fill="#C16256"/>
<path d="M28.462 26.605C28.296 26.605 28.246 26.339 28.412 26.305C28.512 26.355 32.438 25.041 32.371 25.405C32.604 25.706 28.545 26.521 28.462 26.605Z" fill="#C16256"/>
<path d="M35.199 28.02C34.199 31.38 30.109 30.1819 31.074 26.8199C32.072 23.4449 36.164 24.643 35.199 28.02Z" fill="#F99370"/>
<path d="M34.3011 28.484C34.2748 28.484 34.2488 28.4778 34.2252 28.4662C34.2016 28.4545 34.181 28.4377 34.165 28.4169C34.149 28.396 34.1378 28.3717 34.1327 28.3459C34.1275 28.3201 34.1284 28.2935 34.1351 28.2681C34.7501 26.4881 33.935 25.739 32.754 26.255C32.713 26.2684 32.6684 26.266 32.6291 26.248C32.5898 26.2301 32.5587 26.1981 32.542 26.1583C32.5252 26.1185 32.524 26.0738 32.5387 26.0332C32.5533 25.9926 32.5828 25.9589 32.6211 25.939C34.0211 25.339 35.183 26.2051 34.451 28.3511C34.4453 28.3872 34.4272 28.4201 34.3999 28.4443C34.3725 28.4686 34.3376 28.4826 34.3011 28.484Z" fill="#C16256"/>
<path d="M32.7211 28.2679C32.2051 28.2009 33.1541 26.621 34.4511 26.505C34.473 26.5028 34.495 26.505 34.516 26.5113C34.5371 26.5177 34.5567 26.5281 34.5737 26.5421C34.5906 26.556 34.6047 26.5731 34.615 26.5925C34.6254 26.6119 34.6319 26.633 34.6341 26.6549C34.6362 26.6767 34.6341 26.6989 34.6277 26.7199C34.6214 26.741 34.6109 26.7604 34.597 26.7774C34.583 26.7944 34.5659 26.8086 34.5466 26.8189C34.5272 26.8293 34.5059 26.8358 34.4841 26.838C33.1701 26.987 33.0381 28.2179 32.7211 28.2679Z" fill="#C16256"/>
<path d="M33.636 29.1829C33.6383 29.3087 33.5905 29.4301 33.5032 29.5206C33.4159 29.6111 33.2961 29.6631 33.1704 29.6654C33.0447 29.6676 32.9233 29.6198 32.8328 29.5325C32.7423 29.4452 32.6903 29.3256 32.688 29.1999C32.6857 29.0742 32.7335 28.9527 32.8208 28.8623C32.9081 28.7718 33.0277 28.7196 33.1535 28.7174C33.2792 28.7151 33.4006 28.7629 33.4911 28.8502C33.5816 28.9375 33.6337 29.0572 33.636 29.1829Z" fill="#CE3932"/>
<path d="M25.9329 0.886963C60.7499 1.10296 61.981 51.574 27.264 53.504C-7.503 53.321 -8.83405 2.86696 25.9329 0.886963ZM27.181 50.46C57.873 48.747 56.792 4.148 26 3.948C-4.72504 5.678 -3.56101 50.293 27.181 50.46Z" fill="white"/>
<path d="M28.345 24.4419C28.3116 24.4437 28.2783 24.4388 28.2469 24.4275C28.2154 24.4161 28.1866 24.3986 28.162 24.376C27.7823 23.9767 27.3218 23.6631 26.8112 23.4562C26.3005 23.2492 25.7516 23.1536 25.2011 23.1759C25.1459 23.1825 25.0904 23.167 25.0467 23.1327C25.003 23.0984 24.9747 23.0481 24.968 22.9929C24.9614 22.9377 24.9769 22.8822 25.0113 22.8385C25.0456 22.7948 25.0959 22.7665 25.151 22.7599C25.7665 22.7261 26.382 22.8278 26.9539 23.0577C27.5258 23.2877 28.0403 23.6404 28.4611 24.0909C28.4797 24.1117 28.494 24.136 28.5032 24.1623C28.5124 24.1887 28.5165 24.2166 28.5149 24.2445C28.5133 24.2724 28.5062 24.2997 28.494 24.3248C28.4819 24.35 28.4649 24.3724 28.444 24.391C28.4128 24.4113 28.3796 24.4283 28.345 24.4419Z" fill="#C16256"/>
<path d="M19.313 23.8939C19.2776 23.9018 19.2407 23.898 19.2077 23.8831C19.1746 23.8681 19.1474 23.8427 19.13 23.8109C19.0986 23.7653 19.0848 23.7099 19.0908 23.6548C19.0969 23.5997 19.1225 23.5487 19.1631 23.511C19.5341 23.251 19.9529 23.067 20.3954 22.9699C20.8379 22.8727 21.2953 22.8643 21.7411 22.945C21.7684 22.9504 21.7944 22.9612 21.8175 22.9767C21.8407 22.9922 21.8605 23.0121 21.876 23.0353C21.8914 23.0585 21.9022 23.0844 21.9076 23.1117C21.913 23.139 21.9131 23.1672 21.9076 23.1945C21.9022 23.2218 21.8914 23.2477 21.8759 23.2709C21.8604 23.294 21.8404 23.3139 21.8173 23.3294C21.7941 23.3448 21.7682 23.3556 21.7409 23.361C21.7135 23.3664 21.6854 23.3664 21.6581 23.361C20.8753 23.2254 20.0702 23.3982 19.412 23.843C19.3997 23.8577 19.3847 23.8697 19.3677 23.8784C19.3507 23.8872 19.3321 23.8924 19.313 23.8939Z" fill="#C16256"/>
</svg>
