<svg width="67" height="84" viewBox="0 0 67 84" fill="none" xmlns="http://www.w3.org/2000/svg">
<path d="M32.354 26.8251C32.354 26.8251 34.267 14.099 41.57 4.98303C41.7843 7.1374 42.1402 9.27537 42.6351 11.3831C44.5904 10.0416 46.7162 8.96743 48.9561 8.18909C46.6369 15.6134 42.6479 22.4077 37.2951 28.051L32.354 26.8251Z" fill="#CE3932"/>
<path d="M35.5821 27.241C35.5821 27.241 33.952 11.541 29.86 0.791016C29.86 0.791016 28.213 5.06604 27.647 6.86304L21.975 2.75403C21.975 2.75403 25.834 15.2299 30.026 28.0389L35.5821 27.241Z" fill="#CE3932"/>
<path d="M52.7161 21.834C52.7161 21.834 57.9891 23.198 58.3051 27.457C58.5381 30.717 49.8051 29.636 49.8051 29.636C49.8051 29.636 56.459 31.2991 59.969 29.8021C63.479 28.3051 64.0281 27.024 62.7471 24.179C61.4471 21.351 58.9871 16.544 55.7271 17.658C54.833 17.9213 54.0519 18.4745 53.5067 19.2305C52.9616 19.9866 52.6834 20.9025 52.7161 21.834Z" fill="#CE3932"/>
<path d="M64.942 35.8251H2.54404V83.6011H64.942V35.8251Z" fill="#FC4768"/>
<path d="M64.942 35.8251H2.54404V43.1441H64.942V35.8251Z" fill="#DF1515"/>
<path d="M66.989 31.7991H0.498047V39.9341H66.989V31.7991Z" fill="#FC4768"/>
<path d="M40.5721 31.7991H26.898C26.8988 30.4801 27.4231 29.2155 28.3558 28.2828C29.2884 27.3502 30.5531 26.8259 31.872 26.8251H35.5981C36.917 26.8259 38.1817 27.3502 39.1143 28.2828C40.0469 29.2155 40.5713 30.4801 40.5721 31.7991Z" fill="#EB5648"/>
<path d="M50.005 14.1819C39.658 16.0819 33.7531 26.8249 33.7531 26.8249L39.6581 31.7989C55.7281 31.7989 61.334 31.7989 63.812 28.5549C66.29 25.2939 60.335 12.3019 50.005 14.1819ZM61.0171 28.1219C57.7071 30.1019 49.056 30.1019 41.255 28.3049C41.255 28.3049 51.07 20.2199 58.255 21.1689C61.516 21.6009 63.1801 26.8249 61.0171 28.1219Z" fill="#EB5648"/>
<path d="M14.9871 21.834C14.9871 21.834 9.71413 23.198 9.39813 27.457C9.16513 30.717 17.8981 29.636 17.8981 29.636C17.8981 29.636 11.2441 31.2991 7.73407 29.8021C4.22407 28.3051 3.67512 27.024 4.95612 24.179C6.25612 21.351 8.71614 16.544 11.9761 17.658C12.8728 17.917 13.6567 18.4691 14.2026 19.2261C14.7484 19.9832 15.0247 20.9015 14.9871 21.834Z" fill="#CE3932"/>
<path d="M3.90803 28.5549C6.38703 31.7989 11.9931 31.7989 28.0621 31.7989L33.9681 26.8249C33.9681 26.8249 28.062 16.0789 17.716 14.1819C7.36801 12.3019 1.42903 25.2939 3.90803 28.5549ZM9.46406 21.1689C16.6501 20.2209 26.4641 28.3049 26.4641 28.3049C18.6641 30.0849 10.0121 30.1049 6.70112 28.1219C4.54012 26.8249 6.20406 21.6009 9.46406 21.1689Z" fill="#EB5648"/>
<path d="M9.14407 58.365C9.14222 59.9968 8.49315 61.5613 7.33926 62.7152C6.18538 63.8691 4.62088 64.5182 2.98904 64.52C2.83918 64.5227 2.68931 64.5169 2.54007 64.5029V52.226C2.68931 52.212 2.83918 52.2064 2.98904 52.209C4.62106 52.2109 6.18572 52.8601 7.33963 54.0142C8.49354 55.1683 9.14249 56.733 9.14407 58.365Z" fill="#DF1515"/>
<path d="M24.8681 51.4145C25.4126 48.0591 23.1339 44.8976 19.7785 44.353C16.4231 43.8085 13.2616 46.0871 12.717 49.4426C12.1725 52.798 14.4511 55.9595 17.8066 56.504C21.162 57.0486 24.3235 54.7699 24.8681 51.4145Z" fill="#DF1515"/>
<path d="M18.797 75.832C22.1964 75.832 24.952 73.0763 24.952 69.677C24.952 66.2777 22.1964 63.522 18.797 63.522C15.3977 63.522 12.642 66.2777 12.642 69.677C12.642 73.0763 15.3977 75.832 18.797 75.832Z" fill="#DF1515"/>
<path d="M8.71609 81.871C8.71818 82.4568 8.63394 83.0398 8.46609 83.6011H2.5441V75.7161H2.56107C4.1929 75.7179 5.7574 76.367 6.91129 77.5209C8.06517 78.6748 8.71424 80.2391 8.71609 81.871Z" fill="#DF1515"/>
<path d="M36.3631 83.601H24.053C24.053 81.9685 24.7015 80.4031 25.8558 79.2488C27.01 78.0945 28.5756 77.4459 30.2081 77.4459C31.8405 77.4459 33.4061 78.0945 34.5603 79.2488C35.7146 80.4031 36.3631 81.9685 36.3631 83.601Z" fill="#DF1515"/>
<path d="M38.26 67.6981C41.6594 67.6981 44.415 64.9424 44.415 61.5431C44.415 58.1437 41.6594 55.3881 38.26 55.3881C34.8607 55.3881 32.105 58.1437 32.105 61.5431C32.105 64.9424 34.8607 67.6981 38.26 67.6981Z" fill="#DF1515"/>
<path d="M52.1 56.9011C55.4994 56.9011 58.255 54.1454 58.255 50.7461C58.255 47.3468 55.4994 44.5911 52.1 44.5911C48.7007 44.5911 45.945 47.3468 45.945 50.7461C45.945 54.1454 48.7007 56.9011 52.1 56.9011Z" fill="#DF1515"/>
<path d="M56.6591 76.8215C57.2036 73.4661 54.9249 70.3045 51.5695 69.76C48.2141 69.2155 45.0526 71.4941 44.508 74.8495C43.9635 78.2049 46.2421 81.3665 49.5976 81.911C52.953 82.4556 56.1145 80.1769 56.6591 76.8215Z" fill="#DF1515"/>
<path d="M64.943 58.266V70.376C64.1015 70.5311 63.2368 70.509 62.4043 70.3113C61.5718 70.1135 60.7897 69.7444 60.1078 69.2274C59.4259 68.7104 58.8593 68.0569 58.4441 67.3087C58.0289 66.5605 57.7744 65.734 57.6966 64.8818C57.6187 64.0297 57.7194 63.1707 57.9922 62.3596C58.265 61.5486 58.7038 60.8032 59.2808 60.1713C59.8577 59.5393 60.5601 59.0346 61.343 58.6893C62.126 58.3441 62.9723 58.1659 63.828 58.166C64.211 58.183 64.573 58.216 64.943 58.266Z" fill="#DF1515"/>
<path d="M39.658 30.7681H27.83V83.6011H39.658V30.7681Z" fill="#EB5648"/>
</svg>
