<svg width="11" height="19" viewBox="0 0 11 19" fill="none" xmlns="http://www.w3.org/2000/svg">
<path d="M10.4526 10.1594L1.90858 18.7003C1.81961 18.7895 1.71394 18.8603 1.59762 18.9086C1.4813 18.957 1.3566 18.9819 1.23064 18.982C1.10467 18.9822 0.979919 18.9575 0.863492 18.9094C0.747064 18.8614 0.641246 18.7908 0.552079 18.7019C0.462911 18.6129 0.39214 18.5072 0.343808 18.3909C0.295475 18.2746 0.270526 18.1499 0.270386 18.0239C0.270247 17.8979 0.29492 17.7732 0.342995 17.6568C0.39107 17.5403 0.461605 17.4345 0.550576 17.3454L8.41358 9.48035L0.552579 1.61835C0.388961 1.43563 0.301485 1.19721 0.308106 0.95203C0.314727 0.706848 0.41494 0.473499 0.588181 0.299874C0.761422 0.126249 0.994549 0.025518 1.23972 0.0183543C1.48488 0.0111906 1.7235 0.0981375 1.90658 0.261351L10.4526 8.80335C10.6302 8.98433 10.7297 9.22778 10.7297 9.48135C10.7297 9.73492 10.6302 9.97837 10.4526 10.1594Z" fill="white"/>
</svg>
