<svg width="72" height="58" viewBox="0 0 72 58" fill="none" xmlns="http://www.w3.org/2000/svg">
<path d="M2.70096 57.7779C1.89574 57.7873 1.09861 57.6165 0.36795 57.2779L0.767975 56.2779C1.3508 56.582 1.99763 56.7431 2.655 56.748C3.886 56.748 4.75497 56.132 4.75497 55.055C4.75497 54.083 3.90498 53.621 2.98898 53.232C1.78198 52.706 0.461945 52.025 0.461945 50.432C0.461945 48.812 1.68496 47.816 3.45096 47.816C4.18452 47.7964 4.9105 47.9687 5.55698 48.316L5.17599 49.264C4.66081 48.982 4.08605 48.8264 3.49899 48.81C2.41399 48.81 1.65195 49.393 1.65195 50.373C1.65195 51.337 2.59998 51.8149 3.53098 52.2199C4.66498 52.7199 5.96097 53.37 5.96097 54.982C5.93297 56.693 4.61196 57.7779 2.70096 57.7779Z" fill="#26637F"/>
<path d="M15.58 57.6329V52.6759C15.5944 52.298 15.4583 51.9298 15.2017 51.652C14.9451 51.3743 14.5888 51.2095 14.211 51.1939C14.1462 51.1926 14.0814 51.1952 14.017 51.2019C13.7282 51.1929 13.4407 51.2429 13.172 51.3488C12.9033 51.4547 12.6589 51.6143 12.454 51.8179V57.6419H11.336V52.5059C11.336 51.6879 10.656 51.2059 9.659 51.2059C9.16876 51.1989 8.68179 51.2869 8.22498 51.4649V57.6649H7.099V50.8199C7.88357 50.4891 8.72654 50.3191 9.578 50.3199C9.99556 50.2872 10.4153 50.344 10.8091 50.4864C11.203 50.6288 11.562 50.8537 11.862 51.1459C12.5205 50.5921 13.3588 50.2983 14.219 50.3199C14.5353 50.2881 14.8548 50.3243 15.156 50.426C15.4572 50.5277 15.7333 50.6925 15.9656 50.9096C16.198 51.1266 16.3813 51.3907 16.5033 51.6843C16.6253 51.9779 16.6831 52.2941 16.673 52.6119V57.6659H15.573V57.6419L15.58 57.6329Z" fill="#26637F"/>
<path d="M20.724 57.778C18.748 57.778 17.759 56.936 17.759 55.567C17.759 53.51 19.978 53.202 22.149 53.072V52.529C22.149 51.452 21.449 51.12 20.432 51.12C19.755 51.133 19.0879 51.2848 18.472 51.566L18.172 50.78C18.9139 50.4498 19.7169 50.2795 20.529 50.28C22.149 50.28 23.21 50.92 23.21 52.637V57.278C22.4258 57.6179 21.5786 57.7883 20.724 57.778ZM22.158 53.858C20.558 53.958 18.813 54.044 18.813 55.551C18.813 56.393 19.445 56.944 20.7 56.944C21.1942 56.9445 21.6857 56.8707 22.158 56.725V53.858Z" fill="#26637F"/>
<path d="M27.747 51.2659C27.5357 51.2295 27.3214 51.2132 27.107 51.2169C26.6442 51.2125 26.184 51.2865 25.746 51.4359V57.6359H24.62V50.7889C25.4529 50.45 26.3448 50.28 27.244 50.2889C27.4782 50.2893 27.712 50.3057 27.944 50.3379L27.747 51.2659Z" fill="#26637F"/>
<path d="M31.213 57.7059C30.9524 57.7323 30.6892 57.6995 30.4431 57.6099C30.197 57.5204 29.9743 57.3763 29.7916 57.1887C29.6089 57.001 29.4711 56.7745 29.3882 56.5261C29.3053 56.2776 29.2796 56.0137 29.313 55.7539V51.2659H28.2729V50.4259H29.3099V48.6839L30.395 48.3279V50.4279H31.95V51.2699H30.395V55.7089C30.3852 55.8507 30.4071 55.993 30.4592 56.1252C30.5114 56.2575 30.5923 56.3765 30.6963 56.4734C30.8003 56.5704 30.9246 56.643 31.0602 56.6858C31.1958 56.7286 31.3392 56.7406 31.48 56.7209C31.6391 56.7238 31.7976 56.7018 31.95 56.6559V57.5959C31.713 57.6769 31.4633 57.7142 31.213 57.7059Z" fill="#26637F"/>
<path d="M37.9119 57.632V53.687H35.547V57.632H33.279V47.9609H35.547V51.8329H37.92V47.9609H40.1879V57.6329L37.9119 57.632Z" fill="#29B2A1"/>
<path d="M47.8339 54.3109L43.346 54.9019C43.4445 55.2774 43.6766 55.6039 43.9988 55.8203C44.321 56.0366 44.7112 56.1279 45.096 56.0769C45.7983 56.0807 46.4927 55.9284 47.1289 55.6309L47.7449 57.2589C46.846 57.6166 45.8853 57.7927 44.918 57.7769C44.4149 57.8174 43.9089 57.7473 43.4357 57.5717C42.9625 57.3961 42.5334 57.1192 42.1785 56.7603C41.8235 56.4015 41.5513 55.9694 41.3809 55.4943C41.2105 55.0192 41.146 54.5126 41.1919 54.01C41.1919 51.799 42.472 50.26 44.643 50.26C45.0863 50.2347 45.5298 50.3061 45.9429 50.4691C46.356 50.6321 46.7287 50.8829 47.0353 51.2041C47.3419 51.5254 47.5751 51.9094 47.7187 52.3296C47.8622 52.7498 47.9129 53.1963 47.867 53.638C47.858 53.861 47.8579 54.0919 47.8339 54.3109ZM44.586 51.8239C43.808 51.8239 43.2009 52.35 43.1929 53.549L45.736 53.2249C45.736 52.3179 45.299 51.825 44.586 51.825V51.8239Z" fill="#29B2A1"/>
<path d="M51.804 57.795C49.536 57.795 48.4099 56.953 48.4099 55.414C48.4099 53.502 50.362 53.057 52.541 52.943V52.66C52.541 52.077 52.141 51.818 51.391 51.818C50.6869 51.8437 49.993 51.9947 49.3419 52.264L48.8159 50.798C49.7279 50.4571 50.6934 50.2817 51.667 50.28C53.627 50.28 54.615 51.033 54.615 52.945V57.287C53.7189 57.6337 52.7648 57.8061 51.804 57.795ZM52.541 54.312C51.359 54.361 50.459 54.498 50.459 55.349C50.459 55.94 50.953 56.264 51.739 56.264C52.0101 56.2712 52.2805 56.233 52.539 56.151V54.312H52.541Z" fill="#29B2A1"/>
<path d="M56.056 57.6329V47.1429H58.267V57.6329H56.056Z" fill="#29B2A1"/>
<path d="M62.3259 57.754C60.8359 57.754 60.204 56.936 60.204 55.324V52.084H59.353V50.4399H60.204V48.9009L62.3669 48.2939V50.4319H63.631V52.0759H62.3669V55.1619C62.3669 55.6559 62.667 55.8179 63.067 55.8179C63.2548 55.8181 63.4403 55.7765 63.61 55.696V57.5099C63.2047 57.6834 62.7666 57.7667 62.3259 57.754Z" fill="#29B2A1"/>
<path d="M68.838 57.6329V52.9919C68.838 52.3519 68.49 52.02 67.801 52.02C67.5247 52.029 67.2529 52.0922 67.0009 52.2059V57.6329H64.796V47.1429H67.007V50.6099C67.4466 50.4178 67.9203 50.3158 68.4 50.3099C70.125 50.3099 71.065 51.1689 71.065 52.7639V57.624H68.837L68.838 57.6329Z" fill="#29B2A1"/>
<path d="M30.173 33.775C34.741 23.512 22.9069 21.795 22.4859 13.233C22.2429 8.16201 26.609 4.033 31.686 4.033C33.8842 4.03252 36.0101 4.81867 37.6792 6.24928C39.3482 7.67989 40.4503 9.66051 40.786 11.833C40.8372 12.2192 41.0257 12.5741 41.3171 12.8327C41.6086 13.0913 41.9834 13.2362 42.373 13.241H42.4729C42.9014 13.2394 43.3117 13.068 43.6139 12.7643C43.9161 12.4606 44.0855 12.0494 44.0849 11.621C44.0839 11.5451 44.0786 11.4693 44.0689 11.394C43.6238 8.43094 42.1292 5.72638 39.8572 3.7729C37.5853 1.81942 34.6873 0.746983 31.691 0.750988C24.782 0.750988 18.9329 6.35101 19.1839 13.258C19.5319 22.758 32.0469 25.74 30.1759 33.775" fill="#29B2A1"/>
<path d="M35.8059 24.9379L34.956 22.4429L33.5139 25.5289L32.2589 21.6809L30.793 24.5079H27.73V25.0989H31.213L32.136 23.499L33.408 27.338L34.866 24.2189L35.595 26.3569L36.454 24.9719H40.229L40.278 24.356H36.123L35.8059 24.9379Z" fill="#29B2A1"/>
<path d="M34.356 11.3701C29.788 21.6331 41.622 23.35 42.043 31.912C42.286 36.983 37.92 41.1121 32.843 41.1121C30.6447 41.1125 28.5188 40.3264 26.8498 38.8958C25.1807 37.4651 24.0787 35.4845 23.743 33.312C23.692 32.9254 23.5034 32.5702 23.2117 32.3114C22.92 32.0526 22.5449 31.9076 22.155 31.903H22.055C21.6266 31.9046 21.2162 32.0761 20.914 32.3798C20.6119 32.6835 20.4424 33.0946 20.443 33.523C20.444 33.5989 20.4493 33.6748 20.459 33.7501C20.9041 36.7129 22.3986 39.4173 24.6703 41.3708C26.9421 43.3243 29.8399 44.3968 32.836 44.393C39.745 44.393 45.594 38.793 45.342 31.887C44.986 22.387 32.463 19.397 34.35 11.369" fill="#26637F"/>
</svg>
