<svg width="308" height="260" viewBox="0 0 308 260" fill="none" xmlns="http://www.w3.org/2000/svg">
<g opacity="0.4">
<path d="M296.382 155.434C284.265 177.239 285.373 192.851 289.89 205.252C296.211 222.625 309.224 233.663 301.922 246.576C299.763 250.397 295.828 254.389 289.407 258.764L45.756 259.403C45.756 259.403 -0.0989822 254.062 0.00101781 206.858C0.0580178 175.649 15.485 164.81 42.101 152.338C77.146 135.917 20.054 72.177 59.488 30.015C98.922 -12.147 150.204 -7.51601 178.643 36.947C207.082 81.41 226.217 87.873 249.77 76.509C263.07 70.088 284.104 74.946 296.705 89.592C304.958 99.181 309.575 112.96 306.005 130.504C304.099 139.26 300.853 147.669 296.382 155.434Z" fill="#8A9EDD"/>
<path d="M306.014 130.489C303.097 132.149 299.838 133.117 296.488 133.318C293.137 133.519 289.786 132.948 286.691 131.649C283.597 130.35 280.842 128.358 278.639 125.826C276.436 123.294 274.844 120.29 273.986 117.045C273.127 113.801 273.025 110.402 273.688 107.112C274.35 103.822 275.76 100.728 277.807 98.0685C279.854 95.4092 282.485 93.2555 285.496 91.7736C288.508 90.2916 291.819 89.5209 295.175 89.521C295.686 89.521 296.198 89.535 296.695 89.578C304.962 99.166 309.579 112.946 306.014 130.489Z" fill="white"/>
<path d="M301.937 246.576C301.257 246.645 300.574 246.679 299.891 246.676C294.973 246.676 290.197 245.021 286.333 241.978C282.469 238.936 279.74 234.682 278.586 229.901C277.432 225.12 277.919 220.089 279.97 215.619C282.02 211.148 285.515 207.497 289.891 205.253C296.212 222.612 309.224 233.664 301.937 246.576Z" fill="white"/>
</g>
</svg>
