<svg width="309" height="260" viewBox="0 0 309 260" fill="none" xmlns="http://www.w3.org/2000/svg">
<path opacity="0.4" d="M297.482 154.582C285.365 176.387 286.473 191.999 290.99 204.4C297.311 221.773 310.324 232.811 303.022 245.724C300.863 249.545 296.928 253.537 290.507 257.912L46.856 258.551C46.856 258.551 1.00099 253.21 1.10099 206.006C1.15799 174.797 16.585 163.958 43.201 151.486C78.246 135.065 21.154 71.3248 60.588 29.1628C100.022 -12.9992 151.304 -8.36819 179.743 36.0948C208.182 80.5578 227.317 87.0208 250.87 75.6568C264.17 69.2358 285.204 74.0938 297.805 88.7398C306.058 98.3288 310.675 112.108 307.105 129.652C305.199 138.407 301.953 146.816 297.482 154.582Z" fill="#8A9EDD"/>
<path opacity="0.4" d="M307.114 129.637C304.197 131.297 300.938 132.264 297.587 132.465C294.237 132.667 290.886 132.096 287.791 130.797C284.697 129.498 281.942 127.505 279.739 124.973C277.536 122.441 275.944 119.437 275.086 116.193C274.227 112.948 274.125 109.55 274.788 106.26C275.45 102.97 276.859 99.8757 278.907 97.2164C280.954 94.557 283.585 92.4033 286.596 90.9214C289.608 89.4394 292.919 88.6687 296.275 88.6688C296.786 88.6688 297.298 88.6828 297.795 88.7258C306.062 98.3138 310.679 112.094 307.114 129.637Z" fill="white"/>
<path opacity="0.4" d="M303.037 245.724C302.357 245.793 301.674 245.826 300.991 245.824C296.073 245.823 291.297 244.169 287.433 241.126C283.569 238.084 280.84 233.83 279.686 229.049C278.532 224.268 279.019 219.237 281.07 214.767C283.12 210.296 286.615 206.645 290.991 204.401C297.312 221.76 310.324 232.812 303.037 245.724Z" fill="white"/>
<path d="M129.454 197.973C129.454 197.973 131.367 185.247 138.67 176.131C138.884 178.285 139.24 180.423 139.735 182.531C141.69 181.189 143.816 180.115 146.056 179.337C143.737 186.761 139.748 193.556 134.395 199.199L129.454 197.973Z" fill="#CE3932"/>
<path d="M132.682 198.389C132.682 198.389 131.052 182.689 126.96 171.939C126.96 171.939 125.313 176.214 124.747 178.011L119.075 173.902C119.075 173.902 122.934 186.378 127.126 199.187L132.682 198.389Z" fill="#CE3932"/>
<path d="M149.816 192.982C149.816 192.982 155.089 194.346 155.405 198.605C155.638 201.865 146.905 200.784 146.905 200.784C146.905 200.784 153.559 202.447 157.069 200.95C160.579 199.453 161.128 198.172 159.847 195.327C158.547 192.499 156.087 187.692 152.827 188.806C151.933 189.069 151.152 189.622 150.607 190.378C150.062 191.134 149.783 192.05 149.816 192.982Z" fill="#CE3932"/>
<path d="M162.042 206.973H99.644V254.749H162.042V206.973Z" fill="#FC4768"/>
<path d="M162.042 206.973H99.644V214.292H162.042V206.973Z" fill="#DF1515"/>
<path d="M164.089 202.947H97.598V211.082H164.089V202.947Z" fill="#FC4768"/>
<path d="M137.672 202.947H123.998C123.999 201.628 124.523 200.363 125.456 199.431C126.388 198.498 127.653 197.974 128.972 197.973H132.698C134.017 197.974 135.282 198.498 136.214 199.431C137.147 200.363 137.671 201.628 137.672 202.947Z" fill="#EB5648"/>
<path d="M147.105 185.33C136.758 187.23 130.853 197.973 130.853 197.973L136.758 202.947C152.828 202.947 158.434 202.947 160.912 199.703C163.39 196.442 157.435 183.45 147.105 185.33ZM158.117 199.27C154.807 201.25 146.156 201.25 138.355 199.453C138.355 199.453 148.17 191.368 155.355 192.317C158.616 192.749 160.28 197.973 158.117 199.27Z" fill="#EB5648"/>
<path d="M112.087 192.982C112.087 192.982 106.814 194.346 106.498 198.605C106.265 201.865 114.998 200.784 114.998 200.784C114.998 200.784 108.344 202.447 104.834 200.95C101.324 199.453 100.775 198.172 102.056 195.327C103.356 192.499 105.816 187.692 109.076 188.806C109.973 189.065 110.757 189.617 111.303 190.374C111.848 191.131 112.125 192.049 112.087 192.982Z" fill="#CE3932"/>
<path d="M101.008 199.703C103.487 202.947 109.093 202.947 125.162 202.947L131.068 197.973C131.068 197.973 125.162 187.227 114.816 185.33C104.468 183.45 98.529 196.442 101.008 199.703ZM106.564 192.317C113.75 191.369 123.564 199.453 123.564 199.453C115.764 201.233 107.112 201.253 103.801 199.27C101.64 197.973 103.304 192.749 106.564 192.317Z" fill="#EB5648"/>
<path d="M106.244 229.513C106.242 231.145 105.593 232.709 104.439 233.863C103.285 235.017 101.721 235.666 100.089 235.668C99.9391 235.67 99.7893 235.665 99.64 235.651V223.374C99.7893 223.36 99.9391 223.354 100.089 223.357C101.721 223.359 103.286 224.008 104.44 225.162C105.593 226.316 106.242 227.881 106.244 229.513Z" fill="#DF1515"/>
<path d="M121.968 222.562C122.513 219.207 120.234 216.045 116.878 215.501C113.523 214.956 110.362 217.235 109.817 220.59C109.272 223.946 111.551 227.107 114.907 227.652C118.262 228.196 121.423 225.918 121.968 222.562Z" fill="#DF1515"/>
<path d="M115.897 246.98C119.296 246.98 122.052 244.224 122.052 240.825C122.052 237.425 119.296 234.67 115.897 234.67C112.498 234.67 109.742 237.425 109.742 240.825C109.742 244.224 112.498 246.98 115.897 246.98Z" fill="#DF1515"/>
<path d="M105.816 253.019C105.818 253.605 105.734 254.188 105.566 254.749H99.644V246.864H99.661C101.293 246.866 102.857 247.515 104.011 248.669C105.165 249.823 105.814 251.387 105.816 253.019Z" fill="#DF1515"/>
<path d="M133.463 254.749H121.153C121.153 253.116 121.801 251.551 122.956 250.397C124.11 249.242 125.676 248.594 127.308 248.594C128.94 248.594 130.506 249.242 131.66 250.397C132.815 251.551 133.463 253.116 133.463 254.749Z" fill="#DF1515"/>
<path d="M135.36 238.846C138.759 238.846 141.515 236.09 141.515 232.691C141.515 229.292 138.759 226.536 135.36 226.536C131.961 226.536 129.205 229.292 129.205 232.691C129.205 236.09 131.961 238.846 135.36 238.846Z" fill="#DF1515"/>
<path d="M149.2 228.049C152.599 228.049 155.355 225.293 155.355 221.894C155.355 218.495 152.599 215.739 149.2 215.739C145.801 215.739 143.045 218.495 143.045 221.894C143.045 225.293 145.801 228.049 149.2 228.049Z" fill="#DF1515"/>
<path d="M153.759 247.969C154.304 244.614 152.025 241.452 148.669 240.908C145.314 240.363 142.153 242.642 141.608 245.997C141.063 249.353 143.342 252.514 146.698 253.059C150.053 253.603 153.214 251.325 153.759 247.969Z" fill="#DF1515"/>
<path d="M162.043 229.414V241.524C161.201 241.679 160.337 241.657 159.504 241.459C158.672 241.261 157.89 240.892 157.208 240.375C156.526 239.858 155.959 239.205 155.544 238.457C155.129 237.708 154.874 236.882 154.797 236.03C154.719 235.178 154.819 234.319 155.092 233.507C155.365 232.696 155.804 231.951 156.381 231.319C156.958 230.687 157.66 230.182 158.443 229.837C159.226 229.492 160.072 229.314 160.928 229.314C161.311 229.331 161.673 229.364 162.043 229.414Z" fill="#DF1515"/>
<path d="M136.758 201.916H124.93V254.749H136.758V201.916Z" fill="#EB5648"/>
<path d="M44.749 142.37C44.749 142.37 63.38 134.003 65.077 165.127C66.558 192.192 70.068 222.651 51.786 237.257C37.014 249.051 7.936 251.397 2.596 229.472C-0.530995 216.646 7.40397 203.438 11.147 188.45C14.839 173.777 14.107 139.991 44.749 142.37Z" fill="#662948"/>
<path d="M90.195 229.837C83.7073 231.945 76.8638 232.737 70.066 232.166C64.4134 231.718 58.8253 230.664 53.398 229.022L53.098 223.366L51.867 199.544L51.551 193.555C51.551 193.555 52.466 193.455 53.951 193.422C57.145 193.339 62.934 193.622 67.542 196.067C74.013 199.511 80.917 202.338 86.955 200.891C88.4528 200.535 89.8733 199.91 91.147 199.045C93.659 197.365 95.356 194.287 97.834 190.428C102.991 182.41 106.884 169.701 106.884 169.701L117.797 167.322C124.397 189.048 117.361 220.638 90.195 229.837Z" fill="#FCAA23"/>
<path d="M52.267 187.517L51.452 193.589C49.273 200.659 39.891 195.119 38.327 192.325L39.741 183.525L52.267 187.517Z" fill="#F99370"/>
<path d="M59.887 201.009C59.887 201.009 67.2561 210.175 71.4821 216.509C75.7081 222.843 76.1071 227.422 76.1071 227.422L63.913 228.487L59.887 201.009Z" fill="#FF7708"/>
<path d="M39.675 173.045C39.6745 173.273 39.6912 173.501 39.725 173.727C40.041 173.561 39.808 181.662 39.11 187.534C44.333 190.711 50.738 190.445 51.902 190.362C52.8493 184.174 53.0337 177.894 52.451 171.662C51.07 164.176 39.425 165.443 39.675 173.045Z" fill="#E57D61"/>
<path d="M31.203 168.537C32.218 174.326 34.281 180.83 38.903 184.607C40.8073 186.105 43.0576 187.1 45.447 187.501C58.905 191.177 74.742 174.991 63.947 163.829C60.054 160.336 59.1401 154.048 56.0291 150.571C51.4711 144.171 41.706 144.649 36.499 149.989C31.823 154.813 30.276 161.417 31.203 168.537Z" fill="#F99370"/>
<path d="M53.299 164.644C53.3937 164.435 53.4031 164.198 53.3252 163.982C53.2473 163.767 53.0883 163.591 52.8821 163.491C52.676 163.391 52.4389 163.376 52.2216 163.448C52.0043 163.521 51.824 163.675 51.7191 163.879C51.6244 164.087 51.615 164.325 51.6929 164.54C51.7708 164.756 51.9297 164.932 52.1359 165.032C52.3421 165.132 52.5791 165.147 52.7964 165.074C53.0137 165.002 53.1941 164.847 53.299 164.644Z" fill="#01011E"/>
<path d="M60.668 163.296C60.7627 163.087 60.772 162.85 60.6941 162.635C60.6163 162.419 60.4573 162.243 60.2511 162.143C60.0449 162.043 59.8079 162.028 59.5906 162.1C59.3733 162.173 59.1929 162.327 59.088 162.531C58.9933 162.739 58.9839 162.977 59.0618 163.192C59.1397 163.408 59.2987 163.584 59.5049 163.684C59.7111 163.784 59.9481 163.799 60.1654 163.727C60.3827 163.654 60.5631 163.499 60.668 163.296Z" fill="#01011E"/>
<path d="M58.489 170.932C57.957 170.949 56.759 171.165 56.776 170.432C56.7866 170.389 56.8064 170.348 56.8338 170.314C56.8612 170.279 56.8957 170.25 56.9351 170.23C56.9745 170.209 57.0178 170.197 57.0621 170.195C57.1064 170.193 57.1507 170.2 57.192 170.216C58.307 170.549 59.887 169.983 60.087 169.467C60.154 169.284 59.921 169.118 59.704 169.001C57.824 168.086 55.346 162.896 57.059 164.077C57.076 164.11 58.34 167.537 60.02 168.402C61.916 169.685 59.969 170.7 58.489 170.932Z" fill="#C16256"/>
<path d="M31.208 168.536C32.223 174.325 34.285 180.829 38.908 184.606C36.33 181.495 34.6331 174.459 34.6331 174.459L35.781 171.298C55.826 164.511 53.7971 148.242 53.7971 148.242C40.8371 139.225 28.38 155.295 31.208 168.536Z" fill="#E57D61"/>
<path d="M51.735 146.961C51.735 146.961 53.581 162.881 35.649 169.685L29.149 166.225C22.657 153.931 33.819 135.599 51.735 146.961Z" fill="#662948"/>
<path d="M30.625 142.353C35.017 157.474 52.65 152.653 48.707 137.396C44.316 122.274 26.683 127.098 30.625 142.353Z" fill="#662948"/>
<path d="M27.564 171.531C28.964 178.069 37.212 176.205 35.649 169.701C34.252 163.145 26.017 165.027 27.564 171.531Z" fill="#F99370"/>
<path d="M29.727 172.862C28.346 171.448 28.845 168.554 29.544 168.054C30.844 166.989 33.204 167.522 33.037 168.187C32.621 168.852 31.274 167.472 30.009 168.536C28.695 169.519 30.492 172.297 29.727 172.862Z" fill="#C16256"/>
<path d="M32.822 172.342C32.14 172.309 31.857 169.842 29.245 169.63C29.158 169.622 29.0771 169.582 29.0185 169.517C28.9599 169.453 28.928 169.368 28.929 169.281C30.742 167.871 34.053 172.463 32.822 172.342Z" fill="#C16256"/>
<path d="M70.7 227.91C70.5915 229.342 70.3857 230.765 70.084 232.169C69.668 233.699 69.236 235.18 68.784 236.627C68.351 238.027 67.902 239.388 67.47 240.736C67.287 241.285 67.121 241.817 66.938 242.366L66.489 243.766C65.957 245.446 65.441 247.126 65.009 248.79C64.726 249.871 64.46 250.969 64.227 252.067C63.7503 254.402 63.4667 256.772 63.379 259.154H0V252.167C1.181 249.189 2.40001 246.079 3.26001 243.317C3.92501 241.188 4.66001 238.826 5.48901 236.33C7.46901 230.375 9.914 223.604 12.789 217.116C18.628 203.924 26.197 191.93 35.047 190.433C36.2692 190.225 37.5178 190.225 38.74 190.433C41.601 193.743 48.521 199.133 51.266 194.193C51.382 193.993 51.482 193.777 51.582 193.561C52.5901 193.896 53.543 194.378 54.41 194.992C56.7643 196.784 58.7617 199.002 60.299 201.53C62.229 204.474 63.876 207.668 65.339 210.28C65.921 211.295 66.47 212.226 66.986 213.008C68.5025 215.346 69.5908 217.935 70.2 220.654C70.233 220.787 70.25 220.904 70.283 221.037C70.3134 221.157 70.3358 221.28 70.35 221.403C70.5441 222.459 70.6721 223.525 70.733 224.597C70.7802 225.701 70.7692 226.807 70.7 227.91Z" fill="#FCAA23"/>
<path d="M57.676 172.979C57.3966 172.495 56.9786 172.107 56.476 171.864C55.9808 171.602 55.4193 171.492 54.862 171.548C54.6131 171.554 54.3703 171.626 54.1593 171.759C53.9482 171.891 53.7766 172.077 53.6625 172.298C53.5484 172.52 53.496 172.768 53.5109 173.016C53.5258 173.265 53.6073 173.505 53.747 173.711C54.0264 174.194 54.4444 174.583 54.947 174.826C55.3593 175.037 55.8147 175.151 56.278 175.159C56.3726 175.162 56.4674 175.156 56.561 175.142C56.8099 175.136 57.0526 175.063 57.2637 174.931C57.4748 174.799 57.6464 174.613 57.7605 174.391C57.8746 174.17 57.9269 173.922 57.912 173.674C57.8972 173.425 57.8156 173.185 57.676 172.979ZM57.194 174.094C57.1192 174.213 57.0162 174.312 56.8941 174.382C56.772 174.451 56.6346 174.49 56.494 174.494C56.0661 174.533 55.6364 174.44 55.263 174.228C54.8721 174.04 54.5472 173.739 54.331 173.363C54.2544 173.243 54.207 173.107 54.1926 172.965C54.1782 172.824 54.1971 172.681 54.248 172.548C54.3227 172.429 54.4258 172.33 54.5479 172.26C54.67 172.19 54.8074 172.152 54.948 172.148C55.015 172.148 55.081 172.131 55.148 172.131C55.5073 172.14 55.8599 172.231 56.179 172.397C56.5698 172.585 56.8947 172.886 57.111 173.262C57.1905 173.384 57.2392 173.523 57.2531 173.668C57.2671 173.812 57.2458 173.958 57.191 174.093L57.194 174.094Z" fill="#C16256"/>
<path d="M49.772 163.43C49.7326 163.432 49.6931 163.427 49.656 163.413C49.6173 163.397 49.5822 163.374 49.5528 163.344C49.5233 163.314 49.5001 163.279 49.4846 163.24C49.4691 163.201 49.4616 163.16 49.4625 163.118C49.4635 163.076 49.4728 163.035 49.49 162.997C49.8489 162.222 50.3853 161.543 51.0558 161.014C51.7263 160.485 52.5119 160.121 53.349 159.953C53.432 159.937 53.5178 159.955 53.588 160.002C53.6582 160.049 53.7072 160.121 53.7246 160.204C53.742 160.286 53.7264 160.372 53.681 160.444C53.6357 160.515 53.5642 160.566 53.482 160.585C52.7494 160.737 52.062 161.057 51.4732 161.518C50.8845 161.98 50.4104 162.572 50.088 163.247C50.054 163.301 50.0076 163.345 49.9525 163.377C49.8975 163.409 49.8356 163.427 49.772 163.43Z" fill="#C16256"/>
<path d="M60.801 160.785C60.7676 160.786 60.7341 160.781 60.7027 160.77C60.6712 160.758 60.6425 160.741 60.618 160.718C59.5474 160.019 58.2476 159.763 56.992 160.003C56.9507 160.015 56.9074 160.019 56.8645 160.014C56.8217 160.01 56.7803 159.996 56.7428 159.975C56.7054 159.953 56.6727 159.925 56.6468 159.89C56.6208 159.856 56.6022 159.816 56.592 159.775C56.5817 159.733 56.5802 159.689 56.5874 159.647C56.5946 159.604 56.6103 159.564 56.6337 159.527C56.6571 159.491 56.6877 159.46 56.7235 159.436C56.7593 159.412 56.7996 159.396 56.842 159.388C57.5546 159.24 58.2895 159.237 59.0036 159.376C59.7177 159.516 60.3968 159.797 61.001 160.203C61.0352 160.228 61.0641 160.259 61.086 160.295C61.108 160.331 61.1225 160.371 61.1288 160.413C61.135 160.455 61.1328 160.498 61.1224 160.539C61.112 160.58 61.0934 160.618 61.068 160.652C61.0361 160.692 60.9956 160.725 60.9494 160.748C60.9033 160.771 60.8526 160.784 60.801 160.785Z" fill="#C16256"/>
<path d="M43.651 209.21C44.251 256.803 83.176 219.59 89.614 195.852C90.0272 194.686 90.8711 193.723 91.9724 193.159C93.0738 192.596 94.3489 192.476 95.536 192.824C103.404 194.624 93.0569 219.59 90.3289 224.83C81.8449 242.497 60.286 258.566 41.172 245.79C28.729 237.156 25.951 220.721 27.564 206.747C28.878 194.238 43.651 209.21 43.651 209.21Z" fill="#F99370"/>
<path d="M142.812 167.339C142.994 167.889 143.031 168.478 142.92 169.047C142.809 169.616 142.553 170.147 142.177 170.588C141.8 171.03 141.317 171.367 140.773 171.567C140.228 171.767 139.641 171.823 139.069 171.731L118.907 168.437L97.897 175.357L102.355 188.881L97.83 190.411L93.355 176.853L86.755 179.032L84.127 179.897L78.554 162.897L81.2321 162.015L113.305 151.452L127.512 136.863L127.562 136.813C127.967 136.397 128.472 136.093 129.028 135.929C129.585 135.766 130.174 135.748 130.74 135.879C131.305 136.01 131.827 136.284 132.255 136.675C132.684 137.067 133.004 137.562 133.185 138.113L142.812 167.339Z" fill="#EB5648"/>
<path d="M102.988 189.78C103.118 189.763 103.246 189.735 103.371 189.697C103.463 189.679 103.552 189.651 103.637 189.614C103.803 189.564 103.97 189.498 104.137 189.431C104.463 189.283 104.775 189.104 105.069 188.899C105.356 188.684 105.613 188.432 105.834 188.15C106.045 187.877 106.214 187.573 106.334 187.25C106.411 187.021 106.438 186.779 106.412 186.539C106.386 186.299 106.309 186.068 106.186 185.861C106.062 185.654 105.895 185.476 105.696 185.34C105.498 185.203 105.272 185.112 105.034 185.071C104.676 184.966 104.299 184.95 103.933 185.022C103.568 185.094 103.225 185.254 102.934 185.487L102.119 186.169L102.136 186.152C102.127 186.161 102.116 186.167 102.103 186.169L102.07 186.186L102.17 186.169C101.909 186.186 101.655 186.257 101.423 186.377C101.192 186.498 100.987 186.665 100.823 186.868C100.659 187.071 100.539 187.306 100.47 187.558C100.401 187.81 100.385 188.073 100.423 188.332C100.596 188.848 100.954 189.281 101.427 189.548C101.901 189.816 102.457 189.898 102.988 189.78Z" fill="#F99370"/>
<path d="M102.306 186.885C102.411 186.845 102.511 186.795 102.606 186.735L102.839 186.619C102.989 186.536 103.122 186.453 103.271 186.353C103.56 186.165 103.828 185.948 104.071 185.704C104.333 185.442 104.557 185.145 104.736 184.822C104.925 184.474 105.055 184.097 105.119 183.707C105.134 183.445 105.095 183.183 105.004 182.937C104.913 182.69 104.773 182.465 104.593 182.275C104.412 182.085 104.194 181.934 103.953 181.831C103.711 181.729 103.451 181.676 103.189 181.678C102.649 181.601 102.101 181.729 101.651 182.037C101.201 182.346 100.883 182.811 100.76 183.342C100.76 183.292 100.793 183.275 100.727 183.359C100.68 183.407 100.63 183.451 100.577 183.492C100.541 183.518 100.502 183.54 100.461 183.559L100.411 183.592C100.411 183.592 100.361 183.609 100.428 183.592C100.182 183.669 99.9553 183.799 99.765 183.973C99.5746 184.148 99.4249 184.362 99.3265 184.6C99.2281 184.839 99.1834 185.096 99.1956 185.354C99.2078 185.612 99.2766 185.864 99.397 186.092C99.7096 186.547 100.173 186.876 100.706 187.022C101.239 187.167 101.806 187.118 102.306 186.885Z" fill="#F99370"/>
<path d="M102.118 183.276L103.565 181.795C103.753 181.625 103.899 181.413 103.991 181.178C104.084 180.942 104.122 180.688 104.101 180.436C104.08 180.183 104.001 179.939 103.871 179.722C103.741 179.504 103.562 179.32 103.349 179.183C102.872 178.881 102.306 178.749 101.744 178.809C101.182 178.87 100.657 179.119 100.255 179.516L98.808 180.997C98.6204 181.167 98.4745 181.378 98.3816 181.614C98.2887 181.85 98.2512 182.104 98.2721 182.356C98.293 182.609 98.3717 182.853 98.5021 183.07C98.6325 183.287 98.8111 183.472 99.0241 183.609C99.5012 183.912 100.067 184.045 100.629 183.984C101.191 183.924 101.716 183.674 102.118 183.276Z" fill="#F99370"/>
<path d="M100.555 180.398L102.002 178.917C102.19 178.747 102.335 178.535 102.428 178.3C102.521 178.064 102.559 177.81 102.538 177.558C102.517 177.305 102.438 177.061 102.308 176.844C102.178 176.626 101.999 176.442 101.786 176.305C101.309 176.002 100.743 175.871 100.181 175.931C99.619 175.992 99.0941 176.241 98.692 176.638L97.2449 178.118C97.0574 178.288 96.9115 178.499 96.8185 178.735C96.7256 178.971 96.6882 179.225 96.7091 179.477C96.7299 179.73 96.8087 179.974 96.939 180.191C97.0694 180.408 97.248 180.593 97.461 180.73C97.9383 181.032 98.5041 181.164 99.066 181.104C99.6279 181.044 100.153 180.795 100.555 180.398Z" fill="#F99370"/>
<path d="M98.3969 199.545C98.3969 199.545 103.77 192.145 105.068 188.882C105.068 188.882 101.591 174.775 99.179 176.273C96.767 177.753 87.85 185.106 89.564 196.173C91.2022 195.684 92.9559 195.749 94.5532 196.359C96.1504 196.968 97.5016 198.088 98.3969 199.545Z" fill="#F99370"/>
<path d="M139.07 171.731L127.525 136.864L127.575 136.814C127.98 136.398 128.485 136.094 129.041 135.93C129.598 135.767 130.187 135.749 130.753 135.88C131.318 136.011 131.84 136.285 132.268 136.676C132.697 137.067 133.017 137.563 133.198 138.114L142.825 167.34C143.003 167.891 143.037 168.479 142.923 169.047C142.809 169.615 142.552 170.145 142.175 170.585C141.798 171.025 141.315 171.362 140.772 171.562C140.228 171.763 139.642 171.821 139.07 171.731Z" fill="#CE3932"/>
<path d="M86.769 179.034L84.1411 179.899L78.552 162.899L81.23 162.017L86.769 179.034Z" fill="#CE3932"/>
<path d="M89.331 168.836C89.331 169.135 89.2421 169.428 89.0757 169.677C88.9094 169.926 88.673 170.12 88.3963 170.235C88.1197 170.349 87.8152 170.379 87.5215 170.321C87.2279 170.262 86.9581 170.118 86.7464 169.906C86.5347 169.695 86.3905 169.425 86.3321 169.131C86.2737 168.837 86.3036 168.533 86.4182 168.256C86.5327 167.98 86.7268 167.743 86.9758 167.577C87.2247 167.411 87.5175 167.322 87.817 167.322C88.2181 167.323 88.6024 167.483 88.8861 167.767C89.1697 168.05 89.3297 168.435 89.331 168.836Z" fill="#CE3932"/>
<path d="M93.789 167.323C93.789 167.622 93.7003 167.915 93.5339 168.164C93.3675 168.413 93.1311 168.607 92.8545 168.722C92.5778 168.836 92.2734 168.866 91.9797 168.808C91.686 168.749 91.4162 168.605 91.2044 168.393C90.9927 168.182 90.8486 167.912 90.7901 167.618C90.7317 167.324 90.7617 167.02 90.8763 166.743C90.9909 166.467 91.185 166.23 91.4339 166.064C91.6829 165.898 91.9756 165.809 92.275 165.809C92.6761 165.81 93.0606 165.97 93.3442 166.254C93.6279 166.537 93.7877 166.922 93.789 167.323Z" fill="#CE3932"/>
<path d="M98.231 165.809C98.231 166.108 98.1421 166.401 97.9758 166.65C97.8094 166.899 97.573 167.093 97.2963 167.208C97.0197 167.322 96.7153 167.352 96.4216 167.294C96.1279 167.235 95.8582 167.091 95.6464 166.879C95.4347 166.668 95.2905 166.398 95.2321 166.104C95.1737 165.81 95.2036 165.506 95.3182 165.229C95.4328 164.953 95.6268 164.716 95.8758 164.55C96.1248 164.384 96.4175 164.295 96.717 164.295C97.1181 164.296 97.5024 164.456 97.7861 164.74C98.0697 165.023 98.2297 165.408 98.231 165.809Z" fill="#CE3932"/>
<path d="M66.973 242.363C65.4086 246.285 64.287 250.369 63.629 254.54C23.821 260.64 13.74 234.561 11.178 220.97C11.993 218.97 12.792 217.094 13.578 215.347L46.016 236.956C53.0953 238.373 60.0915 240.178 66.973 242.363Z" fill="#FF7708"/>
<path d="M98.431 200.31C96.684 217.827 88.799 243.51 68.588 250.681C43.735 260.063 14.075 243.881 12.777 217.161C10.977 195.652 27.765 190.245 35.068 190.428C37.214 191.376 38.828 193.688 40.541 196.783C45.997 205.883 45.299 215.883 53.117 223.366C67.473 233.247 83.227 206.182 89.032 197.566C91.278 200.277 98.298 200.759 98.431 200.31Z" fill="#FCAA23"/>
<path d="M59.154 225.878C57.7117 225.869 56.2917 225.521 55.0087 224.862C53.7257 224.203 52.6156 223.252 51.768 222.085C48.724 218.325 45.796 210.973 45.679 210.673C45.6499 210.588 45.6549 210.495 45.693 210.413C45.7311 210.332 45.7992 210.268 45.8832 210.236C45.9671 210.203 46.0604 210.205 46.1433 210.24C46.2262 210.275 46.2925 210.34 46.328 210.423C46.361 210.506 49.339 217.992 52.317 221.668C54.796 224.712 58.788 227.557 67.817 222.3C76.234 217.409 86.717 201.157 86.817 201.007C86.8677 200.93 86.9471 200.876 87.0376 200.857C87.1281 200.838 87.2223 200.857 87.2995 200.907C87.3767 200.958 87.4305 201.037 87.4492 201.128C87.4678 201.218 87.4498 201.313 87.399 201.39C86.967 202.055 76.736 217.942 68.169 222.916C64.727 224.863 61.749 225.878 59.154 225.878Z" fill="#FF7708"/>
<path d="M90.629 229.471C90.5724 229.468 90.5165 229.457 90.463 229.438C90.3826 229.395 90.322 229.322 90.2941 229.235C90.2661 229.148 90.2729 229.054 90.313 228.972C94.2858 221.268 96.6408 212.833 97.233 204.186C97.2335 204.141 97.243 204.096 97.2609 204.055C97.2788 204.014 97.3048 203.977 97.3373 203.946C97.3698 203.915 97.4083 203.891 97.4503 203.875C97.4923 203.859 97.5371 203.851 97.582 203.853C97.6719 203.857 97.7567 203.895 97.8187 203.96C97.8808 204.025 97.9154 204.112 97.915 204.202C97.3201 212.959 94.9378 221.501 90.915 229.302C90.8872 229.353 90.8458 229.396 90.7954 229.426C90.745 229.456 90.6876 229.471 90.629 229.471Z" fill="#FF7708"/>
<path d="M98.431 200.309C98.315 201.473 98.148 202.921 97.915 204.534C97.915 204.584 97.8979 204.65 97.8979 204.7C95.8892 205.034 93.831 204.914 91.8752 204.347C89.9194 203.779 88.116 202.78 86.598 201.423C86.665 201.323 86.714 201.24 86.781 201.157C88.212 198.957 89.043 197.547 89.043 197.547C90.3191 198.652 91.8176 199.47 93.4371 199.947C95.0567 200.423 96.7597 200.547 98.431 200.309Z" fill="#FF7708"/>
<path d="M51.868 199.528C51.0309 199.888 50.1455 200.124 49.24 200.228C46.046 200.644 42.985 198.897 40.523 196.768C38.4929 194.964 36.7038 192.907 35.2 190.646C35.1 190.496 35.05 190.413 35.05 190.413C36.2461 190.071 37.5139 190.071 38.71 190.413C41.688 193.856 49.04 199.546 51.552 193.54C51.552 193.54 52.467 193.44 53.952 193.407C54.1537 193.887 54.2935 194.391 54.368 194.907C54.5777 195.849 54.4403 196.835 53.981 197.684C53.5217 198.533 52.7714 199.188 51.868 199.528Z" fill="#FF7708"/>
<path d="M140.75 139.824L138.105 137.811L141.632 133.186L144.277 135.199L140.75 139.824ZM147.803 130.558L145.158 128.545L148.685 123.92L151.33 125.933L147.803 130.558ZM154.856 121.292L152.211 119.279L155.738 114.654L158.383 116.667L154.856 121.292ZM161.909 112.043L159.264 110.03L162.791 105.405L165.436 107.418L161.909 112.043ZM168.962 102.777L166.317 100.764L169.661 96.3718L172.306 98.3848L168.962 102.777Z" fill="white"/>
<path d="M242.491 174.591L236.752 173.626L237.301 170.349L243.04 171.314L242.491 174.591ZM230.996 172.661L225.257 171.696L225.806 168.419L231.545 169.384L230.996 172.661ZM219.518 170.731L213.779 169.766L214.328 166.489L220.067 167.454L219.518 170.731ZM208.04 168.801L202.301 167.836L202.85 164.559L208.589 165.524L208.04 168.801ZM196.545 166.871L190.806 165.906L191.355 162.629L197.094 163.594L196.545 166.871ZM185.067 164.941L179.328 163.976L179.877 160.699L185.616 161.664L185.067 164.941ZM173.589 163.011L167.85 162.046L168.399 158.769L174.138 159.734L173.589 163.011ZM162.094 161.081L156.355 160.116L156.904 156.839L162.643 157.804L162.094 161.081ZM150.616 159.151L144.877 158.186L145.426 154.909L151.165 155.874L150.616 159.151Z" fill="white"/>
<path d="M178.644 192.774L174.019 189.231L176.049 186.586L180.674 190.129L178.644 192.774ZM169.395 185.687L164.77 182.144L166.8 179.499L171.425 183.042L169.395 185.687ZM160.163 178.6L155.538 175.057L157.567 172.412L162.192 175.955L160.163 178.6ZM150.914 171.513L146.289 167.97L148.318 165.325L152.943 168.868L150.914 171.513Z" fill="white"/>
<path d="M143.411 148.707L142.563 145.496L148.186 144.015L149.035 147.226L143.411 148.707ZM154.673 145.729L153.825 142.518L159.448 141.037L160.296 144.248L154.673 145.729ZM165.918 142.768L165.07 139.557L170.693 138.076L171.541 141.287L165.918 142.768ZM177.18 139.79L176.332 136.579L181.955 135.098L182.804 138.309L177.18 139.79ZM188.442 136.829L187.594 133.618L193.217 132.137L194.066 135.348L188.442 136.829ZM199.704 133.851L198.856 130.64L204.479 129.16L205.327 132.371L199.704 133.851ZM210.966 130.89L210.118 127.679L215.741 126.198L216.589 129.409L210.966 130.89Z" fill="white"/>
<path d="M218.653 114.722C218.636 131.322 236.153 143.285 251.453 137.728C256.422 136.031 260.723 132.8 263.737 128.501C266.75 124.202 268.321 119.056 268.221 113.807C267.061 81.2359 218.602 82.1218 218.653 114.722Z" fill="#8A9EDD"/>
<path d="M246.364 122.125L239.445 122.253L239.596 130.419L246.515 130.292L246.364 122.125Z" fill="#F99370"/>
<path d="M248.48 128.878C249.145 131.078 250.493 135.066 251.458 137.728C254.633 136.642 257.554 134.921 260.042 132.671C256.58 130.429 252.597 129.123 248.48 128.878Z" fill="#EB5648"/>
<path d="M227.32 133.104C229.672 135.119 232.38 136.676 235.305 137.695C236.137 135.083 237.285 131.241 237.85 129.078C234.095 129.661 230.506 131.033 227.32 133.104Z" fill="#EB5648"/>
<path d="M251.457 137.728C252.072 137.512 252.688 137.279 253.27 137.028C251.739 134.283 250.193 131.655 248.479 128.877C248.494 128.233 248.306 127.6 247.942 127.069C247.578 126.538 247.056 126.134 246.45 125.916C244.177 126.44 241.818 126.474 239.53 126.016C239.53 126.016 237.367 126.998 237.83 129.027C236.35 131.755 234.986 134.35 233.655 137.045C239.303 139.453 245.641 139.697 251.457 137.728Z" fill="#EB5648"/>
<path d="M231.362 112.043C232.277 115.902 237.001 114.821 236.12 110.943C235.205 107.086 230.497 108.167 231.362 112.043Z" fill="#F99370"/>
<path d="M254.518 111.611C253.753 115.504 248.995 114.589 249.727 110.696C250.492 106.803 255.25 107.718 254.518 111.611Z" fill="#F99370"/>
<path d="M233.275 116.203C234.057 129.178 254.851 126.903 252.555 113.891C252.222 111.313 251.255 109.599 250.755 105.491C249.574 95.9588 236 95.7098 234.968 105.707C234.573 109.649 233.193 112.576 233.275 116.203Z" fill="#F99370"/>
<path d="M240.295 110.214C240.325 110.153 240.342 110.086 240.345 110.018C240.349 109.951 240.34 109.883 240.317 109.819C240.295 109.754 240.26 109.695 240.215 109.645C240.17 109.594 240.115 109.553 240.054 109.523C239.992 109.494 239.926 109.477 239.858 109.473C239.79 109.469 239.722 109.479 239.658 109.501C239.594 109.523 239.535 109.558 239.484 109.604C239.434 109.649 239.393 109.704 239.363 109.765C239.304 109.888 239.295 110.031 239.341 110.16C239.386 110.29 239.481 110.396 239.605 110.455C239.728 110.515 239.87 110.523 240 110.478C240.129 110.432 240.236 110.337 240.295 110.214Z" fill="#01011E"/>
<path d="M246.5 110.114C246.56 109.99 246.568 109.848 246.522 109.719C246.477 109.589 246.382 109.483 246.259 109.423C246.135 109.364 245.993 109.356 245.863 109.401C245.734 109.446 245.627 109.541 245.568 109.665C245.538 109.726 245.521 109.792 245.518 109.86C245.514 109.928 245.523 109.996 245.546 110.06C245.568 110.124 245.603 110.183 245.648 110.234C245.694 110.285 245.748 110.326 245.81 110.355C245.871 110.385 245.937 110.402 246.005 110.406C246.073 110.41 246.141 110.4 246.205 110.378C246.269 110.355 246.328 110.32 246.379 110.275C246.429 110.23 246.47 110.175 246.5 110.114Z" fill="#01011E"/>
<path d="M243.439 114.223C244.387 114.19 245.851 113.523 244.639 112.709C243.658 112.193 242.892 110.18 242.892 110.164C242.809 109.931 242.426 110.064 242.526 110.297C242.559 110.38 243.341 112.476 244.456 113.058C245.238 113.507 243.641 113.99 242.976 113.773C242.925 113.759 242.871 113.765 242.825 113.79C242.778 113.815 242.743 113.856 242.726 113.906C242.691 114.274 243.19 114.207 243.439 114.223Z" fill="#C16256"/>
<path d="M249.195 104.907C244.554 107.169 239.031 100.183 236.22 103.493L235.837 101.513L241.26 98.8508L250.043 101.729L249.195 104.907Z" fill="#E57D61"/>
<path d="M234.456 108.717C235.292 107.062 235.891 105.298 236.236 103.477C236.436 101.398 239.214 100.998 241.526 102.562C242.683 103.416 244.036 103.964 245.461 104.156C246.885 104.349 248.335 104.179 249.677 103.662C252.655 102.498 254.501 97.9228 251.407 95.3108C248.346 92.7108 245.252 94.8448 242.557 95.9108C239.064 97.3218 230.231 94.8068 234.456 108.717Z" fill="#8C4225"/>
<path d="M251.208 108.268C249.668 106.464 248.721 104.229 248.497 101.868L251.092 100.787C251.782 103.228 251.822 105.807 251.208 108.268Z" fill="#8C4225"/>
<path d="M232.377 112.792C232.407 112.79 232.435 112.782 232.462 112.768C232.488 112.754 232.51 112.734 232.528 112.71C232.545 112.686 232.557 112.659 232.563 112.63C232.568 112.601 232.567 112.571 232.56 112.542C231.86 110.642 232.527 109.664 234.041 110.213C235.388 109.764 230.614 108.55 232.194 112.658C232.202 112.699 232.225 112.736 232.259 112.761C232.293 112.786 232.335 112.797 232.377 112.792Z" fill="#C16256"/>
<path d="M233.84 112.443C234.44 112.376 233.59 110.63 232.14 110.563C232.091 110.563 232.044 110.583 232.009 110.617C231.974 110.651 231.953 110.697 231.951 110.746C231.948 110.795 231.965 110.843 231.997 110.88C232.029 110.917 232.074 110.941 232.123 110.946C233.591 111.066 233.474 112.393 233.84 112.443Z" fill="#C16256"/>
<path d="M253.42 112.41C254.701 110.331 253.104 108.684 251.507 109.532C251.483 109.541 251.462 109.555 251.444 109.573C251.426 109.591 251.412 109.612 251.402 109.636C251.392 109.659 251.387 109.684 251.388 109.71C251.388 109.735 251.393 109.76 251.403 109.783C251.413 109.807 251.427 109.828 251.446 109.845C251.464 109.863 251.486 109.877 251.509 109.886C251.533 109.895 251.558 109.899 251.584 109.898C251.609 109.897 251.634 109.891 251.657 109.881C253.004 109.299 253.919 110.131 253.237 112.16C253.23 112.189 253.229 112.219 253.234 112.248C253.24 112.277 253.252 112.304 253.269 112.328C253.287 112.352 253.309 112.372 253.335 112.386C253.361 112.4 253.39 112.408 253.42 112.41Z" fill="#C16256"/>
<path d="M251.64 112.177C251.989 112.127 252.156 110.73 253.619 110.547C253.668 110.542 253.712 110.519 253.743 110.481C253.775 110.444 253.789 110.395 253.785 110.347C253.137 109.498 250.775 112.077 251.64 112.177Z" fill="#C16256"/>
<path d="M252.572 113.888C251.507 109.796 251.672 108.764 250.572 106.668C251.093 109.115 251.461 111.593 251.672 114.087C252.105 116.449 250.491 116.965 248.761 116.287C245.401 114.773 241.408 113.958 237.715 116.004C231.893 119.098 234.771 109.816 235.103 107.254C235.169 106.888 235.219 106.554 235.253 106.289C234.287 108.896 233.611 111.601 233.24 114.357C231.645 129.195 256.248 127.98 252.572 113.888ZM247.748 121.723C244.138 123.337 244.238 119.394 243.073 119.377C241.626 119.36 241.973 121.989 240.062 121.977C237.6 121.944 235.521 118.8 238.182 117.12C239.706 116.29 241.427 115.889 243.161 115.96C244.895 116.03 246.578 116.569 248.03 117.52C248.391 117.753 248.684 118.079 248.877 118.463C249.07 118.847 249.157 119.276 249.128 119.705C249.099 120.135 248.956 120.548 248.713 120.903C248.471 121.258 248.137 121.542 247.748 121.725V121.723Z" fill="#8C4225"/>
<path d="M244.055 117.866C244.369 117.865 244.682 117.826 244.987 117.75C245.031 117.731 245.067 117.697 245.089 117.654C245.11 117.611 245.115 117.562 245.103 117.515C245.091 117.469 245.062 117.428 245.022 117.401C244.983 117.374 244.935 117.361 244.887 117.367C243.609 117.601 242.29 117.378 241.161 116.735C241.138 116.722 241.113 116.715 241.087 116.712C241.061 116.71 241.035 116.712 241.01 116.72C240.986 116.728 240.963 116.74 240.943 116.757C240.923 116.774 240.907 116.795 240.895 116.818C241.127 117.7 243.805 117.883 244.055 117.866Z" fill="#C16256"/>
<path d="M227.519 133.27C236.302 140.922 250.575 140.939 259.359 133.27C248.767 134.218 238.111 134.218 227.519 133.27Z" fill="#DF1515"/>
<path d="M237.833 129.045C237.833 129.062 237.816 129.062 237.816 129.078C241.34 129.806 244.982 129.744 248.479 128.895C248.494 128.251 248.306 127.618 247.942 127.087C247.577 126.556 247.055 126.152 246.449 125.934C244.176 126.458 241.817 126.493 239.529 126.034C239.53 126.017 237.363 126.999 237.833 129.045Z" fill="#DF1515"/>
<path d="M242.94 87.9558C277.757 88.4218 278.64 138.876 243.921 140.59C209.154 140.156 208.172 89.7028 242.94 87.9558ZM243.855 137.529C274.547 136.029 273.782 91.4158 242.99 90.9998C212.265 92.5468 213.13 137.163 243.855 137.529Z" fill="white"/>
<path d="M238.033 108.733C237.981 108.721 237.935 108.69 237.904 108.645C237.874 108.601 237.862 108.547 237.87 108.494C237.879 108.441 237.907 108.393 237.95 108.36C237.992 108.327 238.046 108.312 238.099 108.317C238.682 108.363 239.268 108.276 239.813 108.063C240.357 107.85 240.846 107.516 241.243 107.086C241.281 107.044 241.333 107.019 241.389 107.015C241.445 107.012 241.501 107.032 241.543 107.069C241.584 107.107 241.61 107.159 241.613 107.216C241.616 107.272 241.597 107.327 241.559 107.369C241.119 107.856 240.57 108.233 239.958 108.47C239.345 108.707 238.687 108.797 238.033 108.733Z" fill="#C16256"/>
<path d="M247.348 109.099C247.298 109.082 247.232 109.049 247.215 108.999C246.927 108.622 246.566 108.307 246.154 108.072C245.742 107.838 245.286 107.689 244.815 107.635C244.788 107.631 244.761 107.623 244.737 107.609C244.713 107.596 244.692 107.578 244.675 107.556C244.658 107.535 244.646 107.51 244.638 107.483C244.631 107.457 244.629 107.429 244.632 107.402C244.635 107.374 244.644 107.348 244.658 107.324C244.671 107.3 244.689 107.279 244.711 107.262C244.732 107.245 244.757 107.232 244.784 107.225C244.81 107.218 244.838 107.216 244.865 107.219C245.406 107.266 245.93 107.431 246.401 107.701C246.872 107.971 247.279 108.34 247.593 108.783C247.608 108.806 247.618 108.831 247.623 108.858C247.628 108.885 247.627 108.912 247.621 108.939C247.614 108.965 247.603 108.99 247.586 109.012C247.57 109.034 247.55 109.052 247.526 109.066C247.472 109.097 247.409 109.109 247.348 109.099Z" fill="#C16256"/>
<path d="M227.485 212.72C228.101 232.333 205.909 245.009 189.507 234.246C188.56 233.654 187.654 232.998 186.796 232.283C152.86 197.732 221.364 164.994 227.485 212.72Z" fill="#8A9EDD"/>
<path d="M221.048 229.987C218.244 233.116 214.683 235.472 210.707 236.829C206.731 238.187 202.473 238.5 198.341 237.739C198.374 237.839 198.407 237.922 198.441 238.022C197.87 237.66 197.23 237.421 196.561 237.322C195.107 232.187 194.051 226.948 193.4 221.652C192.635 214.516 192.735 206.847 196.211 200.692C196.352 199.857 196.574 199.038 196.876 198.247C201.917 186.403 219.134 195.535 216.805 208.211C214.693 217.86 218.935 222.152 221.048 229.987Z" fill="#662948"/>
<path d="M217.504 233.214C216.033 234.319 214.443 235.257 212.763 236.009C212.414 234.029 212.081 232.133 211.732 230.22C213.777 230.966 215.716 231.972 217.504 233.214Z" fill="#CE3932"/>
<path d="M189.957 230.952C189.874 231.534 189.774 232.333 189.624 233.352C189.591 233.635 189.541 233.934 189.508 234.252C189.342 234.152 189.175 234.036 189.008 233.936C188.858 234.069 188.725 234.202 188.576 234.336L188.776 233.787C188.092 233.32 187.431 232.82 186.797 232.287C187.787 231.705 188.849 231.256 189.957 230.952Z" fill="#CE3932"/>
<path d="M204.242 222.254L197.689 222.359L197.813 230.093L204.366 229.988L204.242 222.254Z" fill="#F99370"/>
<path d="M204.246 223.333L204.279 225.379C202.186 226.163 199.9 226.273 197.741 225.695L197.691 222.401L204.246 223.333Z" fill="#E57D61"/>
<path d="M208.838 217.727C208.744 218.863 208.396 219.964 207.82 220.949C207.244 221.933 206.455 222.776 205.511 223.416C200.387 227.375 191.388 223.383 191.754 216.829C191.837 213.901 192.654 212.604 193.384 209.942C193.767 200.011 206.526 197.765 207.857 208.395C208.04 211.905 209.108 214.566 208.838 217.727Z" fill="#F99370"/>
<path d="M202.05 212.591C202.001 212.484 201.996 212.362 202.035 212.25C202.074 212.139 202.154 212.047 202.259 211.994C202.364 211.94 202.485 211.929 202.598 211.963C202.711 211.997 202.807 212.072 202.865 212.175C202.914 212.282 202.919 212.404 202.88 212.515C202.841 212.626 202.761 212.718 202.656 212.772C202.551 212.826 202.43 212.837 202.317 212.803C202.204 212.769 202.108 212.693 202.05 212.591Z" fill="#01011E"/>
<path d="M196.594 212.625C196.545 212.518 196.54 212.396 196.579 212.284C196.618 212.173 196.698 212.081 196.803 212.028C196.908 211.974 197.029 211.963 197.142 211.997C197.255 212.031 197.351 212.107 197.409 212.209C197.675 212.725 196.844 213.136 196.594 212.625Z" fill="#01011E"/>
<path d="M198.574 216.778C197.742 216.778 196.411 216.212 197.459 215.464C198.559 214.864 198.759 213.019 199.173 213.085C199.539 213.201 198.591 215.185 197.626 215.763C196.944 216.179 198.358 216.578 198.94 216.363C198.962 216.356 198.985 216.353 199.008 216.355C199.031 216.357 199.053 216.364 199.073 216.374C199.093 216.385 199.111 216.4 199.125 216.418C199.14 216.436 199.15 216.457 199.156 216.479C199.223 216.778 198.792 216.745 198.574 216.778Z" fill="#C16256"/>
<path d="M211.732 230.236C209.232 237.805 205.71 239.169 198.341 237.755C198.374 237.855 191.604 237.206 189.957 230.955C192.363 229.676 194.997 228.885 197.709 228.626L197.759 226.613C197.759 226.613 199.722 227.678 204.313 226.513L204.429 228.513C206.948 228.64 209.422 229.224 211.732 230.236Z" fill="#26637F"/>
<path d="M208.838 217.727C208.743 218.863 208.396 219.964 207.82 220.949C207.244 221.933 206.455 222.776 205.511 223.416C209.337 219.157 208.023 215.298 207.441 212.287C202.251 208.877 203.349 204.302 203.349 204.302C201.103 206.88 195.813 207.995 194.083 211.039L193.401 209.939C193.784 199.991 206.543 197.762 207.873 208.392C208.039 211.904 209.1 214.566 208.838 217.727Z" fill="#E57D61"/>
<path d="M204.079 202.173C204.079 202.173 203.364 209.659 208.205 211.389C208.205 211.389 211.698 200.227 204.079 202.173Z" fill="#662948"/>
<path d="M204.23 201.974C202.23 205.301 192.419 208.628 193.051 215.132C193.234 218.725 195.53 221.403 194.315 224.647C193.1 227.891 189.191 227.475 189.191 227.475C189.191 227.475 192.951 224.88 189.94 219.575C183.769 209.513 195.047 192.076 204.23 201.974Z" fill="#662948"/>
<path d="M196.232 199.395C196.232 199.395 204.132 196.168 209.54 202.24C209.54 202.24 206.546 195.04 196.897 198.264C196.876 198.28 195.479 198.733 196.232 199.395Z" fill="#CE3932"/>
<path d="M197.01 237.456C196.86 237.423 196.71 237.373 196.561 237.34H196.528C196.511 237.34 196.495 237.323 196.462 237.323C194.978 236.907 193.531 236.367 192.137 235.709C191.605 235.459 191.072 235.177 190.557 234.894C190.504 234.857 190.448 234.823 190.39 234.794C190.09 234.611 189.775 234.428 189.475 234.245C189.309 234.145 189.142 234.029 188.975 233.929C188.825 234.062 188.692 234.195 188.542 234.329L188.742 233.78C189.088 232.824 189.482 231.885 189.923 230.969C190.239 231.395 190.595 231.791 190.987 232.15C192.658 233.77 194.436 235.276 196.31 236.658C196.326 236.675 196.326 236.675 196.343 236.675C196.825 237.024 197.308 237.357 197.774 237.656C197.543 237.589 197.276 237.522 197.01 237.456Z" fill="#CE3932"/>
<path d="M214.377 235.21C214.325 235.244 214.269 235.272 214.211 235.293L214.111 235.343C213.662 235.576 213.211 235.792 212.764 236.008C212.498 236.124 212.232 236.241 211.964 236.341C211.137 236.677 210.293 236.971 209.436 237.223C208.385 237.539 207.312 237.773 206.225 237.923C205.543 238.023 204.861 238.089 204.179 238.123C203.747 238.156 203.331 238.156 202.898 238.156C203.364 237.823 203.898 237.441 204.462 237.008C206.781 235.322 208.941 233.429 210.916 231.352C211.233 231 211.512 230.615 211.748 230.204C212.363 231.219 212.979 232.333 213.578 233.514C213.728 233.797 213.878 234.096 214.01 234.396C214.027 234.413 214.027 234.429 214.043 234.463C214.141 234.718 214.253 234.967 214.377 235.21Z" fill="#CE3932"/>
<path d="M197.01 237.457C194.354 236.788 191.822 235.699 189.51 234.23C189.344 234.13 187.431 232.799 186.798 232.267C186.781 232.284 186.765 232.284 186.748 232.3C187.739 231.666 188.83 231.205 189.975 230.936C192.3 233.491 194.938 235.742 197.827 237.636C197.546 237.59 197.276 237.523 197.01 237.457Z" fill="#26637F"/>
<path d="M215.924 232.2C213.046 237.057 208.239 238.106 202.882 238.172C205.943 235.893 209.819 233.132 211.715 230.22C213.19 230.715 214.602 231.38 215.924 232.2Z" fill="#26637F"/>
<path d="M198.59 218.526C198.395 218.526 198.201 218.515 198.008 218.493C197.966 218.482 197.929 218.456 197.906 218.419C197.883 218.382 197.875 218.338 197.883 218.295C197.892 218.252 197.916 218.215 197.952 218.19C197.987 218.164 198.031 218.154 198.074 218.16C198.555 218.222 199.045 218.185 199.511 218.05C199.978 217.916 200.412 217.687 200.786 217.378C200.822 217.348 200.868 217.333 200.914 217.336C200.961 217.34 201.004 217.361 201.036 217.395C200.936 218.26 198.873 218.542 198.59 218.526Z" fill="#C16256"/>
<path d="M202.433 210.641C202.161 210.621 201.888 210.655 201.63 210.743C201.371 210.831 201.134 210.97 200.93 211.151C200.727 211.333 200.562 211.554 200.446 211.8C200.33 212.047 200.264 212.314 200.254 212.587C200.251 212.698 200.257 212.809 200.271 212.92C200.399 213.423 200.698 213.866 201.115 214.174C201.533 214.483 202.045 214.637 202.563 214.612C203.082 214.587 203.576 214.383 203.961 214.035C204.347 213.687 204.6 213.217 204.679 212.704V212.421C204.611 211.89 204.337 211.407 203.918 211.074C203.498 210.742 202.966 210.586 202.433 210.641ZM202.483 214.317C202.246 214.35 202.006 214.332 201.777 214.265C201.547 214.198 201.335 214.083 201.154 213.927C200.973 213.772 200.826 213.579 200.725 213.363C200.624 213.147 200.569 212.912 200.566 212.673C200.562 212.434 200.609 212.198 200.704 211.978C200.799 211.759 200.94 211.563 201.116 211.402C201.293 211.241 201.501 211.12 201.728 211.046C201.955 210.972 202.196 210.947 202.433 210.973C202.67 210.939 202.911 210.956 203.141 211.023C203.37 211.09 203.583 211.205 203.765 211.361C203.946 211.516 204.093 211.708 204.194 211.925C204.296 212.141 204.351 212.377 204.354 212.616C204.358 212.855 204.31 213.092 204.215 213.312C204.12 213.531 203.979 213.728 203.802 213.888C203.625 214.049 203.416 214.17 203.189 214.244C202.961 214.318 202.721 214.343 202.483 214.317Z" fill="#C16256"/>
<path d="M195.946 210.591C195.666 210.567 195.384 210.601 195.118 210.693C194.853 210.784 194.609 210.931 194.404 211.122C194.198 211.314 194.035 211.547 193.925 211.805C193.815 212.064 193.761 212.343 193.766 212.624C193.77 212.905 193.834 213.182 193.953 213.437C194.071 213.691 194.242 213.919 194.454 214.103C194.666 214.288 194.914 214.426 195.182 214.509C195.451 214.591 195.734 214.616 196.013 214.583C196.527 214.617 197.036 214.456 197.436 214.133C197.837 213.809 198.101 213.346 198.176 212.836C198.19 212.714 198.196 212.592 198.193 212.47C198.172 212.198 198.097 211.933 197.972 211.69C197.847 211.447 197.675 211.232 197.465 211.057C197.256 210.882 197.014 210.751 196.753 210.671C196.492 210.59 196.217 210.563 195.946 210.591ZM195.996 214.267C195.76 214.3 195.519 214.282 195.29 214.215C195.06 214.148 194.848 214.033 194.667 213.877C194.486 213.722 194.339 213.53 194.238 213.313C194.137 213.097 194.082 212.862 194.079 212.623C194.075 212.384 194.122 212.148 194.217 211.928C194.312 211.709 194.453 211.513 194.629 211.352C194.806 211.191 195.014 211.07 195.241 210.996C195.469 210.922 195.709 210.897 195.946 210.923C196.183 210.889 196.424 210.907 196.654 210.973C196.883 211.04 197.096 211.155 197.278 211.311C197.459 211.466 197.606 211.658 197.708 211.875C197.809 212.091 197.864 212.327 197.867 212.566C197.871 212.805 197.823 213.042 197.728 213.262C197.633 213.481 197.492 213.678 197.315 213.838C197.138 213.999 196.929 214.12 196.702 214.194C196.474 214.268 196.234 214.292 195.996 214.266V214.267Z" fill="#C16256"/>
<path d="M200.37 213.002C198.906 212.021 198.27 213.035 197.958 212.852C197.775 212.552 199.006 211.752 200.47 212.719C200.495 212.74 200.513 212.768 200.522 212.799C200.531 212.831 200.529 212.864 200.519 212.895C200.508 212.926 200.488 212.953 200.461 212.972C200.434 212.991 200.403 213.001 200.37 213.002Z" fill="#C16256"/>
<path d="M204.562 212.753C204.396 212.753 204.346 212.487 204.512 212.453C204.612 212.503 208.538 211.189 208.471 211.553C208.704 211.854 204.645 212.669 204.562 212.753Z" fill="#C16256"/>
<path d="M211.299 214.168C210.299 217.528 206.209 216.33 207.174 212.968C208.172 209.593 212.264 210.791 211.299 214.168Z" fill="#F99370"/>
<path d="M210.401 214.632C210.375 214.632 210.349 214.626 210.325 214.614C210.302 214.602 210.281 214.586 210.265 214.565C210.249 214.544 210.238 214.52 210.233 214.494C210.227 214.468 210.228 214.441 210.235 214.416C210.85 212.636 210.035 211.887 208.854 212.403C208.813 212.416 208.768 212.414 208.729 212.396C208.69 212.378 208.659 212.346 208.642 212.306C208.625 212.266 208.624 212.222 208.639 212.181C208.653 212.14 208.683 212.107 208.721 212.087C210.121 211.487 211.283 212.353 210.551 214.499C210.545 214.535 210.527 214.568 210.5 214.592C210.472 214.616 210.438 214.63 210.401 214.632Z" fill="#C16256"/>
<path d="M208.821 214.416C208.305 214.349 209.254 212.769 210.551 212.653C210.573 212.651 210.595 212.653 210.616 212.659C210.637 212.666 210.657 212.676 210.674 212.69C210.691 212.704 210.705 212.721 210.715 212.74C210.725 212.76 210.732 212.781 210.734 212.803C210.736 212.825 210.734 212.847 210.728 212.868C210.721 212.889 210.711 212.908 210.697 212.925C210.683 212.942 210.666 212.956 210.647 212.967C210.627 212.977 210.606 212.984 210.584 212.986C209.27 213.135 209.138 214.366 208.821 214.416Z" fill="#C16256"/>
<path d="M209.736 215.331C209.738 215.456 209.69 215.578 209.603 215.668C209.516 215.759 209.396 215.811 209.27 215.813C209.145 215.815 209.023 215.768 208.933 215.68C208.842 215.593 208.79 215.473 208.788 215.348C208.786 215.222 208.833 215.101 208.921 215.01C209.008 214.92 209.128 214.867 209.253 214.865C209.379 214.863 209.501 214.911 209.591 214.998C209.682 215.085 209.734 215.205 209.736 215.331Z" fill="#CE3932"/>
<path d="M202.033 187.035C236.85 187.251 238.081 237.722 203.364 239.652C168.597 239.469 167.266 189.015 202.033 187.035ZM203.281 236.608C233.973 234.895 232.892 190.296 202.1 190.096C171.375 191.826 172.539 236.441 203.281 236.608Z" fill="white"/>
<path d="M204.445 210.59C204.412 210.592 204.378 210.587 204.347 210.575C204.315 210.564 204.287 210.546 204.262 210.524C203.882 210.125 203.422 209.811 202.911 209.604C202.401 209.397 201.852 209.301 201.301 209.324C201.246 209.33 201.19 209.315 201.147 209.281C201.103 209.246 201.075 209.196 201.068 209.141C201.061 209.086 201.077 209.03 201.111 208.986C201.146 208.943 201.196 208.914 201.251 208.908C201.867 208.874 202.482 208.976 203.054 209.206C203.626 209.436 204.14 209.788 204.561 210.239C204.58 210.26 204.594 210.284 204.603 210.31C204.612 210.337 204.616 210.364 204.615 210.392C204.613 210.42 204.606 210.448 204.594 210.473C204.582 210.498 204.565 210.52 204.544 210.539C204.513 210.559 204.48 210.576 204.445 210.59Z" fill="#C16256"/>
<path d="M195.413 210.042C195.378 210.05 195.341 210.046 195.308 210.031C195.275 210.016 195.247 209.991 195.23 209.959C195.199 209.913 195.185 209.858 195.191 209.803C195.197 209.748 195.222 209.697 195.263 209.659C195.634 209.399 196.053 209.215 196.495 209.118C196.938 209.021 197.395 209.012 197.841 209.093C197.868 209.098 197.894 209.109 197.917 209.125C197.941 209.14 197.96 209.16 197.976 209.183C197.991 209.206 198.002 209.232 198.008 209.26C198.013 209.287 198.013 209.315 198.008 209.342C198.002 209.37 197.991 209.396 197.976 209.419C197.96 209.442 197.94 209.462 197.917 209.477C197.894 209.493 197.868 209.503 197.841 209.509C197.813 209.514 197.785 209.514 197.758 209.509C196.975 209.373 196.17 209.546 195.512 209.991C195.5 210.006 195.485 210.018 195.468 210.026C195.451 210.035 195.432 210.04 195.413 210.042Z" fill="#C16256"/>
<path d="M198.275 96.2898C195.003 100.283 190.621 103.218 185.682 104.724C182.036 105.763 178.2 105.952 174.47 105.277C170.739 104.602 167.213 103.08 164.163 100.83C161.112 98.579 158.618 95.6589 156.872 92.2938C155.126 88.9286 154.175 85.208 154.092 81.4178C156.292 36.3708 223.91 59.6768 198.275 96.2898Z" fill="#8A9EDD"/>
<path d="M193.301 79.9718C200.188 88.4388 189.974 96.9898 182.971 88.5218C176.1 80.0548 186.298 71.5038 193.301 79.9718Z" fill="#662948"/>
<path d="M175.102 105.456C170.713 104.74 166.592 102.874 163.158 100.05C165.77 97.1949 169.327 95.381 173.172 94.9429C175.834 97.6379 175.901 101.863 175.102 105.456Z" fill="#26637F"/>
<path d="M174.337 91.1998L174.287 94.4938C175.287 98.3528 180.276 96.9558 182.455 94.6098C182.455 94.6098 182.189 92.1648 182.205 91.0168L174.337 91.1998Z" fill="#F99370"/>
<path d="M180.675 64.7828C169.775 60.3078 163.74 76.1118 168.93 83.9298L180.675 64.7828Z" fill="#662948"/>
<path d="M182.82 82.9988C182.806 83.1334 182.783 83.267 182.753 83.3988C182.57 83.2828 182.138 88.1898 182.204 91.7498C179.71 92.7783 176.976 93.0782 174.319 92.6148C174.452 86.9088 173.219 81.3858 177.363 78.9578C177.995 78.7082 178.68 78.6236 179.354 78.712C180.027 78.8005 180.667 79.0591 181.213 79.4634C181.759 79.8677 182.193 80.4045 182.474 81.0231C182.756 81.6416 182.875 82.3216 182.82 82.9988Z" fill="#E57D61"/>
<path d="M188.144 79.6549C187.628 83.1649 186.481 87.1079 183.719 89.4359C176.219 96.3229 160.18 85.9759 167.919 77.3759C168.977 76.3015 169.783 75.0062 170.281 73.5829C174.237 60.0249 190.373 67.5609 188.144 79.6549Z" fill="#F99370"/>
<path d="M171.043 83.9018L175.684 81.5018C175.843 82.0913 175.796 82.7176 175.55 83.2764C175.304 83.8353 174.874 84.293 174.331 84.5735C173.789 84.854 173.167 84.9403 172.569 84.8181C171.97 84.6959 171.432 84.3726 171.043 83.9018Z" fill="white"/>
<path d="M174.486 77.6748C174.427 77.5497 174.419 77.4066 174.464 77.2758C174.509 77.145 174.603 77.0368 174.726 76.9742C174.849 76.9115 174.992 76.8993 175.124 76.9401C175.256 76.9809 175.367 77.0716 175.434 77.1928C175.784 77.7918 174.803 78.2738 174.486 77.6748Z" fill="#01011E"/>
<path d="M169.929 76.9928C169.87 76.8677 169.862 76.7246 169.907 76.5938C169.952 76.463 170.046 76.3548 170.169 76.2921C170.293 76.2295 170.435 76.2173 170.568 76.2581C170.7 76.2989 170.811 76.3895 170.877 76.5108C171.226 77.1098 170.245 77.5918 169.929 76.9928Z" fill="#01011E"/>
<path d="M171.028 84.1107C170.983 84.1079 170.941 84.0901 170.907 84.0601C170.874 84.0302 170.851 83.9898 170.844 83.9456C170.836 83.9014 170.843 83.8559 170.865 83.8164C170.886 83.7768 170.92 83.7456 170.961 83.7277C171.094 83.7777 175.868 80.9168 175.868 81.4158C176.128 81.7668 171.159 84.0107 171.028 84.1107Z" fill="#C16256"/>
<path d="M171.409 81.5348C170.494 81.4188 169.296 80.8348 170.428 80.0348C171.728 79.3348 171.928 77.2068 172.408 77.2568C172.94 77.6398 171.36 79.8689 170.395 80.6669C170.634 80.8847 170.926 81.0362 171.242 81.1063C171.557 81.1765 171.886 81.1629 172.195 81.0668C172.22 81.0583 172.247 81.0549 172.273 81.057C172.3 81.0592 172.325 81.0667 172.349 81.0791C172.372 81.0916 172.393 81.1088 172.409 81.1295C172.426 81.1503 172.438 81.1742 172.445 81.1998C172.474 81.6508 171.742 81.5348 171.409 81.5348Z" fill="#C16256"/>
<path d="M168.182 103.277C168.049 103.21 167.932 103.161 167.799 103.094C169.612 100.333 171.425 97.4048 173.155 94.9588L174.286 94.5098C176.249 97.5708 178.777 97.2548 182.454 94.6258C186.748 95.2789 190.626 97.5604 193.283 100.997C189.698 103.614 185.469 105.209 181.048 105.61C176.627 106.012 172.18 105.205 168.182 103.277Z" fill="#F99370"/>
<path d="M188.144 79.6548C187.628 83.1648 186.48 87.1078 183.719 89.4358C185.249 87.5228 186.148 83.2808 186.148 83.2808L185.383 81.4008C172.923 77.6578 173.805 67.9268 173.805 67.9268C181.307 62.3228 189.757 71.5708 188.144 79.6548Z" fill="#E57D61"/>
<path d="M175.085 67.0288C175.085 67.0288 174.27 76.6288 185.432 80.4038L189.491 82.7658C197.076 71.6228 185.216 57.0978 175.085 67.0288Z" fill="#662948"/>
<path d="M190.44 81.3859C189.708 85.3289 184.601 84.3639 185.433 80.4209C186.164 76.4779 191.271 77.4409 190.44 81.3859Z" fill="#F99370"/>
<path d="M189.142 82.2169C189.113 82.2145 189.085 82.2057 189.06 82.191C189.036 82.1763 189.014 82.1562 188.998 82.1321C188.982 82.1081 188.972 82.0807 188.968 82.0521C188.964 82.0234 188.967 81.9943 188.976 81.9669C189.325 80.8029 189.292 80.0038 188.909 79.6378C188.327 79.0378 187.395 79.8039 187.029 79.4719C188.177 77.9089 190.822 80.0209 189.142 82.2169Z" fill="#C16256"/>
<path d="M187.229 81.9669C186.514 82.0169 188.344 79.2889 189.558 80.0539C189.563 80.0805 189.562 80.1078 189.554 80.1339C189.547 80.16 189.535 80.1842 189.517 80.2048C189.5 80.2254 189.478 80.242 189.453 80.2532C189.429 80.2645 189.402 80.2701 189.375 80.2699C187.778 80.4529 187.645 81.9329 187.229 81.9669Z" fill="#C16256"/>
<path d="M188.244 83.2318C188.241 83.3498 188.193 83.4621 188.109 83.5454C188.025 83.6286 187.913 83.6764 187.795 83.6785C187.677 83.6807 187.562 83.6373 187.476 83.5572C187.389 83.4771 187.336 83.3666 187.329 83.2488C187.332 83.1307 187.38 83.0184 187.464 82.9351C187.548 82.8519 187.66 82.8042 187.778 82.802C187.896 82.7998 188.011 82.8432 188.097 82.9233C188.184 83.0034 188.237 83.1139 188.244 83.2318Z" fill="#CE3932"/>
<path d="M193.367 100.914C189.684 103.638 185.31 105.273 180.743 105.635C176.176 105.996 171.599 105.069 167.533 102.959C167.533 102.959 171.043 95.3227 173.156 94.9587C172.707 100.033 174.221 103.692 179.078 99.3008C180.778 97.7008 182.422 95.5908 184.667 95.1088C188.177 95.9204 191.27 97.9844 193.367 100.914Z" fill="#26637F"/>
<path d="M194.764 99.8338C190.585 103.337 185.386 105.396 179.942 105.706C179.376 103.843 179.576 101.897 180.942 99.3848C184.251 93.2298 191.404 95.3588 194.764 99.8338Z" fill="#26637F"/>
<path d="M176.382 76.6268C176.354 76.6268 176.327 76.619 176.304 76.6044C176.28 76.5897 176.261 76.5687 176.249 76.5438C175.999 76.1758 175.664 75.8723 175.274 75.6583C174.884 75.4443 174.448 75.3259 174.003 75.3128C173.978 75.3144 173.952 75.3109 173.928 75.3025C173.905 75.2941 173.883 75.281 173.864 75.2639C173.845 75.2468 173.83 75.2261 173.82 75.2031C173.809 75.1801 173.804 75.1551 173.803 75.1298C173.803 75.0796 173.822 75.0311 173.855 74.9941C173.889 74.957 173.936 74.9341 173.986 74.9298C174.501 74.9345 175.008 75.066 175.46 75.3126C175.913 75.5592 176.298 75.9133 176.581 76.3438C176.595 76.3645 176.605 76.3879 176.61 76.4125C176.616 76.4371 176.616 76.4625 176.611 76.4872C176.607 76.5119 176.597 76.5355 176.583 76.5565C176.57 76.5776 176.552 76.5957 176.531 76.6098C176.465 76.6268 176.416 76.6438 176.382 76.6268Z" fill="#C16256"/>
<path d="M169.695 75.7458C169.662 75.7458 169.645 75.7288 169.612 75.7128C169.569 75.6852 169.539 75.6423 169.526 75.5929C169.514 75.5434 169.521 75.4912 169.546 75.4468C169.774 75.0409 170.136 74.7264 170.569 74.5566C171.003 74.3867 171.482 74.372 171.925 74.5148C171.971 74.5344 172.008 74.5707 172.027 74.6165C172.047 74.6622 172.049 74.7139 172.032 74.7607C172.015 74.8076 171.98 74.8462 171.936 74.8685C171.891 74.8908 171.84 74.8952 171.792 74.8808C171.432 74.7639 171.042 74.7783 170.692 74.9215C170.342 75.0647 170.054 75.3273 169.879 75.6628C169.858 75.6917 169.831 75.7146 169.798 75.7292C169.766 75.7438 169.73 75.7495 169.695 75.7458Z" fill="#C16256"/>
<path d="M179.444 107.22C144.677 106.904 143.562 56.4328 178.329 54.5858C213.144 54.9518 214.161 105.406 179.444 107.22ZM178.379 57.6308C147.637 59.2608 148.635 103.877 179.36 104.16C210.069 102.578 209.154 57.9458 178.379 57.6298V57.6308Z" fill="white"/>
<path d="M295.507 194.354C291.432 199.36 285.626 202.655 279.238 203.586C275.305 204.081 271.311 203.625 267.592 202.255C263.872 200.886 260.535 198.644 257.862 195.718C253.758 191.295 251.431 185.514 251.325 179.482C253.524 134.435 321.141 157.741 295.507 194.354Z" fill="#8A9EDD"/>
<path d="M272.134 165.276C271.627 164.978 271.028 164.88 270.453 165C269.878 165.12 269.368 165.45 269.023 165.925C267.859 167.655 269.173 168.82 267.723 170.35C266.276 171.864 265.377 172.15 265.793 173.594C266.209 175.038 267.323 175.208 266.841 177.021C266.841 177.021 272.298 171.797 273.029 168.554C273.731 165.292 272.134 165.276 272.134 165.276Z" fill="#662948"/>
<path d="M272.5 192.209C272.433 191.709 272.4 191.178 272.367 190.609C272.314 187.667 272.531 184.727 273.016 181.826C273.082 181.41 273.149 181.194 273.165 181.226C273.185 181.129 273.213 181.035 273.248 180.943C273.386 180.471 273.634 180.039 273.972 179.683C274.311 179.327 274.73 179.058 275.194 178.897C275.838 178.69 276.527 178.664 277.184 178.823C277.842 178.982 278.442 179.319 278.921 179.797C278.942 179.816 278.959 179.839 278.971 179.864C279.288 180.21 279.521 180.625 279.654 181.075C279.787 181.526 279.815 182.001 279.736 182.464C279.736 182.514 279.719 182.564 279.719 182.614C279.7 182.679 279.689 182.746 279.686 182.814C279.257 185.189 279.056 187.6 279.086 190.014C279.067 190.838 279.122 191.662 279.252 192.476C285.559 194.355 266.578 200.576 272.5 192.209Z" fill="#F99370"/>
<path d="M279.736 182.444C279.736 182.494 279.719 182.544 279.719 182.594C279.7 182.659 279.689 182.726 279.686 182.794C279.257 185.169 279.056 187.58 279.086 189.994C276.96 190.845 274.632 191.059 272.386 190.61C272.333 187.669 272.55 184.729 273.034 181.827C273.117 181.478 273.167 181.261 273.184 181.227C273.204 181.13 273.232 181.036 273.267 180.944C273.42 180.48 273.673 180.056 274.01 179.702C274.347 179.348 274.757 179.074 275.213 178.898C275.852 178.649 276.551 178.602 277.218 178.763C277.884 178.924 278.485 179.285 278.94 179.798C278.961 179.817 278.978 179.84 278.99 179.865C279.289 180.218 279.51 180.63 279.639 181.074C279.767 181.519 279.801 181.986 279.736 182.444Z" fill="#E57D61"/>
<path d="M272.5 192.208C270.254 195.252 268.125 198.13 265.663 201.457C262.058 199.752 258.906 197.222 256.463 194.071C261.709 192.775 267.097 192.149 272.5 192.208Z" fill="#EB5648"/>
<path d="M265.413 201.341C264.897 201.091 264.382 200.825 263.883 200.526C265.928 198.082 268.176 195.817 270.604 193.755C271.236 193.221 271.869 192.706 272.504 192.208C272.088 195.286 273.804 195.834 279.241 192.458C280.306 193.207 282.069 195.12 282.036 196.434C282.269 198.541 282.808 200.604 283.636 202.556C277.638 204.563 271.091 204.127 265.413 201.341Z" fill="#EB5648"/>
<path d="M267.48 187.035C268.728 188.217 270.247 189.073 271.903 189.529C273.56 189.984 275.304 190.025 276.98 189.647C278.267 189.411 279.474 188.856 280.49 188.033C292.268 176.322 276.415 156.559 268.946 173.644C266.48 178.302 262.203 181.229 267.48 187.035Z" fill="#F99370"/>
<path d="M269.473 182.946L273.582 180.846C273.582 180.846 273.832 183.092 272.201 183.691C271.722 183.837 271.212 183.844 270.729 183.713C270.247 183.581 269.811 183.315 269.473 182.946Z" fill="white"/>
<path d="M289.218 199.91C287.465 201.012 285.59 201.906 283.629 202.572C283.565 202.587 283.504 202.609 283.446 202.639C283.263 202.706 283.096 202.755 282.914 202.805C281.712 203.171 280.482 203.439 279.237 203.605C278.615 200.844 278.475 197.997 278.821 195.188C278.837 195.022 278.854 194.839 278.887 194.672C278.987 193.957 279.103 193.225 279.253 192.472C280.004 192.558 280.748 192.692 281.482 192.872C285.244 193.846 288.743 195.642 291.729 198.129C290.98 198.729 290.198 199.295 289.383 199.829C289.324 199.846 289.268 199.873 289.218 199.91Z" fill="#F99370"/>
<path d="M272.583 177.386C272.54 177.303 272.523 177.21 272.533 177.118C272.543 177.026 272.58 176.939 272.64 176.868C272.7 176.797 272.779 176.745 272.868 176.719C272.957 176.693 273.052 176.694 273.14 176.722C273.229 176.75 273.307 176.804 273.365 176.876C273.423 176.949 273.458 177.037 273.466 177.129C273.474 177.222 273.454 177.314 273.41 177.396C273.365 177.477 273.297 177.543 273.215 177.586C273.16 177.614 273.101 177.632 273.039 177.637C272.978 177.643 272.916 177.636 272.857 177.617C272.799 177.599 272.744 177.569 272.697 177.529C272.65 177.489 272.611 177.441 272.583 177.386Z" fill="#01011E"/>
<path d="M289.222 199.911C285.845 202.064 281.999 203.37 278.01 203.72C277.465 199.922 277.889 196.048 279.241 192.458C284.047 192.809 288.645 194.561 292.466 197.498C291.45 198.386 290.365 199.193 289.222 199.911Z" fill="#EB5648"/>
<path d="M268.591 176.704C268.562 176.648 268.544 176.588 268.539 176.525C268.534 176.463 268.542 176.4 268.563 176.341C268.583 176.282 268.615 176.228 268.657 176.181C268.699 176.135 268.75 176.098 268.807 176.072C268.862 176.041 268.922 176.021 268.985 176.014C269.047 176.007 269.111 176.013 269.171 176.031C269.231 176.049 269.287 176.079 269.336 176.119C269.384 176.159 269.424 176.209 269.453 176.264C269.482 176.32 269.5 176.381 269.504 176.444C269.509 176.507 269.502 176.57 269.482 176.629C269.462 176.689 269.43 176.744 269.388 176.791C269.347 176.838 269.296 176.877 269.239 176.904C269.183 176.934 269.122 176.952 269.06 176.958C268.997 176.964 268.933 176.958 268.873 176.939C268.813 176.921 268.757 176.89 268.708 176.85C268.66 176.809 268.62 176.76 268.591 176.704Z" fill="#01011E"/>
<path d="M269.472 183.109C269.438 183.109 269.404 183.1 269.374 183.083C269.345 183.065 269.321 183.039 269.306 183.009C269.293 182.989 269.286 182.966 269.283 182.942C269.281 182.919 269.284 182.895 269.292 182.872C269.3 182.85 269.312 182.83 269.329 182.813C269.346 182.796 269.366 182.784 269.389 182.776L273.498 180.676C273.54 180.658 273.587 180.657 273.629 180.673C273.672 180.688 273.706 180.72 273.726 180.761C273.745 180.802 273.748 180.849 273.733 180.892C273.719 180.935 273.688 180.971 273.648 180.992L269.539 183.092C269.519 183.105 269.496 183.111 269.472 183.109Z" fill="#C16256"/>
<path d="M270.371 170.982C270.893 171.311 271.476 171.53 272.084 171.628C272.693 171.725 273.316 171.698 273.914 171.548C275.727 170.982 276.459 171.548 276.414 172.995C276.369 174.442 279.009 174.01 279.325 174.695C279.641 175.38 279.275 176.675 279.874 177.556C280.473 178.437 283.451 179.519 283.451 179.519L282.919 182.68C282.919 182.68 281.904 187.055 279.891 188.502C280.107 188.352 280.323 188.202 280.54 188.036C281.429 187.286 282.163 186.371 282.703 185.341C282.869 185.008 283.036 184.676 283.203 184.31C283.436 183.778 283.636 183.21 283.835 182.597C283.885 182.431 284.085 181.765 284.135 181.616C284.201 181.383 282.405 170.154 281.706 169.456C281.673 169.423 271.406 169.356 271.06 169.805C270.793 170.174 270.562 170.568 270.371 170.982Z" fill="#E57D61"/>
<path d="M270.105 180.83C269.824 180.849 269.543 180.8 269.285 180.687C269.027 180.574 268.801 180.4 268.625 180.181C268.575 180.048 268.492 179.732 268.991 179.466C269.891 178.984 270.538 177.12 270.554 177.104C270.57 177.059 270.604 177.023 270.647 177.002C270.69 176.981 270.739 176.978 270.785 176.993C270.83 177.008 270.867 177.04 270.89 177.083C270.912 177.125 270.916 177.174 270.903 177.22C270.575 178.218 269.976 179.105 269.173 179.782C269.057 179.849 268.923 179.932 268.973 180.032C269.178 180.225 269.43 180.362 269.704 180.429C269.978 180.496 270.265 180.491 270.536 180.415C270.582 180.401 270.631 180.406 270.673 180.428C270.715 180.45 270.747 180.488 270.762 180.533C270.777 180.579 270.774 180.628 270.754 180.671C270.733 180.714 270.697 180.747 270.652 180.764C270.473 180.81 270.289 180.832 270.105 180.83Z" fill="#C16256"/>
<path d="M270.734 169.767C270.383 169.281 270.225 168.682 270.289 168.086C270.354 167.491 270.637 166.94 271.083 166.54C272.697 165.159 272.597 163.08 274.826 163.429C277.055 163.778 277.887 164.044 280.299 163.396C280.801 163.283 281.321 163.28 281.824 163.385C282.327 163.49 282.802 163.702 283.217 164.006C283.631 164.311 283.976 164.7 284.227 165.149C284.478 165.597 284.631 166.094 284.674 166.607C284.574 168.137 287.835 168.137 288.317 170.217C288.573 171.401 288.573 172.626 288.317 173.81C288.317 174.71 291.145 175.889 290.596 178.019C290.047 180.165 288.251 179.832 287.901 181.213C287.551 182.594 288.616 184.939 287.019 185.721C286.321 186.046 285.55 186.183 284.783 186.119C284.016 186.054 283.278 185.791 282.644 185.355C282.644 185.355 285.589 179.716 282.827 178.555C281.48 177.989 280.165 177.208 280.648 175.211C281.131 173.214 278.148 173.83 277.471 172.799C276.771 171.768 277.271 170.52 275.991 170.237C274.696 169.934 273.598 171.431 270.734 169.767Z" fill="#662948"/>
<path d="M286.523 180.896C286.445 181.557 286.114 182.162 285.599 182.584C285.084 183.006 284.426 183.212 283.762 183.158C283.131 182.945 282.608 182.493 282.306 181.899C282.004 181.305 281.947 180.616 282.148 179.981C282.226 179.319 282.557 178.714 283.072 178.292C283.588 177.87 284.246 177.664 284.91 177.719C285.543 177.93 286.067 178.381 286.369 178.976C286.671 179.571 286.726 180.261 286.523 180.896Z" fill="#F99370"/>
<path d="M285.392 181.628H285.342C285.32 181.622 285.299 181.611 285.281 181.597C285.263 181.583 285.249 181.565 285.238 181.545C285.227 181.524 285.22 181.502 285.218 181.479C285.216 181.456 285.219 181.433 285.226 181.412C285.542 180.364 285.542 179.632 285.193 179.312C284.744 178.88 283.793 179.245 283.779 179.245C283.735 179.262 283.686 179.262 283.642 179.243C283.598 179.224 283.564 179.189 283.546 179.145C283.529 179.101 283.529 179.051 283.548 179.007C283.567 178.964 283.602 178.929 283.646 178.912C283.696 178.895 284.811 178.463 285.426 179.045C285.892 179.477 285.926 180.293 285.559 181.507C285.549 181.543 285.527 181.575 285.497 181.597C285.466 181.619 285.43 181.63 285.392 181.628Z" fill="#C16256"/>
<path d="M283.729 181.379C283.706 181.381 283.682 181.375 283.663 181.362C283.621 181.342 283.588 181.307 283.569 181.264C283.551 181.221 283.549 181.173 283.563 181.129C283.738 180.712 284.016 180.346 284.371 180.066C284.726 179.787 285.147 179.602 285.593 179.529C285.616 179.526 285.64 179.528 285.662 179.535C285.685 179.542 285.705 179.554 285.723 179.569C285.74 179.585 285.754 179.605 285.763 179.626C285.772 179.648 285.777 179.671 285.776 179.695C285.778 179.718 285.775 179.741 285.767 179.763C285.759 179.785 285.747 179.805 285.732 179.822C285.716 179.839 285.697 179.853 285.676 179.862C285.655 179.872 285.632 179.877 285.609 179.878C284.461 179.961 283.896 181.259 283.879 181.259C283.87 181.292 283.851 181.322 283.824 181.344C283.797 181.365 283.763 181.378 283.729 181.379Z" fill="#C16256"/>
<path d="M285.209 180.597C285.153 180.806 285.016 180.985 284.829 181.094C284.642 181.203 284.419 181.233 284.209 181.179C284 181.121 283.821 180.985 283.709 180.799C283.597 180.613 283.561 180.391 283.609 180.179C283.664 179.967 283.801 179.785 283.99 179.674C284.179 179.563 284.405 179.532 284.617 179.587C284.829 179.642 285.011 179.779 285.122 179.968C285.233 180.157 285.264 180.383 285.209 180.595V180.597Z" fill="white"/>
<path d="M282.431 182.56C282.358 182.559 282.285 182.543 282.219 182.511C282.153 182.479 282.095 182.434 282.048 182.377C282.005 182.326 281.973 182.266 281.953 182.203C281.933 182.139 281.926 182.072 281.932 182.005C281.938 181.939 281.958 181.874 281.989 181.815C282.021 181.756 282.063 181.704 282.115 181.662L284.115 180.015C284.219 179.929 284.352 179.887 284.487 179.9C284.621 179.912 284.745 179.978 284.831 180.081C284.917 180.185 284.958 180.319 284.945 180.453C284.933 180.587 284.868 180.711 284.764 180.797L282.764 182.444C282.665 182.512 282.55 182.552 282.431 182.56Z" fill="white"/>
<path d="M275.262 176.205H275.212C274.681 176.081 274.183 175.845 273.752 175.512C273.321 175.179 272.966 174.757 272.712 174.275C272.703 174.253 272.699 174.229 272.699 174.206C272.699 174.182 272.705 174.159 272.714 174.138C272.723 174.116 272.736 174.096 272.753 174.08C272.77 174.063 272.79 174.05 272.812 174.042C272.834 174.033 272.857 174.029 272.881 174.029C272.904 174.029 272.928 174.034 272.949 174.043C272.971 174.053 272.991 174.066 273.007 174.083C273.023 174.1 273.036 174.12 273.045 174.142C273.28 174.576 273.604 174.955 273.997 175.253C274.391 175.552 274.843 175.763 275.324 175.872C275.347 175.877 275.368 175.887 275.386 175.901C275.405 175.915 275.42 175.933 275.431 175.953C275.442 175.974 275.449 175.996 275.45 176.02C275.452 176.043 275.448 176.066 275.44 176.088C275.424 176.122 275.399 176.151 275.367 176.171C275.336 176.192 275.3 176.203 275.262 176.205Z" fill="#C16256"/>
<path d="M268.84 174.875C268.818 174.875 268.796 174.871 268.776 174.862C268.756 174.854 268.739 174.841 268.724 174.825C268.692 174.791 268.674 174.746 268.674 174.7C268.674 174.653 268.692 174.608 268.724 174.575C269.11 174.249 269.566 174.015 270.056 173.891C270.546 173.768 271.057 173.757 271.552 173.86C271.575 173.863 271.597 173.871 271.617 173.883C271.637 173.894 271.654 173.91 271.668 173.929C271.682 173.947 271.692 173.968 271.698 173.991C271.704 174.013 271.705 174.036 271.702 174.059C271.698 174.082 271.69 174.104 271.679 174.124C271.667 174.144 271.651 174.161 271.633 174.175C271.614 174.189 271.593 174.199 271.571 174.205C271.548 174.211 271.525 174.212 271.502 174.209C271.059 174.114 270.6 174.12 270.159 174.227C269.719 174.334 269.308 174.538 268.957 174.825C268.926 174.855 268.884 174.873 268.84 174.875Z" fill="#C16256"/>
<path d="M281.649 192.724C281.305 193.051 280.932 193.346 280.534 193.606C279.853 194.08 279.147 194.519 278.421 194.92C276.391 196.02 273.93 196.949 272.349 196.467C271.931 196.357 271.551 196.132 271.254 195.817C270.957 195.503 270.754 195.111 270.669 194.687C270.608 194.386 270.58 194.079 270.586 193.772C270.61 193.244 270.711 192.723 270.886 192.225V192.208C271.917 192.191 272.5 192.225 272.5 192.225C272.45 192.425 271.851 197.265 279.237 192.475C280.048 192.464 280.857 192.548 281.649 192.724Z" fill="#FF7708"/>
<path d="M276.676 205.284C241.908 204.968 240.794 154.497 275.561 152.65C310.376 153.033 311.393 203.487 276.676 205.284ZM275.628 155.711C244.886 157.341 245.884 201.957 276.609 202.24C307.301 200.642 306.403 156.027 275.628 155.711Z" fill="white"/>
<path d="M65.801 98.9258C64.9957 98.9351 64.1986 98.7643 63.468 98.4258L63.868 97.4258C64.4508 97.7298 65.0976 97.891 65.755 97.8958C66.986 97.8958 67.855 97.2798 67.855 96.2028C67.855 95.2308 67.005 94.7688 66.089 94.3798C64.882 93.8538 63.562 93.1728 63.562 91.5798C63.562 89.9598 64.785 88.9638 66.551 88.9638C67.2845 88.9442 68.0105 89.1165 68.657 89.4638L68.276 90.4118C67.7608 90.1298 67.1861 89.9743 66.599 89.9578C65.514 89.9578 64.752 90.5408 64.752 91.5208C64.752 92.4848 65.7 92.9628 66.631 93.3678C67.765 93.8678 69.061 94.5178 69.061 96.1298C69.033 97.8408 67.712 98.9258 65.801 98.9258Z" fill="#26637F"/>
<path d="M78.68 98.7807V93.8237C78.6943 93.4458 78.5583 93.0777 78.3017 92.7999C78.0451 92.5221 77.6888 92.3574 77.311 92.3417C77.2462 92.3404 77.1814 92.3431 77.1169 92.3497C76.8282 92.3407 76.5407 92.3907 76.272 92.4967C76.0032 92.6026 75.7589 92.7621 75.554 92.9657V98.7897H74.436V93.6538C74.436 92.8358 73.756 92.3537 72.759 92.3537C72.2687 92.3467 71.7818 92.4347 71.325 92.6127V98.8128H70.199V91.9677C70.9835 91.6369 71.8265 91.4669 72.678 91.4677C73.0955 91.435 73.5153 91.4918 73.9091 91.6342C74.303 91.7767 74.6619 92.0015 74.962 92.2937C75.6205 91.7399 76.4588 91.4462 77.319 91.4677C77.6353 91.4359 77.9548 91.4721 78.256 91.5738C78.5572 91.6755 78.8333 91.8404 79.0656 92.0574C79.298 92.2744 79.4813 92.5385 79.6033 92.8321C79.7253 93.1257 79.7831 93.4419 79.7729 93.7597V98.8137H78.673V98.7897L78.68 98.7807Z" fill="#26637F"/>
<path d="M83.824 98.9258C81.848 98.9258 80.8589 98.0838 80.8589 96.7148C80.8589 94.6578 83.078 94.3499 85.249 94.2199V93.6768C85.249 92.5998 84.549 92.2678 83.532 92.2678C82.855 92.2808 82.1879 92.4326 81.572 92.7138L81.272 91.9279C82.0139 91.5977 82.8169 91.4273 83.629 91.4279C85.249 91.4279 86.3099 92.0679 86.3099 93.7849V98.4258C85.5257 98.7657 84.6786 98.9361 83.824 98.9258ZM85.2579 95.0059C83.6579 95.1059 81.913 95.1919 81.913 96.6989C81.913 97.5409 82.545 98.0919 83.8 98.0919C84.2942 98.0924 84.7857 98.0185 85.2579 97.8728V95.0059Z" fill="#26637F"/>
<path d="M90.847 92.4137C90.6357 92.3773 90.4214 92.361 90.207 92.3648C89.7442 92.3603 89.284 92.4343 88.8459 92.5838V98.7837H87.72V91.9367C88.5529 91.5978 89.4448 91.4279 90.344 91.4367C90.5782 91.4372 90.812 91.4535 91.0439 91.4857L90.847 92.4137Z" fill="#26637F"/>
<path d="M94.313 98.8537C94.0524 98.8801 93.7892 98.8473 93.5431 98.7578C93.297 98.6682 93.0743 98.5242 92.8916 98.3365C92.7089 98.1488 92.571 97.9223 92.4882 97.6739C92.4053 97.4254 92.3796 97.1615 92.413 96.9017V92.4137H91.3729V91.5737H92.4099V89.8317L93.495 89.4757V91.5757H95.0499V92.4177H93.495V96.8567C93.4851 96.9985 93.5071 97.1408 93.5592 97.2731C93.6113 97.4053 93.6923 97.5243 93.7963 97.6213C93.9002 97.7183 94.0246 97.7908 94.1602 97.8336C94.2957 97.8764 94.4391 97.8884 94.58 97.8687C94.739 97.8716 94.8976 97.8497 95.0499 97.8037V98.7437C94.813 98.8247 94.5633 98.862 94.313 98.8537Z" fill="#26637F"/>
<path d="M101.012 98.7798V94.8348H98.6469V98.7798H96.379V89.1088H98.6469V92.9808H101.02V89.1088H103.288V98.7808L101.012 98.7798Z" fill="#29B2A1"/>
<path d="M110.934 95.4588L106.446 96.0498C106.544 96.4252 106.777 96.7517 107.099 96.9681C107.421 97.1845 107.811 97.2757 108.196 97.2248C108.898 97.2286 109.593 97.0763 110.229 96.7788L110.845 98.4068C109.946 98.7644 108.985 98.9405 108.018 98.9248C107.515 98.9652 107.009 98.8952 106.536 98.7196C106.062 98.544 105.633 98.267 105.278 97.9082C104.924 97.5493 104.651 97.1172 104.481 96.6421C104.31 96.167 104.246 95.6604 104.292 95.1578C104.292 92.9468 105.572 91.4078 107.743 91.4078C108.186 91.3825 108.63 91.4539 109.043 91.6169C109.456 91.7799 109.829 92.0307 110.135 92.352C110.442 92.6732 110.675 93.0572 110.819 93.4774C110.962 93.8977 111.013 94.3441 110.967 94.7858C110.958 95.0088 110.958 95.2398 110.934 95.4588ZM107.686 92.9718C106.908 92.9718 106.301 93.4978 106.293 94.6968L108.836 94.3728C108.836 93.4658 108.399 92.9728 107.686 92.9728V92.9718Z" fill="#29B2A1"/>
<path d="M114.904 98.9428C112.636 98.9428 111.51 98.1008 111.51 96.5618C111.51 94.6498 113.462 94.2048 115.641 94.0908V93.8078C115.641 93.2248 115.241 92.9658 114.491 92.9658C113.787 92.9915 113.093 93.1425 112.442 93.4118L111.916 91.9458C112.828 91.6049 113.793 91.4295 114.767 91.4279C116.727 91.4279 117.715 92.1808 117.715 94.0928V98.4348C116.819 98.7815 115.865 98.9539 114.904 98.9428ZM115.641 95.4598C114.459 95.5088 113.559 95.6458 113.559 96.4968C113.559 97.0878 114.053 97.4118 114.839 97.4118C115.11 97.419 115.38 97.3808 115.639 97.2988V95.4598H115.641Z" fill="#29B2A1"/>
<path d="M119.156 98.7808V88.2908H121.367V98.7808H119.156Z" fill="#29B2A1"/>
<path d="M125.426 98.9018C123.936 98.9018 123.304 98.0838 123.304 96.4718V93.2318H122.453V91.5878H123.304V90.0488L125.467 89.4418V91.5798H126.731V93.2238H125.467V96.3098C125.467 96.8038 125.767 96.9658 126.167 96.9658C126.355 96.966 126.54 96.9243 126.71 96.8438V98.6578C126.305 98.8312 125.867 98.9145 125.426 98.9018Z" fill="#29B2A1"/>
<path d="M131.938 98.7808V94.1398C131.938 93.4998 131.59 93.1678 130.901 93.1678C130.625 93.1768 130.353 93.24 130.101 93.3538V98.7808H127.896V88.2908H130.107V91.7578C130.547 91.5656 131.02 91.4636 131.5 91.4578C133.225 91.4578 134.165 92.3167 134.165 93.9117V98.7718H131.937L131.938 98.7808Z" fill="#29B2A1"/>
<path d="M93.2729 74.9228C97.8409 64.6598 86.0069 62.9428 85.5859 54.3808C85.3429 49.3098 89.7089 45.1808 94.7859 45.1808C96.9842 45.1804 99.1101 45.9665 100.779 47.3971C102.448 48.8277 103.55 50.8083 103.886 52.9808C103.937 53.367 104.126 53.7219 104.417 53.9805C104.709 54.2391 105.083 54.384 105.473 54.3888H105.573C106.001 54.3872 106.412 54.2158 106.714 53.9121C107.016 53.6084 107.185 53.1973 107.185 52.7688C107.184 52.6929 107.179 52.6171 107.169 52.5418C106.724 49.5788 105.229 46.8742 102.957 44.9207C100.685 42.9672 97.7872 41.8948 94.7909 41.8988C87.8819 41.8988 82.0329 47.4988 82.2839 54.4058C82.6319 63.9058 95.1469 66.8878 93.2759 74.9228" fill="#29B2A1"/>
<path d="M98.9059 66.0858L98.0559 63.5908L96.6139 66.6768L95.3589 62.8287L93.8929 65.6558H90.83V66.2468H94.313L95.236 64.6468L96.5079 68.4858L97.9659 65.3668L98.6949 67.5048L99.554 66.1198H103.329L103.378 65.5038H99.2229L98.9059 66.0858Z" fill="#29B2A1"/>
<path d="M97.456 52.5179C92.888 62.7809 104.722 64.4979 105.143 73.0599C105.386 78.1309 101.02 82.2599 95.943 82.2599C93.7447 82.2604 91.6188 81.4742 89.9498 80.0436C88.2807 78.613 87.1787 76.6323 86.843 74.4598C86.792 74.0733 86.6034 73.718 86.3117 73.4592C86.02 73.2004 85.6448 73.0554 85.2549 73.0508H85.155C84.7265 73.0524 84.3162 73.2239 84.014 73.5276C83.7118 73.8313 83.5424 74.2424 83.543 74.6708C83.544 74.7467 83.5493 74.8226 83.559 74.8979C84.0041 77.8608 85.4986 80.5652 87.7703 82.5186C90.0421 84.4721 92.9399 85.5446 95.936 85.5408C102.845 85.5408 108.694 79.9409 108.442 73.0349C108.086 63.5349 95.563 60.5448 97.45 52.5168" fill="#26637F"/>
<path d="M121.117 101.831V98.9348H120.633V100.559C120.633 100.743 120.641 100.947 120.641 100.947H120.633C120.633 100.947 120.553 100.763 120.461 100.607L119.449 98.9348H118.965V101.831H119.445V100.151C119.445 99.9708 119.437 99.7748 119.437 99.7748H119.445C119.445 99.7748 119.521 99.9548 119.617 100.115L120.653 101.831H121.117Z" fill="#26637F"/>
<path d="M123.192 101.831V101.359H122.204V100.595H123.096V100.131H122.204V99.4068H123.192V98.9348H121.652V101.831H123.192Z" fill="#26637F"/>
<path d="M125.593 99.8148C125.593 99.2508 125.197 98.8868 124.477 98.8868C124.149 98.8868 123.861 98.9468 123.641 99.0428V101.831H124.193V100.707C124.257 100.719 124.365 100.727 124.461 100.727C125.209 100.727 125.593 100.339 125.593 99.8148ZM125.041 99.8108C125.041 100.115 124.829 100.299 124.433 100.299C124.341 100.299 124.249 100.291 124.193 100.279V99.3628C124.261 99.3388 124.373 99.3188 124.485 99.3188C124.849 99.3188 125.041 99.4788 125.041 99.8108Z" fill="#26637F"/>
<path d="M128.118 101.831L127.15 98.9348H126.486L125.518 101.831H126.106L126.318 101.155H127.318L127.53 101.831H128.118ZM127.206 100.739H126.43L126.734 99.7508C126.786 99.5868 126.814 99.3988 126.814 99.3988H126.822C126.822 99.3988 126.85 99.5868 126.902 99.7508L127.206 100.739Z" fill="#26637F"/>
<path d="M129.878 101.831V101.359H128.978V98.9348H128.414V101.831H129.878Z" fill="#26637F"/>
</svg>
