<svg width="53" height="54" viewBox="0 0 53 54" fill="none" xmlns="http://www.w3.org/2000/svg">
<path d="M46.1749 42.142C42.9026 46.1356 38.5206 49.0704 33.5819 50.576C29.936 51.6149 26.1005 51.804 22.37 51.129C18.6395 50.4539 15.1134 48.9326 12.0628 46.6819C9.01209 44.4312 6.51794 41.5111 4.77212 38.1459C3.0263 34.7808 2.07523 31.0601 1.99197 27.27C4.19197 -17.777 71.8099 5.52897 46.1749 42.142Z" fill="#8A9EDD"/>
<path d="M41.201 25.824C48.088 34.291 37.8741 42.842 30.8711 34.374C24.0001 25.907 34.198 17.356 41.201 25.824Z" fill="#662948"/>
<path d="M23.0019 51.308C18.6133 50.5918 14.4924 48.7266 11.058 45.902C13.6703 43.047 17.2271 41.2332 21.072 40.795C23.734 43.49 23.8009 47.715 23.0019 51.308Z" fill="#26637F"/>
<path d="M22.237 37.052L22.187 40.346C23.187 44.205 28.176 42.808 30.355 40.462C30.355 40.462 30.089 38.017 30.105 36.869L22.237 37.052Z" fill="#F99370"/>
<path d="M28.575 10.635C17.675 6.16 11.64 21.964 16.83 29.782L28.575 10.635Z" fill="#662948"/>
<path d="M30.72 28.851C30.7059 28.9856 30.6835 29.1192 30.653 29.251C30.47 29.135 30.038 34.042 30.104 37.602C27.6104 38.6304 24.8762 38.9304 22.2189 38.467C22.3519 32.761 21.119 27.238 25.263 24.81C25.8949 24.5603 26.58 24.4757 27.2536 24.5642C27.9273 24.6526 28.5673 24.9112 29.1134 25.3156C29.6594 25.7199 30.0934 26.2567 30.3745 26.8752C30.6556 27.4938 30.7746 28.1738 30.72 28.851Z" fill="#E57D61"/>
<path d="M36.044 25.507C35.528 29.017 34.3809 32.96 31.6189 35.288C24.1189 42.175 8.08 31.828 15.819 23.228C16.8768 22.1537 17.6834 20.8583 18.1809 19.435C22.1369 5.87704 38.273 13.413 36.044 25.507Z" fill="#F99370"/>
<path d="M18.943 29.754L23.584 27.354C23.7433 27.9435 23.6959 28.5698 23.4498 29.1286C23.2037 29.6874 22.7738 30.1452 22.2314 30.4257C21.689 30.7062 21.0669 30.7925 20.4686 30.6703C19.8703 30.5481 19.332 30.2247 18.943 29.754Z" fill="white"/>
<path d="M22.386 23.527C22.3271 23.4019 22.3192 23.2588 22.3641 23.128C22.409 22.9972 22.5029 22.889 22.6262 22.8263C22.7494 22.7637 22.8923 22.7514 23.0244 22.7923C23.1565 22.8331 23.2675 22.9237 23.334 23.045C23.684 23.644 22.703 24.126 22.386 23.527Z" fill="#01011E"/>
<path d="M17.829 22.845C17.7701 22.7199 17.7624 22.5767 17.8072 22.446C17.8521 22.3152 17.9461 22.207 18.0693 22.1443C18.1926 22.0817 18.3354 22.0694 18.4675 22.1103C18.5996 22.1511 18.7105 22.2417 18.777 22.363C19.126 22.962 18.145 23.444 17.829 22.845Z" fill="#01011E"/>
<path d="M18.9279 29.9629C18.8832 29.96 18.8406 29.9422 18.8072 29.9123C18.7738 29.8823 18.7515 29.842 18.7437 29.7978C18.736 29.7536 18.7433 29.7081 18.7646 29.6685C18.7859 29.629 18.8198 29.5978 18.8609 29.5799C18.9939 29.6299 23.7679 26.7689 23.7679 27.2679C24.0279 27.6189 19.0589 29.8629 18.9279 29.9629Z" fill="#C16256"/>
<path d="M19.309 27.387C18.394 27.271 17.196 26.687 18.328 25.887C19.628 25.187 19.828 23.059 20.308 23.109C20.84 23.492 19.2601 25.721 18.2951 26.519C18.5342 26.7368 18.826 26.8883 19.1418 26.9585C19.4575 27.0287 19.7861 27.0151 20.095 26.919C20.1201 26.9104 20.1468 26.9071 20.1733 26.9092C20.1997 26.9113 20.2254 26.9188 20.2488 26.9313C20.2722 26.9438 20.2929 26.9609 20.3095 26.9817C20.326 27.0025 20.3381 27.0264 20.345 27.052C20.374 27.503 19.642 27.387 19.309 27.387Z" fill="#C16256"/>
<path d="M16.0821 49.1289C15.9491 49.0619 15.832 49.0129 15.699 48.9459C17.512 46.1849 19.325 43.2569 21.055 40.8109L22.1861 40.3619C24.1491 43.4229 26.677 43.1069 30.354 40.4779C34.6483 41.131 38.5262 43.4125 41.183 46.8489C37.5976 49.4662 33.3688 51.0607 28.948 51.4623C24.5272 51.8638 20.0803 51.0574 16.0821 49.1289Z" fill="#F99370"/>
<path d="M36.044 25.507C35.528 29.017 34.38 32.96 31.619 35.288C33.149 33.375 34.048 29.133 34.048 29.133L33.283 27.253C20.823 23.51 21.705 13.779 21.705 13.779C29.207 8.17496 37.657 17.423 36.044 25.507Z" fill="#E57D61"/>
<path d="M22.9851 12.881C22.9851 12.881 22.1701 22.481 33.3321 26.256L37.3911 28.618C44.9761 17.475 33.1161 2.94998 22.9851 12.881Z" fill="#662948"/>
<path d="M38.3401 27.238C37.6081 31.181 32.501 30.216 33.333 26.273C34.064 22.33 39.1711 23.293 38.3401 27.238Z" fill="#F99370"/>
<path d="M37.042 28.069C37.0132 28.0667 36.9853 28.0579 36.9605 28.0432C36.9356 28.0285 36.9143 28.0084 36.8983 27.9843C36.8824 27.9602 36.872 27.9329 36.8682 27.9042C36.8643 27.8756 36.867 27.8465 36.876 27.819C37.225 26.655 37.192 25.856 36.809 25.49C36.227 24.89 35.295 25.656 34.929 25.324C36.077 23.761 38.722 25.873 37.042 28.069Z" fill="#C16256"/>
<path d="M35.1291 27.819C34.4141 27.869 36.2441 25.141 37.4581 25.906C37.4628 25.9327 37.4616 25.96 37.4545 25.9861C37.4475 26.0122 37.4348 26.0364 37.4173 26.057C37.3998 26.0776 37.378 26.0941 37.3535 26.1054C37.3289 26.1166 37.3021 26.1223 37.2751 26.1221C35.6781 26.3051 35.5451 27.785 35.1291 27.819Z" fill="#C16256"/>
<path d="M36.144 29.0839C36.1411 29.202 36.0928 29.3143 36.0091 29.3976C35.9253 29.4808 35.8127 29.5285 35.6946 29.5307C35.5766 29.5329 35.4623 29.4894 35.3755 29.4094C35.2888 29.3293 35.2363 29.2188 35.229 29.1009C35.2319 28.9829 35.2802 28.8705 35.3639 28.7873C35.4477 28.704 35.5603 28.6563 35.6784 28.6541C35.7964 28.6519 35.9107 28.6954 35.9975 28.7755C36.0842 28.8556 36.1367 28.9661 36.144 29.0839Z" fill="#CE3932"/>
<path d="M41.267 46.7659C37.5836 49.4899 33.2097 51.1256 28.6427 51.4871C24.0758 51.8486 19.4991 50.9214 15.433 48.8109C15.433 48.8109 18.9429 41.1749 21.0559 40.8109C20.6069 45.8849 22.1209 49.5439 26.9779 45.1529C28.6779 43.5529 30.3221 41.4429 32.5671 40.9609C36.0769 41.7726 39.1702 43.8366 41.267 46.7659Z" fill="#26637F"/>
<path d="M42.664 45.686C38.485 49.189 33.2863 51.2486 27.842 51.558C27.276 49.695 27.476 47.7489 28.842 45.2369C32.151 39.0819 39.304 41.211 42.664 45.686Z" fill="#26637F"/>
<path d="M24.282 22.479C24.2543 22.479 24.2271 22.4712 24.2036 22.4565C24.1801 22.4419 24.1612 22.4209 24.149 22.396C23.8986 22.0279 23.5644 21.7244 23.1739 21.5105C22.7835 21.2965 22.348 21.1781 21.9029 21.165C21.8777 21.1666 21.8524 21.1631 21.8285 21.1547C21.8046 21.1463 21.7827 21.1331 21.764 21.1161C21.7454 21.099 21.7303 21.0783 21.7198 21.0553C21.7094 21.0322 21.7036 21.0073 21.703 20.982C21.7028 20.9318 21.7216 20.8833 21.7555 20.8463C21.7894 20.8092 21.8359 20.7863 21.886 20.782C22.4013 20.7867 22.9077 20.9181 23.3602 21.1647C23.8128 21.4113 24.1976 21.7655 24.481 22.196C24.4952 22.2167 24.5052 22.24 24.5104 22.2646C24.5156 22.2893 24.5159 22.3146 24.5112 22.3394C24.5066 22.3641 24.4972 22.3876 24.4834 22.4087C24.4696 22.4297 24.4518 22.4478 24.431 22.462C24.365 22.479 24.316 22.496 24.282 22.479Z" fill="#C16256"/>
<path d="M17.595 21.5979C17.562 21.5979 17.545 21.581 17.512 21.565C17.4692 21.5374 17.4386 21.4945 17.4263 21.445C17.414 21.3956 17.4211 21.3434 17.4461 21.299C17.6743 20.8931 18.0358 20.5786 18.4694 20.4088C18.9029 20.2389 19.3818 20.2241 19.825 20.367C19.8708 20.3865 19.9075 20.4229 19.9274 20.4687C19.9472 20.5144 19.9488 20.566 19.9318 20.6129C19.9148 20.6598 19.8804 20.6984 19.8358 20.7207C19.7912 20.743 19.7398 20.7474 19.692 20.733C19.3322 20.6161 18.9425 20.6305 18.5923 20.7737C18.2421 20.9168 17.9539 21.1795 17.779 21.515C17.7584 21.5439 17.7306 21.5668 17.6983 21.5814C17.6659 21.596 17.6303 21.6017 17.595 21.5979Z" fill="#C16256"/>
<path d="M27.344 53.072C-7.42296 52.756 -8.53795 2.28499 26.229 0.437988C61.044 0.803988 62.061 51.258 27.344 53.072ZM26.2791 3.48299C-4.4629 5.11299 -3.46495 49.729 27.2601 50.012C57.9691 48.43 57.0541 3.79798 26.2791 3.48198V3.48299Z" fill="white"/>
</svg>
