<svg width="53" height="54" viewBox="0 0 53 54" fill="none" xmlns="http://www.w3.org/2000/svg">
<path d="M1.55303 27.574C1.53603 44.174 19.0531 56.137 34.3531 50.58C39.3217 48.8833 43.623 45.6523 46.6367 41.353C49.6503 37.0537 51.2206 31.9084 51.121 26.659C49.961 -5.91197 1.50203 -5.02599 1.55303 27.574Z" fill="#8A9EDD"/>
<path d="M29.2639 34.9771L22.345 35.105L22.496 43.2716L29.4148 43.1437L29.2639 34.9771Z" fill="#F99370"/>
<path d="M31.38 41.73C32.045 43.93 33.3931 47.918 34.3581 50.58C37.5329 49.4943 40.4535 47.7737 42.9421 45.5229C39.4802 43.2816 35.4969 41.9749 31.38 41.73Z" fill="#EB5648"/>
<path d="M10.2201 45.9561C12.572 47.9712 15.2803 49.5284 18.2051 50.5471C19.0371 47.9351 20.185 44.0931 20.75 41.9301C16.9951 42.5134 13.4064 43.8855 10.2201 45.9561Z" fill="#EB5648"/>
<path d="M34.357 50.58C34.972 50.364 35.588 50.1309 36.17 49.8799C34.639 47.1349 33.0931 44.5069 31.3791 41.7289C31.394 41.085 31.2061 40.4526 30.842 39.9213C30.4779 39.3899 29.956 38.9865 29.35 38.7679C27.0767 39.2925 24.7176 39.3267 22.43 38.868C22.43 38.868 20.267 39.85 20.73 41.879C19.25 44.607 17.886 47.202 16.555 49.897C22.2032 52.3056 28.5408 52.5488 34.357 50.58Z" fill="#EB5648"/>
<path d="M14.2621 24.895C15.1771 28.754 19.901 27.673 19.02 23.795C18.105 19.938 13.3971 21.019 14.2621 24.895Z" fill="#F99370"/>
<path d="M37.4181 24.463C36.6531 28.356 31.8951 27.441 32.6271 23.548C33.3921 19.655 38.1501 20.57 37.4181 24.463Z" fill="#F99370"/>
<path d="M16.175 29.0549C16.957 42.0299 37.7511 39.755 35.4551 26.743C35.1221 24.165 34.155 22.4509 33.655 18.3429C32.474 8.81094 18.9 8.56195 17.868 18.5589C17.473 22.5009 16.093 25.4279 16.175 29.0549Z" fill="#F99370"/>
<path d="M23.1951 23.066C23.2246 23.0048 23.2417 22.9384 23.2455 22.8706C23.2494 22.8027 23.2398 22.7348 23.2173 22.6707C23.1949 22.6066 23.1601 22.5475 23.1148 22.4969C23.0695 22.4462 23.0147 22.405 22.9535 22.3755C22.8923 22.346 22.8259 22.3289 22.7581 22.325C22.6903 22.3212 22.6224 22.3308 22.5583 22.3532C22.4942 22.3757 22.4351 22.4105 22.3845 22.4557C22.3338 22.501 22.2926 22.5558 22.2631 22.617C22.2036 22.7406 22.1955 22.8828 22.2408 23.0123C22.2861 23.1418 22.381 23.2479 22.5046 23.3075C22.6282 23.367 22.7703 23.375 22.8998 23.3297C23.0293 23.2844 23.1356 23.1896 23.1951 23.066Z" fill="#01011E"/>
<path d="M29.4 22.966C29.4595 22.8424 29.4676 22.7002 29.4223 22.5708C29.377 22.4413 29.2821 22.335 29.1585 22.2755C29.0349 22.216 28.8927 22.208 28.7633 22.2532C28.6338 22.2985 28.5275 22.3934 28.468 22.517C28.4385 22.5782 28.4214 22.6446 28.4176 22.7124C28.4137 22.7802 28.4233 22.8482 28.4457 22.9123C28.4682 22.9764 28.503 23.0355 28.5483 23.0861C28.5935 23.1368 28.6483 23.178 28.7095 23.2075C28.7707 23.237 28.8372 23.2541 28.905 23.2579C28.9728 23.2618 29.0407 23.2522 29.1048 23.2298C29.1689 23.2074 29.228 23.1725 29.2786 23.1272C29.3293 23.082 29.3705 23.0272 29.4 22.966Z" fill="#01011E"/>
<path d="M26.3391 27.075C27.2871 27.042 28.7511 26.375 27.5391 25.561C26.5581 25.045 25.7921 23.032 25.7921 23.016C25.7091 22.783 25.3261 22.916 25.4261 23.149C25.4591 23.232 26.241 25.328 27.356 25.91C28.138 26.359 26.5411 26.842 25.8761 26.625C25.8253 26.6112 25.7713 26.6173 25.7248 26.642C25.6784 26.6667 25.643 26.7082 25.6261 26.758C25.5911 27.126 26.0901 27.059 26.3391 27.075Z" fill="#C16256"/>
<path d="M32.0951 17.759C27.4541 20.021 21.9311 13.035 19.1201 16.345L18.737 14.365L24.16 11.703L32.9431 14.581L32.0951 17.759Z" fill="#E57D61"/>
<path d="M17.356 21.569C18.1921 19.9144 18.7914 18.1505 19.136 16.329C19.336 14.25 22.1139 13.85 24.4259 15.414C25.5825 16.2679 26.9358 16.8163 28.3605 17.0086C29.7852 17.2009 31.2354 17.0308 32.577 16.514C35.5549 15.35 37.4011 10.775 34.3071 8.16298C31.2461 5.56298 28.152 7.69695 25.457 8.76295C21.964 10.174 13.131 7.65895 17.356 21.569Z" fill="#8C4225"/>
<path d="M34.1081 21.1199C32.5681 19.3159 31.6215 17.0812 31.397 14.7199L33.9921 13.6389C34.6824 16.0798 34.7224 18.6588 34.1081 21.1199Z" fill="#8C4225"/>
<path d="M15.277 25.644C15.3066 25.6424 15.3355 25.6343 15.3616 25.6202C15.3877 25.6061 15.4103 25.5864 15.4278 25.5624C15.4453 25.5385 15.4574 25.511 15.4629 25.4818C15.4685 25.4527 15.4675 25.4227 15.46 25.394C14.76 23.494 15.427 22.516 16.941 23.065C18.288 22.616 13.514 21.402 15.094 25.51C15.1016 25.5515 15.1248 25.5885 15.1589 25.6135C15.1929 25.6384 15.2352 25.6493 15.277 25.644Z" fill="#C16256"/>
<path d="M16.74 25.2949C17.34 25.2279 16.49 23.4819 15.04 23.4149C14.991 23.4155 14.944 23.4349 14.9088 23.469C14.8736 23.5031 14.8527 23.5494 14.8506 23.5984C14.8484 23.6474 14.865 23.6954 14.8971 23.7325C14.9291 23.7696 14.9742 23.793 15.0229 23.7979C16.4909 23.9179 16.374 25.2449 16.74 25.2949Z" fill="#C16256"/>
<path d="M36.32 25.262C37.601 23.183 36.004 21.536 34.407 22.384C34.3835 22.3934 34.3621 22.4075 34.344 22.4253C34.326 22.4431 34.3116 22.4644 34.3019 22.4878C34.2922 22.5113 34.2874 22.5364 34.2875 22.5618C34.2877 22.5871 34.2929 22.6122 34.3029 22.6355C34.3129 22.6588 34.3275 22.6799 34.3458 22.6975C34.364 22.7151 34.3857 22.7288 34.4094 22.7379C34.433 22.747 34.4583 22.7512 34.4837 22.7504C34.5091 22.7496 34.534 22.7437 34.5571 22.733C35.9041 22.151 36.819 22.983 36.137 25.012C36.1296 25.0407 36.1286 25.0707 36.1342 25.0999C36.1398 25.129 36.1517 25.1565 36.1692 25.1804C36.1868 25.2044 36.2093 25.2241 36.2354 25.2382C36.2615 25.2523 36.2904 25.2605 36.32 25.262Z" fill="#C16256"/>
<path d="M34.5401 25.029C34.8891 24.979 35.0561 23.582 36.5191 23.399C36.5676 23.3944 36.6123 23.3708 36.6435 23.3333C36.6746 23.2958 36.6895 23.2475 36.6851 23.1989C36.0371 22.3499 33.6751 24.929 34.5401 25.029Z" fill="#C16256"/>
<path d="M35.472 26.74C34.407 22.648 34.572 21.616 33.472 19.52C33.9934 21.9676 34.3608 24.4454 34.5721 26.939C35.0051 29.301 33.3911 29.817 31.6611 29.139C28.3011 27.625 24.308 26.81 20.615 28.856C14.793 31.95 17.671 22.668 18.003 20.106C18.069 19.74 18.119 19.406 18.153 19.141C17.1866 21.7479 16.5115 24.4537 16.1401 27.209C14.5451 42.047 39.148 40.832 35.472 26.74ZM30.648 34.575C27.038 36.189 27.1381 32.246 25.9731 32.229C24.5261 32.212 24.873 34.841 22.962 34.829C20.5 34.796 18.421 31.652 21.082 29.972C22.6063 29.1422 24.3272 28.7413 26.0613 28.8117C27.7955 28.8821 29.478 29.4213 30.93 30.372C31.2914 30.6051 31.5839 30.9308 31.7769 31.3151C31.97 31.6994 32.0565 32.1284 32.0278 32.5576C31.999 32.9867 31.8559 33.4003 31.6132 33.7554C31.3706 34.1105 31.0373 34.3942 30.648 34.577V34.575Z" fill="#8C4225"/>
<path d="M26.9551 30.718C27.2693 30.7176 27.5823 30.6786 27.8871 30.6019C27.9314 30.5832 27.9674 30.5492 27.9886 30.5061C28.0099 30.463 28.0148 30.4137 28.0027 30.3672C27.9905 30.3207 27.9621 30.2802 27.9225 30.2529C27.8829 30.2257 27.8347 30.2136 27.787 30.219C26.5093 30.4535 25.1899 30.2297 24.061 29.587C24.0382 29.5746 24.0132 29.5668 23.9873 29.5643C23.9614 29.5617 23.9353 29.5644 23.9105 29.5722C23.8857 29.5799 23.8626 29.5925 23.8428 29.6093C23.8229 29.6261 23.8067 29.6468 23.795 29.67C24.027 30.552 26.7051 30.735 26.9551 30.718Z" fill="#C16256"/>
<path d="M10.419 46.1219C19.202 53.7739 33.475 53.7909 42.259 46.1219C31.6669 47.0702 21.0112 47.0702 10.419 46.1219Z" fill="#DF1515"/>
<path d="M20.733 41.897C20.733 41.914 20.716 41.914 20.716 41.93C24.2401 42.6582 27.882 42.5957 31.379 41.747C31.3939 41.1029 31.2059 40.4705 30.8416 39.9391C30.4773 39.4077 29.9551 39.0044 29.349 38.786C27.0756 39.3106 24.7165 39.3447 22.429 38.886C22.43 38.869 20.263 39.851 20.733 41.897Z" fill="#DF1515"/>
<path d="M25.84 0.807983C60.657 1.27398 61.54 51.728 26.821 53.442C-7.94601 53.008 -8.92797 2.55498 25.84 0.807983ZM26.7551 50.381C57.4471 48.881 56.6821 4.26796 25.8901 3.85196C-4.83492 5.39896 -3.96993 50.015 26.7551 50.381Z" fill="white"/>
<path d="M20.933 21.5849C20.8806 21.5733 20.8346 21.542 20.8044 21.4976C20.7742 21.4532 20.762 21.3989 20.7704 21.3459C20.7789 21.2928 20.8072 21.245 20.8497 21.2121C20.8921 21.1792 20.9456 21.1638 20.9991 21.1689C21.5821 21.2151 22.1681 21.1283 22.7127 20.9151C23.2573 20.7018 23.7465 20.3677 24.1431 19.9379C24.1807 19.896 24.2332 19.8707 24.2894 19.8676C24.3455 19.8645 24.4007 19.8839 24.4426 19.9214C24.4845 19.9589 24.5098 20.0116 24.5129 20.0677C24.516 20.1239 24.4966 20.179 24.459 20.2209C24.0187 20.7082 23.4703 21.0854 22.8577 21.3223C22.2452 21.5592 21.5866 21.6491 20.933 21.5849Z" fill="#C16256"/>
<path d="M30.2481 21.9509C30.1981 21.9339 30.1321 21.901 30.1151 21.851C29.8272 21.474 29.4663 21.159 29.054 20.9246C28.6416 20.6903 28.1863 20.5414 27.7151 20.4869C27.6878 20.4837 27.6613 20.475 27.6373 20.4616C27.6134 20.4481 27.5923 20.43 27.5753 20.4083C27.5583 20.3867 27.5458 20.3619 27.5383 20.3355C27.5309 20.309 27.5288 20.2813 27.5321 20.2539C27.5354 20.2266 27.544 20.2002 27.5575 20.1762C27.571 20.1523 27.5891 20.1312 27.6107 20.1142C27.6324 20.0972 27.6571 20.0846 27.6836 20.0772C27.7101 20.0698 27.7377 20.0677 27.765 20.071C28.3059 20.1186 28.83 20.2831 29.301 20.5531C29.7721 20.8231 30.1787 21.1923 30.4931 21.635C30.508 21.6577 30.5182 21.6833 30.523 21.7101C30.5277 21.7369 30.5269 21.7644 30.5206 21.7909C30.5144 21.8174 30.5027 21.8423 30.4865 21.8642C30.4702 21.886 30.4496 21.9043 30.426 21.9179C30.3723 21.9493 30.3094 21.9609 30.2481 21.9509Z" fill="#C16256"/>
</svg>
