<svg width="105" height="97" viewBox="0 0 105 97" fill="none" xmlns="http://www.w3.org/2000/svg">
<path d="M2.65002 43.676L0.00500488 41.663L3.53198 37.038L6.177 39.051L2.65002 43.676ZM9.703 34.41L7.05798 32.397L10.585 27.772L13.23 29.785L9.703 34.41ZM16.756 25.144L14.111 23.131L17.6381 18.506L20.283 20.519L16.756 25.144ZM23.809 15.895L21.1641 13.882L24.691 9.25699L27.3361 11.27L23.809 15.895ZM30.8621 6.629L28.217 4.616L31.561 0.223999L34.2061 2.237L30.8621 6.629Z" fill="white"/>
<path d="M104.391 78.443L98.6521 77.478L99.201 74.201L104.94 75.166L104.391 78.443ZM92.896 76.5129L87.1571 75.548L87.706 72.2709L93.445 73.236L92.896 76.5129ZM81.418 74.5829L75.679 73.618L76.228 70.3409L81.967 71.306L81.418 74.5829ZM69.94 72.653L64.201 71.688L64.75 68.4109L70.489 69.376L69.94 72.653ZM58.445 70.723L52.706 69.7579L53.255 66.481L58.994 67.446L58.445 70.723ZM46.967 68.793L41.228 67.8279L41.7771 64.551L47.5159 65.516L46.967 68.793ZM35.489 66.863L29.75 65.8979L30.299 62.621L36.038 63.5859L35.489 66.863ZM23.994 64.933L18.255 63.968L18.804 60.691L24.543 61.6559L23.994 64.933ZM12.5159 63.003L6.77705 62.038L7.326 58.761L13.065 59.726L12.5159 63.003Z" fill="white"/>
<path d="M40.5441 96.626L35.9191 93.083L37.949 90.438L42.574 93.981L40.5441 96.626ZM31.295 89.539L26.67 85.996L28.7001 83.351L33.3251 86.894L31.295 89.539ZM22.063 82.452L17.438 78.909L19.467 76.264L24.092 79.807L22.063 82.452ZM12.814 75.365L8.18896 71.822L10.218 69.177L14.843 72.72L12.814 75.365Z" fill="white"/>
<path d="M5.31095 52.559L4.46305 49.348L10.086 47.867L10.935 51.078L5.31095 52.559ZM16.573 49.5811L15.725 46.3701L21.3481 44.889L22.196 48.1L16.573 49.5811ZM27.818 46.6201L26.97 43.409L32.5931 41.928L33.441 45.139L27.818 46.6201ZM39.08 43.642L38.232 40.431L43.855 38.95L44.704 42.161L39.08 43.642ZM50.342 40.681L49.4941 37.47L55.117 35.989L55.966 39.2L50.342 40.681ZM61.604 37.703L60.756 34.492L66.3789 33.012L67.227 36.223L61.604 37.703ZM72.866 34.742L72.018 31.531L77.641 30.05L78.4891 33.261L72.866 34.742Z" fill="white"/>
</svg>
