<svg width="144" height="132" viewBox="0 0 144 132" fill="none" xmlns="http://www.w3.org/2000/svg">
<path d="M45.649 14.2219C45.649 14.2219 64.28 5.85495 65.977 36.979C67.458 64.044 70.9681 94.503 52.6861 109.109C37.9141 120.903 8.83606 123.249 3.49606 101.324C0.36906 88.498 8.30402 75.2899 12.047 60.3019C15.739 45.6289 15.007 11.8429 45.649 14.2219Z" fill="#662948"/>
<path d="M91.0951 101.689C84.6073 103.798 77.7638 104.589 70.966 104.018C65.3134 103.57 59.7253 102.516 54.2981 100.874L53.998 95.218L52.7671 71.3959L52.451 65.407C52.451 65.407 53.366 65.307 54.851 65.274C58.045 65.191 63.834 65.4739 68.442 67.9189C74.913 71.3629 81.8171 74.19 87.8551 72.743C89.3529 72.3872 90.7734 71.7617 92.047 70.897C94.559 69.217 96.256 66.139 98.734 62.28C103.891 54.262 107.784 41.553 107.784 41.553L118.697 39.174C125.297 60.9 118.261 92.49 91.0951 101.689Z" fill="#FCAA23"/>
<path d="M53.1671 59.369L52.3521 65.4409C50.1731 72.5109 40.7911 66.9709 39.2271 64.1769L40.6411 55.377L53.1671 59.369Z" fill="#F99370"/>
<path d="M60.787 72.861C60.787 72.861 68.156 82.027 72.382 88.361C76.608 94.695 77.007 99.274 77.007 99.274L64.813 100.339L60.787 72.861Z" fill="#FF7708"/>
<path d="M40.575 44.897C40.5745 45.1252 40.5912 45.3532 40.625 45.579C40.941 45.413 40.708 53.514 40.01 59.386C45.233 62.563 51.638 62.297 52.802 62.214C53.7494 56.0266 53.9338 49.7463 53.351 43.514C51.97 36.028 40.325 37.295 40.575 44.897Z" fill="#E57D61"/>
<path d="M32.103 40.389C33.118 46.178 35.181 52.682 39.803 56.459C41.7073 57.9569 43.9576 58.952 46.347 59.353C59.805 63.029 75.642 46.843 64.847 35.681C60.954 32.188 60.0401 25.9 56.9291 22.423C52.3711 16.023 42.606 16.5009 37.399 21.8409C32.723 26.6649 31.176 33.269 32.103 40.389Z" fill="#F99370"/>
<path d="M54.199 36.4959C54.2937 36.2873 54.3031 36.05 54.2252 35.8346C54.1473 35.6191 53.9883 35.4427 53.7821 35.3429C53.576 35.243 53.3389 35.2278 53.1216 35.3003C52.9043 35.3728 52.724 35.5273 52.619 35.7309C52.5244 35.9395 52.515 36.1769 52.5929 36.3923C52.6708 36.6077 52.8297 36.7842 53.0359 36.884C53.2421 36.9838 53.4791 36.9991 53.6964 36.9266C53.9137 36.8541 54.0941 36.6996 54.199 36.4959Z" fill="#01011E"/>
<path d="M61.5681 35.148C61.6627 34.9394 61.6721 34.7021 61.5942 34.4867C61.5163 34.2713 61.3573 34.0948 61.1511 33.995C60.9449 33.8952 60.7079 33.8798 60.4906 33.9523C60.2733 34.0248 60.093 34.1794 59.988 34.3831C59.8934 34.5917 59.884 34.829 59.9618 35.0444C60.0397 35.2599 60.1987 35.4363 60.4049 35.5361C60.6111 35.636 60.8481 35.6513 61.0654 35.5788C61.2827 35.5062 61.4631 35.3517 61.5681 35.148Z" fill="#01011E"/>
<path d="M59.389 42.7839C58.857 42.8009 57.659 43.0169 57.676 42.2839C57.6866 42.2409 57.7064 42.2006 57.7338 42.1657C57.7613 42.1309 57.7958 42.1023 57.8351 42.0819C57.8745 42.0614 57.9178 42.0496 57.9621 42.0472C58.0064 42.0448 58.0507 42.0519 58.092 42.0679C59.207 42.4009 60.787 41.835 60.987 41.319C61.054 41.136 60.821 40.97 60.604 40.853C58.724 39.938 56.246 34.748 57.959 35.929C57.976 35.962 59.24 39.389 60.92 40.254C62.816 41.537 60.869 42.5519 59.389 42.7839Z" fill="#C16256"/>
<path d="M32.108 40.3881C33.123 46.1771 35.185 52.681 39.808 56.458C37.23 53.347 35.5331 46.311 35.5331 46.311L36.681 43.15C56.726 36.363 54.6971 20.094 54.6971 20.094C41.7371 11.077 29.28 27.147 32.108 40.3881Z" fill="#E57D61"/>
<path d="M52.635 18.813C52.635 18.813 54.481 34.733 36.549 41.537L30.049 38.0769C23.557 25.7829 34.719 7.45097 52.635 18.813Z" fill="#662948"/>
<path d="M31.525 14.205C35.917 29.326 53.5501 24.505 49.6071 9.24801C45.2161 -5.87399 27.583 -1.04996 31.525 14.205Z" fill="#662948"/>
<path d="M28.464 43.383C29.864 49.921 38.112 48.057 36.549 41.553C35.152 34.997 26.917 36.879 28.464 43.383Z" fill="#F99370"/>
<path d="M30.627 44.714C29.246 43.3 29.745 40.406 30.444 39.906C31.744 38.841 34.104 39.374 33.937 40.039C33.521 40.704 32.174 39.324 30.909 40.388C29.595 41.371 31.392 44.149 30.627 44.714Z" fill="#C16256"/>
<path d="M33.7221 44.194C33.0401 44.161 32.757 41.6941 30.145 41.4821C30.0581 41.4745 29.9772 41.4343 29.9185 41.3696C29.8599 41.3048 29.828 41.2204 29.8291 41.1331C31.6421 39.7231 34.9531 44.315 33.7221 44.194Z" fill="#C16256"/>
<path d="M71.6 99.7621C71.4915 101.194 71.2857 102.617 70.984 104.021C70.568 105.551 70.136 107.032 69.684 108.479C69.251 109.879 68.8021 111.24 68.3701 112.588C68.1871 113.137 68.021 113.669 67.838 114.218L67.389 115.618C66.857 117.298 66.3411 118.978 65.9091 120.642C65.6261 121.723 65.36 122.821 65.127 123.919C64.6503 126.254 64.3667 128.624 64.2791 131.006H0.900024V124.019C2.08102 121.041 3.30003 117.931 4.16003 115.169C4.82503 113.04 5.56004 110.678 6.38904 108.182C8.36904 102.227 10.814 95.456 13.689 88.968C19.528 75.776 27.097 63.782 35.947 62.285C37.1692 62.077 38.4178 62.077 39.64 62.285C42.501 65.595 49.421 70.985 52.166 66.045C52.282 65.845 52.3821 65.6291 52.4821 65.4131C53.4901 65.7481 54.443 66.2303 55.3101 66.844C57.6643 68.6363 59.6617 70.8539 61.199 73.382C63.129 76.326 64.776 79.52 66.239 82.132C66.821 83.147 67.37 84.078 67.886 84.86C69.4025 87.1978 70.4908 89.7869 71.1 92.506C71.133 92.639 71.15 92.756 71.183 92.889C71.2134 93.0094 71.2358 93.1317 71.2501 93.255C71.4442 94.3107 71.5721 95.3774 71.6331 96.449C71.6803 97.5531 71.6692 98.6591 71.6 99.7621Z" fill="#FCAA23"/>
<path d="M58.576 44.8311C58.2966 44.3477 57.8786 43.9593 57.376 43.7161C56.8808 43.4542 56.3194 43.3442 55.762 43.4C55.5131 43.4059 55.2704 43.4787 55.0593 43.6107C54.8482 43.7428 54.6766 43.9293 54.5625 44.1507C54.4484 44.372 54.3961 44.6199 54.4109 44.8684C54.4258 45.117 54.5074 45.3569 54.647 45.5631C54.9264 46.0465 55.3444 46.4349 55.847 46.6781C56.2593 46.8895 56.7147 47.0034 57.178 47.0111C57.2727 47.0137 57.3674 47.008 57.461 46.9941C57.7099 46.9883 57.9527 46.9155 58.1637 46.7834C58.3748 46.6513 58.5464 46.4648 58.6605 46.2435C58.7746 46.0222 58.8269 45.7743 58.812 45.5257C58.7972 45.2772 58.7157 45.0372 58.576 44.8311ZM58.094 45.9461C58.0192 46.0652 57.9162 46.164 57.7941 46.2338C57.672 46.3036 57.5346 46.3421 57.394 46.3461C56.9661 46.3854 56.5365 46.2926 56.163 46.0801C55.7721 45.8925 55.4472 45.5909 55.231 45.215C55.1544 45.0951 55.107 44.959 55.0926 44.8175C55.0782 44.6759 55.0971 44.5329 55.148 44.4C55.2228 44.2809 55.3258 44.1822 55.4479 44.1124C55.57 44.0426 55.7074 44.004 55.848 44.0001C55.915 44.0001 55.981 43.9831 56.048 43.9831C56.4074 43.9926 56.7599 44.0835 57.079 44.249C57.4699 44.4367 57.7948 44.7383 58.011 45.1141C58.0905 45.2358 58.1392 45.375 58.1532 45.5197C58.1671 45.6645 58.1458 45.8104 58.091 45.9451L58.094 45.9461Z" fill="#C16256"/>
<path d="M50.6721 35.282C50.6326 35.2845 50.5931 35.2787 50.556 35.265C50.5173 35.2492 50.4822 35.2258 50.4528 35.1961C50.4233 35.1664 50.4002 35.1311 50.3847 35.0923C50.3692 35.0534 50.3616 35.0119 50.3626 34.9701C50.3635 34.9283 50.3728 34.8871 50.39 34.849C50.7489 34.0741 51.2854 33.3947 51.9558 32.8658C52.6263 32.337 53.4119 31.9735 54.249 31.805C54.332 31.7894 54.4178 31.807 54.4881 31.8539C54.5583 31.9008 54.6073 31.9733 54.6247 32.0559C54.642 32.1385 54.6264 32.2247 54.5811 32.2959C54.5357 32.3671 54.4643 32.4178 54.382 32.437C53.6495 32.5892 52.962 32.9087 52.3732 33.3705C51.7845 33.8322 51.3105 34.4238 50.9881 35.099C50.9541 35.1527 50.9076 35.1974 50.8526 35.2293C50.7975 35.2612 50.7356 35.2792 50.6721 35.282Z" fill="#C16256"/>
<path d="M61.701 32.6369C61.6676 32.6386 61.6341 32.6335 61.6027 32.622C61.5713 32.6105 61.5425 32.5928 61.518 32.5699C60.4475 31.8713 59.1477 31.6151 57.892 31.855C57.8508 31.8675 57.8074 31.8714 57.7646 31.8666C57.7217 31.8618 57.6803 31.8483 57.6429 31.8269C57.6054 31.8056 57.5727 31.7768 57.5468 31.7424C57.5209 31.708 57.5022 31.6686 57.492 31.6268C57.4818 31.5849 57.4802 31.5413 57.4874 31.4988C57.4946 31.4563 57.5103 31.4157 57.5337 31.3795C57.5571 31.3433 57.5877 31.3123 57.6235 31.2883C57.6593 31.2643 57.6997 31.2479 57.742 31.24C58.4547 31.0926 59.1895 31.0887 59.9036 31.2286C60.6177 31.3686 61.2968 31.6495 61.901 32.055C61.9353 32.0798 61.9641 32.1112 61.9861 32.1473C62.008 32.1835 62.0226 32.2236 62.0288 32.2654C62.035 32.3072 62.0329 32.3498 62.0224 32.3908C62.012 32.4318 61.9935 32.4702 61.968 32.504C61.9361 32.5445 61.8956 32.5775 61.8495 32.6005C61.8033 32.6235 61.7526 32.636 61.701 32.6369Z" fill="#C16256"/>
<path d="M44.551 81.062C45.151 128.655 84.076 91.442 90.514 67.704C90.9273 66.5381 91.7712 65.5747 92.8725 65.0116C93.9738 64.4485 95.2489 64.3284 96.436 64.676C104.304 66.476 93.957 91.442 91.229 96.682C82.745 114.349 61.186 130.418 42.072 117.642C29.629 109.008 26.851 92.573 28.464 78.599C29.778 66.09 44.551 81.062 44.551 81.062Z" fill="#F99370"/>
<path d="M143.712 39.191C143.894 39.7415 143.931 40.3298 143.82 40.899C143.709 41.4681 143.453 41.999 143.077 42.4404C142.7 42.8818 142.217 43.2188 141.673 43.4189C141.128 43.6191 140.541 43.6756 139.969 43.583L119.807 40.289L98.7971 47.209L103.255 60.733L98.73 62.263L94.2551 48.705L87.655 50.884L85.027 51.7489L79.454 34.7489L82.1321 33.867L114.205 23.304L128.412 8.71495L128.462 8.66496C128.867 8.24923 129.372 7.94487 129.928 7.78129C130.485 7.61771 131.075 7.60044 131.64 7.73112C132.205 7.86181 132.727 8.13608 133.155 8.52739C133.584 8.91869 133.904 9.41378 134.085 9.96495L143.712 39.191Z" fill="#EB5648"/>
<path d="M103.888 61.632C104.018 61.6151 104.146 61.5873 104.271 61.549C104.363 61.5314 104.452 61.5035 104.537 61.466C104.703 61.416 104.87 61.35 105.037 61.283C105.363 61.1347 105.675 60.9567 105.969 60.751C106.256 60.536 106.513 60.2842 106.734 60.002C106.945 59.7289 107.114 59.4255 107.234 59.102C107.311 58.8735 107.338 58.6311 107.312 58.3914C107.286 58.1517 107.209 57.9203 107.086 57.7133C106.962 57.5062 106.795 57.3284 106.596 57.192C106.398 57.0556 106.172 56.9638 105.934 56.923C105.576 56.8185 105.199 56.8017 104.833 56.8742C104.468 56.9466 104.125 57.106 103.834 57.339L103.019 58.021L103.036 58.004C103.027 58.0131 103.016 58.0191 103.003 58.021L102.97 58.038L103.07 58.021C102.809 58.0383 102.555 58.1093 102.323 58.2296C102.092 58.3499 101.887 58.5169 101.723 58.72C101.559 58.9232 101.439 59.1582 101.37 59.4102C101.301 59.6621 101.285 59.9256 101.323 60.184C101.496 60.6997 101.854 61.1332 102.327 61.4006C102.801 61.668 103.357 61.7504 103.888 61.632Z" fill="#F99370"/>
<path d="M103.206 58.737C103.311 58.6975 103.411 58.6472 103.506 58.587L103.739 58.471C103.889 58.388 104.022 58.305 104.171 58.205C104.46 58.0175 104.728 57.7999 104.971 57.556C105.233 57.2945 105.457 56.9976 105.636 56.674C105.825 56.3263 105.955 55.9495 106.019 55.559C106.034 55.297 105.995 55.0349 105.904 54.7887C105.813 54.5425 105.673 54.3174 105.493 54.1273C105.312 53.9372 105.094 53.7862 104.853 53.6834C104.611 53.5807 104.351 53.5285 104.089 53.53C103.549 53.4533 103.001 53.5816 102.551 53.8897C102.101 54.1977 101.783 54.6631 101.66 55.194C101.66 55.144 101.693 55.127 101.627 55.211C101.58 55.259 101.53 55.3034 101.477 55.344C101.441 55.3699 101.402 55.3923 101.361 55.411L101.311 55.444C101.311 55.444 101.261 55.461 101.328 55.444C101.082 55.521 100.855 55.6512 100.665 55.8255C100.475 55.9997 100.325 56.2137 100.226 56.4523C100.128 56.6909 100.083 56.9482 100.096 57.206C100.108 57.4638 100.177 57.7157 100.297 57.944C100.61 58.3991 101.073 58.7286 101.606 58.8739C102.139 59.0191 102.706 58.9706 103.206 58.737Z" fill="#F99370"/>
<path d="M103.018 55.1281L104.465 53.647C104.653 53.4767 104.799 53.2656 104.891 53.0299C104.984 52.7942 105.022 52.5403 105.001 52.2878C104.98 52.0353 104.901 51.791 104.771 51.5738C104.641 51.3566 104.462 51.1722 104.249 51.035C103.772 50.7327 103.206 50.601 102.644 50.6615C102.082 50.7219 101.557 50.971 101.155 51.3681L99.708 52.8491C99.5204 53.0194 99.3746 53.2305 99.2816 53.4662C99.1887 53.7019 99.1512 53.9558 99.1721 54.2083C99.193 54.4608 99.2717 54.7051 99.4021 54.9223C99.5325 55.1395 99.7111 55.3239 99.9241 55.4611C100.401 55.7645 100.967 55.8968 101.529 55.8363C102.091 55.7758 102.616 55.5261 103.018 55.1281Z" fill="#F99370"/>
<path d="M101.455 52.25L102.902 50.769C103.09 50.5987 103.236 50.3875 103.328 50.1518C103.421 49.9161 103.459 49.6622 103.438 49.4097C103.417 49.1573 103.338 48.9129 103.208 48.6957C103.078 48.4785 102.899 48.2942 102.686 48.157C102.209 47.8546 101.643 47.7229 101.081 47.7834C100.519 47.8439 99.9942 48.093 99.592 48.49L98.145 49.97C97.9574 50.1403 97.8115 50.3514 97.7186 50.5871C97.6257 50.8228 97.5882 51.0767 97.6091 51.3292C97.63 51.5817 97.7087 51.826 97.8391 52.0432C97.9695 52.2605 98.1481 52.4448 98.3611 52.582C98.8384 52.8845 99.4041 53.0164 99.966 52.9561C100.528 52.8958 101.053 52.6469 101.455 52.25Z" fill="#F99370"/>
<path d="M99.297 71.397C99.297 71.397 104.67 63.997 105.968 60.734C105.968 60.734 102.491 46.6271 100.079 48.1251C97.6671 49.6051 88.7501 56.958 90.4641 68.025C92.1022 67.5357 93.856 67.6009 95.4532 68.2107C97.0504 68.8204 98.4016 69.9405 99.297 71.397Z" fill="#F99370"/>
<path d="M139.97 43.5829L128.425 8.71592L128.475 8.66594C128.88 8.25021 129.385 7.94585 129.941 7.78227C130.498 7.61869 131.087 7.60141 131.653 7.7321C132.218 7.86278 132.74 8.13706 133.168 8.52836C133.597 8.91967 133.917 9.41476 134.098 9.96592L143.725 39.1919C143.903 39.7433 143.937 40.3311 143.823 40.8992C143.709 41.4673 143.452 41.9968 143.075 42.4372C142.699 42.8775 142.215 43.214 141.672 43.4146C141.128 43.6152 140.542 43.6731 139.97 43.5829Z" fill="#CE3932"/>
<path d="M87.6691 50.886L85.0411 51.751L79.452 34.751L82.1301 33.869L87.6691 50.886Z" fill="#CE3932"/>
<path d="M90.231 40.688C90.231 40.9874 90.1421 41.2801 89.9758 41.5291C89.8094 41.7781 89.573 41.9721 89.2963 42.0867C89.0197 42.2013 88.7153 42.2313 88.4216 42.1729C88.1279 42.1144 87.8582 41.9703 87.6464 41.7585C87.4347 41.5468 87.2906 41.277 87.2321 40.9833C87.1737 40.6897 87.2036 40.3852 87.3182 40.1086C87.4328 39.8319 87.6268 39.5955 87.8758 39.4291C88.1248 39.2628 88.4176 39.174 88.717 39.174C89.1181 39.1753 89.5024 39.3352 89.7861 39.6188C90.0697 39.9025 90.2297 40.2869 90.231 40.688Z" fill="#CE3932"/>
<path d="M94.6891 39.175C94.6891 39.4744 94.6003 39.7671 94.4339 40.0161C94.2676 40.2651 94.0311 40.4591 93.7545 40.5737C93.4778 40.6883 93.1734 40.7183 92.8797 40.6599C92.586 40.6015 92.3162 40.4573 92.1045 40.2455C91.8927 40.0338 91.7486 39.764 91.6902 39.4703C91.6317 39.1766 91.6617 38.8723 91.7763 38.5956C91.8909 38.319 92.085 38.0825 92.334 37.9161C92.5829 37.7498 92.8756 37.661 93.175 37.661C93.5762 37.6623 93.9606 37.8223 94.2442 38.1059C94.5279 38.3895 94.6877 38.7739 94.6891 39.175Z" fill="#CE3932"/>
<path d="M99.131 37.661C99.131 37.9605 99.0421 38.2532 98.8758 38.5021C98.7094 38.7511 98.473 38.9452 98.1963 39.0598C97.9197 39.1743 97.6153 39.2044 97.3216 39.1459C97.0279 39.0875 96.7582 38.9433 96.5464 38.7316C96.3347 38.5198 96.1905 38.25 96.1321 37.9564C96.0737 37.6627 96.1036 37.3583 96.2182 37.0816C96.3328 36.805 96.5268 36.5685 96.7758 36.4022C97.0248 36.2358 97.3176 36.147 97.617 36.147C98.0181 36.1483 98.4024 36.3083 98.6861 36.5919C98.9697 36.8756 99.1297 37.2599 99.131 37.661Z" fill="#CE3932"/>
<path d="M67.873 114.215C66.3087 118.137 65.187 122.221 64.5291 126.392C24.7211 132.492 14.6401 106.413 12.0781 92.8219C12.8931 90.8219 13.692 88.946 14.478 87.199L46.916 108.808C53.9953 110.226 60.9916 112.031 67.873 114.215Z" fill="#FF7708"/>
<path d="M99.3311 72.162C97.5841 89.679 89.699 115.362 69.488 122.533C44.635 131.915 14.9751 115.733 13.6771 89.0129C11.8771 67.5039 28.665 62.097 35.968 62.28C38.114 63.228 39.7281 65.5399 41.4411 68.6349C46.8971 77.7349 46.199 87.7349 54.017 95.2179C68.373 105.099 84.127 78.034 89.932 69.418C92.178 72.129 99.1981 72.611 99.3311 72.162Z" fill="#FCAA23"/>
<path d="M60.054 97.73C58.6118 97.7209 57.1918 97.373 55.9088 96.7141C54.6258 96.0552 53.5157 95.1039 52.6681 93.937C49.6241 90.177 46.696 82.825 46.579 82.525C46.5499 82.4399 46.555 82.3468 46.593 82.2652C46.6311 82.1837 46.6993 82.1201 46.7832 82.0877C46.8672 82.0554 46.9604 82.0569 47.0434 82.0918C47.1263 82.1267 47.1925 82.1923 47.2281 82.275C47.2611 82.358 50.239 89.844 53.217 93.52C55.696 96.564 59.688 99.4091 68.717 94.1521C77.134 89.2611 87.617 73.009 87.717 72.859C87.7678 72.7819 87.8472 72.728 87.9377 72.7093C88.0281 72.6907 88.1224 72.7087 88.1996 72.7595C88.2767 72.8103 88.3306 72.8897 88.3492 72.9801C88.3679 73.0706 88.3498 73.1649 88.299 73.242C87.867 73.907 77.6361 89.794 69.0691 94.768C65.6271 96.715 62.649 97.73 60.054 97.73Z" fill="#FF7708"/>
<path d="M91.5291 101.323C91.4725 101.32 91.4166 101.309 91.3631 101.29C91.2827 101.247 91.2221 101.174 91.1941 101.087C91.1662 101 91.173 100.906 91.213 100.824C95.1858 93.1203 97.5408 84.6855 98.1331 76.0381C98.1336 75.9931 98.143 75.9487 98.1609 75.9074C98.1788 75.8662 98.2048 75.829 98.2373 75.7979C98.2699 75.7669 98.3084 75.7427 98.3504 75.7268C98.3924 75.7108 98.4372 75.7034 98.4821 75.705C98.5719 75.7089 98.6567 75.7474 98.7188 75.8125C98.7809 75.8775 98.8154 75.9641 98.8151 76.054C98.2201 84.8109 95.8378 93.3531 91.8151 101.154C91.7873 101.206 91.7459 101.249 91.6955 101.278C91.6451 101.308 91.5876 101.323 91.5291 101.323Z" fill="#FF7708"/>
<path d="M99.3311 72.161C99.2151 73.325 99.0481 74.773 98.8151 76.386C98.8151 76.436 98.798 76.502 98.798 76.552C96.7893 76.8866 94.7311 76.7659 92.7753 76.1987C90.8195 75.6315 89.0161 74.6324 87.4981 73.275C87.5651 73.175 87.614 73.092 87.681 73.009C89.112 70.809 89.943 69.399 89.943 69.399C91.2192 70.5042 92.7176 71.3226 94.3372 71.7991C95.9567 72.2756 97.6597 72.399 99.3311 72.161Z" fill="#FF7708"/>
<path d="M52.768 71.38C51.9309 71.7404 51.0455 71.9763 50.14 72.08C46.946 72.496 43.8851 70.749 41.4231 68.62C39.3929 66.8166 37.6038 64.759 36.1001 62.498C36.0001 62.348 35.95 62.265 35.95 62.265C37.1461 61.9234 38.4139 61.9234 39.61 62.265C42.588 65.708 49.9401 71.398 52.4521 65.392C52.4521 65.392 53.367 65.292 54.852 65.259C55.0538 65.7393 55.1936 66.2434 55.268 66.759C55.4778 67.7012 55.3404 68.6874 54.8811 69.5364C54.4218 70.3854 53.6714 71.04 52.768 71.38Z" fill="#FF7708"/>
</svg>
