<svg width="12" height="19" viewBox="0 0 12 19" fill="none" xmlns="http://www.w3.org/2000/svg">
<path d="M10.726 10.178L2.18202 18.719C2.09304 18.8082 1.98738 18.879 1.87106 18.9273C1.75474 18.9756 1.63004 19.0006 1.50407 19.0007C1.37811 19.0009 1.25336 18.9762 1.13693 18.9281C1.0205 18.88 0.914684 18.8095 0.825516 18.7205C0.736349 18.6316 0.665578 18.5259 0.617245 18.4096C0.568913 18.2933 0.543963 18.1685 0.543824 18.0426C0.543685 17.9166 0.568358 17.7919 0.616433 17.6754C0.664508 17.559 0.735043 17.4532 0.824013 17.364L8.68702 9.49903L0.826016 1.63703C0.662398 1.45431 0.574922 1.21589 0.581544 0.970706C0.588165 0.725524 0.688378 0.492175 0.861619 0.318551C1.03486 0.144926 1.26799 0.0441948 1.51315 0.0370311C1.75832 0.0298674 1.99693 0.116814 2.18002 0.280027L10.726 8.82203C10.9036 9.00301 11.0031 9.24646 11.0031 9.50003C11.0031 9.7536 10.9036 9.99704 10.726 10.178Z" fill="white"/>
</svg>
