<svg width="43" height="42" viewBox="0 0 43 42" fill="none" xmlns="http://www.w3.org/2000/svg">
<g filter="url(#filter0_d_1598_16396)">
<path d="M2 1H34C37.3137 1 40 3.68629 40 7V33C40 36.3137 37.3137 39 34 39H2V1Z" fill="white"/>
<path fill-rule="evenodd" clip-rule="evenodd" d="M16.2928 17.2936C16.4803 17.1061 16.7346 17.0008 16.9998 17.0008C17.265 17.0008 17.5193 17.1061 17.7068 17.2936L20.9998 20.5866L24.2928 17.2936C24.385 17.1981 24.4954 17.1219 24.6174 17.0695C24.7394 17.0171 24.8706 16.9895 25.0034 16.9883C25.1362 16.9872 25.2678 17.0125 25.3907 17.0627C25.5136 17.113 25.6253 17.1873 25.7192 17.2812C25.8131 17.3751 25.8873 17.4867 25.9376 17.6096C25.9879 17.7325 26.0132 17.8642 26.012 17.997C26.0109 18.1298 25.9833 18.261 25.9309 18.383C25.8785 18.505 25.8023 18.6153 25.7068 18.7076L21.7068 22.7076C21.5193 22.895 21.265 23.0004 20.9998 23.0004C20.7346 23.0004 20.4803 22.895 20.2928 22.7076L16.2928 18.7076C16.1053 18.52 16 18.2657 16 18.0006C16 17.7354 16.1053 17.4811 16.2928 17.2936V17.2936Z" fill="#666666"/>
<path d="M2 0.5H1.5V1V39V39.5H2H34C37.5899 39.5 40.5 36.5899 40.5 33V7C40.5 3.41015 37.5899 0.5 34 0.5H2Z" stroke="#D2D6DC"/>
</g>
<defs>
<filter id="filter0_d_1598_16396" x="0.5" y="0" width="42" height="42" filterUnits="userSpaceOnUse" color-interpolation-filters="sRGB">
<feFlood flood-opacity="0" result="BackgroundImageFix"/>
<feColorMatrix in="SourceAlpha" type="matrix" values="0 0 0 0 0 0 0 0 0 0 0 0 0 0 0 0 0 0 127 0" result="hardAlpha"/>
<feOffset dx="0.5" dy="1"/>
<feGaussianBlur stdDeviation="0.5"/>
<feColorMatrix type="matrix" values="0 0 0 0 0 0 0 0 0 0 0 0 0 0 0 0 0 0 0.05 0"/>
<feBlend mode="normal" in2="BackgroundImageFix" result="effect1_dropShadow_1598_16396"/>
<feBlend mode="normal" in="SourceGraphic" in2="effect1_dropShadow_1598_16396" result="shape"/>
</filter>
</defs>
</svg>
