<svg width="51" height="51" viewBox="0 0 51 51" fill="none" xmlns="http://www.w3.org/2000/svg">
<g clip-path="url(#clip0_26_1333)">
<path d="M50 25.1538C50 38.6848 39.031 49.6538 25.5 49.6538C11.969 49.6538 1 38.6848 1 25.1538C1 11.6228 11.969 0.653809 25.5 0.653809C39.031 0.653809 50 11.6228 50 25.1538Z" fill="white" stroke="#4FD482"/>
<path d="M28.847 11.3937C29.2111 11.3659 29.577 11.4159 29.9203 11.5403C30.2636 11.6648 30.5764 11.8609 30.8381 12.1157C31.0997 12.3704 31.3041 12.6779 31.4378 13.0178C31.5714 13.3576 31.6311 13.722 31.613 14.0867C31.5704 15.0296 31.1613 15.9186 30.4727 16.5642C29.7842 17.2098 28.8707 17.5609 27.927 17.5427C27.5587 17.5826 27.1861 17.539 26.8369 17.4152C26.4877 17.2913 26.1709 17.0905 25.91 16.8274C25.6491 16.5644 25.4508 16.246 25.3298 15.8958C25.2088 15.5456 25.1682 15.1727 25.211 14.8047C25.2447 13.8715 25.6457 12.9895 26.3267 12.3506C27.0077 11.7117 27.9136 11.3678 28.847 11.3937ZM23.171 38.9127C21.715 38.9127 20.649 38.0127 21.671 34.0637L23.341 27.0577C23.631 25.9377 23.679 25.4877 23.341 25.4877C22.1134 25.7981 20.9487 26.318 19.898 27.0247L19.171 25.8137C22.71 22.8057 26.781 21.0437 28.529 21.0437C29.983 21.0437 30.229 22.7957 29.499 25.4877L27.585 32.8517C27.247 34.1517 27.391 34.6007 27.731 34.6007C28.9427 34.3267 30.0674 33.7559 31.004 32.9397L31.83 34.0597C28.387 37.5637 24.627 38.9127 23.171 38.9127Z" fill="#4FD482"/>
</g>
<defs>
<clipPath id="clip0_26_1333">
<rect x="0.5" y="0.153809" width="50" height="50" rx="25" fill="white"/>
</clipPath>
</defs>
</svg>
