<svg width="310" height="260" viewBox="0 0 310 260" fill="none" xmlns="http://www.w3.org/2000/svg">
<g clip-path="url(#clip0_26_1141)">
<path opacity="0.4" d="M298.317 154.582C286.2 176.387 287.308 191.999 291.825 204.4C298.146 221.773 311.159 232.811 303.857 245.724C301.698 249.545 297.763 253.537 291.342 257.912L47.6907 258.551C47.6907 258.551 1.83571 253.21 1.93571 206.006C1.99271 174.797 17.4197 163.958 44.0357 151.486C79.0807 135.065 21.9887 71.3248 61.4227 29.1628C100.857 -12.9992 152.139 -8.36819 180.578 36.0948C209.017 80.5578 228.152 87.0208 251.705 75.6568C265.005 69.2358 286.039 74.0938 298.64 88.7398C306.893 98.3288 311.51 112.108 307.94 129.652C306.034 138.407 302.788 146.816 298.317 154.582Z" fill="#8A9EDD"/>
<path opacity="0.4" d="M307.949 129.637C305.032 131.297 301.772 132.264 298.422 132.466C295.072 132.667 291.721 132.096 288.626 130.797C285.531 129.498 282.776 127.506 280.574 124.974C278.371 122.442 276.779 119.438 275.92 116.193C275.062 112.948 274.96 109.55 275.622 106.26C276.285 102.97 277.694 99.8759 279.742 97.2165C281.789 94.5571 284.42 92.4035 287.431 90.9215C290.442 89.4395 293.754 88.6689 297.11 88.6689C297.621 88.6689 298.133 88.683 298.63 88.726C306.897 98.314 311.514 112.094 307.949 129.637Z" fill="white"/>
<path opacity="0.4" d="M303.872 245.724C303.192 245.793 302.509 245.826 301.826 245.824C296.907 245.823 292.132 244.169 288.268 241.126C284.404 238.084 281.675 233.83 280.521 229.049C279.366 224.268 279.854 219.237 281.904 214.767C283.955 210.296 287.449 206.645 291.826 204.401C298.147 221.76 311.159 232.812 303.872 245.724Z" fill="white"/>
<path d="M130.289 197.973C130.289 197.973 132.202 185.247 139.505 176.131C139.719 178.285 140.075 180.423 140.57 182.531C142.525 181.189 144.651 180.115 146.891 179.337C144.572 186.761 140.583 193.556 135.23 199.199L130.289 197.973Z" fill="#CE3932"/>
<path d="M133.517 198.389C133.517 198.389 131.887 182.689 127.795 171.939C127.795 171.939 126.148 176.214 125.582 178.011L119.91 173.902C119.91 173.902 123.769 186.378 127.961 199.187L133.517 198.389Z" fill="#CE3932"/>
<path d="M150.651 192.982C150.651 192.982 155.924 194.346 156.24 198.605C156.473 201.865 147.74 200.784 147.74 200.784C147.74 200.784 154.394 202.447 157.904 200.95C161.414 199.453 161.963 198.172 160.682 195.327C159.382 192.499 156.922 187.692 153.662 188.806C152.768 189.069 151.987 189.622 151.441 190.378C150.896 191.134 150.618 192.05 150.651 192.982Z" fill="#CE3932"/>
<path d="M162.877 206.973H100.479V254.749H162.877V206.973Z" fill="#FC4768"/>
<path d="M162.877 206.973H100.479V214.292H162.877V206.973Z" fill="#DF1515"/>
<path d="M164.924 202.947H98.4327V211.082H164.924V202.947Z" fill="#FC4768"/>
<path d="M138.507 202.947H124.833C124.833 201.628 125.358 200.363 126.29 199.431C127.223 198.498 128.488 197.974 129.807 197.973H133.533C134.852 197.974 136.116 198.498 137.049 199.431C137.982 200.363 138.506 201.628 138.507 202.947Z" fill="#EB5648"/>
<path d="M147.94 185.33C137.593 187.23 131.688 197.973 131.688 197.973L137.593 202.947C153.663 202.947 159.269 202.947 161.747 199.703C164.225 196.442 158.27 183.45 147.94 185.33ZM158.952 199.27C155.642 201.25 146.991 201.25 139.19 199.453C139.19 199.453 149.005 191.368 156.19 192.317C159.451 192.749 161.115 197.973 158.952 199.27Z" fill="#EB5648"/>
<path d="M112.922 192.982C112.922 192.982 107.649 194.346 107.333 198.605C107.1 201.865 115.833 200.784 115.833 200.784C115.833 200.784 109.179 202.447 105.669 200.95C102.159 199.453 101.61 198.172 102.891 195.327C104.191 192.499 106.651 187.692 109.911 188.806C110.807 189.065 111.591 189.617 112.137 190.374C112.683 191.131 112.959 192.049 112.922 192.982Z" fill="#CE3932"/>
<path d="M101.843 199.703C104.322 202.947 109.928 202.947 125.997 202.947L131.903 197.973C131.903 197.973 125.997 187.227 115.651 185.33C105.303 183.45 99.3637 196.442 101.843 199.703ZM107.399 192.317C114.585 191.369 124.399 199.453 124.399 199.453C116.599 201.233 107.947 201.253 104.636 199.27C102.475 197.973 104.139 192.749 107.399 192.317Z" fill="#EB5648"/>
<path d="M107.079 229.513C107.077 231.145 106.428 232.709 105.274 233.863C104.12 235.017 102.556 235.666 100.924 235.668C100.774 235.67 100.624 235.665 100.475 235.651V223.374C100.624 223.36 100.774 223.354 100.924 223.357C102.556 223.359 104.12 224.008 105.274 225.162C106.428 226.316 107.077 227.881 107.079 229.513Z" fill="#DF1515"/>
<path d="M122.803 222.562C123.347 219.207 121.069 216.046 117.713 215.501C114.358 214.956 111.196 217.235 110.652 220.591C110.107 223.946 112.386 227.107 115.741 227.652C119.097 228.197 122.258 225.918 122.803 222.562Z" fill="#DF1515"/>
<path d="M116.732 246.98C120.131 246.98 122.887 244.224 122.887 240.825C122.887 237.426 120.131 234.67 116.732 234.67C113.332 234.67 110.577 237.426 110.577 240.825C110.577 244.224 113.332 246.98 116.732 246.98Z" fill="#DF1515"/>
<path d="M106.651 253.019C106.653 253.604 106.569 254.188 106.401 254.749H100.479V246.864H100.496C102.128 246.866 103.692 247.515 104.846 248.669C106 249.822 106.649 251.387 106.651 253.019Z" fill="#DF1515"/>
<path d="M134.298 254.749H121.988C121.988 253.116 122.636 251.551 123.79 250.397C124.945 249.242 126.51 248.594 128.143 248.594C129.775 248.594 131.341 249.242 132.495 250.397C133.649 251.551 134.298 253.116 134.298 254.749Z" fill="#DF1515"/>
<path d="M136.195 238.846C139.594 238.846 142.35 236.09 142.35 232.691C142.35 229.292 139.594 226.536 136.195 226.536C132.795 226.536 130.04 229.292 130.04 232.691C130.04 236.09 132.795 238.846 136.195 238.846Z" fill="#DF1515"/>
<path d="M150.035 228.049C153.434 228.049 156.19 225.293 156.19 221.894C156.19 218.494 153.434 215.739 150.035 215.739C146.635 215.739 143.88 218.494 143.88 221.894C143.88 225.293 146.635 228.049 150.035 228.049Z" fill="#DF1515"/>
<path d="M154.594 247.969C155.138 244.614 152.86 241.452 149.504 240.908C146.149 240.363 142.987 242.642 142.443 245.997C141.898 249.353 144.177 252.514 147.532 253.059C150.888 253.603 154.049 251.325 154.594 247.969Z" fill="#DF1515"/>
<path d="M162.878 229.414V241.524C162.036 241.679 161.172 241.657 160.339 241.459C159.506 241.261 158.724 240.892 158.042 240.375C157.361 239.858 156.794 239.205 156.379 238.457C155.964 237.708 155.709 236.882 155.631 236.03C155.553 235.178 155.654 234.319 155.927 233.508C156.2 232.697 156.638 231.951 157.215 231.319C157.792 230.687 158.495 230.183 159.278 229.837C160.061 229.492 160.907 229.314 161.763 229.314C162.146 229.331 162.508 229.364 162.878 229.414Z" fill="#DF1515"/>
<path d="M137.593 201.916H125.765V254.749H137.593V201.916Z" fill="#EB5648"/>
<path d="M45.5837 142.37C45.5837 142.37 64.2147 134.003 65.9117 165.127C67.3927 192.192 70.9027 222.651 52.6207 237.257C37.8487 249.051 8.77072 251.397 3.43072 229.472C0.303721 216.646 8.23869 203.438 11.9817 188.45C15.6737 173.777 14.9417 139.991 45.5837 142.37Z" fill="#662948"/>
<path d="M91.0297 229.837C84.542 231.945 77.6985 232.737 70.9007 232.166C65.2481 231.718 59.66 230.664 54.2327 229.022L53.9327 223.366L52.7017 199.544L52.3857 193.555C52.3857 193.555 53.3007 193.455 54.7857 193.422C57.9797 193.339 63.7687 193.622 68.3767 196.067C74.8477 199.511 81.7517 202.338 87.7897 200.891C89.2875 200.535 90.708 199.91 91.9817 199.045C94.4937 197.365 96.1907 194.287 98.6687 190.428C103.826 182.41 107.719 169.701 107.719 169.701L118.632 167.322C125.232 189.048 118.196 220.638 91.0297 229.837Z" fill="#FCAA23"/>
<path d="M53.1017 187.517L52.2867 193.589C50.1077 200.659 40.7257 195.119 39.1617 192.325L40.5757 183.525L53.1017 187.517Z" fill="#F99370"/>
<path d="M60.7217 201.009C60.7217 201.009 68.0908 210.175 72.3168 216.509C76.5428 222.843 76.9418 227.422 76.9418 227.422L64.7477 228.487L60.7217 201.009Z" fill="#FF7708"/>
<path d="M40.5097 173.045C40.5092 173.273 40.5259 173.501 40.5597 173.727C40.8757 173.561 40.6427 181.662 39.9447 187.534C45.1677 190.711 51.5727 190.445 52.7367 190.362C53.6841 184.174 53.8684 177.894 53.2857 171.662C51.9047 164.176 40.2597 165.443 40.5097 173.045Z" fill="#E57D61"/>
<path d="M32.0377 168.537C33.0527 174.326 35.1157 180.83 39.7377 184.607C41.642 186.105 43.8923 187.1 46.2817 187.501C59.7397 191.177 75.5767 174.991 64.7817 163.829C60.8887 160.336 59.9748 154.048 56.8638 150.571C52.3058 144.171 42.5407 144.649 37.3337 149.989C32.6577 154.813 31.1107 161.417 32.0377 168.537Z" fill="#F99370"/>
<path d="M54.1337 164.644C54.2284 164.435 54.2378 164.198 54.1599 163.982C54.082 163.767 53.923 163.59 53.7169 163.491C53.5107 163.391 53.2736 163.375 53.0563 163.448C52.839 163.52 52.6587 163.675 52.5538 163.879C52.4591 164.087 52.4497 164.325 52.5276 164.54C52.6055 164.755 52.7645 164.932 52.9706 165.032C53.1768 165.132 53.4139 165.147 53.6312 165.074C53.8485 165.002 54.0288 164.847 54.1337 164.644Z" fill="#01011E"/>
<path d="M61.5027 163.296C61.5974 163.087 61.6068 162.85 61.5289 162.635C61.451 162.419 61.292 162.243 61.0858 162.143C60.8796 162.043 60.6426 162.028 60.4253 162.1C60.208 162.173 60.0277 162.327 59.9227 162.531C59.8281 162.74 59.8187 162.977 59.8965 163.192C59.9744 163.408 60.1334 163.584 60.3396 163.684C60.5458 163.784 60.7828 163.799 61.0001 163.727C61.2174 163.654 61.3978 163.5 61.5027 163.296Z" fill="#01011E"/>
<path d="M59.3237 170.932C58.7917 170.949 57.5937 171.165 57.6107 170.432C57.6213 170.389 57.6411 170.348 57.6685 170.313C57.696 170.279 57.7305 170.25 57.7698 170.23C57.8092 170.209 57.8525 170.197 57.8968 170.195C57.9411 170.193 57.9854 170.2 58.0267 170.216C59.1417 170.549 60.7217 169.983 60.9217 169.467C60.9887 169.284 60.7557 169.118 60.5387 169.001C58.6587 168.086 56.1807 162.896 57.8937 164.077C57.9107 164.11 59.1747 167.537 60.8547 168.402C62.7507 169.685 60.8037 170.7 59.3237 170.932Z" fill="#C16256"/>
<path d="M32.0427 168.536C33.0577 174.325 35.1198 180.829 39.7428 184.606C37.1648 181.495 35.4678 174.459 35.4678 174.459L36.6157 171.298C56.6607 164.511 54.6318 148.242 54.6318 148.242C41.6718 139.225 29.2147 155.295 32.0427 168.536Z" fill="#E57D61"/>
<path d="M52.5697 146.961C52.5697 146.961 54.4157 162.881 36.4837 169.685L29.9837 166.225C23.4917 153.931 34.6537 135.599 52.5697 146.961Z" fill="#662948"/>
<path d="M31.4597 142.353C35.8517 157.474 53.4848 152.653 49.5417 137.396C45.1508 122.274 27.5177 127.098 31.4597 142.353Z" fill="#662948"/>
<path d="M28.3987 171.531C29.7987 178.069 38.0467 176.205 36.4837 169.701C35.0867 163.145 26.8517 165.027 28.3987 171.531Z" fill="#F99370"/>
<path d="M30.5617 172.862C29.1807 171.448 29.6797 168.554 30.3787 168.054C31.6787 166.989 34.0387 167.522 33.8717 168.187C33.4557 168.852 32.1087 167.472 30.8437 168.536C29.5297 169.519 31.3267 172.297 30.5617 172.862Z" fill="#C16256"/>
<path d="M33.6568 172.342C32.9748 172.309 32.6917 169.842 30.0797 169.63C29.9927 169.622 29.9118 169.582 29.8532 169.518C29.7946 169.453 29.7627 169.368 29.7638 169.281C31.5768 167.871 34.8878 172.463 33.6568 172.342Z" fill="#C16256"/>
<path d="M71.5347 227.91C71.4262 229.342 71.2204 230.765 70.9187 232.169C70.5027 233.699 70.0707 235.18 69.6187 236.627C69.1857 238.027 68.7367 239.388 68.3047 240.736C68.1217 241.285 67.9557 241.817 67.7727 242.366L67.3237 243.766C66.7917 245.446 66.2758 247.126 65.8438 248.79C65.5608 249.871 65.2947 250.969 65.0617 252.067C64.585 254.402 64.3014 256.772 64.2137 259.154H0.834717V252.167C2.01572 249.189 3.23473 246.079 4.09473 243.317C4.75973 241.188 5.49473 238.826 6.32373 236.33C8.30373 230.375 10.7487 223.604 13.6237 217.116C19.4627 203.924 27.0317 191.93 35.8817 190.433C37.1039 190.225 38.3525 190.225 39.5747 190.433C42.4357 193.743 49.3557 199.133 52.1007 194.193C52.2167 193.993 52.3167 193.777 52.4167 193.561C53.4248 193.896 54.3777 194.378 55.2448 194.992C57.599 196.784 59.5964 199.002 61.1337 201.53C63.0637 204.474 64.7107 207.668 66.1737 210.28C66.7557 211.295 67.3047 212.226 67.8207 213.008C69.3372 215.346 70.4255 217.935 71.0347 220.654C71.0677 220.787 71.0847 220.904 71.1177 221.037C71.1481 221.157 71.1705 221.28 71.1848 221.403C71.3789 222.459 71.5068 223.525 71.5677 224.597C71.615 225.701 71.6039 226.807 71.5347 227.91Z" fill="#FCAA23"/>
<path d="M58.5107 172.979C58.2313 172.495 57.8133 172.107 57.3107 171.864C56.8155 171.602 56.2541 171.492 55.6967 171.548C55.4478 171.554 55.2051 171.626 54.994 171.759C54.7829 171.891 54.6113 172.077 54.4972 172.298C54.3831 172.52 54.3307 172.768 54.3456 173.016C54.3605 173.265 54.442 173.505 54.5817 173.711C54.8611 174.194 55.2791 174.583 55.7817 174.826C56.194 175.037 56.6494 175.151 57.1127 175.159C57.2074 175.162 57.3021 175.156 57.3957 175.142C57.6446 175.136 57.8873 175.063 58.0984 174.931C58.3095 174.799 58.4811 174.613 58.5952 174.391C58.7093 174.17 58.7616 173.922 58.7467 173.674C58.7319 173.425 58.6504 173.185 58.5107 172.979ZM58.0287 174.094C57.9539 174.213 57.8509 174.312 57.7288 174.382C57.6067 174.451 57.4693 174.49 57.3287 174.494C56.9008 174.533 56.4711 174.44 56.0977 174.228C55.7068 174.04 55.3819 173.739 55.1657 173.363C55.0891 173.243 55.0417 173.107 55.0273 172.965C55.0129 172.824 55.0318 172.681 55.0827 172.548C55.1575 172.429 55.2605 172.33 55.3826 172.26C55.5047 172.19 55.6421 172.152 55.7827 172.148C55.8497 172.148 55.9157 172.131 55.9827 172.131C56.3421 172.14 56.6946 172.231 57.0137 172.397C57.4045 172.585 57.7295 172.886 57.9457 173.262C58.0252 173.384 58.0739 173.523 58.0879 173.668C58.1018 173.812 58.0805 173.958 58.0257 174.093L58.0287 174.094Z" fill="#C16256"/>
<path d="M50.6068 163.43C50.5673 163.432 50.5278 163.427 50.4907 163.413C50.452 163.397 50.4169 163.374 50.3875 163.344C50.358 163.314 50.3348 163.279 50.3194 163.24C50.3039 163.201 50.2963 163.16 50.2973 163.118C50.2982 163.076 50.3075 163.035 50.3247 162.997C50.6836 162.222 51.2201 161.543 51.8905 161.014C52.561 160.485 53.3466 160.121 54.1837 159.953C54.2667 159.937 54.3525 159.955 54.4227 160.002C54.4929 160.049 54.542 160.121 54.5593 160.204C54.5767 160.286 54.5611 160.372 54.5158 160.444C54.4704 160.515 54.3989 160.566 54.3167 160.585C53.5842 160.737 52.8967 161.057 52.3079 161.518C51.7192 161.98 51.2451 162.572 50.9227 163.247C50.8888 163.301 50.8423 163.345 50.7872 163.377C50.7322 163.409 50.6703 163.427 50.6068 163.43Z" fill="#C16256"/>
<path d="M61.6357 160.785C61.6023 160.787 61.5688 160.781 61.5374 160.77C61.506 160.758 61.4772 160.741 61.4527 160.718C60.3822 160.019 59.0824 159.763 57.8267 160.003C57.7855 160.015 57.7421 160.019 57.6993 160.015C57.6564 160.01 57.615 159.996 57.5776 159.975C57.5401 159.954 57.5074 159.925 57.4815 159.89C57.4555 159.856 57.4369 159.817 57.4267 159.775C57.4165 159.733 57.4149 159.689 57.4221 159.647C57.4293 159.604 57.445 159.564 57.4684 159.527C57.4918 159.491 57.5224 159.46 57.5582 159.436C57.594 159.412 57.6344 159.396 57.6767 159.388C58.3893 159.241 59.1242 159.237 59.8383 159.377C60.5524 159.517 61.2315 159.797 61.8357 160.203C61.8699 160.228 61.8988 160.259 61.9208 160.295C61.9427 160.331 61.9572 160.372 61.9635 160.413C61.9697 160.455 61.9676 160.498 61.9571 160.539C61.9467 160.58 61.9282 160.618 61.9027 160.652C61.8708 160.692 61.8303 160.725 61.7842 160.748C61.738 160.771 61.6873 160.784 61.6357 160.785Z" fill="#C16256"/>
<path d="M44.4857 209.21C45.0857 256.803 84.0107 219.59 90.4487 195.852C90.8619 194.686 91.7058 193.723 92.8072 193.16C93.9085 192.596 95.1836 192.476 96.3707 192.824C104.239 194.624 93.8917 219.59 91.1637 224.83C82.6797 242.497 61.1207 258.566 42.0067 245.79C29.5637 237.156 26.7857 220.721 28.3987 206.747C29.7127 194.238 44.4857 209.21 44.4857 209.21Z" fill="#F99370"/>
<path d="M143.647 167.339C143.829 167.889 143.866 168.478 143.755 169.047C143.644 169.616 143.388 170.147 143.011 170.588C142.635 171.03 142.152 171.367 141.607 171.567C141.063 171.767 140.476 171.823 139.904 171.731L119.742 168.437L98.7318 175.357L103.19 188.881L98.6647 190.411L94.1898 176.853L87.5897 179.032L84.9617 179.897L79.3887 162.897L82.0668 162.015L114.14 151.452L128.347 136.863L128.397 136.813C128.801 136.397 129.307 136.093 129.863 135.929C130.42 135.766 131.009 135.748 131.574 135.879C132.14 136.01 132.662 136.284 133.09 136.675C133.518 137.067 133.839 137.562 134.02 138.113L143.647 167.339Z" fill="#EB5648"/>
<path d="M103.823 189.78C103.952 189.763 104.081 189.735 104.206 189.697C104.297 189.679 104.386 189.651 104.472 189.614C104.638 189.564 104.805 189.498 104.972 189.431C105.298 189.283 105.61 189.104 105.904 188.899C106.191 188.684 106.448 188.432 106.669 188.15C106.88 187.877 107.048 187.573 107.169 187.25C107.246 187.021 107.272 186.779 107.247 186.539C107.221 186.299 107.144 186.068 107.02 185.861C106.897 185.654 106.73 185.476 106.531 185.34C106.332 185.203 106.106 185.112 105.869 185.071C105.511 184.966 105.133 184.95 104.768 185.022C104.402 185.094 104.06 185.254 103.769 185.487L102.954 186.169L102.971 186.152C102.962 186.161 102.95 186.167 102.938 186.169L102.905 186.186L103.005 186.169C102.744 186.186 102.49 186.257 102.258 186.377C102.026 186.498 101.822 186.665 101.658 186.868C101.494 187.071 101.373 187.306 101.304 187.558C101.236 187.81 101.22 188.073 101.258 188.332C101.431 188.848 101.788 189.281 102.262 189.548C102.736 189.816 103.292 189.898 103.823 189.78Z" fill="#F99370"/>
<path d="M103.141 186.885C103.246 186.845 103.346 186.795 103.441 186.735L103.674 186.619C103.824 186.536 103.957 186.453 104.106 186.353C104.395 186.165 104.663 185.948 104.906 185.704C105.167 185.442 105.391 185.146 105.571 184.822C105.76 184.474 105.889 184.097 105.954 183.707C105.968 183.445 105.929 183.183 105.839 182.937C105.748 182.69 105.608 182.465 105.427 182.275C105.247 182.085 105.029 181.934 104.787 181.831C104.546 181.729 104.286 181.676 104.024 181.678C103.484 181.601 102.935 181.73 102.486 182.038C102.036 182.346 101.718 182.811 101.595 183.342C101.595 183.292 101.628 183.275 101.562 183.359C101.515 183.407 101.465 183.451 101.412 183.492C101.375 183.518 101.336 183.54 101.296 183.559L101.246 183.592C101.246 183.592 101.196 183.609 101.263 183.592C101.016 183.669 100.79 183.799 100.6 183.973C100.409 184.148 100.26 184.362 100.161 184.6C100.063 184.839 100.018 185.096 100.03 185.354C100.043 185.612 100.111 185.864 100.232 186.092C100.544 186.547 101.008 186.877 101.541 187.022C102.074 187.167 102.641 187.119 103.141 186.885Z" fill="#F99370"/>
<path d="M102.953 183.276L104.4 181.795C104.587 181.625 104.733 181.413 104.826 181.178C104.919 180.942 104.957 180.688 104.936 180.436C104.915 180.183 104.836 179.939 104.706 179.722C104.575 179.504 104.397 179.32 104.184 179.183C103.706 178.881 103.141 178.749 102.579 178.809C102.017 178.87 101.492 179.119 101.09 179.516L99.6427 180.997C99.4551 181.167 99.3092 181.378 99.2163 181.614C99.1234 181.85 99.0859 182.104 99.1068 182.356C99.1277 182.609 99.2064 182.853 99.3368 183.07C99.4672 183.287 99.6458 183.472 99.8588 183.609C100.336 183.912 100.902 184.045 101.464 183.984C102.026 183.924 102.551 183.674 102.953 183.276Z" fill="#F99370"/>
<path d="M101.39 180.398L102.837 178.917C103.024 178.747 103.17 178.535 103.263 178.3C103.356 178.064 103.394 177.81 103.373 177.558C103.352 177.305 103.273 177.061 103.143 176.844C103.012 176.626 102.834 176.442 102.621 176.305C102.143 176.003 101.577 175.871 101.016 175.931C100.454 175.992 99.9288 176.241 99.5267 176.638L98.0797 178.118C97.8921 178.288 97.7462 178.499 97.6533 178.735C97.5603 178.971 97.5229 179.225 97.5438 179.477C97.5646 179.73 97.6434 179.974 97.7737 180.191C97.9041 180.408 98.0827 180.593 98.2957 180.73C98.7731 181.032 99.3388 181.164 99.9007 181.104C100.463 181.044 100.987 180.795 101.39 180.398Z" fill="#F99370"/>
<path d="M99.2316 199.545C99.2316 199.545 104.605 192.145 105.903 188.882C105.903 188.882 102.426 174.775 100.014 176.273C97.6018 177.753 88.6848 185.106 90.3988 196.173C92.0369 195.684 93.7907 195.749 95.3879 196.359C96.9851 196.968 98.3363 198.088 99.2316 199.545Z" fill="#F99370"/>
<path d="M139.905 171.731L128.36 136.864L128.41 136.814C128.814 136.398 129.319 136.094 129.876 135.93C130.433 135.767 131.022 135.749 131.587 135.88C132.153 136.011 132.675 136.285 133.103 136.676C133.531 137.067 133.852 137.563 134.033 138.114L143.66 167.34C143.838 167.891 143.871 168.479 143.758 169.047C143.644 169.615 143.386 170.145 143.01 170.585C142.633 171.025 142.15 171.362 141.606 171.562C141.063 171.763 140.477 171.821 139.905 171.731Z" fill="#CE3932"/>
<path d="M87.6038 179.034L84.9758 179.899L79.3867 162.899L82.0648 162.017L87.6038 179.034Z" fill="#CE3932"/>
<path d="M90.1657 168.836C90.1657 169.135 90.0768 169.428 89.9105 169.677C89.7441 169.926 89.5077 170.12 89.231 170.235C88.9544 170.349 88.65 170.379 88.3563 170.321C88.0626 170.262 87.7929 170.118 87.5811 169.906C87.3694 169.695 87.2252 169.425 87.1668 169.131C87.1084 168.837 87.1383 168.533 87.2529 168.256C87.3675 167.98 87.5615 167.743 87.8105 167.577C88.0595 167.411 88.3522 167.322 88.6517 167.322C89.0528 167.323 89.4371 167.483 89.7208 167.767C90.0044 168.05 90.1644 168.435 90.1657 168.836Z" fill="#CE3932"/>
<path d="M94.6238 167.323C94.6238 167.622 94.535 167.915 94.3686 168.164C94.2023 168.413 93.9658 168.607 93.6892 168.722C93.4125 168.836 93.1081 168.866 92.8144 168.808C92.5207 168.749 92.2509 168.605 92.0392 168.393C91.8274 168.182 91.6833 167.912 91.6248 167.618C91.5664 167.324 91.5964 167.02 91.711 166.743C91.8256 166.467 92.0197 166.23 92.2686 166.064C92.5176 165.898 92.8103 165.809 93.1097 165.809C93.5108 165.81 93.8953 165.97 94.1789 166.254C94.4626 166.537 94.6224 166.922 94.6238 167.323Z" fill="#CE3932"/>
<path d="M99.0657 165.809C99.0657 166.108 98.9768 166.401 98.8105 166.65C98.6441 166.899 98.4077 167.093 98.131 167.208C97.8544 167.322 97.55 167.352 97.2563 167.294C96.9626 167.235 96.6929 167.091 96.4811 166.88C96.2694 166.668 96.1253 166.398 96.0668 166.104C96.0084 165.811 96.0383 165.506 96.1529 165.23C96.2675 164.953 96.4615 164.716 96.7105 164.55C96.9595 164.384 97.2523 164.295 97.5517 164.295C97.9528 164.296 98.3371 164.456 98.6208 164.74C98.9044 165.024 99.0644 165.408 99.0657 165.809Z" fill="#CE3932"/>
<path d="M67.8077 242.363C66.2434 246.285 65.1217 250.369 64.4637 254.54C24.6557 260.64 14.5748 234.561 12.0128 220.97C12.8278 218.97 13.6267 217.094 14.4127 215.347L46.8507 236.956C53.93 238.373 60.9263 240.178 67.8077 242.363Z" fill="#FF7708"/>
<path d="M99.2658 200.31C97.5188 217.827 89.6337 243.51 69.4227 250.681C44.5697 260.063 14.9098 243.881 13.6118 217.161C11.8118 195.652 28.5997 190.245 35.9027 190.428C38.0487 191.376 39.6627 193.688 41.3757 196.783C46.8317 205.883 46.1337 215.883 53.9517 223.366C68.3077 233.247 84.0617 206.182 89.8667 197.566C92.1127 200.277 99.1328 200.759 99.2658 200.31Z" fill="#FCAA23"/>
<path d="M59.9887 225.878C58.5464 225.869 57.1265 225.521 55.8434 224.862C54.5604 224.203 53.4504 223.252 52.6027 222.085C49.5587 218.325 46.6307 210.973 46.5137 210.673C46.4846 210.588 46.4896 210.495 46.5277 210.413C46.5658 210.332 46.6339 210.268 46.7179 210.236C46.8019 210.203 46.8951 210.205 46.978 210.24C47.061 210.275 47.1272 210.34 47.1627 210.423C47.1957 210.506 50.1737 217.992 53.1517 221.668C55.6307 224.712 59.6227 227.557 68.6517 222.3C77.0687 217.409 87.5517 201.157 87.6517 201.007C87.7025 200.93 87.7818 200.876 87.8723 200.857C87.9628 200.839 88.057 200.857 88.1342 200.907C88.2114 200.958 88.2652 201.038 88.2839 201.128C88.3025 201.219 88.2845 201.313 88.2337 201.39C87.8017 202.055 77.5707 217.942 69.0037 222.916C65.5617 224.863 62.5837 225.878 59.9887 225.878Z" fill="#FF7708"/>
<path d="M91.4638 229.471C91.4071 229.468 91.3512 229.457 91.2977 229.438C91.2173 229.395 91.1568 229.322 91.1288 229.235C91.1008 229.148 91.1076 229.054 91.1477 228.972C95.1205 221.268 97.4755 212.833 98.0678 204.186C98.0683 204.141 98.0777 204.096 98.0956 204.055C98.1135 204.014 98.1395 203.977 98.172 203.946C98.2045 203.915 98.243 203.89 98.285 203.874C98.3271 203.859 98.3718 203.851 98.4168 203.853C98.5066 203.857 98.5914 203.895 98.6534 203.96C98.7155 204.025 98.7501 204.112 98.7498 204.202C98.1548 212.959 95.7725 221.501 91.7498 229.302C91.722 229.353 91.6805 229.396 91.6301 229.426C91.5797 229.456 91.5223 229.471 91.4638 229.471Z" fill="#FF7708"/>
<path d="M99.2657 200.309C99.1497 201.473 98.9828 202.921 98.7498 204.534C98.7498 204.584 98.7327 204.65 98.7327 204.7C96.724 205.034 94.6658 204.914 92.71 204.347C90.7542 203.779 88.9508 202.78 87.4327 201.423C87.4997 201.323 87.5487 201.24 87.6157 201.157C89.0467 198.957 89.8777 197.547 89.8777 197.547C91.1539 198.652 92.6523 199.47 94.2719 199.947C95.8914 200.423 97.5944 200.547 99.2657 200.309Z" fill="#FF7708"/>
<path d="M52.7027 199.528C51.8656 199.888 50.9802 200.124 50.0747 200.228C46.8807 200.644 43.8197 198.897 41.3577 196.768C39.3276 194.965 37.5385 192.907 36.0347 190.646C35.9347 190.496 35.8847 190.413 35.8847 190.413C37.0808 190.071 38.3486 190.071 39.5447 190.413C42.5227 193.856 49.8747 199.546 52.3867 193.54C52.3867 193.54 53.3017 193.44 54.7867 193.407C54.9884 193.887 55.1282 194.391 55.2027 194.907C55.4125 195.849 55.275 196.835 54.8157 197.684C54.3564 198.533 53.6061 199.188 52.7027 199.528Z" fill="#FF7708"/>
<path d="M141.585 139.824L138.94 137.811L142.467 133.186L145.112 135.199L141.585 139.824ZM148.638 130.558L145.993 128.545L149.52 123.92L152.165 125.933L148.638 130.558ZM155.691 121.292L153.046 119.279L156.573 114.654L159.218 116.667L155.691 121.292ZM162.744 112.043L160.099 110.03L163.626 105.405L166.271 107.418L162.744 112.043ZM169.797 102.777L167.152 100.764L170.496 96.3718L173.141 98.3848L169.797 102.777Z" fill="white"/>
<path d="M243.326 174.591L237.587 173.626L238.136 170.349L243.875 171.314L243.326 174.591ZM231.831 172.661L226.092 171.696L226.641 168.419L232.38 169.384L231.831 172.661ZM220.353 170.731L214.614 169.766L215.163 166.489L220.902 167.454L220.353 170.731ZM208.875 168.801L203.136 167.836L203.685 164.559L209.424 165.524L208.875 168.801ZM197.38 166.871L191.641 165.906L192.19 162.629L197.929 163.594L197.38 166.871ZM185.902 164.941L180.163 163.976L180.712 160.699L186.451 161.664L185.902 164.941ZM174.424 163.011L168.685 162.046L169.234 158.769L174.973 159.734L174.424 163.011ZM162.929 161.081L157.19 160.116L157.739 156.839L163.478 157.804L162.929 161.081ZM151.451 159.151L145.712 158.186L146.261 154.909L152 155.874L151.451 159.151Z" fill="white"/>
<path d="M179.479 192.774L174.854 189.231L176.884 186.586L181.509 190.129L179.479 192.774ZM170.23 185.687L165.605 182.144L167.635 179.499L172.26 183.042L170.23 185.687ZM160.998 178.6L156.373 175.057L158.402 172.412L163.027 175.955L160.998 178.6ZM151.749 171.513L147.124 167.97L149.153 165.325L153.778 168.868L151.749 171.513Z" fill="white"/>
<path d="M144.246 148.707L143.398 145.496L149.021 144.015L149.87 147.226L144.246 148.707ZM155.508 145.729L154.66 142.518L160.283 141.037L161.131 144.248L155.508 145.729ZM166.753 142.768L165.905 139.557L171.528 138.076L172.376 141.287L166.753 142.768ZM178.015 139.79L177.167 136.579L182.79 135.098L183.639 138.309L178.015 139.79ZM189.277 136.829L188.429 133.618L194.052 132.137L194.901 135.348L189.277 136.829ZM200.539 133.851L199.691 130.64L205.314 129.16L206.162 132.371L200.539 133.851ZM211.801 130.89L210.953 127.679L216.576 126.198L217.424 129.409L211.801 130.89Z" fill="white"/>
<path d="M219.488 114.722C219.471 131.322 236.988 143.285 252.288 137.728C257.256 136.031 261.558 132.8 264.571 128.501C267.585 124.202 269.155 119.056 269.056 113.807C267.896 81.2359 219.437 82.1218 219.488 114.722Z" fill="#8A9EDD"/>
<path d="M247.199 122.125L240.28 122.253L240.431 130.42L247.35 130.292L247.199 122.125Z" fill="#F99370"/>
<path d="M249.315 128.878C249.98 131.078 251.328 135.066 252.293 137.728C255.468 136.642 258.388 134.922 260.877 132.671C257.415 130.43 253.432 129.123 249.315 128.878Z" fill="#EB5648"/>
<path d="M228.155 133.104C230.507 135.119 233.215 136.676 236.14 137.695C236.972 135.083 238.12 131.241 238.685 129.078C234.93 129.661 231.341 131.033 228.155 133.104Z" fill="#EB5648"/>
<path d="M252.292 137.728C252.907 137.512 253.523 137.279 254.105 137.028C252.574 134.283 251.028 131.655 249.314 128.877C249.329 128.233 249.141 127.6 248.777 127.069C248.413 126.538 247.891 126.134 247.285 125.916C245.011 126.44 242.652 126.474 240.365 126.016C240.365 126.016 238.202 126.998 238.665 129.027C237.185 131.755 235.821 134.35 234.49 137.045C240.138 139.453 246.476 139.697 252.292 137.728Z" fill="#EB5648"/>
<path d="M232.197 112.043C233.112 115.902 237.836 114.821 236.955 110.943C236.04 107.086 231.332 108.167 232.197 112.043Z" fill="#F99370"/>
<path d="M255.353 111.611C254.588 115.504 249.83 114.589 250.562 110.696C251.327 106.803 256.085 107.718 255.353 111.611Z" fill="#F99370"/>
<path d="M234.11 116.203C234.892 129.178 255.686 126.903 253.39 113.891C253.057 111.313 252.09 109.599 251.59 105.491C250.409 95.9588 236.835 95.7098 235.803 105.707C235.408 109.649 234.028 112.576 234.11 116.203Z" fill="#F99370"/>
<path d="M241.13 110.214C241.159 110.153 241.176 110.086 241.18 110.019C241.184 109.951 241.174 109.883 241.152 109.819C241.13 109.755 241.095 109.695 241.049 109.645C241.004 109.594 240.949 109.553 240.888 109.523C240.827 109.494 240.761 109.477 240.693 109.473C240.625 109.469 240.557 109.479 240.493 109.501C240.429 109.524 240.37 109.558 240.319 109.604C240.268 109.649 240.227 109.704 240.198 109.765C240.138 109.889 240.13 110.031 240.175 110.16C240.221 110.29 240.316 110.396 240.439 110.455C240.563 110.515 240.705 110.523 240.835 110.478C240.964 110.432 241.07 110.338 241.13 110.214Z" fill="#01011E"/>
<path d="M247.335 110.114C247.394 109.99 247.402 109.848 247.357 109.719C247.312 109.589 247.217 109.483 247.093 109.423C246.97 109.364 246.827 109.356 246.698 109.401C246.568 109.446 246.462 109.541 246.403 109.665C246.373 109.726 246.356 109.792 246.352 109.86C246.348 109.928 246.358 109.996 246.38 110.06C246.403 110.124 246.438 110.183 246.483 110.234C246.528 110.285 246.583 110.326 246.644 110.355C246.705 110.385 246.772 110.402 246.84 110.406C246.908 110.41 246.975 110.4 247.04 110.378C247.104 110.355 247.163 110.32 247.213 110.275C247.264 110.23 247.305 110.175 247.335 110.114Z" fill="#01011E"/>
<path d="M244.274 114.223C245.222 114.19 246.686 113.523 245.474 112.709C244.493 112.193 243.727 110.18 243.727 110.164C243.644 109.931 243.261 110.064 243.361 110.297C243.394 110.38 244.176 112.476 245.291 113.058C246.073 113.507 244.476 113.99 243.811 113.773C243.76 113.759 243.706 113.765 243.66 113.79C243.613 113.815 243.578 113.856 243.561 113.906C243.526 114.274 244.025 114.207 244.274 114.223Z" fill="#C16256"/>
<path d="M250.03 104.907C245.389 107.169 239.866 100.183 237.055 103.493L236.672 101.513L242.095 98.8508L250.878 101.729L250.03 104.907Z" fill="#E57D61"/>
<path d="M235.291 108.717C236.127 107.062 236.726 105.298 237.071 103.477C237.271 101.398 240.049 100.998 242.361 102.562C243.517 103.416 244.871 103.964 246.295 104.156C247.72 104.349 249.17 104.179 250.512 103.662C253.49 102.498 255.336 97.9228 252.242 95.3108C249.181 92.7108 246.087 94.8448 243.392 95.9108C239.899 97.3218 231.066 94.8068 235.291 108.717Z" fill="#8C4225"/>
<path d="M252.043 108.268C250.503 106.464 249.556 104.229 249.332 101.868L251.927 100.787C252.617 103.228 252.657 105.807 252.043 108.268Z" fill="#8C4225"/>
<path d="M233.212 112.792C233.241 112.79 233.27 112.782 233.296 112.768C233.322 112.754 233.345 112.734 233.362 112.71C233.38 112.686 233.392 112.659 233.398 112.63C233.403 112.601 233.402 112.571 233.395 112.542C232.695 110.642 233.362 109.664 234.876 110.213C236.223 109.764 231.449 108.55 233.029 112.658C233.036 112.699 233.06 112.736 233.094 112.761C233.128 112.786 233.17 112.797 233.212 112.792Z" fill="#C16256"/>
<path d="M234.675 112.443C235.275 112.376 234.425 110.63 232.975 110.563C232.926 110.563 232.879 110.583 232.844 110.617C232.808 110.651 232.787 110.697 232.785 110.746C232.783 110.795 232.8 110.843 232.832 110.88C232.864 110.917 232.909 110.941 232.958 110.946C234.426 111.066 234.309 112.393 234.675 112.443Z" fill="#C16256"/>
<path d="M254.255 112.41C255.536 110.331 253.939 108.684 252.342 109.532C252.318 109.541 252.297 109.555 252.279 109.573C252.261 109.591 252.246 109.612 252.237 109.636C252.227 109.659 252.222 109.684 252.222 109.709C252.222 109.735 252.228 109.76 252.238 109.783C252.248 109.807 252.262 109.828 252.28 109.845C252.299 109.863 252.32 109.876 252.344 109.886C252.368 109.895 252.393 109.899 252.418 109.898C252.444 109.897 252.469 109.891 252.492 109.881C253.839 109.299 254.754 110.131 254.072 112.16C254.064 112.188 254.063 112.218 254.069 112.248C254.074 112.277 254.086 112.304 254.104 112.328C254.121 112.352 254.144 112.372 254.17 112.386C254.196 112.4 254.225 112.408 254.255 112.41Z" fill="#C16256"/>
<path d="M252.475 112.177C252.824 112.127 252.991 110.73 254.454 110.547C254.502 110.542 254.547 110.519 254.578 110.481C254.609 110.444 254.624 110.395 254.62 110.347C253.972 109.498 251.61 112.077 252.475 112.177Z" fill="#C16256"/>
<path d="M253.407 113.888C252.342 109.796 252.507 108.764 251.407 106.668C251.928 109.115 252.296 111.593 252.507 114.087C252.94 116.449 251.326 116.965 249.596 116.287C246.236 114.773 242.243 113.958 238.55 116.004C232.728 119.098 235.606 109.816 235.938 107.254C236.004 106.888 236.054 106.554 236.088 106.289C235.121 108.896 234.446 111.601 234.075 114.357C232.48 129.195 257.083 127.98 253.407 113.888ZM248.583 121.723C244.973 123.337 245.073 119.394 243.908 119.377C242.461 119.36 242.808 121.989 240.897 121.977C238.435 121.944 236.356 118.8 239.017 117.12C240.541 116.29 242.262 115.889 243.996 115.96C245.73 116.03 247.413 116.569 248.865 117.52C249.226 117.753 249.519 118.079 249.712 118.463C249.905 118.847 249.991 119.276 249.962 119.705C249.934 120.135 249.791 120.548 249.548 120.903C249.305 121.258 248.972 121.542 248.583 121.725V121.723Z" fill="#8C4225"/>
<path d="M244.89 117.866C245.204 117.865 245.517 117.826 245.822 117.75C245.866 117.731 245.902 117.697 245.923 117.654C245.945 117.611 245.95 117.562 245.937 117.515C245.925 117.469 245.897 117.428 245.857 117.401C245.818 117.374 245.769 117.361 245.722 117.367C244.444 117.601 243.125 117.378 241.996 116.735C241.973 116.722 241.948 116.715 241.922 116.712C241.896 116.71 241.87 116.712 241.845 116.72C241.82 116.728 241.797 116.74 241.777 116.757C241.758 116.774 241.741 116.795 241.73 116.818C241.962 117.7 244.64 117.883 244.89 117.866Z" fill="#C16256"/>
<path d="M228.354 133.27C237.137 140.922 251.41 140.939 260.194 133.27C249.602 134.218 238.946 134.218 228.354 133.27Z" fill="#DF1515"/>
<path d="M238.668 129.045C238.668 129.062 238.651 129.062 238.651 129.078C242.175 129.806 245.817 129.744 249.314 128.895C249.329 128.251 249.141 127.618 248.776 127.087C248.412 126.556 247.89 126.152 247.284 125.934C245.01 126.458 242.651 126.493 240.364 126.034C240.365 126.017 238.198 126.999 238.668 129.045Z" fill="#DF1515"/>
<path d="M243.775 87.9558C278.592 88.4218 279.475 138.876 244.756 140.59C209.989 140.156 209.007 89.7028 243.775 87.9558ZM244.69 137.529C275.382 136.029 274.617 91.4158 243.825 90.9998C213.1 92.5468 213.965 137.163 244.69 137.529Z" fill="white"/>
<path d="M238.868 108.733C238.815 108.721 238.769 108.69 238.739 108.645C238.709 108.601 238.697 108.547 238.705 108.494C238.714 108.441 238.742 108.393 238.784 108.36C238.827 108.327 238.88 108.312 238.934 108.317C239.517 108.363 240.103 108.276 240.647 108.063C241.192 107.85 241.681 107.516 242.078 107.086C242.115 107.044 242.168 107.019 242.224 107.015C242.28 107.012 242.335 107.032 242.377 107.069C242.419 107.107 242.444 107.159 242.448 107.216C242.451 107.272 242.431 107.327 242.394 107.369C241.953 107.856 241.405 108.233 240.792 108.47C240.18 108.707 239.521 108.797 238.868 108.733Z" fill="#C16256"/>
<path d="M248.183 109.099C248.133 109.082 248.067 109.049 248.05 108.999C247.762 108.622 247.401 108.307 246.989 108.072C246.576 107.838 246.121 107.689 245.65 107.635C245.623 107.631 245.596 107.623 245.572 107.609C245.548 107.596 245.527 107.578 245.51 107.556C245.493 107.535 245.48 107.51 245.473 107.483C245.466 107.457 245.464 107.429 245.467 107.402C245.47 107.374 245.479 107.348 245.492 107.324C245.506 107.3 245.524 107.279 245.545 107.262C245.567 107.245 245.592 107.232 245.618 107.225C245.645 107.218 245.672 107.216 245.7 107.219C246.241 107.266 246.765 107.431 247.236 107.701C247.707 107.971 248.113 108.34 248.428 108.783C248.443 108.806 248.453 108.831 248.458 108.858C248.462 108.885 248.462 108.912 248.455 108.939C248.449 108.965 248.437 108.99 248.421 109.012C248.405 109.034 248.384 109.052 248.361 109.066C248.307 109.097 248.244 109.109 248.183 109.099Z" fill="#C16256"/>
<path d="M228.32 212.72C228.936 232.333 206.744 245.009 190.342 234.246C189.394 233.654 188.489 232.998 187.631 232.283C153.695 197.732 222.199 164.994 228.32 212.72Z" fill="#8A9EDD"/>
<path d="M221.883 229.987C219.079 233.116 215.518 235.472 211.542 236.829C207.566 238.187 203.308 238.5 199.176 237.739C199.209 237.839 199.242 237.922 199.276 238.022C198.705 237.66 198.064 237.421 197.396 237.322C195.942 232.187 194.885 226.948 194.235 221.652C193.47 214.516 193.57 206.847 197.046 200.692C197.186 199.857 197.409 199.038 197.711 198.247C202.752 186.403 219.969 195.535 217.64 208.211C215.528 217.86 219.77 222.152 221.883 229.987Z" fill="#662948"/>
<path d="M218.339 233.214C216.868 234.319 215.277 235.257 213.598 236.009C213.249 234.029 212.916 232.133 212.567 230.22C214.611 230.966 216.551 231.972 218.339 233.214Z" fill="#CE3932"/>
<path d="M190.792 230.952C190.709 231.534 190.609 232.333 190.459 233.352C190.426 233.635 190.376 233.934 190.343 234.252C190.177 234.152 190.01 234.036 189.843 233.936C189.693 234.069 189.56 234.202 189.411 234.336L189.611 233.787C188.926 233.32 188.266 232.82 187.632 232.287C188.622 231.705 189.684 231.256 190.792 230.952Z" fill="#CE3932"/>
<path d="M205.077 222.254L198.524 222.359L198.647 230.093L205.201 229.988L205.077 222.254Z" fill="#F99370"/>
<path d="M205.081 223.333L205.114 225.379C203.02 226.163 200.735 226.273 198.576 225.695L198.526 222.401L205.081 223.333Z" fill="#E57D61"/>
<path d="M209.673 217.727C209.578 218.863 209.23 219.964 208.655 220.949C208.079 221.933 207.29 222.776 206.346 223.416C201.222 227.375 192.223 223.383 192.589 216.829C192.672 213.901 193.489 212.604 194.219 209.942C194.602 200.011 207.361 197.765 208.692 208.395C208.875 211.905 209.943 214.566 209.673 217.727Z" fill="#F99370"/>
<path d="M202.885 212.591C202.836 212.484 202.831 212.362 202.869 212.25C202.908 212.139 202.989 212.047 203.094 211.994C203.198 211.94 203.32 211.929 203.433 211.963C203.546 211.997 203.641 212.072 203.7 212.175C203.748 212.282 203.754 212.404 203.715 212.515C203.676 212.626 203.596 212.718 203.491 212.772C203.386 212.826 203.264 212.837 203.151 212.803C203.039 212.769 202.943 212.693 202.885 212.591Z" fill="#01011E"/>
<path d="M197.429 212.625C197.38 212.517 197.375 212.396 197.414 212.284C197.452 212.173 197.533 212.081 197.638 212.028C197.742 211.974 197.864 211.963 197.977 211.997C198.09 212.03 198.185 212.106 198.244 212.209C198.51 212.725 197.679 213.136 197.429 212.625Z" fill="#01011E"/>
<path d="M199.409 216.778C198.577 216.778 197.246 216.212 198.294 215.464C199.394 214.864 199.594 213.019 200.008 213.085C200.374 213.201 199.426 215.185 198.461 215.763C197.779 216.179 199.193 216.578 199.775 216.363C199.797 216.355 199.82 216.353 199.842 216.355C199.865 216.357 199.888 216.363 199.908 216.374C199.928 216.385 199.946 216.4 199.96 216.418C199.974 216.436 199.985 216.457 199.991 216.479C200.058 216.778 199.627 216.745 199.409 216.778Z" fill="#C16256"/>
<path d="M212.567 230.236C210.067 237.805 206.545 239.169 199.176 237.755C199.209 237.855 192.439 237.206 190.792 230.955C193.197 229.676 195.832 228.885 198.544 228.626L198.594 226.613C198.594 226.613 200.557 227.678 205.148 226.513L205.264 228.513C207.782 228.64 210.257 229.224 212.567 230.236Z" fill="#26637F"/>
<path d="M209.673 217.727C209.578 218.863 209.23 219.964 208.655 220.949C208.079 221.933 207.29 222.776 206.346 223.416C210.172 219.157 208.858 215.298 208.276 212.287C203.086 208.877 204.184 204.302 204.184 204.302C201.938 206.88 196.648 207.995 194.918 211.039L194.236 209.939C194.619 199.991 207.378 197.762 208.708 208.392C208.874 211.904 209.935 214.566 209.673 217.727Z" fill="#E57D61"/>
<path d="M204.914 202.173C204.914 202.173 204.199 209.659 209.04 211.389C209.04 211.389 212.533 200.227 204.914 202.173Z" fill="#662948"/>
<path d="M205.065 201.974C203.065 205.301 193.254 208.628 193.886 215.132C194.069 218.725 196.365 221.403 195.15 224.647C193.935 227.891 190.026 227.475 190.026 227.475C190.026 227.475 193.786 224.88 190.775 219.575C184.604 209.513 195.882 192.076 205.065 201.974Z" fill="#662948"/>
<path d="M197.067 199.395C197.067 199.395 204.967 196.168 210.375 202.24C210.375 202.24 207.381 195.04 197.732 198.264C197.711 198.28 196.314 198.733 197.067 199.395Z" fill="#CE3932"/>
<path d="M197.845 237.456C197.695 237.423 197.545 237.373 197.396 237.34H197.363C197.346 237.34 197.33 237.323 197.297 237.323C195.812 236.907 194.366 236.367 192.972 235.709C192.44 235.459 191.907 235.177 191.392 234.894C191.338 234.857 191.283 234.823 191.225 234.794C190.925 234.611 190.61 234.428 190.31 234.245C190.144 234.145 189.977 234.029 189.81 233.929C189.66 234.062 189.527 234.195 189.377 234.329L189.577 233.78C189.923 232.824 190.317 231.885 190.758 230.969C191.074 231.395 191.43 231.791 191.822 232.15C193.493 233.77 195.271 235.276 197.145 236.658C197.161 236.675 197.161 236.675 197.178 236.675C197.66 237.024 198.143 237.357 198.609 237.656C198.378 237.589 198.111 237.522 197.845 237.456Z" fill="#CE3932"/>
<path d="M215.212 235.21C215.16 235.244 215.104 235.272 215.046 235.293L214.946 235.343C214.497 235.576 214.046 235.792 213.599 236.008C213.333 236.124 213.067 236.241 212.799 236.341C211.971 236.677 211.128 236.971 210.271 237.223C209.22 237.539 208.147 237.773 207.06 237.923C206.378 238.023 205.696 238.089 205.014 238.123C204.582 238.156 204.166 238.156 203.733 238.156C204.199 237.823 204.733 237.441 205.297 237.008C207.615 235.322 209.775 233.429 211.751 231.352C212.068 231 212.347 230.615 212.583 230.204C213.198 231.219 213.814 232.333 214.413 233.514C214.563 233.797 214.713 234.096 214.845 234.396C214.862 234.413 214.862 234.429 214.878 234.463C214.976 234.718 215.087 234.967 215.212 235.21Z" fill="#CE3932"/>
<path d="M197.845 237.457C195.188 236.788 192.656 235.699 190.345 234.23C190.179 234.13 188.266 232.799 187.633 232.267C187.616 232.284 187.6 232.284 187.583 232.3C188.574 231.666 189.665 231.205 190.81 230.936C193.134 233.491 195.772 235.742 198.662 237.636C198.381 237.59 198.111 237.523 197.845 237.457Z" fill="#26637F"/>
<path d="M216.759 232.2C213.881 237.057 209.074 238.106 203.717 238.172C206.778 235.893 210.654 233.132 212.55 230.22C214.024 230.715 215.437 231.379 216.759 232.2Z" fill="#26637F"/>
<path d="M199.425 218.526C199.23 218.525 199.036 218.514 198.843 218.493C198.801 218.482 198.764 218.455 198.741 218.419C198.718 218.382 198.71 218.338 198.718 218.295C198.727 218.252 198.751 218.215 198.786 218.189C198.822 218.164 198.866 218.154 198.909 218.16C199.39 218.222 199.879 218.185 200.346 218.05C200.812 217.916 201.246 217.687 201.621 217.378C201.657 217.348 201.703 217.333 201.749 217.336C201.796 217.34 201.839 217.36 201.871 217.395C201.771 218.26 199.708 218.542 199.425 218.526Z" fill="#C16256"/>
<path d="M203.268 210.641C202.996 210.62 202.723 210.655 202.464 210.743C202.206 210.831 201.968 210.969 201.765 211.151C201.562 211.333 201.397 211.553 201.281 211.8C201.164 212.047 201.099 212.314 201.089 212.587C201.086 212.698 201.091 212.809 201.106 212.92C201.234 213.423 201.533 213.866 201.95 214.174C202.368 214.483 202.879 214.637 203.398 214.612C203.916 214.586 204.41 214.383 204.796 214.035C205.181 213.687 205.435 213.217 205.514 212.704V212.421C205.445 211.89 205.172 211.406 204.753 211.074C204.333 210.741 203.8 210.586 203.268 210.641ZM203.318 214.317C203.081 214.35 202.84 214.332 202.611 214.265C202.382 214.198 202.17 214.082 201.989 213.927C201.807 213.772 201.661 213.579 201.56 213.363C201.458 213.147 201.404 212.912 201.401 212.673C201.397 212.434 201.444 212.197 201.539 211.978C201.634 211.759 201.774 211.563 201.951 211.402C202.127 211.241 202.336 211.12 202.563 211.046C202.79 210.972 203.03 210.947 203.268 210.973C203.504 210.939 203.746 210.956 203.975 211.023C204.205 211.09 204.418 211.205 204.599 211.36C204.781 211.516 204.928 211.708 205.029 211.925C205.131 212.141 205.185 212.377 205.189 212.616C205.192 212.855 205.145 213.092 205.05 213.311C204.955 213.531 204.814 213.727 204.637 213.888C204.46 214.049 204.251 214.17 204.023 214.244C203.796 214.318 203.555 214.343 203.318 214.317Z" fill="#C16256"/>
<path d="M196.781 210.591C196.501 210.567 196.219 210.601 195.953 210.693C195.687 210.785 195.444 210.931 195.238 211.123C195.033 211.314 194.87 211.547 194.76 211.806C194.65 212.064 194.596 212.343 194.6 212.624C194.605 212.905 194.669 213.182 194.787 213.437C194.906 213.692 195.077 213.919 195.288 214.103C195.5 214.288 195.749 214.426 196.017 214.509C196.286 214.591 196.569 214.617 196.848 214.583C197.362 214.617 197.87 214.457 198.271 214.133C198.672 213.809 198.936 213.346 199.011 212.836C199.025 212.714 199.03 212.592 199.028 212.47C199.007 212.198 198.932 211.933 198.807 211.69C198.682 211.447 198.509 211.232 198.3 211.057C198.091 210.882 197.848 210.751 197.587 210.671C197.327 210.591 197.052 210.563 196.781 210.591ZM196.831 214.267C196.594 214.3 196.353 214.282 196.124 214.215C195.895 214.148 195.683 214.033 195.502 213.877C195.32 213.722 195.174 213.53 195.073 213.313C194.971 213.097 194.917 212.862 194.913 212.623C194.91 212.384 194.957 212.148 195.052 211.929C195.147 211.709 195.287 211.513 195.464 211.352C195.64 211.191 195.849 211.07 196.076 210.996C196.303 210.922 196.543 210.897 196.781 210.923C197.017 210.889 197.259 210.907 197.488 210.974C197.718 211.04 197.931 211.155 198.112 211.311C198.294 211.466 198.441 211.658 198.542 211.875C198.644 212.091 198.698 212.327 198.702 212.566C198.706 212.805 198.658 213.042 198.563 213.262C198.468 213.481 198.327 213.678 198.15 213.839C197.973 213.999 197.764 214.121 197.536 214.194C197.309 214.268 197.068 214.292 196.831 214.266V214.267Z" fill="#C16256"/>
<path d="M201.205 213.002C199.741 212.021 199.105 213.035 198.793 212.852C198.61 212.552 199.841 211.752 201.305 212.719C201.33 212.74 201.348 212.768 201.357 212.799C201.365 212.831 201.364 212.864 201.353 212.895C201.342 212.926 201.322 212.953 201.296 212.972C201.269 212.991 201.237 213.001 201.205 213.002Z" fill="#C16256"/>
<path d="M205.397 212.753C205.231 212.753 205.181 212.487 205.347 212.453C205.447 212.503 209.373 211.189 209.306 211.553C209.539 211.854 205.48 212.669 205.397 212.753Z" fill="#C16256"/>
<path d="M212.134 214.168C211.134 217.528 207.044 216.33 208.009 212.968C209.007 209.593 213.099 210.791 212.134 214.168Z" fill="#F99370"/>
<path d="M211.236 214.632C211.209 214.632 211.183 214.626 211.16 214.614C211.136 214.602 211.116 214.585 211.1 214.565C211.084 214.544 211.072 214.519 211.067 214.494C211.062 214.468 211.063 214.441 211.07 214.416C211.685 212.636 210.87 211.887 209.689 212.403C209.648 212.416 209.603 212.414 209.564 212.396C209.524 212.378 209.493 212.346 209.477 212.306C209.46 212.266 209.459 212.222 209.473 212.181C209.488 212.14 209.517 212.107 209.556 212.087C210.956 211.487 212.118 212.353 211.386 214.499C211.38 214.535 211.362 214.568 211.335 214.592C211.307 214.616 211.272 214.63 211.236 214.632Z" fill="#C16256"/>
<path d="M209.656 214.416C209.14 214.349 210.089 212.769 211.386 212.653C211.408 212.651 211.43 212.653 211.451 212.659C211.472 212.665 211.491 212.676 211.508 212.69C211.525 212.704 211.539 212.721 211.55 212.74C211.56 212.76 211.567 212.781 211.569 212.803C211.571 212.824 211.569 212.847 211.562 212.868C211.556 212.889 211.546 212.908 211.532 212.925C211.518 212.942 211.501 212.956 211.481 212.967C211.462 212.977 211.441 212.984 211.419 212.986C210.105 213.135 209.973 214.366 209.656 214.416Z" fill="#C16256"/>
<path d="M210.571 215.331C210.573 215.457 210.525 215.578 210.438 215.669C210.351 215.759 210.231 215.811 210.105 215.813C209.979 215.816 209.858 215.768 209.767 215.68C209.677 215.593 209.625 215.474 209.623 215.348C209.62 215.222 209.668 215.101 209.756 215.01C209.843 214.92 209.962 214.868 210.088 214.865C210.214 214.863 210.335 214.911 210.426 214.998C210.516 215.085 210.568 215.205 210.571 215.331Z" fill="#CE3932"/>
<path d="M202.868 187.035C237.685 187.251 238.916 237.722 204.199 239.652C169.432 239.469 168.101 189.015 202.868 187.035ZM204.116 236.608C234.808 234.895 233.727 190.296 202.935 190.096C172.21 191.826 173.374 236.441 204.116 236.608Z" fill="white"/>
<path d="M205.28 210.59C205.246 210.592 205.213 210.587 205.182 210.575C205.15 210.564 205.121 210.546 205.097 210.524C204.717 210.125 204.257 209.811 203.746 209.604C203.235 209.397 202.686 209.301 202.136 209.324C202.081 209.33 202.025 209.315 201.981 209.281C201.938 209.246 201.909 209.196 201.903 209.141C201.896 209.086 201.912 209.03 201.946 208.986C201.98 208.943 202.031 208.914 202.086 208.908C202.701 208.874 203.317 208.976 203.889 209.206C204.461 209.436 204.975 209.788 205.396 210.239C205.414 210.26 205.429 210.284 205.438 210.31C205.447 210.337 205.451 210.364 205.45 210.392C205.448 210.42 205.441 210.448 205.429 210.473C205.417 210.498 205.4 210.52 205.379 210.539C205.348 210.559 205.314 210.576 205.28 210.59Z" fill="#C16256"/>
<path d="M196.248 210.042C196.212 210.05 196.175 210.046 196.142 210.031C196.109 210.016 196.082 209.991 196.065 209.959C196.033 209.913 196.019 209.858 196.025 209.803C196.032 209.748 196.057 209.697 196.098 209.659C196.469 209.399 196.888 209.215 197.33 209.118C197.773 209.021 198.23 209.012 198.676 209.093C198.703 209.098 198.729 209.109 198.752 209.125C198.775 209.14 198.795 209.16 198.811 209.183C198.826 209.206 198.837 209.232 198.842 209.26C198.848 209.287 198.848 209.315 198.842 209.342C198.837 209.37 198.826 209.396 198.811 209.419C198.795 209.442 198.775 209.462 198.752 209.477C198.729 209.493 198.703 209.504 198.676 209.509C198.648 209.514 198.62 209.514 198.593 209.509C197.81 209.373 197.005 209.546 196.347 209.991C196.334 210.006 196.319 210.018 196.302 210.026C196.285 210.035 196.267 210.04 196.248 210.042Z" fill="#C16256"/>
<path d="M199.11 96.2897C195.837 100.283 191.455 103.218 186.517 104.724C182.871 105.763 179.035 105.952 175.305 105.277C171.574 104.602 168.048 103.08 164.997 100.83C161.947 98.5789 159.453 95.6588 157.707 92.2936C155.961 88.9285 155.01 85.2078 154.927 81.4177C157.127 36.3707 224.745 59.6767 199.11 96.2897Z" fill="#8A9EDD"/>
<path d="M194.136 79.9719C201.023 88.4389 190.809 96.9899 183.806 88.5219C176.935 80.0549 187.133 71.5039 194.136 79.9719Z" fill="#662948"/>
<path d="M175.937 105.456C171.548 104.74 167.427 102.874 163.993 100.05C166.605 97.1949 170.162 95.381 174.007 94.9429C176.669 97.6379 176.736 101.863 175.937 105.456Z" fill="#26637F"/>
<path d="M175.172 91.1998L175.122 94.4938C176.122 98.3528 181.111 96.9558 183.29 94.6098C183.29 94.6098 183.024 92.1648 183.04 91.0168L175.172 91.1998Z" fill="#F99370"/>
<path d="M181.51 64.7828C170.61 60.3078 164.575 76.1118 169.765 83.9298L181.51 64.7828Z" fill="#662948"/>
<path d="M183.655 82.9988C183.641 83.1334 183.618 83.267 183.588 83.3988C183.405 83.2828 182.973 88.1898 183.039 91.7498C180.545 92.7783 177.811 93.0782 175.154 92.6148C175.287 86.9088 174.054 81.3858 178.198 78.9578C178.83 78.7082 179.515 78.6236 180.188 78.712C180.862 78.8005 181.502 79.0591 182.048 79.4634C182.594 79.8677 183.028 80.4045 183.309 81.0231C183.59 81.6416 183.709 82.3216 183.655 82.9988Z" fill="#E57D61"/>
<path d="M188.979 79.6549C188.463 83.1649 187.316 87.1079 184.554 89.4359C177.054 96.3229 161.015 85.9759 168.754 77.3759C169.812 76.3015 170.618 75.0062 171.116 73.5829C175.072 60.0249 191.208 67.5609 188.979 79.6549Z" fill="#F99370"/>
<path d="M171.878 83.9019L176.519 81.502C176.678 82.0914 176.631 82.7177 176.385 83.2766C176.138 83.8354 175.709 84.2931 175.166 84.5736C174.624 84.8541 174.002 84.9404 173.403 84.8182C172.805 84.696 172.267 84.3727 171.878 83.9019Z" fill="white"/>
<path d="M175.321 77.6749C175.262 77.5498 175.254 77.4067 175.299 77.2759C175.344 77.1451 175.438 77.037 175.561 76.9743C175.684 76.9116 175.827 76.8994 175.959 76.9402C176.091 76.981 176.202 77.0717 176.269 77.193C176.619 77.792 175.638 78.2739 175.321 77.6749Z" fill="#01011E"/>
<path d="M170.764 76.9928C170.705 76.8677 170.697 76.7246 170.742 76.5938C170.787 76.463 170.881 76.3548 171.004 76.2921C171.127 76.2295 171.27 76.2173 171.402 76.2581C171.534 76.2989 171.645 76.3895 171.712 76.5108C172.061 77.1098 171.08 77.5918 170.764 76.9928Z" fill="#01011E"/>
<path d="M171.863 84.1109C171.818 84.108 171.775 84.0902 171.742 84.0602C171.708 84.0303 171.686 83.9899 171.678 83.9457C171.671 83.9015 171.678 83.856 171.699 83.8165C171.721 83.777 171.754 83.7458 171.796 83.7279C171.929 83.7779 176.703 80.9169 176.703 81.4159C176.963 81.7669 171.994 84.0109 171.863 84.1109Z" fill="#C16256"/>
<path d="M172.244 81.5347C171.329 81.4187 170.131 80.8347 171.263 80.0347C172.563 79.3347 172.763 77.2067 173.243 77.2567C173.775 77.6397 172.195 79.8687 171.23 80.6667C171.469 80.8845 171.761 81.036 172.076 81.1062C172.392 81.1764 172.721 81.1628 173.03 81.0667C173.055 81.0581 173.081 81.0548 173.108 81.0569C173.134 81.059 173.16 81.0666 173.183 81.079C173.207 81.0915 173.228 81.1086 173.244 81.1294C173.261 81.1502 173.273 81.1741 173.28 81.1997C173.309 81.6507 172.577 81.5347 172.244 81.5347Z" fill="#C16256"/>
<path d="M169.017 103.277C168.884 103.21 168.767 103.161 168.634 103.094C170.447 100.333 172.26 97.4048 173.99 94.9588L175.121 94.5098C177.084 97.5708 179.612 97.2548 183.289 94.6258C187.583 95.2789 191.461 97.5604 194.118 100.997C190.532 103.614 186.304 105.209 181.883 105.61C177.462 106.012 173.015 105.205 169.017 103.277Z" fill="#F99370"/>
<path d="M188.979 79.6547C188.463 83.1647 187.315 87.1077 184.554 89.4357C186.084 87.5227 186.983 83.2807 186.983 83.2807L186.218 81.4007C173.758 77.6577 174.64 67.9267 174.64 67.9267C182.142 62.3227 190.592 71.5707 188.979 79.6547Z" fill="#E57D61"/>
<path d="M175.92 67.0287C175.92 67.0287 175.105 76.6287 186.267 80.4037L190.326 82.7657C197.911 71.6227 186.051 57.0977 175.92 67.0287Z" fill="#662948"/>
<path d="M191.275 81.3859C190.543 85.3289 185.436 84.3639 186.268 80.4209C186.999 76.4779 192.106 77.4409 191.275 81.3859Z" fill="#F99370"/>
<path d="M189.977 82.2169C189.948 82.2145 189.92 82.2057 189.895 82.191C189.87 82.1763 189.849 82.1562 189.833 82.1321C189.817 82.1081 189.807 82.0807 189.803 82.0521C189.799 82.0234 189.802 81.9943 189.811 81.9669C190.16 80.8029 190.127 80.0038 189.744 79.6378C189.162 79.0378 188.23 79.8039 187.864 79.4719C189.012 77.9089 191.657 80.0209 189.977 82.2169Z" fill="#C16256"/>
<path d="M188.064 81.9669C187.349 82.0169 189.179 79.2889 190.393 80.0539C190.397 80.0805 190.396 80.1078 190.389 80.1339C190.382 80.16 190.369 80.1842 190.352 80.2048C190.335 80.2254 190.313 80.242 190.288 80.2532C190.264 80.2645 190.237 80.2701 190.21 80.2699C188.613 80.4529 188.48 81.9329 188.064 81.9669Z" fill="#C16256"/>
<path d="M189.079 83.2316C189.076 83.3497 189.028 83.462 188.944 83.5453C188.86 83.6285 188.747 83.6762 188.629 83.6784C188.511 83.6806 188.397 83.6371 188.31 83.5571C188.223 83.477 188.171 83.3665 188.164 83.2486C188.167 83.1306 188.215 83.0182 188.299 82.935C188.382 82.8517 188.495 82.804 188.613 82.8018C188.731 82.7996 188.845 82.8431 188.932 82.9232C189.019 83.0033 189.071 83.1138 189.079 83.2316Z" fill="#CE3932"/>
<path d="M194.202 100.914C190.518 103.638 186.144 105.273 181.577 105.635C177.011 105.996 172.434 105.069 168.368 102.959C168.368 102.959 171.878 95.3227 173.991 94.9587C173.542 100.033 175.056 103.692 179.913 99.3008C181.613 97.7008 183.257 95.5908 185.502 95.1088C189.012 95.9204 192.105 97.9844 194.202 100.914Z" fill="#26637F"/>
<path d="M195.599 99.8338C191.42 103.337 186.221 105.396 180.777 105.706C180.211 103.843 180.411 101.897 181.777 99.3848C185.086 93.2298 192.239 95.3588 195.599 99.8338Z" fill="#26637F"/>
<path d="M177.217 76.6267C177.189 76.6267 177.162 76.6189 177.138 76.6042C177.115 76.5896 177.096 76.5686 177.084 76.5437C176.833 76.1756 176.499 75.8722 176.109 75.6582C175.718 75.4442 175.283 75.3258 174.838 75.3127C174.812 75.3143 174.787 75.3108 174.763 75.3024C174.739 75.294 174.717 75.2809 174.699 75.2638C174.68 75.2467 174.665 75.226 174.655 75.203C174.644 75.1799 174.638 75.155 174.638 75.1297C174.638 75.0795 174.656 75.031 174.69 74.994C174.724 74.9569 174.771 74.934 174.821 74.9297C175.336 74.9344 175.842 75.0658 176.295 75.3124C176.747 75.559 177.132 75.9132 177.416 76.3437C177.43 76.3644 177.44 76.3877 177.445 76.4124C177.45 76.437 177.451 76.4623 177.446 76.4871C177.441 76.5118 177.432 76.5354 177.418 76.5564C177.404 76.5774 177.387 76.5955 177.366 76.6097C177.3 76.6267 177.251 76.6437 177.217 76.6267Z" fill="#C16256"/>
<path d="M170.53 75.7458C170.497 75.7458 170.48 75.7288 170.447 75.7128C170.404 75.6852 170.373 75.6423 170.361 75.5929C170.349 75.5434 170.356 75.4912 170.381 75.4468C170.609 75.0409 170.971 74.7264 171.404 74.5566C171.838 74.3867 172.316 74.372 172.76 74.5148C172.806 74.5344 172.842 74.5707 172.862 74.6165C172.882 74.6622 172.884 74.7139 172.866 74.7607C172.849 74.8076 172.815 74.8462 172.771 74.8685C172.726 74.8908 172.674 74.8952 172.627 74.8808C172.267 74.7639 171.877 74.7783 171.527 74.9215C171.177 75.0647 170.889 75.3273 170.714 75.6628C170.693 75.6917 170.665 75.7146 170.633 75.7292C170.601 75.7438 170.565 75.7495 170.53 75.7458Z" fill="#C16256"/>
<path d="M180.279 107.22C145.512 106.904 144.397 56.4329 179.164 54.5859C213.979 54.9519 214.996 105.406 180.279 107.22ZM179.214 57.6309C148.472 59.2609 149.47 103.877 180.195 104.16C210.904 102.578 209.989 57.9459 179.214 57.6299V57.6309Z" fill="white"/>
<path d="M296.342 194.354C292.266 199.36 286.461 202.655 280.073 203.586C276.14 204.081 272.146 203.624 268.426 202.255C264.707 200.886 261.37 198.644 258.697 195.718C254.593 191.295 252.265 185.514 252.16 179.482C254.359 134.435 321.976 157.741 296.342 194.354Z" fill="#8A9EDD"/>
<path d="M272.969 165.276C272.462 164.978 271.863 164.88 271.288 165C270.713 165.12 270.203 165.45 269.858 165.925C268.694 167.655 270.008 168.82 268.558 170.35C267.111 171.864 266.212 172.15 266.628 173.594C267.044 175.038 268.158 175.208 267.676 177.021C267.676 177.021 273.133 171.797 273.864 168.554C274.566 165.292 272.969 165.276 272.969 165.276Z" fill="#662948"/>
<path d="M273.335 192.209C273.268 191.709 273.235 191.178 273.202 190.609C273.149 187.668 273.366 184.728 273.851 181.826C273.917 181.41 273.984 181.194 274 181.226C274.02 181.129 274.047 181.035 274.083 180.943C274.22 180.471 274.469 180.039 274.807 179.684C275.146 179.328 275.564 179.058 276.029 178.897C276.672 178.69 277.361 178.664 278.019 178.823C278.676 178.982 279.277 179.319 279.756 179.797C279.776 179.816 279.793 179.839 279.806 179.864C280.122 180.211 280.356 180.625 280.489 181.076C280.621 181.526 280.649 182.001 280.571 182.464C280.571 182.514 280.554 182.564 280.554 182.614C280.535 182.679 280.524 182.746 280.521 182.814C280.091 185.189 279.89 187.6 279.921 190.014C279.902 190.838 279.957 191.662 280.087 192.476C286.394 194.355 267.413 200.576 273.335 192.209Z" fill="#F99370"/>
<path d="M280.571 182.444C280.571 182.494 280.554 182.544 280.554 182.594C280.535 182.659 280.524 182.726 280.521 182.794C280.091 185.169 279.89 187.58 279.921 189.994C277.794 190.845 275.466 191.059 273.221 190.61C273.168 187.669 273.385 184.729 273.869 181.827C273.952 181.478 274.002 181.261 274.019 181.227C274.039 181.13 274.066 181.036 274.102 180.944C274.255 180.48 274.508 180.056 274.845 179.702C275.181 179.348 275.592 179.074 276.048 178.898C276.686 178.649 277.386 178.602 278.052 178.763C278.719 178.924 279.32 179.285 279.775 179.798C279.795 179.817 279.812 179.84 279.825 179.865C280.124 180.218 280.345 180.63 280.474 181.074C280.602 181.519 280.635 181.986 280.571 182.444Z" fill="#E57D61"/>
<path d="M273.335 192.208C271.089 195.252 268.96 198.13 266.498 201.457C262.893 199.752 259.741 197.222 257.298 194.071C262.543 192.775 267.932 192.149 273.335 192.208Z" fill="#EB5648"/>
<path d="M266.248 201.341C265.732 201.091 265.217 200.825 264.718 200.526C266.762 198.082 269.011 195.817 271.439 193.755C272.071 193.221 272.704 192.706 273.339 192.208C272.923 195.286 274.639 195.834 280.076 192.458C281.141 193.207 282.904 195.12 282.871 196.434C283.103 198.541 283.642 200.604 284.471 202.556C278.473 204.563 271.926 204.127 266.248 201.341Z" fill="#EB5648"/>
<path d="M268.315 187.035C269.562 188.217 271.081 189.073 272.738 189.529C274.395 189.984 276.139 190.025 277.815 189.647C279.102 189.411 280.309 188.856 281.325 188.033C293.103 176.322 277.25 156.559 269.781 173.644C267.315 178.302 263.038 181.229 268.315 187.035Z" fill="#F99370"/>
<path d="M270.308 182.946L274.417 180.846C274.417 180.846 274.667 183.092 273.036 183.691C272.557 183.837 272.047 183.844 271.564 183.713C271.081 183.581 270.646 183.315 270.308 182.946Z" fill="white"/>
<path d="M290.053 199.91C288.3 201.012 286.424 201.906 284.464 202.572C284.4 202.587 284.339 202.609 284.281 202.639C284.098 202.706 283.931 202.755 283.749 202.805C282.547 203.171 281.317 203.439 280.072 203.605C279.45 200.844 279.31 197.996 279.656 195.188C279.672 195.022 279.689 194.839 279.722 194.672C279.822 193.957 279.938 193.225 280.088 192.472C280.838 192.558 281.583 192.692 282.317 192.872C286.079 193.846 289.578 195.642 292.564 198.129C291.815 198.729 291.033 199.295 290.218 199.829C290.158 199.846 290.103 199.873 290.053 199.91Z" fill="#F99370"/>
<path d="M273.418 177.386C273.375 177.303 273.357 177.21 273.368 177.118C273.378 177.026 273.415 176.939 273.475 176.868C273.534 176.797 273.614 176.745 273.703 176.719C273.792 176.693 273.887 176.694 273.975 176.722C274.064 176.75 274.142 176.804 274.2 176.876C274.258 176.949 274.293 177.037 274.301 177.129C274.309 177.222 274.289 177.314 274.244 177.396C274.2 177.477 274.132 177.543 274.05 177.586C273.995 177.614 273.935 177.632 273.874 177.637C273.812 177.643 273.751 177.636 273.692 177.617C273.633 177.599 273.579 177.569 273.532 177.529C273.484 177.489 273.446 177.441 273.418 177.386Z" fill="#01011E"/>
<path d="M290.057 199.911C286.68 202.064 282.834 203.37 278.845 203.72C278.3 199.922 278.723 196.048 280.076 192.458C284.882 192.809 289.48 194.561 293.301 197.498C292.285 198.386 291.2 199.193 290.057 199.911Z" fill="#EB5648"/>
<path d="M269.426 176.704C269.396 176.648 269.379 176.588 269.374 176.525C269.369 176.463 269.377 176.4 269.397 176.341C269.418 176.282 269.45 176.228 269.492 176.181C269.534 176.135 269.585 176.098 269.642 176.072C269.696 176.041 269.757 176.021 269.82 176.014C269.882 176.007 269.945 176.013 270.006 176.031C270.066 176.049 270.122 176.079 270.17 176.119C270.219 176.159 270.259 176.209 270.288 176.264C270.317 176.32 270.334 176.381 270.339 176.444C270.344 176.507 270.336 176.57 270.316 176.629C270.296 176.689 270.265 176.744 270.223 176.791C270.181 176.838 270.131 176.877 270.074 176.904C270.018 176.934 269.957 176.952 269.894 176.958C269.832 176.964 269.768 176.958 269.708 176.939C269.648 176.921 269.591 176.89 269.543 176.85C269.495 176.809 269.455 176.76 269.426 176.704Z" fill="#01011E"/>
<path d="M270.307 183.109C270.272 183.109 270.239 183.1 270.209 183.083C270.18 183.065 270.156 183.039 270.141 183.009C270.128 182.989 270.121 182.966 270.118 182.942C270.116 182.919 270.118 182.895 270.126 182.872C270.134 182.85 270.147 182.83 270.164 182.813C270.181 182.796 270.201 182.784 270.224 182.776L274.333 180.676C274.374 180.658 274.421 180.657 274.464 180.673C274.506 180.688 274.541 180.72 274.56 180.761C274.58 180.802 274.583 180.849 274.568 180.892C274.554 180.935 274.523 180.971 274.483 180.992L270.374 183.092C270.354 183.105 270.33 183.111 270.307 183.109Z" fill="#C16256"/>
<path d="M271.206 170.982C271.727 171.311 272.31 171.53 272.919 171.628C273.528 171.725 274.151 171.698 274.749 171.548C276.562 170.982 277.294 171.548 277.249 172.995C277.204 174.442 279.844 174.01 280.16 174.695C280.476 175.38 280.11 176.675 280.709 177.556C281.308 178.437 284.286 179.519 284.286 179.519L283.754 182.68C283.754 182.68 282.739 187.055 280.726 188.502C280.942 188.352 281.158 188.202 281.375 188.036C282.263 187.286 282.998 186.371 283.538 185.341C283.704 185.008 283.871 184.676 284.038 184.31C284.271 183.778 284.471 183.21 284.67 182.597C284.72 182.431 284.92 181.765 284.97 181.616C285.036 181.383 283.24 170.154 282.541 169.456C282.508 169.423 272.241 169.356 271.895 169.805C271.627 170.174 271.397 170.568 271.206 170.982Z" fill="#E57D61"/>
<path d="M270.94 180.83C270.659 180.849 270.378 180.8 270.12 180.687C269.862 180.574 269.635 180.4 269.46 180.181C269.41 180.048 269.327 179.732 269.826 179.466C270.726 178.984 271.373 177.12 271.389 177.104C271.405 177.059 271.439 177.023 271.482 177.002C271.525 176.981 271.574 176.978 271.619 176.993C271.665 177.008 271.702 177.04 271.724 177.083C271.746 177.125 271.751 177.174 271.738 177.22C271.41 178.218 270.811 179.105 270.008 179.782C269.892 179.849 269.758 179.932 269.808 180.032C270.013 180.225 270.265 180.362 270.539 180.429C270.813 180.496 271.099 180.491 271.371 180.415C271.416 180.401 271.466 180.406 271.508 180.428C271.55 180.45 271.582 180.488 271.597 180.533C271.612 180.579 271.609 180.628 271.589 180.671C271.568 180.714 271.531 180.747 271.487 180.764C271.308 180.81 271.124 180.832 270.94 180.83Z" fill="#C16256"/>
<path d="M271.569 169.767C271.218 169.281 271.06 168.682 271.124 168.086C271.189 167.491 271.471 166.94 271.918 166.54C273.532 165.159 273.432 163.08 275.661 163.429C277.89 163.778 278.722 164.044 281.134 163.396C281.635 163.283 282.155 163.28 282.659 163.385C283.162 163.49 283.637 163.702 284.051 164.006C284.466 164.311 284.81 164.7 285.062 165.149C285.313 165.597 285.466 166.094 285.509 166.607C285.409 168.137 288.67 168.137 289.152 170.217C289.408 171.401 289.408 172.626 289.152 173.81C289.152 174.71 291.98 175.889 291.431 178.019C290.882 180.165 289.086 179.832 288.736 181.213C288.386 182.594 289.451 184.939 287.854 185.721C287.156 186.046 286.385 186.183 285.618 186.119C284.85 186.054 284.113 185.791 283.479 185.355C283.479 185.355 286.424 179.716 283.662 178.555C282.315 177.989 281 177.208 281.483 175.211C281.966 173.214 278.983 173.83 278.306 172.799C277.606 171.768 278.106 170.52 276.826 170.237C275.531 169.934 274.433 171.431 271.569 169.767Z" fill="#662948"/>
<path d="M287.358 180.896C287.28 181.557 286.949 182.162 286.434 182.584C285.919 183.006 285.26 183.212 284.597 183.158C283.965 182.945 283.443 182.493 283.141 181.899C282.839 181.305 282.782 180.616 282.983 179.981C283.06 179.319 283.392 178.714 283.907 178.292C284.422 177.87 285.081 177.664 285.745 177.719C286.378 177.93 286.902 178.381 287.204 178.976C287.506 179.571 287.561 180.261 287.358 180.896Z" fill="#F99370"/>
<path d="M286.227 181.628H286.177C286.155 181.622 286.134 181.611 286.116 181.597C286.098 181.583 286.083 181.565 286.072 181.545C286.062 181.525 286.055 181.502 286.053 181.479C286.051 181.457 286.054 181.434 286.061 181.412C286.377 180.364 286.377 179.632 286.028 179.312C285.579 178.88 284.628 179.245 284.614 179.245C284.57 179.262 284.52 179.262 284.477 179.243C284.433 179.224 284.398 179.189 284.381 179.145C284.363 179.101 284.364 179.051 284.383 179.008C284.401 178.964 284.437 178.929 284.481 178.912C284.531 178.895 285.646 178.463 286.261 179.045C286.727 179.477 286.761 180.293 286.394 181.507C286.384 181.543 286.362 181.575 286.332 181.597C286.301 181.619 286.264 181.63 286.227 181.628Z" fill="#C16256"/>
<path d="M284.564 181.379C284.54 181.381 284.517 181.375 284.498 181.362C284.456 181.342 284.423 181.307 284.404 181.264C284.386 181.221 284.383 181.173 284.398 181.129C284.573 180.712 284.851 180.346 285.206 180.066C285.561 179.787 285.981 179.602 286.428 179.529C286.451 179.526 286.475 179.528 286.497 179.535C286.52 179.542 286.54 179.554 286.557 179.569C286.575 179.585 286.589 179.605 286.598 179.626C286.607 179.648 286.611 179.671 286.611 179.695C286.612 179.718 286.609 179.741 286.602 179.763C286.594 179.785 286.582 179.805 286.566 179.822C286.551 179.839 286.532 179.853 286.511 179.862C286.49 179.872 286.467 179.877 286.444 179.878C285.296 179.961 284.731 181.259 284.714 181.259C284.705 181.292 284.686 181.322 284.659 181.344C284.632 181.365 284.598 181.378 284.564 181.379Z" fill="#C16256"/>
<path d="M286.044 180.597C285.988 180.806 285.851 180.985 285.664 181.094C285.476 181.203 285.253 181.233 285.044 181.179C284.834 181.121 284.655 180.985 284.544 180.799C284.432 180.613 284.396 180.391 284.444 180.179C284.499 179.967 284.636 179.785 284.825 179.674C285.014 179.563 285.24 179.531 285.452 179.587C285.664 179.642 285.845 179.779 285.956 179.968C286.068 180.157 286.099 180.382 286.044 180.595V180.597Z" fill="white"/>
<path d="M283.266 182.56C283.192 182.559 283.12 182.543 283.054 182.511C282.988 182.479 282.929 182.434 282.883 182.377C282.84 182.326 282.807 182.266 282.788 182.203C282.768 182.139 282.761 182.072 282.767 182.005C282.773 181.939 282.793 181.874 282.824 181.815C282.855 181.756 282.898 181.704 282.95 181.662L284.95 180.015C285.053 179.929 285.187 179.887 285.321 179.9C285.455 179.912 285.579 179.978 285.665 180.081C285.751 180.185 285.792 180.319 285.78 180.453C285.768 180.587 285.702 180.711 285.599 180.797L283.599 182.444C283.5 182.512 283.385 182.552 283.266 182.56Z" fill="white"/>
<path d="M276.097 176.205H276.047C275.516 176.081 275.018 175.845 274.587 175.512C274.155 175.179 273.801 174.757 273.547 174.275C273.538 174.253 273.534 174.229 273.534 174.206C273.534 174.182 273.539 174.159 273.548 174.137C273.558 174.116 273.571 174.096 273.588 174.08C273.605 174.063 273.625 174.05 273.647 174.042C273.668 174.033 273.692 174.029 273.715 174.029C273.739 174.029 273.762 174.034 273.784 174.043C273.805 174.053 273.825 174.066 273.842 174.083C273.858 174.1 273.871 174.12 273.88 174.142C274.114 174.576 274.439 174.955 274.832 175.253C275.225 175.552 275.678 175.762 276.159 175.872C276.181 175.877 276.203 175.887 276.221 175.901C276.24 175.915 276.255 175.933 276.266 175.953C276.277 175.974 276.283 175.996 276.285 176.019C276.286 176.043 276.283 176.066 276.275 176.088C276.259 176.122 276.233 176.15 276.202 176.171C276.171 176.192 276.134 176.203 276.097 176.205Z" fill="#C16256"/>
<path d="M269.675 174.875C269.653 174.875 269.631 174.871 269.611 174.862C269.591 174.854 269.573 174.841 269.559 174.825C269.527 174.791 269.509 174.746 269.509 174.7C269.509 174.653 269.527 174.608 269.559 174.575C269.945 174.249 270.401 174.015 270.891 173.891C271.38 173.768 271.892 173.757 272.387 173.86C272.41 173.863 272.432 173.871 272.452 173.883C272.471 173.894 272.489 173.91 272.503 173.929C272.517 173.947 272.527 173.968 272.533 173.991C272.538 174.013 272.54 174.036 272.536 174.059C272.533 174.082 272.525 174.104 272.513 174.124C272.502 174.144 272.486 174.161 272.467 174.175C272.449 174.189 272.428 174.199 272.405 174.205C272.383 174.211 272.36 174.212 272.337 174.209C271.894 174.114 271.435 174.12 270.994 174.227C270.553 174.334 270.143 174.538 269.792 174.825C269.76 174.855 269.718 174.873 269.675 174.875Z" fill="#C16256"/>
<path d="M282.484 192.724C282.139 193.051 281.766 193.346 281.369 193.606C280.688 194.08 279.982 194.519 279.256 194.92C277.226 196.02 274.765 196.949 273.184 196.467C272.765 196.357 272.386 196.132 272.089 195.817C271.792 195.503 271.589 195.111 271.504 194.687C271.443 194.386 271.415 194.079 271.421 193.772C271.445 193.244 271.546 192.723 271.721 192.225V192.208C272.752 192.191 273.335 192.225 273.335 192.225C273.285 192.425 272.686 197.265 280.072 192.475C280.883 192.464 281.692 192.548 282.484 192.724Z" fill="#FF7708"/>
<path d="M277.511 205.284C242.743 204.968 241.629 154.497 276.396 152.65C311.211 153.033 312.228 203.487 277.511 205.284ZM276.463 155.711C245.721 157.341 246.719 201.957 277.444 202.24C308.136 200.642 307.238 156.027 276.463 155.711Z" fill="white"/>
<path d="M66.6357 98.9259C65.8305 98.9353 65.0333 98.7644 64.3027 98.4259L64.7027 97.4259C65.2855 97.73 65.9324 97.8911 66.5897 97.8959C67.8207 97.8959 68.6897 97.2799 68.6897 96.2029C68.6897 95.2309 67.8397 94.7689 66.9237 94.3799C65.7167 93.8539 64.3967 93.1729 64.3967 91.5799C64.3967 89.9599 65.6197 88.9639 67.3857 88.9639C68.1192 88.9443 68.8452 89.1167 69.4917 89.4639L69.1107 90.4119C68.5955 90.13 68.0208 89.9744 67.4337 89.9579C66.3487 89.9579 65.5867 90.5409 65.5867 91.5209C65.5867 92.4849 66.5347 92.9629 67.4657 93.3679C68.5997 93.8679 69.8957 94.5179 69.8957 96.1299C69.8677 97.8409 68.5467 98.9259 66.6357 98.9259Z" fill="#26637F"/>
<path d="M79.5147 98.7807V93.8237C79.5291 93.4458 79.393 93.0777 79.1364 92.7999C78.8798 92.5221 78.5235 92.3574 78.1457 92.3417C78.0809 92.3404 78.0161 92.3431 77.9517 92.3497C77.6629 92.3407 77.3754 92.3907 77.1067 92.4967C76.8379 92.6026 76.5936 92.7621 76.3887 92.9657V98.7897H75.2707V93.6538C75.2707 92.8358 74.5907 92.3537 73.5937 92.3537C73.1035 92.3467 72.6165 92.4347 72.1597 92.6127V98.8128H71.0337V91.9677C71.8183 91.6369 72.6612 91.4669 73.5127 91.4677C73.9302 91.435 74.35 91.4918 74.7438 91.6342C75.1377 91.7767 75.4967 92.0015 75.7967 92.2937C76.4552 91.7399 77.2935 91.4462 78.1537 91.4677C78.47 91.4359 78.7895 91.4721 79.0907 91.5738C79.3919 91.6755 79.668 91.8404 79.9003 92.0574C80.1327 92.2744 80.316 92.5385 80.438 92.8321C80.56 93.1257 80.6178 93.4419 80.6077 93.7597V98.8137H79.5077V98.7897L79.5147 98.7807Z" fill="#26637F"/>
<path d="M84.6587 98.9257C82.6827 98.9257 81.6937 98.0837 81.6937 96.7147C81.6937 94.6577 83.9127 94.3497 86.0837 94.2197V93.6767C86.0837 92.5997 85.3837 92.2677 84.3667 92.2677C83.6897 92.2807 83.0226 92.4325 82.4067 92.7137L82.1067 91.9277C82.8486 91.5975 83.6516 91.4272 84.4637 91.4277C86.0837 91.4277 87.1447 92.0677 87.1447 93.7847V98.4257C86.3604 98.7656 85.5133 98.936 84.6587 98.9257ZM86.0927 95.0057C84.4927 95.1057 82.7477 95.1917 82.7477 96.6987C82.7477 97.5407 83.3797 98.0917 84.6347 98.0917C85.1289 98.0922 85.6204 98.0184 86.0927 97.8727V95.0057Z" fill="#26637F"/>
<path d="M91.6817 92.4138C91.4704 92.3775 91.2561 92.3611 91.0417 92.3649C90.5789 92.3604 90.1187 92.4345 89.6807 92.5839V98.7838H88.5547V91.9369C89.3876 91.598 90.2796 91.428 91.1787 91.4369C91.4129 91.4373 91.6467 91.4537 91.8787 91.4859L91.6817 92.4138Z" fill="#26637F"/>
<path d="M95.1477 98.8536C94.8871 98.88 94.6239 98.8472 94.3778 98.7576C94.1317 98.6681 93.909 98.524 93.7263 98.3364C93.5436 98.1487 93.4058 97.9222 93.3229 97.6738C93.24 97.4253 93.2143 97.1614 93.2477 96.9016V92.4136H92.2076V91.5736H93.2446V89.8316L94.3297 89.4756V91.5756H95.8846V92.4176H94.3297V96.8566C94.3199 96.9984 94.3418 97.1407 94.3939 97.2729C94.4461 97.4052 94.527 97.5242 94.631 97.6212C94.735 97.7181 94.8593 97.7907 94.9949 97.8335C95.1305 97.8763 95.2739 97.8883 95.4147 97.8686C95.5738 97.8715 95.7323 97.8495 95.8846 97.8036V98.7436C95.6477 98.8246 95.398 98.8619 95.1477 98.8536Z" fill="#26637F"/>
<path d="M101.847 98.7799V94.8349H99.4816V98.7799H97.2137V89.1089H99.4816V92.9809H101.855V89.1089H104.123V98.7809L101.847 98.7799Z" fill="#29B2A1"/>
<path d="M111.769 95.4588L107.281 96.0498C107.379 96.4252 107.611 96.7517 107.933 96.9681C108.256 97.1845 108.646 97.2757 109.031 97.2248C109.733 97.2286 110.427 97.0763 111.064 96.7788L111.68 98.4068C110.781 98.7644 109.82 98.9405 108.853 98.9248C108.35 98.9652 107.844 98.8952 107.37 98.7196C106.897 98.544 106.468 98.267 106.113 97.9082C105.758 97.5493 105.486 97.1172 105.316 96.6421C105.145 96.167 105.081 95.6604 105.127 95.1578C105.127 92.9468 106.407 91.4078 108.578 91.4078C109.021 91.3825 109.465 91.4539 109.878 91.6169C110.291 91.7799 110.663 92.0307 110.97 92.352C111.277 92.6732 111.51 93.0572 111.653 93.4774C111.797 93.8977 111.848 94.3441 111.802 94.7858C111.793 95.0088 111.793 95.2398 111.769 95.4588ZM108.521 92.9718C107.743 92.9718 107.136 93.4978 107.128 94.6968L109.671 94.3728C109.671 93.4658 109.234 92.9728 108.521 92.9728V92.9718Z" fill="#29B2A1"/>
<path d="M115.739 98.9427C113.471 98.9427 112.345 98.1007 112.345 96.5617C112.345 94.6497 114.297 94.2047 116.476 94.0907V93.8077C116.476 93.2247 116.076 92.9657 115.326 92.9657C114.622 92.9914 113.928 93.1424 113.277 93.4117L112.751 91.9457C113.663 91.6048 114.628 91.4294 115.602 91.4277C117.562 91.4277 118.55 92.1807 118.55 94.0927V98.4347C117.654 98.7814 116.699 98.9538 115.739 98.9427ZM116.476 95.4597C115.294 95.5087 114.394 95.6457 114.394 96.4967C114.394 97.0877 114.888 97.4117 115.674 97.4117C115.945 97.4189 116.215 97.3807 116.474 97.2987V95.4597H116.476Z" fill="#29B2A1"/>
<path d="M119.991 98.7808V88.2908H122.202V98.7808H119.991Z" fill="#29B2A1"/>
<path d="M126.261 98.9019C124.771 98.9019 124.139 98.0839 124.139 96.4719V93.2319H123.288V91.5879H124.139V90.0489L126.302 89.4419V91.5799H127.566V93.2239H126.302V96.3099C126.302 96.8039 126.602 96.9659 127.002 96.9659C127.19 96.9661 127.375 96.9245 127.545 96.8439V98.6579C127.139 98.8313 126.701 98.9146 126.261 98.9019Z" fill="#29B2A1"/>
<path d="M132.773 98.7808V94.1398C132.773 93.4998 132.425 93.1678 131.736 93.1678C131.459 93.1768 131.188 93.24 130.936 93.3538V98.7808H128.731V88.2908H130.942V91.7578C131.381 91.5656 131.855 91.4636 132.335 91.4578C134.06 91.4578 135 92.3167 135 93.9117V98.7718H132.772L132.773 98.7808Z" fill="#29B2A1"/>
<path d="M94.1076 74.923C98.6756 64.66 86.8416 62.943 86.4206 54.381C86.1776 49.31 90.5436 45.1809 95.6206 45.1809C97.8189 45.1805 99.9448 45.9666 101.614 47.3972C103.283 48.8278 104.385 50.8085 104.721 52.9809C104.772 53.3672 104.96 53.7221 105.252 53.9806C105.543 54.2392 105.918 54.3842 106.308 54.389H106.408C106.836 54.3874 107.246 54.2159 107.549 53.9122C107.851 53.6085 108.02 53.1974 108.02 52.769C108.019 52.6931 108.013 52.6172 108.004 52.5419C107.559 49.5789 106.064 46.8743 103.792 44.9208C101.52 42.9674 98.6219 41.8949 95.6256 41.8989C88.7166 41.8989 82.8676 47.499 83.1186 54.406C83.4666 63.906 95.9816 66.888 94.1106 74.923" fill="#29B2A1"/>
<path d="M99.7406 66.0856L98.8906 63.5906L97.4486 66.6766L96.1936 62.8286L94.7277 65.6556H91.6647V66.2466H95.1477L96.0707 64.6467L97.3427 68.4857L98.8007 65.3666L99.5297 67.5046L100.389 66.1196H104.164L104.213 65.5037H100.058L99.7406 66.0856Z" fill="#29B2A1"/>
<path d="M98.2907 52.5179C93.7227 62.7809 105.557 64.4979 105.978 73.0599C106.221 78.1309 101.855 82.2599 96.7777 82.2599C94.5794 82.2604 92.4535 81.4742 90.7845 80.0436C89.1154 78.613 88.0134 76.6323 87.6777 74.4598C87.6267 74.0733 87.4381 73.718 87.1464 73.4592C86.8548 73.2004 86.4796 73.0554 86.0897 73.0508H85.9897C85.5613 73.0524 85.151 73.2239 84.8488 73.5276C84.5466 73.8313 84.3772 74.2424 84.3777 74.6708C84.3787 74.7467 84.384 74.8226 84.3937 74.8979C84.8388 77.8608 86.3333 80.5652 88.605 82.5186C90.8768 84.4721 93.7746 85.5446 96.7707 85.5408C103.68 85.5408 109.529 79.9409 109.277 73.0349C108.921 63.5349 96.3977 60.5448 98.2847 52.5168" fill="#26637F"/>
<path d="M121.952 101.831V98.9347H121.468V100.559C121.468 100.743 121.476 100.947 121.476 100.947H121.468C121.468 100.947 121.388 100.763 121.296 100.607L120.284 98.9347H119.8V101.831H120.28V100.151C120.28 99.9707 120.272 99.7747 120.272 99.7747H120.28C120.28 99.7747 120.356 99.9547 120.452 100.115L121.488 101.831H121.952Z" fill="#26637F"/>
<path d="M124.027 101.831V101.359H123.039V100.595H123.931V100.131H123.039V99.4067H124.027V98.9347H122.487V101.831H124.027Z" fill="#26637F"/>
<path d="M126.427 99.8147C126.427 99.2507 126.031 98.8867 125.311 98.8867C124.983 98.8867 124.695 98.9467 124.475 99.0427V101.831H125.027V100.707C125.091 100.719 125.199 100.727 125.295 100.727C126.043 100.727 126.427 100.339 126.427 99.8147ZM125.875 99.8107C125.875 100.115 125.663 100.299 125.267 100.299C125.175 100.299 125.083 100.291 125.027 100.279V99.3627C125.095 99.3387 125.207 99.3187 125.319 99.3187C125.683 99.3187 125.875 99.4787 125.875 99.8107Z" fill="#26637F"/>
<path d="M128.953 101.831L127.985 98.9347H127.321L126.353 101.831H126.941L127.153 101.155H128.153L128.365 101.831H128.953ZM128.041 100.739H127.265L127.569 99.7507C127.621 99.5867 127.649 99.3987 127.649 99.3987H127.657C127.657 99.3987 127.685 99.5867 127.737 99.7507L128.041 100.739Z" fill="#26637F"/>
<path d="M130.713 101.831V101.359H129.813V98.9347H129.249V101.831H130.713Z" fill="#26637F"/>
</g>
<defs>
<clipPath id="clip0_26_1141">
<rect width="308.331" height="259.154" fill="white" transform="translate(0.834717)"/>
</clipPath>
</defs>
</svg>
