<svg width="61" height="62" viewBox="0 0 61 62" fill="none" xmlns="http://www.w3.org/2000/svg">
<g clip-path="url(#clip0_26_1538)">
<path d="M30.5 61.0771C47.3447 61.0771 61 47.4218 61 30.5771C61 13.7325 47.3447 0.0771484 30.5 0.0771484C13.6553 0.0771484 0 13.7325 0 30.5771C0 47.4218 13.6553 61.0771 30.5 61.0771Z" fill="white"/>
<mask id="mask0_26_1538" style="mask-type:alpha" maskUnits="userSpaceOnUse" x="0" y="0" width="61" height="62">
<path d="M30.5 61.231C47.3447 61.231 61 47.5756 61 30.731C61 13.8863 47.3447 0.230957 30.5 0.230957C13.6553 0.230957 0 13.8863 0 30.731C0 47.5756 13.6553 61.231 30.5 61.231Z" fill="white"/>
</mask>
<g mask="url(#mask0_26_1538)">
<path d="M16.285 30.3802L16.229 30.3252C16.1766 31.0562 16.3936 31.7812 16.839 32.3632C16.947 32.0144 16.9522 31.6418 16.8539 31.2901C16.7556 30.9385 16.5581 30.6225 16.285 30.3802Z" fill="#F78C74"/>
<path d="M30.532 42.7511C30.5569 42.7543 30.5813 42.76 30.605 42.7681C30.786 42.7551 30.981 42.7431 31.125 42.7481C31.331 42.7481 31.537 42.7321 31.742 42.7151C31.794 42.7041 31.842 42.6931 31.898 42.6801C35.0117 42.0652 37.7769 40.2937 39.637 37.7221C40.7787 35.7642 41.63 33.6508 42.164 31.4481C42.2731 30.9605 42.4729 30.4978 42.753 30.0841C43.075 30.0421 42.895 30.6251 42.88 30.8031C42.671 31.6831 42.452 32.5821 42.194 33.4731C42.4566 33.1804 42.7859 32.9554 43.154 32.8171C43.3131 32.472 43.3972 32.0971 43.401 31.7171C43.4905 31.2102 43.6909 30.7294 43.988 30.3091C44.18 30.0751 44.527 29.2211 44.896 29.4871C44.9281 29.52 44.9486 29.5625 44.9546 29.6081C44.9605 29.6537 44.9516 29.7 44.929 29.7401L44.865 29.8131C44.9211 30.2505 44.8712 30.6951 44.7197 31.1093C44.5681 31.5234 44.3192 31.8951 43.994 32.1931C43.994 32.2001 43.994 32.2071 43.994 32.2131C43.9717 32.4614 43.8854 32.6996 43.7434 32.9045C43.6014 33.1095 43.4087 33.274 43.184 33.3821C43.1352 33.4037 43.0838 33.4188 43.031 33.4271C42.725 33.6461 42.407 33.8461 42.102 34.0631C42.0753 34.0792 42.044 34.0859 42.013 34.0821C41.9043 34.4287 41.787 34.7721 41.661 35.1121C42.3768 35.1653 43.0904 34.9832 43.6931 34.5934C44.2959 34.2037 44.7548 33.6277 45 32.9531C46.211 30.8081 46.505 25.7461 43.165 29.4531C42.815 29.8671 42.527 29.5911 42.777 29.1531C42.787 29.1341 42.799 29.1161 42.81 29.0961C42.7952 29.0752 42.7834 29.0523 42.775 29.0281C42.0791 27.0585 41.8288 24.9591 42.042 22.8811C41.6028 22.0841 41.3671 21.191 41.356 20.2811C41.2116 20.3118 41.0706 20.3567 40.935 20.4151C40.1416 20.7117 39.3 20.8582 38.453 20.8471C37.902 20.7931 36.142 20.8921 36.228 20.0691C36.365 19.7641 36.755 19.6831 37.01 19.4981C37.7224 19.0821 38.3894 18.5927 39 18.0381C38.1102 18.4727 37.162 18.7759 36.185 18.9381C35.81 18.9711 35.37 19.1651 35.021 18.9671C34.9887 18.9395 34.9623 18.9055 34.9437 18.8673C34.925 18.8291 34.9144 18.7874 34.9125 18.7449C34.9106 18.7024 34.9175 18.66 34.9328 18.6203C34.948 18.5806 34.9712 18.5444 35.001 18.5141C35.395 18.2061 35.826 17.9751 36.209 17.6601C36.4424 17.4982 36.6627 17.3183 36.868 17.1221C36.0899 17.4046 35.2785 17.5851 34.454 17.6591C33.912 18.0455 33.3484 18.4007 32.766 18.7231C31.6418 19.1408 30.4416 19.3149 29.245 19.2341C28.978 19.2411 28.673 19.0781 28.695 18.7741C28.747 18.3351 29.213 18.0971 29.502 17.8101C29.693 17.6461 29.874 17.4721 30.052 17.2941C29.2624 17.4939 28.4608 17.6426 27.652 17.7391C26.65 18.9959 25.413 20.0458 24.01 20.8301C23.1142 21.2201 22.1894 21.5401 21.244 21.7871C20.944 21.9071 20.507 21.7581 20.589 21.3791C20.68 21.0241 20.873 20.7001 20.989 20.3521C20.366 21.0152 19.6722 21.6081 18.92 22.1201C18.867 22.1551 18.809 22.2031 18.748 22.2501C18.755 22.2861 18.761 22.3221 18.766 22.3571C18.9079 23.331 18.9461 24.3171 18.88 25.2991C18.7803 26.4264 18.6134 27.5467 18.38 28.6541C18.296 28.9011 18.367 29.4041 18.138 29.5601C18.213 29.7931 18.177 29.9731 17.961 30.0371C17.721 30.0541 17.593 29.7841 17.48 29.6171C15.48 26.7011 14.465 28.8001 15.251 31.2881C15.741 33.2151 17.051 35.8621 19.387 35.4161C19.231 35.0161 19.087 34.6161 18.937 34.2161C18.5994 34.1189 18.2802 33.9669 17.992 33.7661L17.97 33.7521C17.8596 33.7577 17.7491 33.7466 17.642 33.7191C17.3903 33.6755 17.1648 33.5373 17.0117 33.3328C16.8587 33.1282 16.7897 32.8728 16.819 32.6191C16.2862 31.9262 16.0261 31.0619 16.088 30.1901C16.061 30.1631 16.031 30.1371 16.005 30.1091C15.972 30.0702 15.9539 30.0209 15.9538 29.9699C15.9537 29.9189 15.9716 29.8695 16.0044 29.8305C16.0373 29.7914 16.0828 29.7652 16.1331 29.7566C16.1833 29.7479 16.235 29.7573 16.279 29.7831C17.059 30.3081 17.87 31.3061 17.259 32.2461C17.014 32.8241 17.6 33.2351 18.114 33.2891L18.132 33.2961C18.3401 33.3279 18.5365 33.413 18.702 33.5431C18.3001 32.5845 18.0325 31.5749 17.907 30.5431C17.9091 30.5082 17.9192 30.4743 17.9366 30.444C17.954 30.4137 17.9782 30.3878 18.0072 30.3684C18.0363 30.349 18.0695 30.3367 18.1042 30.3323C18.1388 30.3279 18.174 30.3316 18.207 30.3431C18.587 30.6241 18.607 31.2601 18.789 31.6791C19.72 34.4481 20.539 37.5321 22.808 39.5171C24.1069 40.6155 25.5874 41.4791 27.183 42.0691C28.2647 42.4418 29.3907 42.6711 30.532 42.7511ZM35.085 21.0201C35.3818 20.9432 35.6933 20.9439 35.9898 21.022C36.2862 21.1001 36.5576 21.253 36.778 21.4661C37.095 21.6441 38.526 23.0071 37.897 23.2661C37.86 23.2968 37.8147 23.3159 37.7669 23.3211C37.719 23.3262 37.6707 23.3172 37.628 23.2951C37.028 23.0891 36.355 23.0611 35.748 22.8401C35.3445 22.7502 34.9787 22.5374 34.701 22.2311C34.6447 22.1268 34.61 22.0122 34.5989 21.8942C34.5878 21.7762 34.6006 21.6572 34.6364 21.5442C34.6722 21.4312 34.7304 21.3266 34.8075 21.2366C34.8845 21.1465 34.9789 21.0729 35.085 21.0201ZM34.694 26.4561C34.8201 26.3348 34.9747 26.2472 35.1434 26.2013C35.3122 26.1554 35.4898 26.1526 35.66 26.1932C35.8301 26.2339 35.9873 26.3166 36.1171 26.4338C36.247 26.551 36.3453 26.699 36.403 26.8641C36.674 27.4841 36.52 28.5991 35.821 28.8641C35.6216 28.9156 35.4105 28.8971 35.2231 28.8117C35.0356 28.7264 34.8831 28.5793 34.791 28.3951C34.6893 28.1177 34.6424 27.8233 34.653 27.5281C34.622 27.1791 34.472 26.7601 34.695 26.4551L34.694 26.4561ZM28.538 32.0481C28.702 31.9861 28.872 32.0811 29.038 32.1061C29.6892 32.2393 30.3571 32.271 31.018 32.2001C31.495 32.1461 31.886 31.9271 32.339 31.8681C32.3748 31.8756 32.4082 31.8918 32.4362 31.9152C32.4643 31.9387 32.4861 31.9687 32.4998 32.0025C32.5136 32.0364 32.5188 32.0732 32.515 32.1095C32.5112 32.1459 32.4985 32.1808 32.478 32.2111C32.4561 32.2416 32.4286 32.2677 32.397 32.2881C32.2421 32.6677 31.9794 32.9936 31.6414 33.2257C31.3034 33.4578 30.9049 33.5858 30.495 33.5941C30.1022 33.5522 29.7241 33.4211 29.3898 33.2107C29.0554 33.0002 28.7737 32.7161 28.566 32.3801C28.449 32.3141 28.395 32.1191 28.539 32.0471L28.538 32.0481ZM28.608 36.1731C29.5195 36.2752 30.4395 36.2752 31.351 36.1731C32.1969 36.0368 33.0168 35.7714 33.782 35.3861C34.0326 35.2623 34.276 35.1244 34.511 34.9731C34.251 34.8081 34.092 34.6241 34.337 34.4311C34.776 34.2951 35.184 34.7501 35.437 35.0481C35.483 35.1121 35.552 35.1481 35.578 35.2281C35.5878 35.258 35.5892 35.2902 35.5819 35.3208C35.5746 35.3515 35.559 35.3796 35.5367 35.402C35.5145 35.4243 35.4865 35.4401 35.4558 35.4475C35.4251 35.455 35.393 35.4538 35.363 35.4441C35.2843 35.3811 35.198 35.3283 35.106 35.2871C35.0842 35.3279 35.0521 35.3623 35.013 35.3871C34.638 35.5941 34.18 35.7751 33.807 35.9471C32.4254 36.4922 30.9477 36.7521 29.463 36.7111C29.042 36.7122 28.623 36.6543 28.218 36.5391C27.895 36.2471 28.279 35.9231 28.609 36.1721L28.608 36.1731ZM23.182 23.2661C22.553 23.0071 23.982 21.6441 24.301 21.4661C24.5214 21.2531 24.7929 21.1002 25.0893 21.0221C25.3857 20.944 25.6972 20.9433 25.994 21.0201C26.1001 21.0728 26.1944 21.1463 26.2715 21.2363C26.3486 21.3262 26.4068 21.4307 26.4427 21.5435C26.4786 21.6564 26.4915 21.7753 26.4806 21.8933C26.4696 22.0112 26.4351 22.1257 26.379 22.2301C26.1014 22.5364 25.7356 22.7492 25.332 22.8391C24.726 23.0601 24.056 23.0881 23.452 23.2941C23.4093 23.3162 23.361 23.3252 23.3131 23.3201C23.2653 23.3149 23.2201 23.2958 23.183 23.2651L23.182 23.2661ZM26.426 27.5241C26.4363 27.8193 26.3891 28.1138 26.287 28.3911C26.195 28.5751 26.0426 28.722 25.8554 28.8074C25.6681 28.8927 25.4573 28.9113 25.258 28.8601C24.558 28.5991 24.405 27.4841 24.676 26.8601C24.734 26.6951 24.8324 26.5474 24.9622 26.4303C25.0921 26.3133 25.2492 26.2307 25.4193 26.1901C25.5893 26.1495 25.7668 26.1522 25.9355 26.198C26.1043 26.2437 26.2588 26.3311 26.385 26.4521C26.608 26.7601 26.457 27.1791 26.427 27.5231L26.426 27.5241Z" fill="#FFC3A1"/>
<path d="M44.72 29.978C44.463 30.2503 44.2397 30.5524 44.055 30.878C43.9486 31.0752 43.8936 31.296 43.895 31.52C43.9134 31.6481 43.9408 31.7748 43.977 31.899C44.4606 31.3769 44.7264 30.6897 44.72 29.978Z" fill="#F78C74"/>
<path d="M25.394 48.8858C25.8319 49.2508 26.3045 49.572 26.805 49.8448C28.2623 50.4642 29.8569 50.6891 31.4287 50.4969C33.0004 50.3046 34.4939 49.7021 35.759 48.7498C35.686 47.8838 35.603 47.0198 35.512 46.1418C35.4751 45.7593 35.4587 45.3751 35.463 44.9908C35.4626 44.9258 35.4676 44.8609 35.478 44.7968C35.195 44.6088 35.401 44.0618 35.406 43.7718C35.463 43.4478 35.53 43.1228 35.615 42.8008C33.9 44.4338 31.777 45.7918 29.329 45.6098C28.1953 45.495 27.1457 44.9599 26.387 44.1098C26.078 43.8522 25.7885 43.5721 25.521 43.2718C25.538 43.4028 25.554 43.5328 25.567 43.6618C25.553 43.9188 25.707 44.5428 25.52 44.7798C25.568 45.8018 25.474 46.8298 25.44 47.8518C25.424 48.1971 25.4086 48.5418 25.394 48.8858Z" fill="#FFC3A1"/>
<path d="M30.45 33.357C30.7719 33.3379 31.0847 33.2429 31.3628 33.0797C31.6409 32.9165 31.8764 32.6897 32.05 32.418C31.1289 32.7496 30.1326 32.8128 29.177 32.6C29.3228 32.8098 29.5118 32.9859 29.7314 33.1165C29.951 33.2471 30.196 33.3291 30.45 33.357Z" fill="#F78C74"/>
<path d="M25.735 21.4922C24.907 21.3332 24.014 22.2302 23.55 22.8332C23.991 22.6852 26.793 22.2382 25.735 21.4922Z" fill="#775F5F"/>
<path d="M37.529 22.8332C37.065 22.2332 36.172 21.3332 35.344 21.4922C34.286 22.2392 37.087 22.6852 37.529 22.8332Z" fill="#775F5F"/>
<path d="M45.846 22.3339C45.682 23.0979 45.523 23.8659 45.346 24.6339C45.155 25.4849 44.946 26.3339 44.697 27.1699C44.639 27.3151 44.6052 27.4688 44.597 27.6249C44.503 27.6459 44.403 27.6729 44.297 27.7059C43.8742 27.9141 43.4964 28.2032 43.185 28.5569C43.007 27.9159 42.827 27.2759 42.695 26.6239C42.4219 25.3296 42.3944 23.9954 42.614 22.6909C42.2002 21.8845 41.9529 21.003 41.887 20.0989C41.887 19.9639 41.9 19.7759 41.766 19.6989C41.516 19.4729 40.958 19.8769 40.635 19.9249C39.4309 20.3274 38.1411 20.401 36.899 20.1379C38.0614 19.648 39.0899 18.8876 39.899 17.9199C40.074 17.6589 39.837 17.2789 39.53 17.4409C39.1529 17.7937 38.6958 18.0497 38.198 18.1869C37.4403 18.4553 36.6438 18.5982 35.84 18.6099C36.4007 18.2763 36.9194 17.8768 37.385 17.4199C37.7221 17.0834 38.0184 16.7085 38.268 16.3029C38.596 16.0119 38.841 15.6759 38.524 15.5279C38.47 15.5273 38.4169 15.5422 38.371 15.5709C38.008 15.8724 37.6169 16.1382 37.203 16.3649C36.3261 16.7047 35.4172 16.9553 34.49 17.1129C33.0573 18.155 31.3116 18.6765 29.542 18.5909C30.0913 18.1134 30.606 17.5974 31.082 17.0469C31.1007 17.0221 31.1142 16.9939 31.122 16.9639C31.165 16.9209 31.208 16.8749 31.246 16.8289C31.5457 16.6735 31.8257 16.4829 32.08 16.2609C32.2721 16.102 32.4358 15.9117 32.564 15.6979C32.5755 15.6791 32.5804 15.6571 32.5781 15.6352C32.5757 15.6133 32.5662 15.5929 32.551 15.5769C32.5359 15.5615 32.5158 15.5518 32.4944 15.5494C32.4729 15.5471 32.4512 15.5522 32.433 15.5639C31.943 15.7959 31.483 16.0969 30.977 16.3039C29.9489 16.6539 28.8937 16.9185 27.822 17.0949C27.7159 17.1004 27.6135 17.1359 27.5267 17.1974C27.44 17.2588 27.3725 17.3436 27.332 17.4419C25.739 19.3353 23.5686 20.6534 21.154 21.1939C21.41 20.4729 21.733 19.7749 21.986 19.0539C22.043 18.9029 22.145 18.7229 22.029 18.5719C21.878 18.3809 21.629 18.5069 21.529 18.6849C21.2786 19.063 21.0026 19.4235 20.703 19.7639C20.1464 20.3932 19.5346 20.9715 18.875 21.4919C18.7064 21.6263 18.5312 21.7521 18.35 21.8689C18.2853 21.901 18.2321 21.9523 18.1979 22.016C18.1637 22.0796 18.1501 22.1522 18.159 22.2239C18.438 24.0404 18.397 25.8916 18.038 27.6939C17.979 28.1189 17.89 28.5369 17.809 28.9589C17.5092 28.5535 17.1541 28.192 16.754 27.8849C16.6645 27.8159 16.5691 27.7546 16.469 27.7019C16.4006 27.5737 16.343 27.4399 16.297 27.3019C16.09 26.6209 15.912 25.8829 15.764 25.1809C15.605 24.4539 15.527 23.7139 15.422 22.9809C15.357 22.4699 14.975 22.2869 14.566 22.6149C14.693 21.7829 14.766 20.9409 14.927 20.1149C15.422 18.5738 16.0769 17.0887 16.881 15.6839C19.081 11.9509 22.372 8.40793 26.803 7.57093C28.2609 7.26526 29.7607 7.21418 31.236 7.41993C31.3008 7.45314 31.3755 7.46167 31.446 7.44393C31.7094 7.5332 31.9933 7.5426 32.262 7.47093C32.617 7.07093 32.062 6.87593 31.347 6.77693C31.029 6.48893 30.698 6.21693 30.405 5.89893C33.719 6.44793 37.239 7.59893 39.611 10.0989C40.3843 10.9838 41.0228 11.9778 41.506 13.0489C41.573 13.2129 41.67 13.4259 41.869 13.4419C41.8962 13.4408 41.9232 13.4381 41.95 13.4339C42.05 13.4849 42.168 13.5199 42.27 13.5709C45.851 14.9579 46.645 18.9149 45.846 22.3339Z" fill="#775F5F"/>
<path d="M35.906 41.9189C34.8331 42.5793 33.6459 43.0328 32.406 43.2559C31.827 43.3793 31.2341 43.4254 30.643 43.3929C30.5813 43.4242 30.5115 43.4357 30.443 43.4259C28.6236 43.2645 26.8512 42.7607 25.219 41.9409C25.237 41.9889 25.252 42.0409 25.269 42.0879C25.3153 42.1448 25.3565 42.2057 25.392 42.2699C25.8329 43.1146 26.4096 43.8812 27.099 44.5389C29.794 46.5629 33.077 44.7329 35.19 42.7389C35.413 42.5389 35.624 42.3269 35.834 42.1139C35.854 42.0479 35.883 41.9829 35.906 41.9189Z" fill="#F78C74"/>
<path d="M40.894 57.5211C41.2336 56.9652 41.3854 56.3149 41.327 55.6661C40.5425 53.6186 39.4404 51.7075 38.061 50.0031C37.614 49.4231 37.224 48.7981 36.793 48.2191C36.617 47.6191 38.555 49.5701 38.602 49.7191C39.174 50.4581 39.725 51.2191 40.231 52.0191C40.283 51.9721 40.331 51.9271 40.373 51.8851C40.8972 51.3522 41.3497 50.7531 41.719 50.1031C42.152 49.4031 41.594 48.6481 41.206 48.0941C40.3954 46.9589 39.4863 45.8974 38.489 44.9221C37.789 44.1971 36.989 43.5901 36.246 42.9111C36.157 43.2191 36.081 43.5281 36.023 43.8281C35.9847 44.1187 35.9256 44.4061 35.846 44.6881C36.0233 45.17 36.1278 45.6755 36.156 46.1881C36.441 48.7371 36.556 51.2811 36.681 53.8361C36.755 55.7981 36.7823 57.7608 36.763 59.7241C36.715 59.9641 36.794 61.0061 36.685 61.6241C37.277 61.5901 37.87 61.5461 38.462 61.4901C38.4923 61.4365 38.5256 61.3848 38.562 61.3351C38.775 61.0211 38.955 60.7231 39.162 60.4091C39.765 59.4581 40.377 58.5111 40.894 57.5211Z" fill="#8DB8DB"/>
<path d="M48.963 57.6118C48.7975 57.7688 48.624 57.917 48.443 58.0558C46.2302 59.7044 43.6384 60.7704 40.906 61.1558C40.3193 61.2585 39.7297 61.3428 39.137 61.4088C39.169 61.3529 39.2069 61.3006 39.25 61.2528C39.85 60.3778 40.456 59.5028 41.021 58.6038C41.4588 57.9499 41.7778 57.2237 41.963 56.4588C42.0337 56.0943 42.0228 55.7186 41.931 55.3588C41.6646 54.6421 41.3461 53.9459 40.978 53.2758C40.838 53.0178 40.693 52.7588 40.539 52.5058C41.007 52.0812 41.4417 51.6212 41.839 51.1298C42.2251 50.7534 42.4616 50.2498 42.5047 49.7122C42.5477 49.1747 42.3943 48.6399 42.073 48.2068C41.893 47.9238 41.702 47.6518 41.505 47.3828C42.6262 48.2805 43.6865 49.2516 44.679 50.2898C44.754 50.3678 44.827 50.4488 44.897 50.5298C46.0121 51.8393 46.9842 53.264 47.797 54.7798C48.2551 55.6643 48.6369 56.5863 48.938 57.5358C48.9445 57.5617 48.9529 57.5871 48.963 57.6118Z" fill="#8DB8DB"/>
<path d="M35.814 49.4487C35.4194 49.727 35.003 49.9731 34.569 50.1847C33.282 50.8179 31.8746 51.1691 30.441 51.2147C28.6946 51.2739 26.9801 50.7364 25.58 49.6907C25.5028 49.6295 25.4303 49.5627 25.363 49.4907C25.238 52.3617 25.13 55.2337 25.154 58.1077C25.154 58.9247 25.154 59.7417 25.174 60.5577C25.1858 60.6757 25.1818 60.7948 25.162 60.9117C25.162 61.0357 25.156 61.1597 25.15 61.2837C25.1578 61.3379 25.1561 61.3931 25.145 61.4467C28.035 61.6467 30.938 61.7527 33.829 61.7287C34.572 61.7077 35.329 61.6837 36.082 61.6467C36.069 61.4837 36.082 61.3137 36.082 61.1567C36.12 60.3317 36.129 59.5067 36.135 58.6817C36.154 56.4067 36.113 54.1307 35.969 51.8597C35.932 51.0437 35.876 50.2447 35.814 49.4487Z" fill="white"/>
<path d="M22.247 61.2079L22.086 61.1919C21.526 61.1189 20.963 61.0359 20.401 60.9359C18.4832 60.638 16.6126 60.0904 14.837 59.3069C13.7487 58.7859 12.7414 58.1106 11.846 57.3018C11.8554 57.1268 11.8751 56.9525 11.905 56.7798C12.344 54.3378 14.145 51.9429 16.236 49.8799C17.3568 48.7834 18.5416 47.7543 19.784 46.7979C19.484 47.1779 19.195 47.5649 18.923 47.9639C17.647 49.5439 19.323 51.2748 20.635 52.1768C20.484 52.3918 20.335 52.6099 20.202 52.8339C19.8313 53.4205 19.5407 54.0541 19.338 54.7179C19.3375 54.7191 19.3372 54.7205 19.3372 54.7219C19.3372 54.7232 19.3375 54.7246 19.338 54.7259C19.1891 55.2198 19.1139 55.733 19.115 56.2489C19.421 58.1769 20.909 59.7729 22.247 61.2079Z" fill="#8DB8DB"/>
<path d="M24.9891 46.4518C25.0221 45.9048 25.0889 45.3604 25.189 44.8217C25.1356 44.7813 25.0999 44.7219 25.0891 44.6558C25.0176 43.9689 24.903 43.2872 24.7461 42.6147C24.4271 42.8667 24.103 43.1398 23.814 43.3978C22.1894 44.8398 20.7329 46.4608 19.4721 48.2298C18.4361 49.3458 19.645 50.5627 20.497 51.3297C20.605 51.4557 20.823 51.5688 20.962 51.7068C21.306 51.2488 21.6681 50.8068 22.0191 50.3878C22.6227 49.6636 23.2632 48.971 23.9381 48.3127C24.0091 48.2547 24.0741 48.1607 24.172 48.1617C24.266 48.1837 24.239 48.2847 24.195 48.3438C23.595 49.2128 22.959 50.0588 22.322 50.9008C18.397 56.0328 19.2301 56.5898 22.9011 61.2628C23.4504 61.3114 24.0001 61.3567 24.5501 61.3987C24.5139 60.8967 24.5139 60.3928 24.5501 59.8907C24.5601 59.7757 24.567 59.6598 24.574 59.5438C24.537 58.3038 24.5341 57.0617 24.5481 55.8217C24.5941 52.6977 24.7491 49.5688 24.9891 46.4518Z" fill="#8DB8DB"/>
<path d="M48.608 54.938C46.718 51.002 43.626 48.151 40.203 45.553C40.0387 45.4058 39.8512 45.2869 39.648 45.201C39.3813 44.9256 39.11 44.6553 38.834 44.39C38.1215 43.6979 37.3572 43.061 36.548 42.485C36.5058 42.4471 36.4599 42.4136 36.411 42.385C36.498 42.135 36.592 41.885 36.7 41.656C36.746 41.534 36.82 41.412 36.881 41.287C37.8013 40.6353 38.6515 39.89 39.418 39.063C40.2846 38.0431 40.9732 36.8846 41.455 35.636C41.749 35.679 42.09 35.669 42.255 35.7C42.9202 35.6824 43.5662 35.4738 44.1159 35.0989C44.6657 34.724 45.0958 34.1988 45.355 33.586C46.203 32.25 47.372 27.716 45.197 27.567C45.247 27.418 45.276 27.248 45.322 27.129C45.5633 26.2703 45.7867 25.4076 45.992 24.541C46.3668 23.1694 46.6138 21.7661 46.73 20.349C46.85 17.223 45.51 13.937 42.313 12.949C42.255 12.9257 42.1934 12.9129 42.131 12.911C41.5292 11.5393 40.6923 10.2834 39.658 9.19997C39.2463 8.80435 38.798 8.44876 38.319 8.13797C36.8796 7.2067 35.3213 6.47376 33.686 5.95897C32.8687 5.7135 32.038 5.51484 31.198 5.36397C30.703 5.29997 30.147 5.04597 29.664 5.25197C29.113 5.63297 30.21 6.30997 30.543 6.70197C30.043 6.67397 29.592 6.67297 29.443 6.66497C27.6811 6.66697 25.9369 7.01605 24.31 7.69225C22.683 8.36846 21.2052 9.35855 19.961 10.606C17.7311 12.8083 16.0012 15.4648 14.889 18.395C14.653 19.448 14.325 20.477 14.126 21.537C14.009 22.165 13.705 23.364 14.781 23.014C14.8787 24.5801 15.2584 26.1158 15.902 27.547C15.5693 27.5213 15.2389 27.6209 14.9758 27.8263C14.7127 28.0317 14.5359 28.3279 14.48 28.657C14.127 30.304 14.792 31.998 15.408 33.506C15.6575 34.1295 16.0499 34.6858 16.5536 35.1301C17.0573 35.5743 17.6582 35.8942 18.308 36.064C18.5475 36.112 18.7947 36.1048 19.031 36.043H19.011C19.2045 36.0012 19.3947 35.9454 19.58 35.876C19.9093 36.6979 20.3175 37.4859 20.799 38.229C21.7428 39.5415 22.9498 40.643 24.343 41.463C24.4411 41.6685 24.5263 41.8799 24.598 42.096L24.514 42.15C24.1757 42.3858 23.8502 42.6395 23.539 42.91C22.6093 43.7245 21.7243 44.5888 20.888 45.499L20.866 45.512C17.388 47.485 13.366 51.33 11.766 55.02C11.5762 55.5107 11.4307 56.0174 11.331 56.534C11.2778 56.6796 11.2573 56.8352 11.2707 56.9896C11.2842 57.1441 11.3314 57.2937 11.409 57.428C11.426 57.4513 11.4474 57.471 11.472 57.486C11.5391 57.6601 11.6468 57.8157 11.786 57.94C16.529 62.427 25.84 62.071 32.047 62.352C37.753 62.332 45.147 62.225 49.452 57.973C49.4813 57.9356 49.5012 57.8918 49.5103 57.8452C49.5193 57.7986 49.5172 57.7506 49.504 57.705C49.763 57.229 48.74 55.27 48.608 54.938ZM15.759 25.178C15.6 24.452 15.524 23.711 15.418 22.978C15.354 22.466 14.972 22.278 14.561 22.612C14.689 21.779 14.761 20.936 14.921 20.107C15.4165 18.5664 16.0714 17.0817 16.875 15.677C19.075 11.942 22.366 8.40197 26.798 7.56297C28.256 7.25784 29.7557 7.20709 31.231 7.41297C31.2959 7.44712 31.3713 7.45534 31.442 7.43597C31.7051 7.5265 31.9892 7.5366 32.258 7.46497C32.611 7.06497 32.058 6.86497 31.343 6.77097C31.024 6.48297 30.694 6.20897 30.401 5.89297C33.714 6.44297 37.235 7.59297 39.601 10.093C40.3759 10.9783 41.0161 11.973 41.501 13.045C41.568 13.208 41.663 13.419 41.864 13.437C41.8906 13.4361 41.917 13.4327 41.943 13.427C42.043 13.48 42.162 13.515 42.265 13.566C45.85 14.954 46.645 18.912 45.844 22.33C45.498 23.949 45.169 25.574 44.698 27.162C44.6397 27.307 44.6059 27.4608 44.598 27.617C44.504 27.638 44.406 27.665 44.304 27.698C43.8805 27.9054 43.5022 28.1947 43.191 28.549C43.014 27.908 42.835 27.266 42.703 26.614C42.429 25.3201 42.4011 23.9862 42.621 22.682C42.2077 21.8755 41.9611 20.9939 41.896 20.09C41.896 19.956 41.909 19.767 41.773 19.696C41.523 19.468 40.966 19.871 40.643 19.921C39.4392 20.323 38.1499 20.3969 36.908 20.135C38.0699 19.6438 39.0982 18.8832 39.908 17.916C40.083 17.656 39.846 17.276 39.539 17.438C39.162 17.7904 38.7048 18.0458 38.207 18.182C37.4489 18.4518 36.6516 18.5954 35.847 18.607C36.4072 18.2735 36.9259 17.8748 37.392 17.419C37.7278 17.0818 38.0241 16.7074 38.275 16.303C38.604 16.01 38.848 15.676 38.531 15.528C38.4769 15.5261 38.4236 15.5407 38.378 15.57C38.0148 15.8713 37.6233 16.1369 37.209 16.363C36.332 16.7038 35.4227 16.9551 34.495 17.113C33.0633 18.1554 31.3179 18.6766 29.549 18.59C30.0944 18.1123 30.6056 17.5971 31.079 17.048C31.098 17.0232 31.1123 16.995 31.121 16.965C31.164 16.921 31.206 16.876 31.244 16.831C31.5445 16.6751 31.8252 16.4838 32.08 16.261C32.2711 16.102 32.434 15.912 32.562 15.699C32.574 15.6803 32.5794 15.6582 32.5774 15.6361C32.5754 15.614 32.5661 15.5932 32.551 15.577C32.5353 15.5625 32.5154 15.5534 32.4941 15.5511C32.4729 15.5487 32.4515 15.5532 32.433 15.564C31.942 15.797 31.481 16.097 30.976 16.304C29.9473 16.6542 28.8913 16.9187 27.819 17.095C27.713 17.1012 27.611 17.1373 27.5246 17.1991C27.4383 17.2608 27.3712 17.3457 27.331 17.444C25.7381 19.3373 23.5676 20.6551 21.153 21.195C21.409 20.475 21.731 19.778 21.986 19.057C22.043 18.905 22.143 18.724 22.027 18.574C21.876 18.382 21.627 18.509 21.527 18.687C21.2761 19.0647 21.0005 19.4255 20.702 19.767C20.1448 20.3961 19.5328 20.9744 18.873 21.495C18.761 21.618 18.517 21.732 18.347 21.872C18.2821 21.9041 18.2288 21.9556 18.1946 22.0194C18.1603 22.0832 18.1469 22.1561 18.156 22.228C18.4349 24.044 18.3943 25.8949 18.036 27.697C17.976 28.122 17.888 28.541 17.807 28.962C17.4453 28.4603 16.99 28.0335 16.466 27.705C16.3967 27.5769 16.3385 27.443 16.292 27.305C16.085 26.619 15.909 25.881 15.759 25.178ZM22.808 39.519C20.539 37.534 19.72 34.45 18.789 31.681C18.609 31.261 18.589 30.625 18.207 30.345C18.174 30.3335 18.1388 30.3298 18.1041 30.3342C18.0695 30.3386 18.0363 30.3509 18.0073 30.3703C17.9782 30.3897 17.954 30.4156 17.9366 30.4459C17.9192 30.4762 17.9091 30.5101 17.907 30.545C18.0326 31.5768 18.3001 32.5864 18.702 33.545C18.5365 33.4149 18.3401 33.3298 18.132 33.298L18.114 33.291C17.599 33.238 17.014 32.826 17.259 32.248C17.87 31.308 17.059 30.31 16.28 29.785C16.236 29.7592 16.1843 29.7498 16.1341 29.7585C16.0838 29.7671 16.0383 29.7933 16.0055 29.8323C15.9726 29.8714 15.9547 29.9208 15.9548 29.9718C15.9549 30.0228 15.973 30.0721 16.006 30.111C16.032 30.14 16.061 30.165 16.089 30.192C16.027 31.0638 16.2871 31.9281 16.82 32.621C16.7907 32.8747 16.8597 33.1301 17.0127 33.3347C17.1658 33.5392 17.3913 33.6774 17.643 33.721C17.7501 33.7485 17.8606 33.7596 17.971 33.754L17.993 33.768C18.2812 33.9687 18.6005 34.1207 18.938 34.218C19.083 34.618 19.232 35.018 19.388 35.418C17.053 35.863 15.742 33.218 15.252 31.29C14.467 28.802 15.477 26.703 17.481 29.619C17.594 29.786 17.723 30.056 17.962 30.039C18.178 29.975 18.214 29.795 18.139 29.562C18.368 29.407 18.297 28.904 18.382 28.657C18.6152 27.5496 18.7822 26.4293 18.882 25.302C18.9482 24.32 18.91 23.3338 18.768 22.36C18.762 22.326 18.756 22.289 18.75 22.253C18.811 22.206 18.87 22.153 18.922 22.123C19.6742 21.611 20.368 21.0181 20.991 20.355C20.871 20.702 20.679 21.027 20.591 21.382C20.509 21.761 20.949 21.909 21.246 21.79C22.1914 21.543 23.1162 21.223 24.012 20.833C25.4151 20.0487 26.652 18.9988 27.654 17.742C28.4628 17.6455 29.2644 17.4968 30.054 17.297C29.877 17.475 29.695 17.649 29.504 17.813C29.215 18.1 28.75 18.338 28.697 18.777C28.675 19.077 28.98 19.243 29.247 19.237C30.4436 19.318 31.6438 19.1438 32.768 18.726C33.3504 18.4036 33.914 18.0484 34.456 17.662C35.2805 17.588 36.0919 17.4075 36.87 17.125C36.6647 17.3212 36.4444 17.5011 36.211 17.663C35.828 17.978 35.397 18.209 35.003 18.517C34.9732 18.5473 34.95 18.5835 34.9348 18.6232C34.9195 18.6629 34.9127 18.7053 34.9145 18.7478C34.9164 18.7903 34.927 18.832 34.9457 18.8702C34.9643 18.9084 34.9907 18.9424 35.023 18.97C35.372 19.17 35.812 18.97 36.187 18.941C37.164 18.7788 38.1122 18.4756 39.002 18.041C38.3914 18.5957 37.7244 19.085 37.012 19.501C36.757 19.686 36.366 19.767 36.23 20.072C36.144 20.895 37.904 20.796 38.455 20.85C39.3009 20.8611 40.1415 20.7149 40.934 20.419C41.0696 20.3606 41.2106 20.3157 41.355 20.285C41.3662 21.1949 41.6018 22.088 42.041 22.885C41.8277 24.963 42.0781 27.0624 42.774 29.032C42.7825 29.0562 42.7942 29.079 42.809 29.1C42.799 29.119 42.786 29.137 42.776 29.157C42.526 29.592 42.814 29.868 43.164 29.457C46.504 25.751 46.21 30.813 44.999 32.957C44.7538 33.6316 44.2949 34.2076 43.6921 34.5973C43.0894 34.9871 42.3758 35.1692 41.66 35.116C41.786 34.776 41.9033 34.4326 42.012 34.086C42.043 34.0898 42.0743 34.0831 42.101 34.067C42.407 33.851 42.724 33.65 43.03 33.431C43.0828 33.4227 43.1342 33.4076 43.183 33.386C43.4078 33.278 43.6008 33.1136 43.743 32.9086C43.8851 32.7037 43.9716 32.4654 43.994 32.217C43.994 32.21 43.994 32.204 43.994 32.197C44.3192 31.899 44.5681 31.5273 44.7197 31.1132C44.8712 30.699 44.9211 30.2544 44.865 29.817L44.929 29.744C44.9516 29.7039 44.9605 29.6576 44.9546 29.612C44.9486 29.5664 44.9281 29.5239 44.896 29.491C44.526 29.225 44.18 30.079 43.988 30.313C43.6909 30.7333 43.4905 31.2141 43.401 31.721C43.3972 32.101 43.3131 32.4758 43.154 32.821C42.7859 32.9592 42.4566 33.1842 42.194 33.477C42.452 32.586 42.671 31.687 42.88 30.807C42.895 30.629 43.075 30.045 42.753 30.088C42.4729 30.5017 42.2731 30.9644 42.164 31.452C41.6301 33.6547 40.7788 35.7681 39.637 37.726C37.777 40.2976 35.0117 42.0692 31.898 42.684C31.846 42.697 31.798 42.707 31.742 42.719C31.536 42.736 31.331 42.75 31.125 42.752C30.981 42.752 30.787 42.759 30.605 42.772C30.581 42.7638 30.5562 42.7581 30.531 42.755C29.3897 42.6755 28.2637 42.4465 27.182 42.074C25.5865 41.4832 24.1063 40.6185 22.808 39.519ZM16.839 32.365C16.3931 31.7832 16.176 31.0581 16.229 30.327L16.285 30.382C16.558 30.6242 16.7553 30.94 16.8536 31.2915C16.9518 31.6429 16.9468 32.0163 16.839 32.365ZM43.895 31.521C43.8937 31.2969 43.9487 31.0762 44.055 30.879C44.2397 30.5533 44.463 30.2512 44.72 29.979C44.7263 30.6903 44.4605 31.3771 43.977 31.899C43.9409 31.7744 43.9135 31.6474 43.895 31.519V31.521ZM25.52 44.782C25.707 44.546 25.554 43.922 25.567 43.664C25.553 43.535 25.538 43.405 25.521 43.274C25.7886 43.5743 26.0781 43.8544 26.387 44.112C27.1458 44.9621 28.1953 45.4972 29.329 45.612C31.777 45.794 33.9 44.436 35.615 42.803C35.53 43.125 35.463 43.45 35.406 43.774C35.406 44.064 35.195 44.611 35.478 44.799C35.4677 44.8631 35.4627 44.928 35.463 44.993C35.4588 45.3772 35.4751 45.7615 35.512 46.144C35.603 47.022 35.686 47.886 35.759 48.752C34.4939 49.7043 33.0005 50.3068 31.4287 50.499C29.857 50.6912 28.2623 50.4664 26.805 49.847C26.3045 49.5741 25.8319 49.2529 25.394 48.888C25.4093 48.5433 25.4247 48.1993 25.44 47.856C25.473 46.832 25.567 45.804 25.52 44.782ZM35.186 42.74C33.074 44.734 29.786 46.564 27.095 44.54C26.4056 43.8822 25.8289 43.1157 25.388 42.271C25.3525 42.2068 25.3113 42.1459 25.265 42.089C25.249 42.04 25.234 41.989 25.215 41.942C26.8473 42.7616 28.6197 43.2654 30.439 43.427C30.5075 43.4368 30.5773 43.4252 30.639 43.394C31.2302 43.426 31.823 43.3796 32.402 43.256C33.642 43.0329 34.8292 42.5794 35.902 41.919C35.875 41.984 35.85 42.049 35.825 42.119C35.619 42.328 35.409 42.54 35.186 42.74ZM22.086 61.194C19.5896 60.9323 17.1467 60.2972 14.839 59.31C13.7499 58.7886 12.7418 58.1126 11.846 57.303C11.8563 57.1273 11.8764 56.9524 11.906 56.779C12.588 52.989 16.554 49.307 19.786 46.794C19.486 47.174 19.196 47.56 18.923 47.96C17.648 49.541 19.323 51.271 20.635 52.171C19.7141 53.3364 19.1815 54.7612 19.112 56.245C19.423 58.18 20.912 59.776 22.248 61.21L22.086 61.194ZM24.586 59.548C24.579 59.664 24.571 59.779 24.562 59.895C24.5258 60.397 24.5258 60.901 24.562 61.403C24.012 61.361 23.4623 61.3156 22.913 61.267C19.242 56.594 18.413 56.037 22.334 50.905C22.971 50.063 23.608 49.217 24.207 48.348C24.251 48.289 24.278 48.188 24.184 48.166C24.084 48.166 24.021 48.258 23.95 48.317C23.2752 48.9752 22.6346 49.6678 22.031 50.392C21.68 50.814 21.318 51.254 20.974 51.711C20.835 51.573 20.617 51.46 20.509 51.334C19.657 50.565 18.449 49.347 19.484 48.234C20.7449 46.4653 22.2014 44.8447 23.826 43.403C24.116 43.144 24.44 42.872 24.758 42.619C24.9149 43.2915 25.0295 43.9731 25.101 44.66C25.1119 44.726 25.1477 44.7854 25.201 44.826C25.1009 45.3647 25.0341 45.909 25.001 46.456C24.761 49.574 24.606 52.702 24.567 55.83C24.541 57.066 24.544 58.308 24.581 59.548H24.586ZM36.146 58.682C36.14 59.508 36.131 60.333 36.093 61.157C36.093 61.315 36.077 61.485 36.093 61.647C35.336 61.684 34.583 61.708 33.84 61.729C30.949 61.753 28.047 61.651 25.156 61.447C25.1671 61.3933 25.1688 61.3382 25.161 61.284C25.168 61.16 25.171 61.036 25.173 60.912C25.1928 60.795 25.1968 60.676 25.185 60.558C25.165 59.742 25.166 58.925 25.165 58.108C25.141 55.234 25.249 52.362 25.374 49.491C25.4413 49.563 25.5138 49.6298 25.591 49.691C26.9911 50.7367 28.7056 51.2742 30.452 51.215C31.8846 51.1675 33.2905 50.815 34.576 50.181C35.0101 49.969 35.4264 49.7225 35.821 49.444C35.883 50.244 35.939 51.044 35.982 51.855C36.12 54.131 36.161 56.408 36.141 58.682H36.146ZM38.466 61.482C37.874 61.539 37.281 61.582 36.689 61.616C36.798 60.994 36.719 59.951 36.767 59.716C36.7863 57.7526 36.759 55.79 36.685 53.828C36.556 51.272 36.445 48.728 36.16 46.18C36.1317 45.6674 36.0272 45.1618 35.85 44.68C35.9296 44.3979 35.9887 44.1105 36.027 43.82C36.085 43.52 36.162 43.211 36.25 42.903C36.99 43.582 37.795 44.189 38.493 44.914C39.4902 45.8893 40.3994 46.9508 41.21 48.086C41.598 48.64 42.156 49.395 41.723 50.095C41.3537 50.7449 40.9012 51.344 40.377 51.877C40.337 51.919 40.286 51.964 40.235 52.011C39.729 51.218 39.178 50.452 38.606 49.711C38.559 49.566 36.621 47.619 36.797 48.211C37.228 48.79 37.617 49.411 38.065 49.995C39.4444 51.6993 40.5466 53.6104 41.331 55.658C41.3894 56.3067 41.2376 56.9571 40.898 57.513C40.381 58.507 39.769 59.45 39.164 60.393C38.959 60.707 38.779 61.005 38.564 61.319C38.5265 61.3712 38.4921 61.4256 38.461 61.482H38.466ZM48.448 58.058C45.7224 60.0267 42.4979 61.1889 39.143 61.412C39.1753 61.3563 39.2132 61.304 39.256 61.256C39.856 60.379 40.463 59.506 41.027 58.606C41.3851 58.1523 41.6499 57.6323 41.8063 57.076C41.9626 56.5196 42.0074 55.9377 41.938 55.364C41.5658 54.3707 41.1001 53.4151 40.547 52.51C41.015 52.0857 41.4496 51.626 41.847 51.135C42.233 50.7584 42.4693 50.2547 42.5121 49.7172C42.555 49.1797 42.4015 48.6449 42.08 48.212C41.9 47.93 41.709 47.657 41.512 47.388C42.7206 48.3504 43.8549 49.4027 44.905 50.536C46.0194 51.846 46.9915 53.2707 47.805 54.786C48.262 55.6714 48.6431 56.5941 48.944 57.544C48.9508 57.5676 48.9595 57.5907 48.97 57.613C48.8021 57.7702 48.6262 57.9187 48.443 58.058H48.448Z" fill="#440829"/>
<path d="M24.676 26.8628C24.405 27.4828 24.559 28.5978 25.258 28.8628C25.4573 28.9141 25.6681 28.8955 25.8554 28.8101C26.0426 28.7248 26.1949 28.5779 26.287 28.3938C26.3891 28.1166 26.4363 27.8221 26.426 27.5268C26.456 27.1828 26.607 26.7638 26.384 26.4588C26.258 26.338 26.1039 26.2507 25.9355 26.2048C25.7671 26.1589 25.5899 26.1559 25.4201 26.196C25.2502 26.2362 25.0931 26.3183 24.9632 26.4348C24.8332 26.5512 24.7345 26.6984 24.676 26.8628Z" fill="#440829"/>
<path d="M26.379 22.2301C26.4351 22.1257 26.4696 22.0112 26.4806 21.8933C26.4915 21.7753 26.4787 21.6564 26.4427 21.5435C26.4068 21.4307 26.3486 21.3262 26.2715 21.2362C26.1944 21.1463 26.1001 21.0728 25.994 21.0201C25.6973 20.9432 25.3857 20.9439 25.0893 21.0219C24.7928 21.1 24.5214 21.253 24.301 21.4661C23.984 21.6441 22.553 23.0071 23.182 23.2661C23.2191 23.2968 23.2643 23.3159 23.3122 23.321C23.36 23.3262 23.4083 23.3172 23.451 23.295C24.051 23.089 24.725 23.061 25.331 22.84C25.7351 22.7501 26.1012 22.5369 26.379 22.2301ZM25.735 21.493C26.793 22.239 23.992 22.693 23.55 22.834C24.013 22.23 24.907 21.3331 25.738 21.4921L25.735 21.493Z" fill="#440829"/>
<path d="M34.791 28.3888C34.8831 28.5731 35.0356 28.7201 35.2231 28.8055C35.4105 28.8908 35.6216 28.9093 35.821 28.8578C36.521 28.5968 36.674 27.4818 36.403 26.8578C36.3452 26.6929 36.2469 26.5451 36.1171 26.428C35.9874 26.311 35.8303 26.2284 35.6603 26.1877C35.4903 26.1471 35.3129 26.1499 35.1442 26.1957C34.9756 26.2414 34.8211 26.3288 34.695 26.4498C34.472 26.7498 34.623 27.1728 34.653 27.5178C34.6418 27.8144 34.6887 28.1103 34.791 28.3888Z" fill="#440829"/>
<path d="M35.747 22.839C36.353 23.06 37.023 23.088 37.627 23.294C37.6698 23.3161 37.7181 23.3251 37.7659 23.32C37.8137 23.3148 37.859 23.2957 37.896 23.265C38.525 23.006 37.096 21.643 36.777 21.465C36.5566 21.252 36.2852 21.0991 35.9887 21.021C35.6923 20.9429 35.3808 20.9422 35.084 21.019C34.9781 21.0718 34.8838 21.1454 34.8068 21.2353C34.7298 21.3253 34.6716 21.4298 34.6357 21.5426C34.5998 21.6554 34.5869 21.7743 34.5978 21.8922C34.6087 22.0101 34.6431 22.1246 34.699 22.229C34.9768 22.5359 35.343 22.749 35.747 22.839ZM35.347 21.493C36.175 21.334 37.068 22.231 37.532 22.834C37.088 22.689 34.286 22.239 35.344 21.492L35.347 21.493Z" fill="#440829"/>
<path d="M28.57 32.3818C28.7777 32.7178 29.0594 33.002 29.3938 33.2124C29.7281 33.4228 30.1062 33.5539 30.499 33.5958C30.9091 33.5867 31.3076 33.4577 31.6453 33.2247C31.983 32.9918 32.245 32.665 32.399 32.2848C32.4307 32.2641 32.4582 32.2376 32.48 32.2068C32.5002 32.1764 32.5127 32.1416 32.5164 32.1053C32.5201 32.069 32.5148 32.0324 32.5011 31.9986C32.4874 31.9647 32.4657 31.9348 32.4378 31.9113C32.4099 31.8878 32.3767 31.8715 32.341 31.8638C31.888 31.9228 31.497 32.1428 31.02 32.1958C30.3591 32.2667 29.6912 32.235 29.04 32.1018C28.876 32.0778 28.706 31.9818 28.54 32.0438C28.396 32.1188 28.449 32.3138 28.57 32.3818ZM32.047 32.4168C31.8734 32.6885 31.6379 32.9153 31.3598 33.0785C31.0817 33.2417 30.7689 33.3367 30.447 33.3558C30.1923 33.3284 29.9466 33.2467 29.7262 33.1161C29.5059 32.9855 29.3162 32.809 29.17 32.5988C30.1264 32.8125 31.1239 32.7497 32.046 32.4178L32.047 32.4168Z" fill="#440829"/>
<path d="M29.467 36.713C30.9517 36.754 32.4294 36.4941 33.811 35.949C34.184 35.776 34.642 35.596 35.017 35.389C35.0561 35.3642 35.0881 35.3298 35.11 35.289C35.2019 35.3304 35.2883 35.3831 35.367 35.446C35.397 35.4557 35.4291 35.4569 35.4598 35.4495C35.4904 35.442 35.5184 35.4263 35.5407 35.4039C35.5629 35.3816 35.5786 35.3535 35.5859 35.3228C35.5932 35.2921 35.5918 35.26 35.582 35.23C35.556 35.153 35.482 35.114 35.441 35.05C35.186 34.75 34.778 34.297 34.341 34.433C34.096 34.626 34.254 34.81 34.515 34.975C34.28 35.1267 34.0366 35.2649 33.786 35.389C33.0208 35.7743 32.2009 36.0398 31.355 36.176C30.4435 36.2782 29.5235 36.2782 28.612 36.176C28.282 35.927 27.902 36.251 28.225 36.545C28.6292 36.6586 29.0472 36.7151 29.467 36.713Z" fill="#440829"/>
<path d="M20.201 52.826C19.743 52.35 18.847 51.399 18.085 50.446C17.852 50.1997 17.5595 50.0175 17.2356 49.9172C16.9118 49.8168 16.5675 49.8016 16.236 49.873C17.3568 48.7766 18.5416 47.7474 19.784 46.791C19.484 47.171 19.195 47.558 18.923 47.957C17.647 49.537 19.323 51.268 20.635 52.17C20.484 52.385 20.342 52.603 20.201 52.826Z" fill="#6297CC"/>
<path d="M22.247 61.2088L22.086 61.1928C21.526 61.1198 20.963 61.0369 20.401 60.9369C19.9033 59.8975 19.4893 58.8201 19.163 57.7148C18.8665 56.7256 18.9274 55.6637 19.335 54.7148C19.186 55.2091 19.1109 55.7226 19.112 56.2389C19.421 58.1779 20.91 59.7738 22.247 61.2088Z" fill="#6297CC"/>
<path d="M41.964 56.46C42.0749 57.1524 42.0092 57.8616 41.773 58.5219C41.582 59.0039 41.251 60.032 40.906 61.157C40.3193 61.259 39.73 61.3433 39.138 61.4099C39.1699 61.354 39.2078 61.3017 39.251 61.254C39.851 60.379 40.457 59.5039 41.022 58.6049C41.4599 57.951 41.7789 57.2249 41.964 56.46Z" fill="#6297CC"/>
<path d="M44.68 50.2961C44.1051 50.3738 43.5638 50.6127 43.119 50.9851C42.672 51.4321 41.73 52.4571 40.979 53.2851C40.839 53.0271 40.694 52.7681 40.54 52.5151C41.008 52.0908 41.4426 51.6311 41.84 51.1401C42.2261 50.7637 42.4626 50.26 42.5056 49.7225C42.5487 49.185 42.3953 48.6501 42.074 48.2171C41.894 47.9341 41.703 47.6631 41.506 47.3931C42.6271 48.2894 43.6874 49.2592 44.68 50.2961Z" fill="#6297CC"/>
<path d="M45.388 22.6748C45.3827 23.3261 45.3694 23.9775 45.348 24.6288C45.157 25.4798 44.948 26.3288 44.699 27.1648C44.6409 27.3099 44.6071 27.4637 44.599 27.6198C44.505 27.6408 44.405 27.6678 44.299 27.7008C43.8762 27.9089 43.4984 28.1981 43.187 28.5518C43.009 27.9108 42.829 27.2708 42.697 26.6188C42.4239 25.3244 42.3964 23.9903 42.616 22.6858C42.2022 21.8794 41.9549 20.9978 41.889 20.0938C41.889 19.9588 41.902 19.7708 41.768 19.6938C41.518 19.4678 40.96 19.8718 40.637 19.9198C39.4329 20.3223 38.1431 20.3958 36.901 20.1328C38.0633 19.6428 39.0919 18.8824 39.901 17.9148C40.076 17.6538 39.839 17.2738 39.532 17.4358C39.1549 17.7885 38.6978 18.0445 38.2 18.1818C37.4423 18.4502 36.6458 18.5931 35.842 18.6048C36.4027 18.2712 36.9213 17.8717 37.387 17.4148C37.724 17.0783 38.0204 16.7034 38.27 16.2978C38.598 16.0068 38.843 15.6708 38.526 15.5228C38.4719 15.5222 38.4188 15.5371 38.373 15.5658C38.01 15.8672 37.6189 16.1331 37.205 16.3598C36.3281 16.6995 35.4192 16.9501 34.492 17.1078C33.0596 18.1497 31.3142 18.6711 29.545 18.5858C30.0915 18.1086 30.6034 17.5934 31.077 17.0438C31.0957 17.0187 31.1093 16.9902 31.117 16.9598C31.16 16.9168 31.203 16.8708 31.241 16.8248C31.5407 16.6694 31.8207 16.4787 32.075 16.2568C32.2671 16.0979 32.4307 15.9075 32.559 15.6938C32.5705 15.675 32.5754 15.653 32.573 15.6311C32.5707 15.6092 32.5612 15.5887 32.546 15.5728C32.5308 15.5574 32.5108 15.5477 32.4893 15.5453C32.4678 15.543 32.4462 15.5481 32.428 15.5598C31.938 15.7918 31.478 16.0928 30.972 16.2998C29.9439 16.6498 28.8886 16.9143 27.817 17.0908C27.7109 17.0963 27.6084 17.1318 27.5217 17.1932C27.4349 17.2547 27.3674 17.3395 27.327 17.4378C25.734 19.3311 23.5636 20.6493 21.149 21.1898C21.405 20.4688 21.728 19.7708 21.981 19.0498C22.038 18.8988 22.14 18.7188 22.024 18.5678C21.873 18.3768 21.624 18.5028 21.524 18.6808C21.2735 19.0588 20.9976 19.4193 20.698 19.7598C20.1413 20.3891 19.5296 20.9674 18.87 21.4878C18.7014 21.6222 18.5262 21.748 18.345 21.8648C18.2803 21.8968 18.2271 21.9482 18.1929 22.0118C18.1586 22.0754 18.1451 22.1481 18.154 22.2198C18.4329 24.0362 18.392 25.8875 18.033 27.6898C17.974 28.1148 17.885 28.5328 17.804 28.9548C17.5042 28.5493 17.1491 28.1878 16.749 27.8808C16.5459 26.8287 16.4388 25.7603 16.429 24.6888C16.3831 22.9547 16.8995 21.2522 17.901 19.8358C17.2131 20.3532 16.6124 20.9774 16.122 21.6848C16.1258 20.5382 16.4244 19.4118 16.989 18.4138C18.819 14.5968 21.638 10.9038 25.689 9.6708C28.397 8.8498 31.304 9.2268 34.106 9.6118L32.73 7.9458C34.3453 8.39101 35.8962 9.04343 37.344 9.8868C38.8013 10.7471 39.8676 12.1396 40.318 13.7708C40.14 13.7708 40.332 13.8488 40.154 13.8488C41.6978 14.6346 43.0195 15.7954 43.998 17.2248C44.4744 17.9014 44.8387 18.6503 45.077 19.4428C45.3347 20.4997 45.4394 21.5881 45.388 22.6748Z" fill="#564D4E"/>
</g>
</g>
<defs>
<clipPath id="clip0_26_1538">
<rect width="61" height="61.1538" fill="white" transform="translate(0 0.0771484)"/>
</clipPath>
</defs>
</svg>
