<svg width="51" height="51" viewBox="0 0 51 51" fill="none" xmlns="http://www.w3.org/2000/svg">
<g clip-path="url(#clip0_26_1330)">
<path d="M50 25.1538C50 38.6848 39.031 49.6538 25.5 49.6538C11.969 49.6538 1 38.6848 1 25.1538C1 11.6228 11.969 0.653809 25.5 0.653809C39.031 0.653809 50 11.6228 50 25.1538Z" stroke="#4FD482"/>
<path d="M39.91 22.1538C39.9103 22.2848 39.8839 22.4144 39.8323 22.5348C39.7807 22.6552 39.705 22.7637 39.61 22.8538L31.61 30.8538C31.4702 30.9909 31.2933 31.0839 31.1012 31.1213C30.909 31.1587 30.7101 31.139 30.5291 31.0644C30.3481 30.9899 30.193 30.8639 30.0829 30.702C29.9729 30.5402 29.9127 30.3495 29.91 30.1538V26.1538H26.41C25.3893 26.1538 24.4753 26.1851 23.668 26.2478C22.8599 26.3107 22.0564 26.4229 21.262 26.5838C20.5448 26.7193 19.8469 26.9423 19.184 27.2478C18.5884 27.5341 18.034 27.8994 17.536 28.3338C17.0247 28.7774 16.6007 29.3126 16.286 29.9118C15.9366 30.5955 15.6816 31.3235 15.528 32.0758C15.3362 33.006 15.2443 33.9541 15.254 34.9038C15.254 35.4765 15.28 36.1171 15.332 36.8258C15.338 36.9488 15.351 37.0713 15.371 37.1928C15.3929 37.3298 15.406 37.4681 15.41 37.6068C15.4147 37.7487 15.3674 37.8874 15.277 37.9968C15.2317 38.0491 15.1752 38.0904 15.1116 38.1176C15.048 38.1448 14.9791 38.1572 14.91 38.1538C14.8206 38.1496 14.7336 38.123 14.6571 38.0765C14.5806 38.0301 14.517 37.9652 14.472 37.8878C14.3924 37.7811 14.3253 37.6657 14.272 37.5438C14.21 37.4105 14.1396 37.2541 14.061 37.0748C13.9823 36.8955 13.9276 36.7705 13.897 36.6998C12.7784 34.5044 12.1032 32.1102 11.91 29.6538C11.8599 27.8841 12.1407 26.1205 12.738 24.4538C14.4253 20.2538 18.9826 18.1538 26.41 18.1538H29.91V14.1538C29.9097 14.0228 29.9361 13.8932 29.9877 13.7728C30.0393 13.6525 30.1149 13.5439 30.21 13.4538C30.3012 13.3607 30.4101 13.2867 30.5303 13.2362C30.6505 13.1857 30.7796 13.1597 30.91 13.1597C31.0404 13.1597 31.1694 13.1857 31.2896 13.2362C31.4098 13.2867 31.5187 13.3607 31.61 13.4538L39.61 21.4538C39.705 21.5439 39.7807 21.6524 39.8323 21.7728C39.8839 21.8932 39.9103 22.0228 39.91 22.1538Z" fill="#4FD482"/>
</g>
<defs>
<clipPath id="clip0_26_1330">
<rect width="50" height="50" fill="white" transform="translate(0.5 0.153809)"/>
</clipPath>
</defs>
</svg>
