<svg width="101" height="101" viewBox="0 0 101 101" fill="none" xmlns="http://www.w3.org/2000/svg">
<g clip-path="url(#clip0_1018_33)">
<path d="M81.8873 68.4055C82.2402 69.8058 82.6574 71.4736 83.0809 73.1398C84.4187 78.4034 85.7058 83.6807 87.1171 88.9247C88.0029 92.216 86.8075 94.6523 84.2743 96.5975C82.3612 98.0663 80.1743 98.8443 77.7296 98.8437C58.4495 98.8396 39.1693 98.849 19.8892 98.8341C16.6021 98.8314 13.8643 97.526 11.7278 95.0409C10.3583 93.448 9.8526 91.5987 10.3779 89.5232C12.1269 82.6132 13.8776 75.7039 15.6321 68.7953C15.6885 68.5737 15.7929 68.3644 15.7767 68.4071C17.9083 68.5181 19.8976 68.7093 21.887 68.7117C39.8364 68.735 57.7857 68.735 75.7348 68.7117C77.7243 68.7097 79.7133 68.5188 81.8873 68.4055Z" fill="#0F5EA2"/>
<path d="M48.9902 55.4719C58.8886 55.4725 68.7869 55.4627 78.685 55.4782C81.8347 55.4831 84.0746 57.857 83.9525 60.9828C83.8507 63.5918 81.6366 65.6932 78.8275 65.8441C78.6234 65.8551 78.4179 65.848 78.2133 65.848C58.6899 65.8482 39.1662 65.849 19.6428 65.8472C16.6934 65.847 14.7228 64.4348 14.0705 61.8728C13.2533 58.6631 15.6502 55.505 18.9882 55.485C24.6881 55.4508 30.3882 55.4723 36.0883 55.4713C40.3889 55.4707 44.6896 55.4713 48.9902 55.4719Z" fill="#0F5EA2"/>
<path d="M36.0377 52.2542C31.6701 52.2542 27.3022 52.237 22.935 52.2715C22.2344 52.2771 21.9217 52.0602 21.6927 51.4034C18.6032 42.5439 24.5458 32.8387 33.8426 31.5952C42.9623 30.3754 50.9056 37.0524 51.0958 46.2328C51.1317 47.9638 50.5859 49.7079 50.2981 51.4443C50.1906 52.0925 49.797 52.2738 49.1404 52.2693C44.7732 52.2401 40.4053 52.2542 36.0377 52.2542ZM35.9392 40.5432C37.4109 40.4504 38.7307 40.1066 39.4321 38.7439C39.6242 38.3709 39.4505 37.5154 39.1362 37.2617C38.8292 37.0137 37.9137 37.0415 37.6431 37.3173C36.9913 37.9818 36.2794 38.0368 35.4917 37.943C35.0243 37.8874 34.5734 37.7055 34.1111 37.5959C33.3593 37.4179 32.7234 37.5634 32.4602 38.37C32.1917 39.193 32.6632 39.7049 33.3722 39.9338C34.2064 40.2033 35.0817 40.3457 35.9392 40.5432Z" fill="#0F5EA2"/>
<path d="M10.9668 9.30055C11.9132 10.1462 12.7689 10.9737 13.6929 11.7166C14.455 12.3292 15.2712 12.2673 15.6486 11.6225C16.0814 10.8832 15.8104 10.3312 15.18 9.7705C14.2711 8.96223 13.4398 8.05788 12.6552 7.12737C12.4842 6.92438 12.5071 6.33218 12.6816 6.09812C17.7229 -0.664462 27.7443 -0.577789 32.6923 6.1574C32.848 6.36918 32.8488 6.90721 32.6884 7.10059C31.954 7.98654 31.1831 8.85512 30.3348 9.63109C29.5426 10.3558 29.2707 10.9821 29.7081 11.6117C30.1583 12.2595 30.9699 12.2804 31.8428 11.5602C32.7013 10.8519 33.491 10.0606 34.3123 9.30443C36.3779 13.6487 34.684 19.8506 30.5091 23.244C26.0934 26.8329 19.554 26.9172 15.0567 23.4426C10.6916 20.0708 8.92329 13.9349 10.9668 9.30055ZM18.2469 16.9685C18.3409 18.5922 19.1004 19.8392 20.5246 20.5879C21.1392 20.9109 21.4341 21.2147 21.449 21.9367C21.464 22.6587 21.9428 23.1432 22.7286 23.0892C23.443 23.0401 23.8874 22.59 23.8303 21.8801C23.7713 21.147 24.1723 20.9209 24.7216 20.6217C26.446 19.682 27.2026 18.1654 27.0799 16.2236C26.9656 14.4151 26.01 13.2845 24.0857 12.6614C23.3431 12.421 22.5435 12.3223 21.8427 12.0009C21.4046 11.8 20.9075 11.3627 20.7761 10.9292C20.3961 9.67647 21.0935 8.56627 22.2381 8.34673C23.4866 8.10735 24.4496 8.83979 24.621 10.2172C24.7265 11.0649 25.1283 11.577 26.0045 11.4823C26.8986 11.3858 27.1723 10.7372 27.0729 9.92832C26.878 8.33896 26.1093 7.08792 24.6556 6.38145C24.0816 6.10241 23.8188 5.81561 23.8514 5.17537C23.8886 4.4454 23.4309 3.99854 22.7471 3.95152C21.9936 3.8996 21.4669 4.37998 21.465 5.11119C21.463 5.84893 21.1168 6.13124 20.5346 6.45626C18.728 7.46466 18.0604 9.08938 18.2846 11.0976C18.4819 12.8642 19.5591 13.8859 21.2025 14.3816C21.8849 14.5874 22.5789 14.754 23.265 14.9482C24.0486 15.17 24.6022 15.5864 24.6341 16.4932C24.6671 17.4309 24.3507 18.1633 23.4811 18.583C22.2117 19.1956 20.9653 18.4344 20.706 16.8835C20.5745 16.0973 20.2649 15.4783 19.3545 15.5459C18.5177 15.6079 18.2084 16.1727 18.2469 16.9685Z" fill="#0F5EA2"/>
<path d="M81.8755 21.3388C79.3287 26.778 74.6957 29.9759 70.4473 27.9595C70.5503 23.7091 75.4973 20.8198 81.8755 21.3388Z" fill="#0F5EA2"/>
<path d="M55.5669 21.3588C61.08 20.9539 66.4763 22.7198 67.2157 27.9489C65.557 28.7349 63.8553 28.7714 62.1396 28.1196C60.022 27.3152 58.5161 25.7577 57.2336 23.9666C56.6655 23.1734 56.1786 22.3224 55.5669 21.3588Z" fill="#0F5EA2"/>
<path d="M68.9015 2.1077C72.3703 7.38824 72.724 12.5592 68.9407 15.342C65.2921 13.2702 65.2542 7.13681 68.9015 2.1077Z" fill="#0F5EA2"/>
<path d="M55.7446 35.0306C61.0644 34.5118 66.5891 36.4558 67.1894 41.5144C63.0153 43.7309 58.2641 40.3296 55.7446 35.0306Z" fill="#0F5EA2"/>
<path d="M70.3975 41.5831C70.9723 36.5395 76.3968 34.512 81.7728 35.0192C80.5389 39.93 74.5388 43.4173 70.3975 41.5831Z" fill="#0F5EA2"/>
<path d="M67.697 52.5992C67.697 51.6764 67.697 50.7663 67.697 49.8565C67.697 48.3237 67.7494 46.7884 67.6783 45.2589C67.6337 44.2983 68.3228 44.1487 68.9069 44.1317C69.4962 44.1146 70.1888 44.2411 70.1702 45.2059C70.1231 47.6496 70.1546 50.0946 70.1546 52.599C69.3116 52.5992 68.5772 52.5992 67.697 52.5992Z" fill="#0F5EA2"/>
<path d="M68.9278 37.5843C68.0369 36.6926 67.4978 35.649 67.676 34.2706C67.7842 33.4337 67.7727 32.5629 67.6764 31.7234C67.5611 30.717 68.2851 30.5083 68.9093 30.496C69.5274 30.484 70.2727 30.6602 70.1703 31.6706C70.0884 32.4791 70.0855 33.3094 70.1695 34.1175C70.3125 35.4918 69.9792 36.6621 68.9278 37.5843Z" fill="#0F5EA2"/>
<path d="M67.6969 18.5281C68.5859 18.5281 69.281 18.5281 70.0183 18.5281C70.5557 20.3028 70.169 22.465 68.9668 24.0098C67.0358 22.4597 67.8834 20.3366 67.6969 18.5281Z" fill="#0F5EA2"/>
</g>
<defs>
<clipPath id="clip0_1018_33">
<rect width="79.7939" height="98.7659" fill="white" transform="translate(10.1201 1.06595)"/>
</clipPath>
</defs>
</svg>
