<svg width="14" height="14" viewBox="0 0 14 14" fill="none" xmlns="http://www.w3.org/2000/svg">
<g clip-path="url(#clip0_556_2101)">
<path d="M9.33317 3.13523V3.9871L5.49004 9.33333C4.98325 8.69443 4.6665 7.75443 4.6665 6.74834V3.13523C4.6665 1.62242 5.40558 0.366642 6.40858 0.00679897C6.50888 -0.0299197 6.6039 0.08758 6.6039 0.227111V1.35804C6.6039 1.65914 6.78339 1.90882 6.99983 1.90882C7.21627 1.90882 7.39576 1.65914 7.39576 1.35804V0.227111C7.39576 0.08758 7.49078 -0.0299197 7.59108 0.00679897C8.5941 0.366642 9.33317 1.62242 9.33317 3.13523Z" fill="#26637F"/>
<path d="M12.4443 5.16663V6.31881C12.4443 9.26808 10.3365 11.6956 7.65639 11.9492V13.4927C7.65639 13.7753 7.44764 14 7.18501 14C6.92239 14 6.71363 13.7753 6.71363 13.4927V11.9492C5.97962 11.8768 5.28603 11.6449 4.6665 11.2753L5.36011 10.5289C5.91228 10.8043 6.53181 10.9637 7.18501 10.9637C9.56886 10.9637 11.5083 8.87677 11.5083 6.31881V5.16663C11.5083 4.89126 11.717 4.66663 11.9796 4.66663C12.2355 4.66663 12.4443 4.89126 12.4443 5.16663Z" fill="#26637F"/>
<path d="M13.8373 0.157539C13.6274 -0.0525132 13.2845 -0.0525132 13.0746 0.157539L3.66312 9.57489C2.9424 8.78369 2.50856 7.73343 2.50856 6.57814V5.46487C2.50856 5.1988 2.29164 4.98175 2.01874 4.98175C1.75284 4.98175 1.53592 5.1988 1.53592 5.46487V6.57814C1.53592 7.9995 2.08172 9.29482 2.97038 10.2681L0.157441 13.0828C-0.0524803 13.2928 -0.0524803 13.6359 0.157441 13.846C0.269399 13.944 0.402349 14 0.542296 14C0.682244 14 0.815194 13.944 0.920154 13.839L13.8373 0.913729C14.0542 0.703676 14.0542 0.367592 13.8373 0.157539Z" fill="#26637F"/>
</g>
<defs>
<clipPath id="clip0_556_2101">
<rect width="14" height="14" fill="white"/>
</clipPath>
</defs>
</svg>
