<svg width="25" height="24" viewBox="0 0 25 24" fill="none" xmlns="http://www.w3.org/2000/svg">
<path d="M22.5187 16.8203L19.3887 9.50027C18.8187 8.16027 17.9687 7.40027 16.9987 7.35027C16.0387 7.30027 15.1087 7.97027 14.3987 9.25027L12.4987 12.6603C12.0987 13.3803 11.5287 13.8103 10.9087 13.8603C10.2787 13.9203 9.64867 13.5903 9.13867 12.9403L8.91867 12.6603C8.20867 11.7703 7.32867 11.3403 6.42867 11.4303C5.52867 11.5203 4.75867 12.1403 4.24867 13.1503L2.51867 16.6003C1.89867 17.8503 1.95867 19.3003 2.68867 20.4803C3.41867 21.6603 4.68867 22.3703 6.07867 22.3703H18.8387C20.1787 22.3703 21.4287 21.7003 22.1687 20.5803C22.9287 19.4603 23.0487 18.0503 22.5187 16.8203Z" fill="white"/>
<path d="M7.46984 8.38109C9.33657 8.38109 10.8498 6.86782 10.8498 5.00109C10.8498 3.13437 9.33657 1.62109 7.46984 1.62109C5.60312 1.62109 4.08984 3.13437 4.08984 5.00109C4.08984 6.86782 5.60312 8.38109 7.46984 8.38109Z" fill="white"/>
</svg>
