<svg width="178" height="35" viewBox="0 0 178 35" fill="none" xmlns="http://www.w3.org/2000/svg">
<g clip-path="url(#clip0_548_2292)">
<path d="M8.28431 24.8825C11.7223 17.1521 2.81151 15.8604 2.49583 9.41232C2.30995 5.59359 5.59929 2.48073 9.42743 2.48073C11.0821 2.47988 12.6824 3.07162 13.9384 4.14877C15.1945 5.22593 16.0233 6.71728 16.2747 8.35274C16.3135 8.64404 16.456 8.91156 16.6763 9.1061C16.8966 9.30063 17.1797 9.40909 17.4735 9.41154H17.548C17.7224 9.411 17.8946 9.37296 18.053 9.29998C18.2114 9.22701 18.3522 9.12083 18.4659 8.98863C18.5796 8.85643 18.6635 8.70132 18.712 8.53381C18.7605 8.36631 18.7723 8.19034 18.7468 8.01785C18.4112 5.78671 17.2858 3.75018 15.5754 2.27872C13.865 0.807269 11.6833 -0.00133607 9.42703 1.65715e-06C4.22402 1.65715e-06 -0.18057 4.21833 0.00570038 9.42134C0.265694 16.5851 9.69682 18.8333 8.28431 24.8825Z" fill="#29B2A1"/>
<path d="M12.5208 18.2297L11.8796 16.3529L10.7926 18.6756L9.84675 15.7769L8.74089 17.9047H6.43506V18.3505H9.05539L9.75223 17.1427L10.7091 20.0324L11.8071 17.6815L12.3561 19.2893L13.0067 18.2486H15.8497L15.887 17.7839H12.7651L12.5208 18.2297Z" fill="#29B2A1"/>
<path d="M11.4338 8.00924C7.99585 15.7396 16.9066 17.0314 17.2223 23.4795C17.4082 27.2982 14.1188 30.411 10.2907 30.411C8.6357 30.4122 7.03507 29.8205 5.77869 28.7433C4.52231 27.666 3.6933 26.1744 3.44184 24.5386C3.40312 24.2474 3.26056 23.9799 3.04038 23.7854C2.82021 23.5909 2.53721 23.4824 2.24343 23.4798H2.16892C1.99483 23.4806 1.82295 23.5187 1.66488 23.5916C1.5068 23.6646 1.36624 23.7706 1.25269 23.9026C1.13914 24.0345 1.05526 24.1893 1.00672 24.3565C0.958172 24.5237 0.946102 24.6993 0.971317 24.8716C1.30677 27.1028 2.43199 29.1395 4.14232 30.6111C5.85264 32.0827 8.0344 32.8914 10.2907 32.8902C15.4937 32.8902 19.8983 28.6719 19.712 23.4689C19.4426 16.3051 10.0119 14.0573 11.4334 8.00806" fill="#26637F"/>
<path d="M46.478 24.4239C44.9307 24.4473 43.3987 24.1151 42 23.4529L42.758 21.5339C43.8774 22.1185 45.1202 22.4271 46.383 22.4339C48.752 22.4339 50.411 21.2489 50.411 19.1879C50.411 17.3159 48.776 16.4389 47.023 15.6809C44.701 14.6619 42.166 13.359 42.166 10.303C42.166 7.20295 44.512 5.27994 47.9 5.27994C49.3123 5.24412 50.7093 5.57891 51.952 6.25095L51.218 8.07493C50.23 7.5281 49.1248 7.22727 47.996 7.19791C45.911 7.19791 44.442 8.31195 44.442 10.2069C44.442 12.0549 46.266 12.9789 48.042 13.7609C50.222 14.7319 52.71 15.9609 52.71 19.0679C52.686 22.3379 50.151 24.4239 46.478 24.4239Z" fill="#26637F"/>
<path d="M71.215 24.1419V14.6169C71.231 14.2249 71.1628 13.834 71.0149 13.4706C70.8671 13.1072 70.643 12.7797 70.3578 12.5103C70.0726 12.2409 69.733 12.0357 69.3618 11.9087C68.9906 11.7816 68.5965 11.7357 68.206 11.7739C67.6501 11.7558 67.0964 11.8515 66.579 12.0553C66.0615 12.2591 65.5912 12.5666 65.197 12.9589V24.1419H63.065V14.2849C63.065 12.7209 61.765 11.7729 59.843 11.7729C58.9036 11.7636 57.971 11.9333 57.095 12.2729V24.1669H54.937V11.0169C56.4436 10.3787 58.0628 10.0485 59.699 10.0459C60.5006 9.98293 61.3063 10.0921 62.0622 10.3659C62.8182 10.6398 63.5068 11.0721 64.082 11.6339C65.3458 10.569 66.9559 10.0041 68.608 10.0459C71.451 10.0459 73.323 11.7759 73.323 14.4529V24.1669H71.214L71.215 24.1419Z" fill="#26637F"/>
<path d="M81.0942 24.424C77.3032 24.424 75.4082 22.813 75.4082 20.183C75.4082 16.226 79.6732 15.634 83.8432 15.397V14.355C83.8432 12.294 82.4922 11.655 80.5502 11.655C79.2497 11.6808 77.968 11.971 76.7832 12.508L76.2142 10.9919C77.6398 10.3608 79.1802 10.0303 80.7392 10.021C83.8392 10.021 85.8812 11.253 85.8812 14.547V23.456C84.3709 24.1103 82.7401 24.4401 81.0942 24.424ZM83.8432 16.889C80.7632 17.079 77.4222 17.2439 77.4222 20.1349C77.4222 21.7459 78.6302 22.812 81.0472 22.812C81.9972 22.8184 82.9423 22.6743 83.8472 22.3849L83.8432 16.889Z" fill="#26637F"/>
<path d="M94.577 11.918C94.1702 11.8483 93.7578 11.8165 93.345 11.823C92.4581 11.8117 91.5761 11.9558 90.739 12.249V24.1429H88.582V10.993C90.1831 10.337 91.8989 10.0069 93.629 10.022C94.0809 10.0249 94.5322 10.0566 94.98 10.1169L94.577 11.918Z" fill="#26637F"/>
<path d="M101.234 24.2819C98.9828 24.2819 97.5847 23.0499 97.5847 20.5379V11.9129H95.5947V10.3019H97.5847V6.96094L99.6697 6.27393V10.3019H102.655V11.9129H99.6697V20.4429C99.6503 20.7155 99.6921 20.9891 99.7921 21.2434C99.8921 21.4978 100.048 21.7265 100.248 21.9128C100.448 22.0991 100.687 22.2383 100.948 22.3202C101.208 22.4021 101.484 22.4245 101.755 22.3859C102.059 22.3894 102.362 22.3493 102.655 22.2669V24.0669C102.197 24.2183 101.716 24.291 101.234 24.2819Z" fill="#26637F"/>
<path d="M114.1 24.14V16.558H109.551V24.14H105.191V5.56396H109.551V13.004H114.1V5.56396H118.46V24.14H114.1Z" fill="#29B2A1"/>
<path d="M133.15 17.7669L124.525 18.9039C124.857 20.4199 126.16 21.1549 127.89 21.1549C129.24 21.1603 130.575 20.8691 131.799 20.3019L132.984 23.4299C131.261 24.1234 129.416 24.4635 127.558 24.4299C122.748 24.4299 120.402 21.3019 120.402 17.2029C120.402 12.9619 122.866 10.0029 127.036 10.0029C131.064 10.0029 133.22 12.7029 133.22 16.4949C133.198 16.9139 133.198 17.3399 133.15 17.7669ZM126.918 12.981C125.425 12.981 124.264 13.9999 124.241 16.2979L129.122 15.6819C129.122 13.9279 128.293 12.9799 126.919 12.9799L126.918 12.981Z" fill="#29B2A1"/>
<path d="M140.779 24.448C136.419 24.448 134.263 22.8369 134.263 19.8749C134.263 16.2019 138.007 15.349 142.2 15.136V14.5909C142.2 13.4769 141.442 12.98 140 12.98C138.648 13.0261 137.316 13.315 136.067 13.8329L135.048 11.0129C136.798 10.3562 138.651 10.0175 140.521 10.0129C144.288 10.0129 146.184 11.458 146.184 15.131V23.4709C144.462 24.1409 142.626 24.4727 140.779 24.448ZM142.201 17.766C139.926 17.861 138.201 18.121 138.201 19.756C138.201 20.893 139.149 21.509 140.665 21.509C141.186 21.519 141.706 21.4471 142.205 21.296L142.201 17.766Z" fill="#29B2A1"/>
<path d="M148.953 24.14V4H153.194V24.14H148.953Z" fill="#29B2A1"/>
<path d="M160.99 24.3761C158.123 24.3761 156.915 22.8121 156.915 19.7081V13.4771H155.28V10.3261H156.915V7.36414L161.061 6.20312V10.3031H163.48V13.4541H161.063V19.3771C161.063 20.3251 161.632 20.6331 162.414 20.6331C162.776 20.6386 163.133 20.5573 163.456 20.3961V23.8792C162.682 24.2275 161.839 24.3973 160.99 24.3761Z" fill="#29B2A1"/>
<path d="M173.501 24.14V15.231C173.501 13.999 172.838 13.359 171.511 13.359C170.979 13.3703 170.455 13.4911 169.971 13.714V24.14H165.729V4H169.97V10.658C170.816 10.2921 171.726 10.0987 172.647 10.089C175.964 10.089 177.765 11.748 177.765 14.804V24.139L173.501 24.14Z" fill="#29B2A1"/>
<path d="M153.407 34.8961L150.683 30.3671C150.511 30.0784 150.361 29.7776 150.233 29.467H150.209C150.209 29.467 150.233 29.988 150.233 30.467V34.8981H148.953V27.2671H150.232L152.909 31.6741C153.075 31.9658 153.225 32.2662 153.359 32.574H153.383C153.383 32.574 153.359 32.0291 153.359 31.5551V27.2671H154.638V34.873L153.406 34.8971L153.407 34.8961Z" fill="#26637F"/>
<path d="M156.037 34.897V27.2681H160.112V28.5001H157.506V30.4191H159.852V31.6511H157.506V33.668H160.112V34.9L156.037 34.897Z" fill="#26637F"/>
<path d="M163.454 31.9829C163.216 31.9823 162.979 31.9666 162.743 31.9359V34.8979H161.274V27.5489C161.972 27.2676 162.721 27.1315 163.474 27.1489C165.374 27.1489 166.412 28.0969 166.412 29.5889C166.439 30.9399 165.42 31.9829 163.454 31.9829ZM163.525 28.2629C163.26 28.2599 162.996 28.2998 162.743 28.3809V30.7979C162.955 30.829 163.169 30.8447 163.383 30.8449C164.426 30.8449 164.994 30.3709 164.994 29.5659C164.994 28.6889 164.474 28.2629 163.525 28.2629Z" fill="#26637F"/>
<path d="M171.533 34.897L170.964 33.1201H168.334L167.789 34.897H166.226L168.785 27.2681H170.538L173.097 34.897H171.533ZM169.874 29.397C169.779 29.095 169.708 28.786 169.661 28.473H169.637C169.59 28.786 169.519 29.095 169.424 29.397L168.618 32.0031H170.656L169.874 29.397Z" fill="#26637F"/>
<path d="M173.879 34.897V27.2681H175.372V33.668H177.741V34.9L173.879 34.897Z" fill="#26637F"/>
</g>
<defs>
<clipPath id="clip0_548_2292">
<rect width="177.765" height="34.9" fill="white"/>
</clipPath>
</defs>
</svg>
