<svg width="50" height="50" viewBox="0 0 50 50" fill="none" xmlns="http://www.w3.org/2000/svg">
<g clip-path="url(#clip0_548_2215)">
<g filter="url(#filter0_b_548_2215)">
<rect x="0.73584" y="0.218506" width="49.0197" height="49.0197" rx="24.5099" fill="#131517" fill-opacity="0.63"/>
</g>
<path d="M29.0056 19.981V20.9682L22.81 27.1637C21.9931 26.4233 21.4824 25.334 21.4824 24.1681V19.981C21.4824 18.2278 22.6739 16.7725 24.2908 16.3555C24.4525 16.313 24.6057 16.4491 24.6057 16.6108V17.9214C24.6057 18.2704 24.8951 18.5597 25.244 18.5597C25.5929 18.5597 25.8823 18.2704 25.8823 17.9214V16.6108C25.8823 16.4491 26.0355 16.313 26.1971 16.3555C27.8141 16.7725 29.0056 18.2278 29.0056 19.981Z" fill="white"/>
<path d="M31.8939 22.8655V24.2187C31.8939 27.6824 29.2302 30.5334 25.843 30.8313V32.644C25.843 32.9759 25.5792 33.2397 25.2473 33.2397C24.9154 33.2397 24.6516 32.9759 24.6516 32.644V30.8313C23.724 30.7461 22.8474 30.4738 22.0645 30.0398L22.941 29.1632C23.6389 29.4866 24.4218 29.6738 25.2473 29.6738C28.26 29.6738 30.711 27.2229 30.711 24.2187V22.8655C30.711 22.5421 30.9748 22.2783 31.3067 22.2783C31.6301 22.2783 31.8939 22.5421 31.8939 22.8655Z" fill="white"/>
<path d="M29.0058 23.0928V24.3268C29.0058 26.5225 27.1165 28.2841 24.8697 28.0713C24.6314 28.0458 24.3931 28.0033 24.1719 27.9267L29.0058 23.0928Z" fill="white"/>
<path d="M33.5612 16.4129C33.3059 16.1576 32.8889 16.1576 32.6336 16.4129L21.1871 27.8594C20.3105 26.8977 19.7829 25.6211 19.7829 24.2169V22.8638C19.7829 22.5404 19.5191 22.2766 19.1872 22.2766C18.8638 22.2766 18.6 22.5404 18.6 22.8638V24.2169C18.6 25.9445 19.2638 27.5189 20.3446 28.7019L16.9234 32.1231C16.6681 32.3784 16.6681 32.7954 16.9234 33.0507C17.0596 33.1698 17.2213 33.2379 17.3915 33.2379C17.5617 33.2379 17.7234 33.1698 17.851 33.0422L33.5612 17.332C33.825 17.0767 33.825 16.6682 33.5612 16.4129Z" fill="white"/>
</g>
<defs>
<filter id="filter0_b_548_2215" x="-5.26416" y="-5.78149" width="61.0195" height="61.0198" filterUnits="userSpaceOnUse" color-interpolation-filters="sRGB">
<feFlood flood-opacity="0" result="BackgroundImageFix"/>
<feGaussianBlur in="BackgroundImageFix" stdDeviation="3"/>
<feComposite in2="SourceAlpha" operator="in" result="effect1_backgroundBlur_548_2215"/>
<feBlend mode="normal" in="SourceGraphic" in2="effect1_backgroundBlur_548_2215" result="shape"/>
</filter>
<clipPath id="clip0_548_2215">
<rect width="49.0197" height="49.0197" fill="white" transform="translate(0.73584 0.218506)"/>
</clipPath>
</defs>
</svg>
