<svg width="29" height="30" viewBox="0 0 29 30" fill="none" xmlns="http://www.w3.org/2000/svg">
<g clip-path="url(#clip0_559_2110)">
<path d="M22.6417 17.9152L21.471 15.9717C21.2251 15.5386 21.0027 14.7191 21.0027 14.2391V11.2771C21.0027 8.52589 19.3871 6.14931 17.0573 5.03711C16.4486 3.96004 15.3247 3.29272 14.0369 3.29272C12.7608 3.29272 11.6135 3.98346 11.0047 5.07224C8.72178 6.20785 7.14129 8.56102 7.14129 11.2771V14.2391C7.14129 14.7191 6.91885 15.5386 6.673 15.96L5.49056 17.9152C5.02226 18.6996 4.9169 19.5659 5.20958 20.362C5.49056 21.1464 6.15787 21.7552 7.02422 22.0478C9.29544 22.8205 11.6837 23.1952 14.072 23.1952C16.4603 23.1952 18.8486 22.8205 21.1198 22.0596C21.9393 21.7903 22.5715 21.1698 22.8759 20.362C23.1803 19.5542 23.0983 18.6644 22.6417 17.9152Z" fill="#26637F"/>
<path d="M17.3617 24.3774C16.87 25.7355 15.5705 26.7072 14.0485 26.7072C13.1237 26.7072 12.2105 26.3326 11.5666 25.6652C11.1919 25.314 10.911 24.8457 10.7471 24.3657C10.8993 24.3891 11.0515 24.4008 11.2154 24.4243C11.4846 24.4594 11.7656 24.4945 12.0466 24.5179C12.7139 24.5765 13.3929 24.6116 14.072 24.6116C14.7393 24.6116 15.4066 24.5765 16.0622 24.5179C16.3081 24.4945 16.5539 24.4828 16.7881 24.4477C16.9754 24.4243 17.1627 24.4008 17.3617 24.3774Z" fill="#26637F"/>
<path d="M19.9023 11.4878C22.4887 11.4878 24.5853 9.39121 24.5853 6.80492C24.5853 4.21863 22.4887 2.12199 19.9023 2.12199C17.316 2.12199 15.2194 4.21863 15.2194 6.80492C15.2194 9.39121 17.316 11.4878 19.9023 11.4878Z" fill="url(#paint0_linear_559_2110)" stroke="#1F2227" stroke-width="2.34146"/>
</g>
<defs>
<linearGradient id="paint0_linear_559_2110" x1="16.3901" y1="3.29272" x2="24.1413" y2="4.21601" gradientUnits="userSpaceOnUse">
<stop stop-color="#4285F4"/>
<stop offset="1" stop-color="#186EFC"/>
</linearGradient>
<clipPath id="clip0_559_2110">
<rect width="28.0976" height="28.0976" fill="white" transform="translate(0 0.951172)"/>
</clipPath>
</defs>
</svg>
