<svg width="18" height="16" viewBox="0 0 18 16" fill="none" xmlns="http://www.w3.org/2000/svg">
<path d="M17.0521 2.76689C16.7032 2.57966 15.9713 2.38392 14.9756 3.08177L13.7246 3.96685C13.6309 1.32013 12.482 0.28186 9.69064 0.28186H4.58442C1.67387 0.28186 0.541992 1.41374 0.541992 4.32429V11.1326C0.541992 13.09 1.60579 15.175 4.58442 15.175H9.69064C12.482 15.175 13.6309 14.1367 13.7246 11.49L14.9756 12.3751C15.5032 12.7496 15.9628 12.8687 16.3287 12.8687C16.6436 12.8687 16.8904 12.7751 17.0521 12.69C17.401 12.5113 17.9883 12.0262 17.9883 10.8092V4.64768C17.9883 3.4307 17.401 2.94561 17.0521 2.76689ZM8.41408 7.20079C7.53752 7.20079 6.81413 6.48592 6.81413 5.60084C6.81413 4.71576 7.53752 4.00089 8.41408 4.00089C9.29065 4.00089 10.014 4.71576 10.014 5.60084C10.014 6.48592 9.29065 7.20079 8.41408 7.20079Z" fill="white"/>
</svg>
