<svg width="10" height="10" viewBox="0 0 10 10" fill="none" xmlns="http://www.w3.org/2000/svg">
<path d="M9.46341 2.00171C9.26341 1.88857 8.8439 1.77029 8.27317 2.192L7.5561 2.72686C7.50244 1.12743 6.8439 0.5 5.2439 0.5H2.31707C0.64878 0.5 0 1.184 0 2.94286V7.05714C0 8.24 0.609756 9.5 2.31707 9.5H5.2439C6.8439 9.5 7.50244 8.87257 7.5561 7.27314L8.27317 7.808C8.57561 8.03429 8.83902 8.10629 9.04878 8.10629C9.22927 8.10629 9.37073 8.04971 9.46341 7.99829C9.66341 7.89029 10 7.59714 10 6.86171V3.13829C10 2.40286 9.66341 2.10971 9.46341 2.00171ZM4.5122 4.68114C4.00976 4.68114 3.59512 4.24914 3.59512 3.71429C3.59512 3.17943 4.00976 2.74743 4.5122 2.74743C5.01463 2.74743 5.42927 3.17943 5.42927 3.71429C5.42927 4.24914 5.01463 4.68114 4.5122 4.68114Z" fill="#26637F"/>
</svg>
