<svg width="9" height="10" viewBox="0 0 9 10" fill="none" xmlns="http://www.w3.org/2000/svg">
<path d="M7.92621 0.216232C7.23103 -0.14462 6.34345 -0.0514969 5.43724 0.478141L3.62483 1.54324C3.50069 1.61308 3.35793 1.65382 3.21517 1.65382H2.63793H2.32759C0.825517 1.65382 0 2.42791 0 3.83641V6.16449C0 7.57298 0.825517 8.34706 2.32759 8.34706H2.63793H3.21517C3.35793 8.34706 3.50069 8.38781 3.62483 8.45765L5.43724 9.52274C5.98345 9.84286 6.51724 10 7.01379 10C7.33655 10 7.6469 9.93016 7.92621 9.78465C8.61517 9.4238 9 8.673 9 7.67192V2.32897C9 1.32789 8.61517 0.577085 7.92621 0.216232Z" fill="#26637F"/>
</svg>
