<svg width="40" height="40" viewBox="0 0 40 40" fill="none" xmlns="http://www.w3.org/2000/svg">
<rect width="40" height="40" rx="8" fill="#1E2745"/>
<path d="M27.1197 17.1194C26.7297 17.1194 26.4197 17.4294 26.4197 17.8194V19.3994C26.4197 22.9394 23.5397 25.8194 19.9997 25.8194C16.4597 25.8194 13.5797 22.9394 13.5797 19.3994V17.8094C13.5797 17.4194 13.2697 17.1094 12.8797 17.1094C12.4897 17.1094 12.1797 17.4194 12.1797 17.8094V19.3894C12.1797 23.4594 15.3097 26.8094 19.2997 27.1694V29.2994C19.2997 29.6894 19.6097 29.9994 19.9997 29.9994C20.3897 29.9994 20.6997 29.6894 20.6997 29.2994V27.1694C24.6797 26.8194 27.8197 23.4594 27.8197 19.3894V17.8094C27.8097 17.4294 27.4997 17.1194 27.1197 17.1194Z" fill="#F2F2F2"/>
<path d="M19.9981 10C17.5581 10 15.5781 11.98 15.5781 14.42V19.54C15.5781 21.98 17.5581 23.96 19.9981 23.96C22.4381 23.96 24.4181 21.98 24.4181 19.54V14.42C24.4181 11.98 22.4381 10 19.9981 10ZM21.3081 16.95C21.2381 17.21 21.0081 17.38 20.7481 17.38C20.6981 17.38 20.6481 17.37 20.5981 17.36C20.2081 17.25 19.7981 17.25 19.4081 17.36C19.0881 17.45 18.7781 17.26 18.6981 16.95C18.6081 16.64 18.7981 16.32 19.1081 16.24C19.6981 16.08 20.3181 16.08 20.9081 16.24C21.2081 16.32 21.3881 16.64 21.3081 16.95ZM21.8381 15.01C21.7481 15.25 21.5281 15.39 21.2881 15.39C21.2181 15.39 21.1581 15.38 21.0881 15.36C20.3881 15.1 19.6081 15.1 18.9081 15.36C18.6081 15.47 18.2681 15.31 18.1581 15.01C18.0481 14.71 18.2081 14.37 18.5081 14.27C19.4681 13.92 20.5281 13.92 21.4881 14.27C21.7881 14.38 21.9481 14.71 21.8381 15.01Z" fill="#F2F2F2"/>
</svg>
