<svg width="66" height="66" viewBox="0 0 66 66" fill="none" xmlns="http://www.w3.org/2000/svg">
<g filter="url(#filter0_d_528_2458)">
<circle cx="33" cy="33" r="9" fill="#4FD482"/>
</g>
<path fill-rule="evenodd" clip-rule="evenodd" d="M29.7401 33.1531C29.8029 33.1531 29.8633 33.1781 29.9077 33.2226C29.9522 33.2671 29.9772 33.3274 29.9772 33.3903V35.0504C29.9775 35.176 30.0276 35.2963 30.1165 35.385C30.2054 35.4737 30.3258 35.5235 30.4514 35.5235H36.1432C36.269 35.5235 36.3896 35.4735 36.4785 35.3846C36.5675 35.2957 36.6174 35.175 36.6174 35.0493V33.3903C36.6174 33.3274 36.6424 33.2671 36.6869 33.2226C36.7313 33.1781 36.7917 33.1531 36.8545 33.1531C36.9174 33.1531 36.9777 33.1781 37.0222 33.2226C37.0667 33.2671 37.0917 33.3274 37.0917 33.3903V35.0504C37.0917 35.3019 36.9917 35.5432 36.8139 35.7211C36.636 35.8989 36.3947 35.9989 36.1432 35.9989H30.4514C30.1999 35.9989 29.9586 35.8989 29.7807 35.7211C29.6029 35.5432 29.5029 35.3019 29.5029 35.0504V33.3903C29.5029 33.3274 29.5279 33.2671 29.5724 33.2226C29.6168 33.1781 29.6772 33.1531 29.7401 33.1531ZM31.8744 31.6608C31.9189 31.7052 31.9792 31.7302 32.0421 31.7302C32.1049 31.7302 32.1652 31.7052 32.2097 31.6608L33.298 30.5731L34.3855 31.6605C34.4073 31.6832 34.4335 31.7013 34.4624 31.7138C34.4914 31.7263 34.5225 31.7329 34.554 31.7332C34.5855 31.7335 34.6168 31.7275 34.646 31.7155C34.6752 31.7036 34.7017 31.686 34.7239 31.6637C34.7462 31.6414 34.7639 31.6149 34.7758 31.5857C34.7877 31.5566 34.7937 31.5253 34.7934 31.4938C34.7931 31.4623 34.7865 31.4311 34.774 31.4022C34.7616 31.3732 34.7434 31.3471 34.7207 31.3252L33.4652 30.0697C33.4432 30.0476 33.417 30.0301 33.3882 30.0181C33.3594 30.0062 33.3285 30 33.2973 30C33.2661 30 33.2352 30.0062 33.2064 30.0181C33.1776 30.0301 33.1514 30.0476 33.1294 30.0697L31.8739 31.3252C31.8518 31.3472 31.8342 31.3734 31.8223 31.4022C31.8103 31.4311 31.8041 31.4619 31.8041 31.4931C31.8041 31.5243 31.8103 31.5552 31.8223 31.5841C31.8342 31.6129 31.8518 31.639 31.8739 31.6611L31.8744 31.6608Z" fill="white"/>
<path fill-rule="evenodd" clip-rule="evenodd" d="M33.2972 30.3074C33.3601 30.3074 33.4204 30.3324 33.4648 30.3768C33.5093 30.4213 33.5343 30.4816 33.5343 30.5445V34.3396C33.5343 34.4025 33.5093 34.4628 33.4648 34.5072C33.4204 34.5517 33.3601 34.5767 33.2972 34.5767C33.2343 34.5767 33.174 34.5517 33.1295 34.5072C33.085 34.4628 33.0601 34.4025 33.0601 34.3396V30.5445C33.0601 30.4816 33.085 30.4213 33.1295 30.3768C33.174 30.3324 33.2343 30.3074 33.2972 30.3074Z" fill="white"/>
<defs>
<filter id="filter0_d_528_2458" x="0" y="0" width="66" height="66" filterUnits="userSpaceOnUse" color-interpolation-filters="sRGB">
<feFlood flood-opacity="0" result="BackgroundImageFix"/>
<feColorMatrix in="SourceAlpha" type="matrix" values="0 0 0 0 0 0 0 0 0 0 0 0 0 0 0 0 0 0 127 0" result="hardAlpha"/>
<feOffset/>
<feGaussianBlur stdDeviation="12"/>
<feComposite in2="hardAlpha" operator="out"/>
<feColorMatrix type="matrix" values="0 0 0 0 0.160784 0 0 0 0 0.517647 0 0 0 0 1 0 0 0 0.56 0"/>
<feBlend mode="normal" in2="BackgroundImageFix" result="effect1_dropShadow_528_2458"/>
<feBlend mode="normal" in="SourceGraphic" in2="effect1_dropShadow_528_2458" result="shape"/>
</filter>
</defs>
</svg>
