<svg width="48" height="48" viewBox="0 0 48 48" fill="none" xmlns="http://www.w3.org/2000/svg">
<g filter="url(#filter0_b_528_2415)">
<rect width="48" height="48" rx="24" fill="#131517" fill-opacity="0.63"/>
</g>
<path d="M27.6816 19.3513V20.318L21.6149 26.3846C20.8149 25.6596 20.3149 24.593 20.3149 23.4513V19.3513C20.3149 17.6346 21.4816 16.2096 23.0649 15.8013C23.2233 15.7596 23.3733 15.893 23.3733 16.0513V17.3346C23.3733 17.6763 23.6566 17.9596 23.9983 17.9596C24.3399 17.9596 24.6233 17.6763 24.6233 17.3346V16.0513C24.6233 15.893 24.7733 15.7596 24.9316 15.8013C26.5149 16.2096 27.6816 17.6346 27.6816 19.3513Z" fill="white"/>
<path d="M30.5097 22.176V23.501C30.5097 26.8926 27.9014 29.6843 24.5847 29.976V31.751C24.5847 32.076 24.3264 32.3343 24.0014 32.3343C23.6764 32.3343 23.4181 32.076 23.4181 31.751V29.976C22.5097 29.8926 21.6514 29.626 20.8848 29.201L21.7431 28.3426C22.4264 28.6593 23.1931 28.8426 24.0014 28.8426C26.9514 28.8426 29.3514 26.4426 29.3514 23.501V22.176C29.3514 21.8593 29.6097 21.601 29.9347 21.601C30.2514 21.601 30.5097 21.8593 30.5097 22.176Z" fill="white"/>
<path d="M27.6821 22.3984V23.6068C27.6821 25.7568 25.8321 27.4818 23.6321 27.2734C23.3987 27.2484 23.1654 27.2068 22.9487 27.1318L27.6821 22.3984Z" fill="white"/>
<path d="M32.1427 15.8574C31.8927 15.6074 31.4844 15.6074 31.2344 15.8574L20.0261 27.0657C19.1677 26.1241 18.6511 24.8741 18.6511 23.4991V22.1741C18.6511 21.8574 18.3927 21.5991 18.0677 21.5991C17.7511 21.5991 17.4927 21.8574 17.4927 22.1741V23.4991C17.4927 25.1907 18.1427 26.7324 19.2011 27.8907L15.8511 31.2407C15.6011 31.4907 15.6011 31.8991 15.8511 32.1491C15.9844 32.2657 16.1427 32.3324 16.3094 32.3324C16.4761 32.3324 16.6344 32.2657 16.7594 32.1407L32.1427 16.7574C32.4011 16.5074 32.4011 16.1074 32.1427 15.8574Z" fill="white"/>
<defs>
<filter id="filter0_b_528_2415" x="-6" y="-6" width="60" height="60" filterUnits="userSpaceOnUse" color-interpolation-filters="sRGB">
<feFlood flood-opacity="0" result="BackgroundImageFix"/>
<feGaussianBlur in="BackgroundImageFix" stdDeviation="3"/>
<feComposite in2="SourceAlpha" operator="in" result="effect1_backgroundBlur_528_2415"/>
<feBlend mode="normal" in="SourceGraphic" in2="effect1_backgroundBlur_528_2415" result="shape"/>
</filter>
</defs>
</svg>
