<svg width="22" height="22" viewBox="0 0 22 22" fill="none" xmlns="http://www.w3.org/2000/svg">
<path d="M14.841 1.83337H7.15933C3.82266 1.83337 1.8335 3.82254 1.8335 7.15921V14.8317C1.8335 18.1775 3.82266 20.1667 7.15933 20.1667H14.8318C18.1685 20.1667 20.1577 18.1775 20.1577 14.8409V7.15921C20.1668 3.82254 18.1777 1.83337 14.841 1.83337ZM10.5693 12.4025L7.15933 15.8125H9.16683C9.54266 15.8125 9.85433 16.1242 9.85433 16.5C9.85433 16.8759 9.54266 17.1875 9.16683 17.1875H5.50016C5.4085 17.1875 5.31683 17.1692 5.23433 17.1325C5.06933 17.0592 4.93183 16.9309 4.8585 16.7567C4.831 16.6742 4.81266 16.5917 4.81266 16.5V12.8334C4.81266 12.4575 5.12433 12.1459 5.50016 12.1459C5.876 12.1459 6.18766 12.4575 6.18766 12.8334V14.8409L9.59766 11.4309C9.8635 11.165 10.3035 11.165 10.5693 11.4309C10.8352 11.6967 10.8352 12.1367 10.5693 12.4025ZM17.1877 9.16671C17.1877 9.54254 16.876 9.85421 16.5002 9.85421C16.1243 9.85421 15.8127 9.54254 15.8127 9.16671V7.15921L12.4027 10.5692C12.2652 10.7067 12.091 10.7709 11.9168 10.7709C11.7427 10.7709 11.5685 10.7067 11.431 10.5692C11.1652 10.3034 11.1652 9.86337 11.431 9.59754L14.841 6.18754H12.8335C12.4577 6.18754 12.146 5.87587 12.146 5.50004C12.146 5.12421 12.4577 4.81254 12.8335 4.81254H16.5002C16.5918 4.81254 16.6743 4.83087 16.766 4.86754C16.931 4.94087 17.0685 5.06921 17.1418 5.24337C17.1693 5.32587 17.1877 5.40837 17.1877 5.50004V9.16671Z" fill="white"/>
</svg>
