<svg width="29" height="29" viewBox="0 0 29 29" fill="none" xmlns="http://www.w3.org/2000/svg">
<path d="M22.6417 16.964L21.471 15.0206C21.2251 14.5874 21.0027 13.7679 21.0027 13.2879V10.3259C21.0027 7.57472 19.3871 5.19814 17.0573 4.08594C16.4486 3.00887 15.3247 2.34155 14.0369 2.34155C12.7608 2.34155 11.6135 3.03228 11.0047 4.12106C8.72178 5.25667 7.14129 7.60984 7.14129 10.3259V13.2879C7.14129 13.7679 6.91885 14.5874 6.673 15.0089L5.49056 16.964C5.02226 17.7484 4.9169 18.6147 5.20958 19.4108C5.49056 20.1952 6.15787 20.804 7.02422 21.0967C9.29544 21.8694 11.6837 22.244 14.072 22.244C16.4603 22.244 18.8486 21.8694 21.1198 21.1084C21.9393 20.8391 22.5715 20.2186 22.8759 19.4108C23.1803 18.603 23.0983 17.7133 22.6417 16.964Z" fill="#26637F"/>
<path d="M17.3617 23.4263C16.87 24.7843 15.5705 25.756 14.0485 25.756C13.1237 25.756 12.2105 25.3814 11.5666 24.7141C11.1919 24.3628 10.911 23.8946 10.7471 23.4146C10.8993 23.438 11.0515 23.4497 11.2154 23.4731C11.4846 23.5082 11.7656 23.5433 12.0466 23.5667C12.7139 23.6253 13.3929 23.6604 14.072 23.6604C14.7393 23.6604 15.4066 23.6253 16.0622 23.5667C16.3081 23.5433 16.5539 23.5316 16.7881 23.4965C16.9754 23.4731 17.1627 23.4497 17.3617 23.4263Z" fill="#26637F"/>
<path d="M19.9023 10.5367C22.4887 10.5367 24.5853 8.44004 24.5853 5.85375C24.5853 3.26746 22.4887 1.17082 19.9023 1.17082C17.316 1.17082 15.2194 3.26746 15.2194 5.85375C15.2194 8.44004 17.316 10.5367 19.9023 10.5367Z" fill="url(#paint0_linear_528_2590)" stroke="#1F2227" stroke-width="2.34146"/>
<defs>
<linearGradient id="paint0_linear_528_2590" x1="16.3901" y1="2.34155" x2="24.1413" y2="3.26484" gradientUnits="userSpaceOnUse">
<stop stop-color="#4285F4"/>
<stop offset="1" stop-color="#186EFC"/>
</linearGradient>
</defs>
</svg>
