<svg width="24" height="24" viewBox="0 0 24 24" fill="none" xmlns="http://www.w3.org/2000/svg">
<path d="M17.5291 7.77C17.4591 7.76 17.3891 7.76 17.3191 7.77C15.7691 7.72 14.5391 6.45 14.5391 4.89C14.5391 3.3 15.8291 2 17.4291 2C19.0191 2 20.3191 3.29 20.3191 4.89C20.3091 6.45 19.0791 7.72 17.5291 7.77Z" fill="url(#paint0_linear_528_2461)"/>
<path d="M20.7916 14.7004C19.6716 15.4504 18.1016 15.7304 16.6516 15.5404C17.0316 14.7204 17.2316 13.8104 17.2416 12.8504C17.2416 11.8504 17.0216 10.9004 16.6016 10.0704C18.0816 9.8704 19.6516 10.1504 20.7816 10.9004C22.3616 11.9404 22.3616 13.6504 20.7916 14.7004Z" fill="url(#paint1_linear_528_2461)"/>
<path d="M6.44016 7.77C6.51016 7.76 6.58016 7.76 6.65016 7.77C8.20016 7.72 9.43016 6.45 9.43016 4.89C9.43016 3.29 8.14016 2 6.54016 2C4.95016 2 3.66016 3.29 3.66016 4.89C3.66016 6.45 4.89016 7.72 6.44016 7.77Z" fill="url(#paint2_linear_528_2461)"/>
<path d="M6.55109 12.8506C6.55109 13.8206 6.76109 14.7406 7.14109 15.5706C5.73109 15.7206 4.26109 15.4206 3.18109 14.7106C1.60109 13.6606 1.60109 11.9506 3.18109 10.9006C4.25109 10.1806 5.76109 9.89059 7.18109 10.0506C6.77109 10.8906 6.55109 11.8406 6.55109 12.8506Z" fill="url(#paint3_linear_528_2461)"/>
<path d="M12.1208 15.87C12.0408 15.86 11.9508 15.86 11.8608 15.87C10.0208 15.81 8.55078 14.3 8.55078 12.44C8.56078 10.54 10.0908 9 12.0008 9C13.9008 9 15.4408 10.54 15.4408 12.44C15.4308 14.3 13.9708 15.81 12.1208 15.87Z" fill="url(#paint4_linear_528_2461)"/>
<path d="M8.87078 17.9406C7.36078 18.9506 7.36078 20.6106 8.87078 21.6106C10.5908 22.7606 13.4108 22.7606 15.1308 21.6106C16.6408 20.6006 16.6408 18.9406 15.1308 17.9406C13.4208 16.7906 10.6008 16.7906 8.87078 17.9406Z" fill="url(#paint5_linear_528_2461)"/>
<defs>
<linearGradient id="paint0_linear_528_2461" x1="20.5329" y1="4.885" x2="13.8686" y2="4.885" gradientUnits="userSpaceOnUse">
<stop stop-color="#58D876"/>
<stop offset="1" stop-color="#32C6A8"/>
</linearGradient>
<linearGradient id="paint1_linear_528_2461" x1="22.1664" y1="12.8029" x2="15.9791" y2="12.8029" gradientUnits="userSpaceOnUse">
<stop stop-color="#58D876"/>
<stop offset="1" stop-color="#32C6A8"/>
</linearGradient>
<linearGradient id="paint2_linear_528_2461" x1="9.64365" y1="4.885" x2="2.99084" y2="4.885" gradientUnits="userSpaceOnUse">
<stop stop-color="#58D876"/>
<stop offset="1" stop-color="#32C6A8"/>
</linearGradient>
<linearGradient id="paint3_linear_528_2461" x1="7.37294" y1="12.808" x2="1.39463" y2="12.808" gradientUnits="userSpaceOnUse">
<stop stop-color="#58D876"/>
<stop offset="1" stop-color="#32C6A8"/>
</linearGradient>
<linearGradient id="paint4_linear_528_2461" x1="15.6957" y1="12.435" x2="7.75154" y2="12.435" gradientUnits="userSpaceOnUse">
<stop stop-color="#58D876"/>
<stop offset="1" stop-color="#32C6A8"/>
</linearGradient>
<linearGradient id="paint5_linear_528_2461" x1="16.5787" y1="19.7756" x2="6.74938" y2="19.7756" gradientUnits="userSpaceOnUse">
<stop stop-color="#58D876"/>
<stop offset="1" stop-color="#32C6A8"/>
</linearGradient>
</defs>
</svg>
