<svg width="32" height="11" viewBox="0 0 32 11" fill="none" xmlns="http://www.w3.org/2000/svg">
<path d="M1.3469 9.98943C1.01861 9.72518 0.752338 9.39633 0.575235 9.0104C0.398131 8.62446 0.283736 8.21741 0.249837 7.77493C0.193188 7.0278 0.317799 6.35498 0.63234 5.7348C0.937987 5.12179 1.39754 4.56107 2.02011 4.05997C2.92728 3.3298 4.11558 2.72568 5.58523 2.26211C7.05488 1.79855 8.67956 1.45976 10.4504 1.25291C12.2392 1.04625 14.0567 0.948596 15.921 0.960136C17.7855 0.986175 19.6066 1.1205 21.3844 1.36311C23.1534 1.61288 24.78 1.97718 26.2374 2.463C27.7039 2.95616 28.9114 3.58442 29.8598 4.34779C30.4799 4.84691 30.9659 5.40992 31.2997 6.02213C31.6425 6.64167 31.8152 7.32474 31.7998 8.07115C31.8051 8.99172 31.4652 9.72036 30.8071 10.2501C30.5581 10.4505 30.2543 10.6069 29.9225 10.6978C29.5819 10.7958 29.2132 10.8284 28.816 10.7664L23.7705 10.027C23.3825 9.97231 23.0571 9.89655 22.7764 9.7995C22.5049 9.70978 22.2689 9.59143 22.0956 9.45197C21.8768 9.27581 21.7201 9.04954 21.6349 8.7805C21.5408 8.51862 21.4909 8.20644 21.4855 7.85848L21.441 6.73456C21.4385 6.57508 21.3644 6.44387 21.2185 6.32642C21.1456 6.2677 21.0728 6.22348 20.9821 6.17908C20.8825 6.14183 20.8011 6.11927 20.7285 6.08955C20.2675 5.97618 19.5997 5.88247 18.7341 5.81576C17.8597 5.75621 16.9495 5.7108 16.0037 5.69402C15.0401 5.69155 14.1307 5.70413 13.249 5.75323C12.3852 5.80251 11.7292 5.89013 11.2627 6.0014C11.2 6.02251 11.1192 6.04344 11.0296 6.07153C10.9311 6.10678 10.8508 6.15671 10.7708 6.22113C10.6196 6.34283 10.5587 6.47993 10.5612 6.63941L10.5692 7.73397C10.5748 8.09643 10.5347 8.4077 10.4395 8.66042C10.3626 8.92783 10.2219 9.14386 9.99958 9.32282C9.83059 9.45883 9.61624 9.57264 9.3385 9.66407C9.06076 9.7555 8.73764 9.82472 8.36027 9.8789L3.27333 10.5235C2.87794 10.5775 2.52634 10.5522 2.20052 10.4474C1.8836 10.3355 1.60225 10.1949 1.3469 9.98943Z" fill="white"/>
</svg>
