<svg width="20" height="20" viewBox="0 0 20 20" fill="none" xmlns="http://www.w3.org/2000/svg">
<path d="M17.6252 5.14171C17.2835 4.95837 16.5668 4.76671 15.5918 5.45004L14.3668 6.31671C14.2752 3.72504 13.1502 2.70837 10.4168 2.70837H5.41683C2.56683 2.70837 1.4585 3.81671 1.4585 6.66671V13.3334C1.4585 15.25 2.50016 17.2917 5.41683 17.2917H10.4168C13.1502 17.2917 14.2752 16.275 14.3668 13.6834L15.5918 14.55C16.1085 14.9167 16.5585 15.0334 16.9168 15.0334C17.2252 15.0334 17.4668 14.9417 17.6252 14.8584C17.9668 14.6834 18.5418 14.2084 18.5418 13.0167V6.98337C18.5418 5.79171 17.9668 5.31671 17.6252 5.14171ZM9.16683 9.48337C8.3085 9.48337 7.60016 8.78337 7.60016 7.91671C7.60016 7.05004 8.3085 6.35004 9.16683 6.35004C10.0252 6.35004 10.7335 7.05004 10.7335 7.91671C10.7335 8.78337 10.0252 9.48337 9.16683 9.48337Z" fill="white"/>
</svg>
