<svg width="350" height="332" viewBox="0 0 350 332" fill="none" xmlns="http://www.w3.org/2000/svg">
<path d="M96.2162 61.3379C94.3376 61.8004 92.6512 64.8073 93.9035 65.2434C94.7891 65.554 94.6978 63.9647 96.629 63.2147C97.7491 62.7785 97.4203 61.0421 96.2162 61.3379Z" fill="#4B187A"/>
<path d="M98.3712 68.5366C99.0157 67.8245 98.3084 65.201 97.1042 66.0006C96.2289 66.6779 97.2628 69.7673 98.3712 68.5366Z" fill="#4B187A"/>
<path d="M76.8169 80.4313C77.058 84.2316 77.058 88.0435 76.8169 91.8438C76.8169 92.8069 78.0839 92.8354 78.3039 91.8438C78.7708 88.1312 78.9235 84.3857 78.7598 80.6476C81.6131 80.0382 83.9075 76.848 84.8077 74.8766C85.2709 75.513 85.9607 75.9471 86.7352 76.0888C87.509 76.2306 88.3077 76.0691 88.966 75.6387C89.8158 74.8518 89.1699 73.7881 88.1038 74.1679C87.2781 74.4609 86.6169 73.9633 86.1777 73.2165C85.5961 72.2385 84.907 68.5197 86.3545 67.8274C87.7173 67.1765 89.7939 68.8187 90.1081 67.4095C90.9885 64.6489 91.18 61.7148 90.6663 58.8632C95.548 58.8632 106.641 57.3036 107.517 47.6157C108.529 36.4443 73.4733 44.8815 67.8806 52.4977C62.7047 59.5439 72.3909 77.7088 76.8169 80.4313Z" fill="#4B187A"/>
<path d="M102.073 73.841C103.685 73.7271 103.891 72.331 103.685 70.8987C103.059 66.9044 101.917 63.0087 100.286 59.3093C100.213 59.1492 100.082 59.0234 99.9187 58.9579C99.755 58.8924 99.5731 58.8923 99.4101 58.9576C99.2465 59.0228 99.1149 59.1484 99.0419 59.3084C98.9688 59.4683 98.96 59.6503 99.017 59.8164C100.23 63.7429 101.238 67.7298 102.035 71.7611C102.097 72.0667 102.125 72.0403 101.807 72.0783C100.513 72.2335 98.5333 71.4885 98.6685 74.1201C98.6488 74.739 98.6867 75.3586 98.7825 75.9709C97.4636 76.2128 96.1023 75.9358 94.9829 75.1971C94.0359 74.5644 93.3966 75.3623 93.6385 76.4663C93.892 77.6245 94.5131 78.6693 95.4089 79.4461C96.304 80.2228 97.427 80.6897 98.6093 80.7766C98.6093 82.3111 98.5333 84.0362 96.7921 84.4922C94.7484 84.7442 92.6776 84.6719 90.6558 84.2773C89.9492 84.1465 89.4582 85.1856 90.1735 85.5443C90.8239 85.8651 91.5217 86.0799 92.2407 86.1786C92.4043 88.3531 92.739 90.5108 93.2417 92.632C93.2578 92.7365 93.2958 92.8366 93.3528 92.9257C93.4097 93.0149 93.485 93.0908 93.5727 93.1493C93.6611 93.2085 93.7605 93.2479 93.8642 93.2655C93.9687 93.2837 94.0754 93.2801 94.1784 93.2545C94.2807 93.2289 94.3772 93.1822 94.4612 93.1172C94.5445 93.0521 94.6139 92.971 94.6643 92.8775C94.7147 92.7847 94.7447 92.6824 94.7535 92.5764C94.7622 92.4712 94.7484 92.3653 94.7133 92.2652C94.4079 90.3639 94.0279 88.3465 93.8379 86.3437C95.113 86.4972 96.4055 86.389 97.6375 86.0266C100.174 85.0621 100.351 82.653 100.174 80.3207C100.174 79.7624 100.174 78.9755 99.1595 79.1406C99.1595 79.1406 97.2561 79.6748 95.5828 77.1254C96.5707 77.5514 97.6536 77.7092 98.7218 77.5813C101.118 77.2891 100.382 76.5124 100.382 73.9798C100.937 73.8565 101.506 73.8098 102.073 73.841Z" fill="#4B187A"/>
<path d="M36.0585 101.965C36.1996 102.206 36.4306 102.381 36.7008 102.451C36.971 102.522 37.2581 102.483 37.4991 102.342C37.7402 102.2 37.9152 101.969 37.9858 101.7C38.0565 101.429 38.0169 101.142 37.8758 100.901C36.3889 98.6043 34.4527 97.7801 32.8039 96.4123C31.4446 95.0306 30.3127 93.4428 29.4502 91.7067C28.5762 90.4397 27.4792 90.7699 28.0806 92.4688C29.6881 96.9771 31.7779 97.4857 36.0585 101.965Z" fill="#4B187A"/>
<path d="M40.3618 89.5394C39.9408 85.536 40.0859 81.4931 40.793 77.5306C41.0474 76.0634 40.3057 75.804 39.5242 77.1769C38.2488 79.415 37.9895 87.1208 38.827 89.7542C39.1013 90.6179 40.3998 90.2102 40.3618 89.5394Z" fill="#4B187A"/>
<path d="M36.8241 94.1666C34.9093 87.1038 35.4562 84.2885 36.1005 77.5304C36.1765 76.7325 35.068 76.7603 34.8333 77.3784C32.9533 82.3098 33.4505 89.7409 35.2133 94.6489C35.3163 94.8082 35.4681 94.9295 35.6459 94.9952C35.8239 95.061 36.0181 95.0668 36.1997 95.012C36.3813 94.958 36.5404 94.8462 36.653 94.6935C36.7656 94.5415 36.8256 94.3559 36.8241 94.1666Z" fill="#4B187A"/>
<path d="M44.7614 88.8157C44.7673 85.8783 45.0388 82.9476 45.5726 80.0599C45.8667 78.5364 44.9779 77.626 44.165 79.5638C43.2518 82.5011 42.8867 85.5809 43.0879 88.6505C43.2135 90.6745 44.7416 90.9091 44.7614 88.8157Z" fill="#4B187A"/>
<path d="M50.721 100.684C51.0679 95.5499 48.1784 92.3911 49.2638 84.2016C49.3894 83.2496 48.4378 82.505 47.9075 84.2016C46.2108 89.6365 48.6262 96.0482 49.1746 100.557C49.3448 101.963 50.5971 102.472 50.721 100.684Z" fill="#4B187A"/>
<path d="M179.396 172.948C175.772 171.836 172.471 169.866 169.772 167.204C166.229 163.148 164.469 170.569 178.953 174.308C179.133 174.367 179.329 174.351 179.499 174.266C179.667 174.18 179.795 174.03 179.854 173.85C179.913 173.67 179.898 173.473 179.811 173.304C179.726 173.135 179.576 173.008 179.396 172.948Z" fill="#4B187A"/>
<path d="M176.366 175.686C173.105 174.654 169.973 173.249 167.034 171.501C166.537 171.202 165.165 171.666 166.299 172.896C169.12 175.112 172.474 176.55 176.024 177.067C177.836 177.095 177.901 176.087 176.366 175.686Z" fill="#4B187A"/>
<path d="M161.112 164.769C160.744 165.516 161.826 166.421 162.381 165.668C165.468 161.486 171.662 164.4 175.503 161.561C175.73 161.423 175.892 161.2 175.955 160.942C176.017 160.685 175.976 160.413 175.837 160.186C175.7 159.96 175.478 159.797 175.221 159.733C174.964 159.67 174.691 159.712 174.464 159.849C170.43 162.139 163.483 159.949 161.112 164.769Z" fill="#4B187A"/>
<path d="M166.487 160.57C167.49 160.456 167.951 159.89 167.577 159.303C167.035 158.448 164.888 158.927 163.777 159.1C161.593 159.431 159.523 159.289 159.454 160.28C159.33 161.977 164.141 160.839 166.487 160.57Z" fill="#4B187A"/>
<path d="M167.795 179.985C162.883 178.142 158.09 176 153.441 173.568C152.822 173.248 151.624 173.669 152.794 174.835C154.673 176.699 164.549 180.758 167.332 181.176C167.96 181.176 168.491 180.241 167.795 179.985Z" fill="#4B187A"/>
<path d="M174.248 178.425C170.448 177.383 168.631 177.278 164.83 175.102C163.993 174.622 163.129 175.778 163.955 176.369C166.922 178.487 170.455 179.666 174.099 179.755C174.245 179.725 174.378 179.651 174.479 179.541C174.58 179.432 174.643 179.292 174.66 179.145C174.676 178.996 174.645 178.846 174.571 178.717C174.497 178.588 174.384 178.485 174.248 178.425Z" fill="#4B187A"/>
<path d="M261.84 78.7097C261.84 83.9092 264.363 85.8828 266.825 89.8943C267.682 91.2921 268.957 90.5556 268.751 89.5889C268.176 86.8992 264.262 85.6454 263.261 78.6337C263.244 78.451 263.156 78.2822 263.016 78.1624C262.877 78.0426 262.698 77.9812 262.514 77.9907C262.331 78.0009 262.158 78.0806 262.033 78.215C261.907 78.3487 261.838 78.5263 261.84 78.7097Z" fill="#4B187A"/>
<path d="M273.494 76.2629C274.014 71.8853 271.999 64.5913 269.892 60.9088C269.798 60.7358 269.64 60.6065 269.451 60.548C269.263 60.4894 269.06 60.5063 268.883 60.5951C268.707 60.6838 268.573 60.8374 268.508 61.0236C268.444 61.2097 268.453 61.4138 268.536 61.5927C270.512 66.1964 271.534 71.1527 271.541 76.1628C271.509 77.7221 273.299 77.9355 273.494 76.2629Z" fill="#4B187A"/>
<path d="M282.054 89.3743C280.8 82.6257 281.927 70.3504 280.025 64.3318C279.761 63.4942 278.208 63.063 278.53 64.649C280.25 72.9094 278.78 81.4493 280.14 89.5394C280.339 90.7436 282.282 90.6165 282.054 89.3743Z" fill="#4B187A"/>
<path d="M277.157 76.8706C278.044 74.2591 276.409 65.042 275.571 62.6828C274.734 60.3236 273.138 60.2046 273.962 63.4444C275.039 67.7899 275.554 72.2556 275.495 76.7325C275.537 76.913 275.635 77.0759 275.775 77.1972C275.915 77.3185 276.091 77.3923 276.275 77.4084C276.46 77.4237 276.645 77.3799 276.804 77.2834C276.962 77.187 277.086 77.0423 277.157 76.8706Z" fill="#4B187A"/>
<path d="M264.821 64.2803C267.27 69.4686 268.132 75.2652 267.298 80.9418C267.112 82.2088 269.007 82.5625 269.187 81.3349C270.104 75.241 269.03 69.0144 266.126 63.5798C266.033 63.4067 265.875 63.2777 265.686 63.221C265.499 63.1643 265.296 63.1846 265.122 63.2775C264.95 63.3704 264.821 63.5282 264.764 63.7163C264.707 63.9043 264.728 64.1072 264.821 64.2803Z" fill="#4B187A"/>
<path d="M253.89 59.919C250.434 53.4361 241.665 52.6332 235.341 54.7198C229.242 56.7288 226.893 63.9269 226.463 69.8215C226.067 75.2507 226.368 83.7719 227.985 88.2079C228.556 90.1216 229.678 91.8241 231.212 93.1028C232.746 94.3815 234.622 95.1801 236.608 95.3978V99.8579C236.633 100.044 236.725 100.213 236.866 100.336C237.007 100.459 237.188 100.526 237.375 100.526C237.562 100.526 237.742 100.459 237.883 100.336C238.024 100.213 238.116 100.044 238.142 99.8579C238.307 98.371 238.332 96.8665 238.421 95.3693C241.438 95.0391 245.788 92.592 246.575 89.4106C246.633 89.2433 246.623 89.0606 246.549 88.9006C246.473 88.7406 246.34 88.6164 246.174 88.5535C246.009 88.4907 245.826 88.4943 245.664 88.5645C245.502 88.6346 245.374 88.7647 245.306 88.9276C242.617 94.7103 231.574 96.4215 228.937 84.808C227.615 76.2795 226.799 62.6581 233.779 57.6226C237.493 54.9445 248.932 54.1531 252.33 60.9069C253.809 64.6306 253.845 68.7722 252.431 72.5211C251.554 72.2592 250.611 72.3317 249.785 72.7248C248.958 73.1178 248.306 73.8034 247.956 74.6493C247.509 75.4341 248.578 76.2232 249.112 75.4867C252.839 70.3089 254.82 81.2686 250.949 81.3563C250.482 81.368 248.757 80.6475 248.757 82.0175C248.757 82.7278 249.492 83.1969 250.138 83.362C250.005 88.0464 250.605 92.7221 251.914 97.2216C251.974 97.4167 252.108 97.5811 252.287 97.6783C252.467 97.7755 252.677 97.7981 252.874 97.7419C253.07 97.6849 253.236 97.5541 253.337 97.3758C253.437 97.1975 253.463 96.9871 253.409 96.7905C252.477 92.3633 251.901 87.8681 251.686 83.3489C255.73 82.4107 255.388 76.1721 253.981 73.8909C254.994 72.7375 256.824 65.4187 253.89 59.919Z" fill="#4B187A"/>
<path d="M241.413 80.5962C241.137 79.3277 240.007 79.2152 239.498 80.0511C238.88 80.9674 238.026 81.6995 237.026 82.1708C236.026 82.6414 234.918 82.8335 233.818 82.7261C233.171 82.7261 232.909 83.3078 233.171 83.9946C235.465 90.0132 243.019 87.9995 241.413 80.5962ZM240.005 82.1051C240.133 86.2137 236.81 87.2907 234.996 84.3994C235.941 84.3673 236.87 84.148 237.73 83.7549C238.589 83.3618 239.363 82.8021 240.005 82.108V82.1051Z" fill="#4B187A"/>
<path d="M237.355 76.3255C238.622 76.2385 238.511 72.5739 237.013 72.9539C235.806 73.2612 235.871 76.4285 237.355 76.3255Z" fill="#4B187A"/>
<path d="M230.306 72.9966C229.039 73.2427 228.771 76.2778 230.306 76.2047C231.674 76.1353 231.459 72.7669 230.306 72.9966Z" fill="#4B187A"/>
<path d="M239.596 68.1481C236.457 67.2593 235.4 70.0761 237.542 69.8597C238.01 69.7467 238.498 69.7501 238.965 69.8697C239.431 69.9892 239.861 70.2212 240.217 70.5453C242.147 72.3064 243.162 69.1608 239.596 68.1481Z" fill="#4B187A"/>
<path d="M231.129 68.2241C230.703 68.2254 230.283 68.3258 229.902 68.5173C229.522 68.7089 229.192 68.9863 228.936 69.3277C228.226 70.1257 228.936 71.0393 229.506 70.5056C229.73 70.2462 230.016 70.0484 230.339 69.9309C230.66 69.8136 231.007 69.7805 231.345 69.8349C232.385 69.9225 232.842 68.2208 231.129 68.2241Z" fill="#4B187A"/>
<path d="M235.848 80.6893C236.558 80.4664 236.76 79.3214 235.848 79.3309C234.949 79.3485 234.051 79.263 233.171 79.0781C233.551 76.9094 234.379 73.9999 233.819 73.7141C232.796 73.1953 231.621 78.1019 231.497 78.9641C231.109 81.664 235.43 80.8179 235.848 80.6893Z" fill="#4B187A"/>
<path d="M229.213 234.431C233.894 236.232 241.096 237.157 248.728 237.525C246.91 228.273 244.742 217.657 244.633 208.361C244.623 207.487 245.89 207.221 245.991 208.133C247.149 218.069 248.961 227.916 251.416 237.613C259.8 237.878 268.191 237.65 276.548 236.929C277.233 228.966 278.145 202.225 278.652 181.353C263.949 187.363 236.81 187.11 220.946 182.622C222.989 200.525 226.184 220.585 229.213 234.431Z" fill="#4B187A"/>
<path d="M83.5875 211.163C81.9953 211.385 80.382 211.42 78.7818 211.266C84.1413 222.249 88.7454 233.586 92.5603 245.196C98.1771 263.783 103.187 299.834 103.504 305.907C105.304 306.87 122.371 306.39 126.569 305.907C126.569 301.825 129.065 255.788 127.836 238.997C127.175 230.046 123.54 202.721 120.697 182.254C101.589 187.999 76.3186 188.253 57.5391 180.619C58.9962 203.887 61.5239 225.812 56.8534 238.642C50.1057 255.392 42.112 271.613 32.9395 287.168C33.9042 288.373 46.2785 296.044 53.3676 300.153C73.9081 271.242 85.7489 254.048 89.6193 243.587C86.2808 232.4 82.0092 221.513 76.8506 211.04C74.7608 210.694 72.71 210.147 70.7261 209.405C69.9777 209.125 70.019 207.733 71.2069 208.137C75.2248 209.434 79.4387 210.023 83.6584 209.874C84.5008 209.853 84.6667 211.008 83.5875 211.163Z" fill="#4B187A"/>
<path d="M50.4318 300.159C50.3021 299.943 50.0918 299.787 49.8472 299.726C49.6026 299.665 49.3437 299.703 49.1275 299.833C48.9113 299.962 48.7554 300.173 48.6942 300.418C48.633 300.662 48.6715 300.921 48.8012 301.137C48.902 301.302 59.5844 318.387 58.5981 319.457C57.3194 320.843 31.1007 304.085 28.8373 300.437C27.3967 298.114 31.4906 295.378 34.2265 291.765C34.8774 290.906 33.7672 289.54 32.8833 290.306C30.9112 292.089 29.1421 294.083 27.6082 296.253C24.1041 301.009 29.2454 304.064 32.5909 306.574C38.9337 311.29 45.5986 315.557 52.5366 319.343C56.414 321.481 63.2751 323.816 59.8058 316.401C57.1141 310.749 53.9797 305.318 50.4318 300.159Z" fill="#4B187A"/>
<path d="M143.056 316.019C137.512 312.834 131.735 310.073 125.774 307.759C125.637 307.701 125.489 307.671 125.341 307.671C125.192 307.671 125.045 307.7 124.907 307.758C124.77 307.816 124.646 307.9 124.541 308.006C124.438 308.112 124.355 308.238 124.3 308.376C124.245 308.515 124.218 308.662 124.221 308.811C124.224 308.96 124.257 309.107 124.317 309.243C124.378 309.379 124.465 309.501 124.573 309.604C124.681 309.705 124.808 309.785 124.948 309.837C129.459 311.617 133.889 313.597 138.224 315.771C140.182 316.749 147.099 319.88 141.05 320.032L106.651 320.869C102.669 320.957 102.686 320.336 103.467 316.595C104.05 314.012 104.9 311.496 106.003 309.088C106.433 308.117 104.89 307.194 104.343 308.152C103.013 310.522 102.066 313.087 101.534 315.752C99.8822 323.723 103.297 323.004 109.56 322.877L142.083 322.153C147.215 322.023 147.162 318.844 143.056 316.019Z" fill="#4B187A"/>
<path d="M190.567 284.935C224.306 290.098 268.05 293.574 302.314 295.953C303.698 296.049 303.695 293.899 302.314 293.805C264.995 291.383 224.033 287.196 190.732 283.217C189.819 283.113 189.591 284.784 190.567 284.935Z" fill="#4B187A"/>
<path d="M320.042 48.546C319.854 39.8097 319.071 24.2058 308.387 22.2233C307.512 22.0581 307.122 23.4822 307.944 23.7316C317.269 26.5633 317.492 40.5449 317.999 48.7757C318.006 48.8045 318.006 48.8344 317.999 48.8632C318.848 137.204 321.697 205.078 321.043 291.606C320.965 301.75 316.377 311.3 308.946 313.695C308.209 313.931 308.338 315.304 309.263 315.165C319.011 313.701 323.579 300.367 323.565 291.631C323.443 210.285 321.88 134.881 320.042 48.546Z" fill="#4B187A"/>
<path d="M238.395 30.2477C233.652 31.1332 234.595 39.4994 239.005 39.022C243.836 38.4933 243.708 29.2565 238.395 30.2477ZM238.623 32.2897C240.576 31.8222 241.24 35.8236 238.903 36.7272C237.08 37.4327 236.925 32.6961 238.623 32.2897Z" fill="#4B187A"/>
<path d="M188.183 52.4761C223.394 48.511 260.449 43.1319 296.076 38.5275C297.571 38.3342 297.563 35.9899 296.076 36.1815C260.274 40.8239 220.346 45.752 187.904 50.4341C186.75 50.6009 187.03 52.6049 188.183 52.4761Z" fill="#4B187A"/>
<path d="M308.21 47.8473C308.069 29.4364 308.856 12.6065 284.435 16.3518C257.579 20.4689 229.847 25.7688 203.057 29.1457C179.941 32.0533 181.206 47.7598 181.323 67.8442C181.47 92.9246 181.654 117.39 181.969 144.126C181.981 145.052 183.621 144.976 183.605 144.126C183.179 116.572 183.486 89.6073 183.467 62.8979C183.453 45.0768 183.92 34.0077 203.475 31.1992C230.794 27.2738 258.061 22.643 285.36 18.5194C303.316 15.8066 305.944 26.2925 306.08 42.4582C306.78 125.195 308.437 207.918 309.415 290.654C309.629 308.874 305.699 316.898 286.25 314.212C258.696 310.412 228.559 309.307 201.852 304.651C185.369 301.778 185.347 289.436 185.368 276.097C185.419 245.272 184.677 211.534 184.101 180.099C184.082 179.085 182.564 179.237 182.566 180.2C182.628 211.303 182.838 245.538 183.176 277.213C183.324 291.256 184.443 304.016 201.662 306.77C229.558 311.23 257.961 313.112 286.616 316.406C305.268 318.554 312.058 311.068 311.893 291.757C311.173 210.376 308.835 129.112 308.21 47.8473Z" fill="#4B187A"/>
<path d="M283.244 91.4786C279.884 91.3135 270.679 93.1658 267.47 93.876C266.944 104.711 268.008 115.565 270.628 126.092C270.859 126.877 269.522 127.094 269.258 126.371C266.639 119.201 265.555 108.428 265.175 100.706C262.308 98.944 259.146 97.7128 255.843 97.0713C252.724 98.6934 243.632 107.95 239.943 109.231C237.698 107.619 236.143 105.857 233.996 100.101C219.604 104.26 208.522 125.841 203.716 132.333C198.91 138.826 189.908 146.376 175.961 157.172C179.279 161.749 181.847 166.823 183.569 172.207C195.759 167.535 207.091 160.876 217.107 152.502C217.706 142.126 219.095 131.81 221.258 121.644C221.479 120.629 222.744 120.833 222.527 121.834C218.963 144.151 218.342 157.718 220.71 180.099C236.142 184.675 264.49 184.89 278.77 178.64C278.96 169.866 279.074 162.41 279.05 158.225C271.924 155.486 263.819 140.595 260.511 134.135C260.155 133.437 261.123 132.775 261.55 133.437C265.124 138.95 273.914 154.45 280.102 156.184C285.364 157.658 291.219 153.725 292.338 146.421C293.55 138.573 286.768 97.6924 283.244 91.4786Z" fill="#F56B0C"/>
<path d="M131.974 135.446C128.008 128.775 114.551 96.683 96.0767 93.8808C88.4776 97.4824 78.4146 97.9654 74.9402 93.2598C62.1083 96.0188 55.305 110.066 52.579 121.67C52.3494 122.646 51.0442 122.481 51.3102 121.493C52.0667 117.547 53.2356 113.692 54.7978 109.99C54.3914 108.558 53.871 106.606 53.111 103.5C50.4677 102.776 40.0248 103.741 36.0565 104.577C34.3763 132.472 41.1218 150.464 45.1926 155.879C46.9107 158.166 51.5333 159.367 55.1711 159.018C55.336 143.435 57.4275 127.933 61.3979 112.863C61.4349 112.712 61.5305 112.582 61.6636 112.502C61.7966 112.421 61.9563 112.396 62.1075 112.433C62.2586 112.47 62.3889 112.566 62.4696 112.699C62.5503 112.832 62.5749 112.992 62.5378 113.142C57.299 134.59 56.1988 156.097 57.4659 178.018C70.7306 184.511 98.2066 186.679 120.447 179.755C119.369 172.022 118.444 165.491 117.911 161.636C105.089 151.724 101.471 148.714 94.1491 131.864C93.7809 131.015 94.8214 130.457 95.2525 131.293C99.052 138.662 102.836 146.346 109.201 151.759C121.15 162.44 135.187 170.522 150.423 175.496C151.853 169.232 154.776 163.407 158.944 158.517C155.964 156.489 134.663 139.978 131.974 135.446Z" fill="#F56B0C"/>
<path d="M209.788 241.798C191.719 241.798 194.574 277.077 210.78 278.125C229.215 279.32 226.221 241.798 209.788 241.798ZM207.52 251.029C208.478 248.305 211.679 248.278 212.592 251.333C213.099 253.032 213.327 259.5 212.452 261.236C212.194 261.622 211.841 261.935 211.428 262.144C211.014 262.353 210.553 262.452 210.089 262.431C209.626 262.409 209.176 262.268 208.784 262.021C208.391 261.774 208.069 261.43 207.849 261.021C206.846 259.219 206.776 253.136 207.52 251.029ZM210.892 267.64C210.968 269.11 210.892 270.517 211.095 272.064C211.299 273.61 209.345 273.447 209.112 272.256C208.917 270.683 208.854 269.096 208.922 267.513C203.52 266.435 202.917 259.748 203.42 255.847C203.509 255.15 204.827 255.049 204.865 255.847C205.053 259.812 204.624 264.724 209.809 265.429C214.996 266.135 215.154 259.003 215.085 255.527C215.059 254.184 216.668 254.26 216.737 255.527C216.961 260.121 217.016 267.157 210.892 267.64Z" fill="#F56B0C"/>
<path d="M241.893 243.636C222.873 244.237 225.11 278.441 241.361 280.333C261.882 282.72 260.19 243.06 241.893 243.636ZM242.186 267.843C241.006 268.705 234.274 267.537 233.526 266.638C232.397 265.28 232.384 258.18 233.336 257.331C234.287 256.482 242.31 257.788 242.832 258.903C243.256 259.807 243.163 267.163 242.161 267.892L242.186 267.843ZM249.273 270.504C247.866 270.504 244.456 264.255 244.443 263.365C244.43 262.477 248.855 257.127 250.06 257.521C250.96 257.876 250.352 270.517 249.248 270.555L249.273 270.504Z" fill="#F56B0C"/>
<path d="M274.862 245.728C256.45 244.945 255.93 282.468 275.609 282.734C294.161 282.977 294.858 246.58 274.862 245.728ZM285.348 264.189C285.614 265.052 285.436 268.122 284.334 268.92C282.228 269.65 279.922 269.546 277.891 268.629C277.336 268.143 277.56 265.51 277.598 265.09C277.818 263.04 270.625 263.213 270.841 264.925C271.058 266.636 270.94 267.941 270.448 268.274C269.736 268.752 266.009 268.958 265.033 267.905C264.408 266.439 264.288 264.807 264.691 263.264C268.114 257.002 283.559 258.104 285.371 264.189H285.348Z" fill="#F56B0C"/>
<path d="M158.018 17.4866C157.221 16.9381 156.245 18.1309 156.941 18.7554C158.662 20.3018 167.465 28.0617 169.62 28.8992C169.775 28.9387 169.937 28.9327 170.088 28.8819C170.239 28.8311 170.372 28.7378 170.471 28.6132C170.571 28.4885 170.632 28.3379 170.647 28.1793C170.663 28.0208 170.632 27.8612 170.559 27.7196C169.341 25.8478 159.888 18.7785 158.018 17.4866Z" fill="#F56B0C"/>
<path d="M182.763 20.2951C182.894 19.0295 180.09 11.0814 179.569 9.54326C179.48 9.37359 179.34 9.23718 179.167 9.15439C178.995 9.07168 178.801 9.04705 178.614 9.08432C178.426 9.12158 178.256 9.21869 178.128 9.36103C178.001 9.50336 177.923 9.68326 177.906 9.87368C177.921 11.8644 179.935 19.5103 181.356 20.7775C181.465 20.8879 181.604 20.9654 181.755 21.0009C181.906 21.0363 182.064 21.0284 182.211 20.9781C182.358 20.9277 182.488 20.8369 182.586 20.7161C182.683 20.5952 182.745 20.4493 182.763 20.2951Z" fill="#F56B0C"/>
<path d="M164.547 42.6744C163.457 42.078 154.1 43.0545 152.578 43.4609C152.397 43.5216 152.24 43.64 152.132 43.7982C152.025 43.9564 151.971 44.1456 151.982 44.3367C151.991 44.5279 152.064 44.7105 152.187 44.8566C152.311 45.0028 152.479 45.1045 152.666 45.146C153.732 45.2616 163.482 45.032 164.61 44.1696C164.736 44.0865 164.838 43.9723 164.906 43.8383C164.975 43.7042 165.008 43.5547 165.001 43.4043C164.994 43.2539 164.95 43.1077 164.87 42.9799C164.791 42.852 164.68 42.7468 164.547 42.6744Z" fill="#F56B0C"/>
</svg>
