<svg width="456" height="432" viewBox="0 0 456 432" fill="none" xmlns="http://www.w3.org/2000/svg">
<path d="M125.36 79.2946C122.912 79.8972 120.715 83.8146 122.347 84.3828C123.501 84.7874 123.382 82.7169 125.898 81.7397C127.357 81.1715 126.929 78.9093 125.36 79.2946Z" fill="#4B187A"/>
<path d="M128.168 88.6727C129.007 87.745 128.086 84.3271 126.517 85.3688C125.377 86.2512 126.724 90.2761 128.168 88.6727Z" fill="#4B187A"/>
<path d="M100.086 104.169C100.4 109.12 100.4 114.087 100.086 119.038C100.086 120.292 101.737 120.329 102.023 119.038C102.632 114.201 102.831 109.321 102.617 104.451C106.335 103.657 109.324 99.501 110.497 96.9326C111.1 97.7618 111.999 98.3272 113.008 98.5119C114.016 98.6966 115.057 98.4862 115.914 97.9255C117.021 96.9003 116.18 95.5145 114.791 96.0093C113.715 96.391 112.854 95.7427 112.282 94.7698C111.524 93.4957 110.626 88.6507 112.512 87.7489C114.287 86.9009 116.993 89.0403 117.402 87.2044C118.549 83.6078 118.799 79.7853 118.129 76.0702C124.489 76.0702 138.941 74.0383 140.083 61.4169C141.401 46.8626 95.7302 57.8547 88.444 67.7771C81.7007 76.957 94.32 100.622 100.086 104.169Z" fill="#4B187A"/>
<path d="M132.991 95.5839C135.09 95.4354 135.358 93.6166 135.09 91.7505C134.275 86.5468 132.787 81.4714 130.663 76.6518C130.567 76.4432 130.396 76.2793 130.184 76.194C129.97 76.1087 129.733 76.1085 129.521 76.1936C129.308 76.2786 129.137 76.4422 129.041 76.6506C128.946 76.859 128.935 77.096 129.009 77.3125C130.589 82.428 131.902 87.6221 132.941 92.8741C133.021 93.2722 133.058 93.2378 132.644 93.2873C130.958 93.4896 128.379 92.5189 128.555 95.9474C128.529 96.7537 128.579 97.561 128.703 98.3587C126.985 98.6738 125.212 98.313 123.753 97.3506C122.52 96.5262 121.687 97.5657 122.002 99.0041C122.332 100.513 123.141 101.874 124.308 102.886C125.474 103.898 126.938 104.506 128.478 104.62C128.478 106.619 128.379 108.866 126.11 109.46C123.448 109.789 120.75 109.694 118.116 109.18C117.195 109.01 116.556 110.364 117.488 110.831C118.335 111.249 119.244 111.529 120.181 111.657C120.394 114.49 120.83 117.301 121.485 120.065C121.506 120.201 121.555 120.331 121.63 120.448C121.704 120.564 121.802 120.663 121.916 120.739C122.031 120.816 122.161 120.867 122.296 120.89C122.432 120.914 122.571 120.909 122.705 120.876C122.838 120.843 122.964 120.782 123.074 120.697C123.182 120.612 123.273 120.507 123.338 120.385C123.404 120.264 123.443 120.131 123.454 119.993C123.466 119.855 123.448 119.717 123.402 119.587C123.004 117.11 122.509 114.482 122.262 111.872C123.923 112.072 125.607 111.932 127.212 111.459C130.516 110.203 130.746 107.064 130.516 104.026C130.516 103.298 130.516 102.273 129.195 102.488C129.195 102.488 126.715 103.184 124.535 99.8628C125.822 100.418 127.233 100.623 128.624 100.457C131.747 100.076 130.787 99.0641 130.787 95.7647C131.511 95.6041 132.252 95.5432 132.991 95.5839Z" fill="#4B187A"/>
<path d="M46.9855 132.223C47.1693 132.537 47.4703 132.765 47.8223 132.857C48.1742 132.95 48.5484 132.898 48.8623 132.714C49.1764 132.53 49.4044 132.229 49.4964 131.878C49.5885 131.525 49.5369 131.151 49.3531 130.837C47.4159 127.845 44.8934 126.771 42.7453 124.989C40.9744 123.189 39.4998 121.121 38.3761 118.859C37.2375 117.208 35.8083 117.638 36.5918 119.852C38.686 125.725 41.4087 126.388 46.9855 132.223Z" fill="#4B187A"/>
<path d="M52.5924 116.035C52.0438 110.82 52.2329 105.553 53.1541 100.39C53.4856 98.4786 52.5192 98.1407 51.5011 99.9294C49.8395 102.845 49.5016 112.884 50.5928 116.315C50.9501 117.44 52.6419 116.909 52.5924 116.035Z" fill="#4B187A"/>
<path d="M47.9843 122.064C45.4897 112.863 46.2021 109.195 47.0416 100.39C47.1406 99.3508 45.6964 99.387 45.3907 100.192C42.9414 106.617 43.5892 116.298 45.8857 122.692C46.0198 122.9 46.2177 123.058 46.4494 123.144C46.6812 123.229 46.9343 123.237 47.1708 123.166C47.4074 123.095 47.6146 122.949 47.7613 122.75C47.908 122.552 47.9863 122.311 47.9843 122.064Z" fill="#4B187A"/>
<path d="M58.3245 115.093C58.3321 111.266 58.6859 107.448 59.3813 103.686C59.7645 101.701 58.6065 100.515 57.5475 103.039C56.3578 106.866 55.8821 110.879 56.1442 114.878C56.3078 117.515 58.2987 117.82 58.3245 115.093Z" fill="#4B187A"/>
<path d="M66.088 130.555C66.54 123.866 62.7756 119.751 64.1897 109.081C64.3532 107.841 63.1135 106.871 62.4226 109.081C60.2122 116.162 63.3589 124.515 64.0734 130.39C64.2952 132.221 65.9267 132.884 66.088 130.555Z" fill="#4B187A"/>
<path d="M233.727 224.701C229.006 223.253 224.705 220.685 221.19 217.218C216.573 211.934 214.281 221.602 233.15 226.473C233.385 226.549 233.64 226.529 233.861 226.418C234.081 226.305 234.248 226.11 234.324 225.876C234.401 225.641 234.381 225.385 234.269 225.165C234.157 224.945 233.962 224.779 233.727 224.701Z" fill="#4B187A"/>
<path d="M229.779 228.268C225.531 226.923 221.451 225.094 217.621 222.816C216.975 222.426 215.186 223.031 216.663 224.633C220.339 227.52 224.708 229.394 229.334 230.068C231.695 230.104 231.779 228.791 229.779 228.268Z" fill="#4B187A"/>
<path d="M209.906 214.046C209.426 215.018 210.836 216.198 211.56 215.216C215.582 209.768 223.651 213.565 228.656 209.866C228.951 209.686 229.162 209.396 229.244 209.06C229.325 208.724 229.27 208.37 229.091 208.075C228.912 207.78 228.622 207.568 228.287 207.485C227.952 207.403 227.597 207.457 227.302 207.635C222.045 210.619 212.995 207.767 209.906 214.046Z" fill="#4B187A"/>
<path d="M216.91 208.576C218.216 208.427 218.816 207.689 218.33 206.925C217.624 205.81 214.826 206.435 213.379 206.66C210.533 207.091 207.837 206.906 207.746 208.197C207.585 210.408 213.853 208.925 216.91 208.576Z" fill="#4B187A"/>
<path d="M218.613 233.869C212.214 231.468 205.969 228.677 199.913 225.509C199.106 225.092 197.545 225.64 199.069 227.159C201.517 229.588 214.383 234.876 218.01 235.42C218.828 235.42 219.519 234.202 218.613 233.869Z" fill="#4B187A"/>
<path d="M227.02 231.836C222.07 230.479 219.702 230.343 214.751 227.508C213.66 226.881 212.535 228.388 213.611 229.159C217.477 231.917 222.079 233.453 226.827 233.569C227.017 233.531 227.19 233.434 227.322 233.291C227.453 233.148 227.535 232.966 227.557 232.774C227.579 232.581 227.538 232.386 227.442 232.217C227.346 232.049 227.198 231.915 227.02 231.836Z" fill="#4B187A"/>
<path d="M341.136 101.927C341.136 108.701 344.423 111.272 347.63 116.498C348.747 118.319 350.409 117.36 350.139 116.1C349.39 112.596 344.292 110.963 342.987 101.828C342.964 101.59 342.85 101.37 342.668 101.214C342.488 101.058 342.253 100.978 342.014 100.99C341.776 101.003 341.551 101.107 341.387 101.282C341.223 101.456 341.133 101.688 341.136 101.927Z" fill="#4B187A"/>
<path d="M356.319 98.7385C356.997 93.0352 354.372 83.5325 351.627 78.7349C351.503 78.5096 351.298 78.3411 351.052 78.2649C350.808 78.1886 350.542 78.2106 350.313 78.3263C350.083 78.4418 349.908 78.642 349.823 78.8846C349.74 79.127 349.752 79.3929 349.86 79.626C352.434 85.6237 353.766 92.0809 353.775 98.6081C353.734 100.64 356.065 100.917 356.319 98.7385Z" fill="#4B187A"/>
<path d="M367.472 115.82C365.839 107.028 367.307 91.0357 364.829 83.1946C364.485 82.1034 362.461 81.5416 362.881 83.6079C365.122 94.3696 363.207 105.495 364.978 116.035C365.238 117.604 367.769 117.439 367.472 115.82Z" fill="#4B187A"/>
<path d="M361.092 99.5307C362.248 96.1284 360.117 84.1202 359.025 81.0467C357.934 77.9731 355.855 77.8181 356.929 82.0389C358.332 87.7003 359.003 93.5182 358.926 99.3507C358.981 99.5859 359.108 99.7982 359.291 99.9562C359.474 100.114 359.702 100.21 359.943 100.231C360.184 100.251 360.425 100.194 360.631 100.069C360.838 99.9429 360.999 99.7544 361.092 99.5307Z" fill="#4B187A"/>
<path d="M345.019 83.128C348.21 89.8874 349.333 97.4391 348.247 104.835C348.004 106.485 350.473 106.946 350.708 105.347C351.903 97.4077 350.503 89.2955 346.719 82.2154C346.598 81.9899 346.393 81.8217 346.147 81.7479C345.903 81.674 345.638 81.7005 345.412 81.8215C345.188 81.9425 345.019 82.1482 344.945 82.3932C344.872 82.6381 344.898 82.9025 345.019 83.128Z" fill="#4B187A"/>
<path d="M330.778 77.4459C326.276 68.9999 314.851 67.9539 306.612 70.6724C298.667 73.2897 295.607 82.6675 295.047 90.3471C294.531 97.4202 294.922 108.522 297.03 114.301C297.773 116.794 299.236 119.012 301.234 120.678C303.232 122.344 305.676 123.384 308.263 123.668V129.479C308.296 129.721 308.416 129.941 308.6 130.101C308.784 130.261 309.019 130.349 309.262 130.349C309.506 130.349 309.741 130.261 309.925 130.101C310.109 129.941 310.229 129.721 310.262 129.479C310.477 127.542 310.509 125.582 310.626 123.631C314.556 123.201 320.223 120.013 321.248 115.868C321.324 115.65 321.311 115.412 321.214 115.203C321.116 114.995 320.942 114.833 320.727 114.751C320.512 114.669 320.273 114.674 320.062 114.766C319.851 114.857 319.683 115.026 319.595 115.239C316.093 122.772 301.705 125.002 298.269 109.872C296.547 98.7605 295.484 81.0145 304.578 74.4541C309.417 70.9651 324.319 69.9341 328.747 78.733C330.674 83.5843 330.72 88.98 328.878 93.864C327.736 93.5228 326.507 93.6174 325.43 94.1294C324.353 94.6415 323.504 95.5347 323.048 96.6367C322.466 97.6591 323.859 98.6872 324.554 97.7277C329.409 90.982 331.99 105.26 326.948 105.375C326.338 105.39 324.091 104.451 324.091 106.236C324.091 107.161 325.049 107.773 325.891 107.988C325.718 114.091 326.498 120.182 328.204 126.044C328.282 126.298 328.456 126.513 328.691 126.639C328.925 126.766 329.199 126.795 329.455 126.722C329.71 126.648 329.927 126.477 330.058 126.245C330.188 126.013 330.222 125.739 330.152 125.483C328.938 119.715 328.187 113.858 327.907 107.971C333.176 106.748 332.731 98.6206 330.897 95.6486C332.217 94.146 334.601 84.611 330.778 77.4459Z" fill="#4B187A"/>
<path d="M314.524 104.384C314.164 102.732 312.692 102.585 312.029 103.674C311.224 104.868 310.112 105.822 308.809 106.436C307.506 107.049 306.062 107.299 304.629 107.159C303.786 107.159 303.445 107.917 303.786 108.812C306.775 116.653 316.616 114.03 314.524 104.384ZM312.69 106.35C312.856 111.703 308.528 113.106 306.164 109.339C307.395 109.297 308.606 109.012 309.726 108.5C310.846 107.988 311.854 107.258 312.69 106.354V106.35Z" fill="#4B187A"/>
<path d="M309.237 98.8204C310.889 98.7071 310.744 93.9327 308.792 94.4278C307.219 94.8281 307.305 98.9546 309.237 98.8204Z" fill="#4B187A"/>
<path d="M300.054 94.4839C298.403 94.8046 298.054 98.7587 300.054 98.6635C301.836 98.573 301.556 94.1847 300.054 94.4839Z" fill="#4B187A"/>
<path d="M312.156 88.1666C308.067 87.0087 306.689 90.6784 309.48 90.3964C310.09 90.2493 310.726 90.2537 311.335 90.4095C311.942 90.5652 312.502 90.8675 312.965 91.2897C315.479 93.5841 316.803 89.486 312.156 88.1666Z" fill="#4B187A"/>
<path d="M301.126 88.2659C300.571 88.2675 300.024 88.3983 299.528 88.6478C299.032 88.8974 298.602 89.2588 298.27 89.7036C297.345 90.7432 298.27 91.9335 299.012 91.2382C299.304 90.9003 299.677 90.6425 300.097 90.4895C300.515 90.3366 300.968 90.2935 301.407 90.3644C302.762 90.4785 303.358 88.2616 301.126 88.2659Z" fill="#4B187A"/>
<path d="M307.273 104.505C308.198 104.215 308.461 102.723 307.273 102.736C306.102 102.759 304.932 102.647 303.786 102.406C304.281 99.581 305.36 95.7904 304.63 95.4181C303.298 94.7422 301.767 101.135 301.605 102.258C301.1 105.775 306.729 104.673 307.273 104.505Z" fill="#4B187A"/>
<path d="M298.631 304.802C304.729 307.148 314.111 308.354 324.055 308.833C321.687 296.78 318.861 282.949 318.719 270.838C318.706 269.699 320.357 269.353 320.488 270.541C321.997 283.485 324.358 296.314 327.556 308.948C338.479 309.293 349.411 308.996 360.298 308.057C361.191 297.682 362.379 262.844 363.04 235.651C343.884 243.482 308.528 243.152 287.86 237.304C290.521 260.629 294.684 286.764 298.631 304.802Z" fill="#4B187A"/>
<path d="M108.908 274.488C106.833 274.778 104.731 274.822 102.647 274.621C109.629 288.931 115.627 303.7 120.597 318.827C127.915 343.042 134.442 390.009 134.855 397.922C137.2 399.176 159.435 398.55 164.904 397.922C164.904 392.603 168.156 332.625 166.554 310.751C165.694 299.089 160.958 263.489 157.254 236.826C132.36 244.31 99.4377 244.641 74.9715 234.695C76.8699 265.009 80.1629 293.573 74.0782 310.288C65.2872 332.11 54.8729 353.242 42.9229 373.507C44.1798 375.078 60.301 385.072 69.5368 390.424C96.2972 352.759 111.723 330.359 116.766 316.73C112.416 302.155 106.851 287.972 100.131 274.328C97.4081 273.877 94.7363 273.164 92.1516 272.198C91.1766 271.832 91.2304 270.02 92.778 270.545C98.0126 272.236 103.502 273.002 109 272.809C110.098 272.781 110.314 274.285 108.908 274.488Z" fill="#4B187A"/>
<path d="M65.7111 390.433C65.5421 390.152 65.2682 389.948 64.9495 389.868C64.6308 389.789 64.2935 389.839 64.0118 390.008C63.7301 390.177 63.5271 390.451 63.4473 390.77C63.3676 391.089 63.4178 391.426 63.5867 391.707C63.718 391.923 77.6351 414.18 76.3502 415.575C74.6843 417.38 40.5263 395.548 37.5776 390.794C35.7007 387.768 41.0343 384.204 44.5986 379.497C45.4466 378.377 44.0002 376.598 42.8488 377.597C40.2795 379.919 37.9746 382.517 35.9762 385.345C31.4111 391.54 38.1092 395.521 42.4678 398.791C50.7312 404.935 59.4143 410.494 68.4532 415.426C73.5048 418.211 82.4435 421.253 77.9236 411.593C74.4169 404.229 70.3334 397.153 65.7111 390.433Z" fill="#4B187A"/>
<path d="M186.383 411.096C179.159 406.946 171.633 403.349 163.867 400.334C163.688 400.259 163.496 400.22 163.303 400.22C163.109 400.22 162.917 400.258 162.738 400.333C162.559 400.408 162.398 400.518 162.261 400.656C162.126 400.795 162.019 400.958 161.947 401.138C161.876 401.319 161.841 401.512 161.845 401.705C161.848 401.899 161.891 402.09 161.969 402.267C162.048 402.444 162.162 402.604 162.302 402.738C162.443 402.87 162.609 402.974 162.791 403.041C168.668 405.361 174.44 407.941 180.088 410.773C182.638 412.047 191.65 416.126 183.77 416.324L138.953 417.415C133.766 417.529 133.788 416.72 134.806 411.847C135.565 408.481 136.672 405.203 138.11 402.066C138.669 400.801 136.659 399.598 135.947 400.846C134.214 403.934 132.98 407.276 132.288 410.747C130.135 421.132 134.584 420.196 142.744 420.031L185.115 419.087C191.8 418.918 191.732 414.776 186.383 411.096Z" fill="#4B187A"/>
<path d="M248.282 370.599C292.237 377.326 349.227 381.854 393.867 384.953C395.669 385.078 395.666 382.278 393.867 382.156C345.247 379 291.881 373.545 248.497 368.361C247.307 368.225 247.01 370.403 248.282 370.599Z" fill="#4B187A"/>
<path d="M416.962 62.6292C416.718 51.2475 415.698 30.9185 401.778 28.3357C400.638 28.1204 400.13 29.9758 401.201 30.3008C413.35 33.9899 413.64 52.2054 414.301 62.9284C414.31 62.9659 414.31 63.005 414.301 63.0425C415.407 178.134 419.118 266.56 418.266 379.29C418.165 392.506 412.188 404.947 402.506 408.068C401.546 408.375 401.714 410.164 402.92 409.983C415.619 408.076 421.57 390.704 421.552 379.323C421.393 273.345 419.357 175.107 416.962 62.6292Z" fill="#4B187A"/>
<path d="M310.591 38.7895C304.412 39.9432 305.641 50.8427 311.386 50.2207C317.68 49.532 317.514 37.4981 310.591 38.7895ZM310.888 41.4498C313.433 40.8408 314.298 46.0538 311.253 47.231C308.879 48.1501 308.676 41.9793 310.888 41.4498Z" fill="#4B187A"/>
<path d="M245.175 67.7493C291.048 62.5836 339.323 55.5756 385.739 49.5769C387.686 49.3251 387.676 46.2709 385.739 46.5206C339.095 52.5687 287.076 58.9892 244.811 65.089C243.308 65.3063 243.673 67.9171 245.175 67.7493Z" fill="#4B187A"/>
<path d="M401.548 61.7185C401.363 37.7326 402.389 15.8065 370.574 20.6858C335.585 26.0496 299.455 32.9544 264.553 37.3538C234.437 41.1419 236.085 61.6044 236.238 87.7706C236.43 120.446 236.669 152.32 237.08 187.151C237.095 188.357 239.232 188.258 239.21 187.151C238.655 151.254 239.056 116.124 239.03 81.3265C239.012 58.109 239.622 43.6881 265.097 40.0291C300.689 34.9151 336.213 28.8821 371.779 23.5098C395.171 19.9756 398.595 33.6366 398.772 54.6975C399.684 162.487 401.843 270.26 403.117 378.049C403.397 401.787 398.276 412.241 372.937 408.741C337.04 403.79 297.777 402.351 262.983 396.285C241.509 392.542 241.48 376.462 241.507 359.084C241.574 318.926 240.608 274.972 239.857 234.017C239.833 232.696 237.855 232.894 237.857 234.148C237.939 274.671 238.212 319.272 238.652 360.539C238.845 378.834 240.302 395.457 262.736 399.045C299.079 404.857 336.082 407.308 373.414 411.599C397.714 414.398 406.561 404.645 406.346 379.486C405.407 273.463 402.362 167.591 401.548 61.7185Z" fill="#4B187A"/>
<path d="M369.022 118.562C364.644 118.347 352.651 120.76 348.471 121.685C347.786 135.802 349.172 149.942 352.585 163.656C352.885 164.679 351.144 164.962 350.8 164.02C347.388 154.679 345.976 140.643 345.481 130.583C341.746 128.288 337.627 126.684 333.323 125.848C329.259 127.961 317.414 140.021 312.609 141.689C309.683 139.59 307.658 137.294 304.86 129.796C286.111 135.213 271.672 163.329 265.411 171.788C259.151 180.247 247.422 190.083 229.252 204.148C233.575 210.11 236.921 216.721 239.164 223.735C255.045 217.649 269.809 208.974 282.857 198.064C283.638 184.546 285.447 171.106 288.266 157.862C288.553 156.539 290.202 156.805 289.918 158.109C285.276 187.184 284.467 204.859 287.551 234.017C307.656 239.979 344.588 240.259 363.193 232.116C363.441 220.685 363.589 210.972 363.557 205.52C354.273 201.951 343.714 182.551 339.405 174.134C338.94 173.225 340.202 172.363 340.759 173.225C345.415 180.408 356.866 200.601 364.928 202.861C371.783 204.781 379.411 199.657 380.869 190.141C382.448 179.917 373.613 126.657 369.022 118.562Z" fill="#F56B0C"/>
<path d="M171.945 175.843C166.779 167.152 149.246 125.342 125.178 121.692C115.278 126.384 102.167 127.013 97.641 120.883C80.9236 124.477 72.0601 142.778 68.5087 157.895C68.2095 159.167 66.5092 158.952 66.8557 157.665C67.8412 152.524 69.3641 147.502 71.3993 142.679C70.8698 140.813 70.1918 138.27 69.2017 134.223C65.758 133.281 52.1529 134.537 46.983 135.626C44.794 171.969 53.5821 195.408 58.8855 202.463C61.1239 205.443 67.1463 207.008 71.8857 206.553C72.1005 186.252 74.8253 166.055 79.998 146.422C80.0463 146.225 80.1708 146.056 80.3441 145.951C80.5175 145.845 80.7255 145.814 80.9224 145.862C81.1194 145.91 81.2891 146.035 81.3942 146.208C81.4994 146.381 81.5314 146.59 81.4831 146.786C74.658 174.728 73.2245 202.748 74.8754 231.307C92.1567 239.766 127.953 242.59 156.928 233.57C155.524 223.494 154.319 214.986 153.624 209.964C136.919 197.05 132.206 193.128 122.667 171.177C122.187 170.07 123.542 169.343 124.104 170.432C129.054 180.033 133.983 190.044 142.277 197.096C157.844 211.011 176.131 221.541 195.98 228.021C197.843 219.86 201.652 212.271 207.082 205.901C203.199 203.258 175.449 181.747 171.945 175.843Z" fill="#F56B0C"/>
<path d="M273.323 314.399C249.782 314.399 253.501 360.361 274.614 361.727C298.632 363.284 294.732 314.399 273.323 314.399ZM270.368 326.426C271.616 322.877 275.785 322.841 276.975 326.822C277.636 329.036 277.933 337.462 276.793 339.724C276.457 340.227 275.998 340.634 275.459 340.907C274.919 341.179 274.318 341.308 273.715 341.28C273.111 341.252 272.525 341.068 272.014 340.746C271.503 340.425 271.083 339.976 270.796 339.444C269.489 337.096 269.399 329.171 270.368 326.426ZM274.76 348.067C274.859 349.982 274.76 351.816 275.026 353.831C275.29 355.845 272.746 355.632 272.442 354.08C272.188 352.031 272.105 349.964 272.195 347.901C265.157 346.497 264.371 337.785 265.026 332.703C265.142 331.794 266.859 331.663 266.908 332.703C267.154 337.869 266.594 344.268 273.35 345.186C280.107 346.106 280.314 336.814 280.223 332.285C280.189 330.536 282.285 330.635 282.376 332.285C282.668 338.271 282.739 347.438 274.76 348.067Z" fill="#F56B0C"/>
<path d="M315.15 316.794C290.37 317.578 293.283 362.138 314.457 364.603C341.191 367.713 338.987 316.043 315.15 316.794ZM315.53 348.331C313.994 349.454 305.223 347.932 304.248 346.761C302.778 344.993 302.761 335.742 304 334.636C305.24 333.529 315.692 335.231 316.372 336.684C316.925 337.862 316.803 347.446 315.498 348.395L315.53 348.331ZM324.764 351.798C322.931 351.798 318.488 343.656 318.471 342.498C318.454 341.34 324.22 334.371 325.788 334.883C326.962 335.346 326.17 351.815 324.732 351.865L324.764 351.798Z" fill="#F56B0C"/>
<path d="M358.102 319.52C334.114 318.499 333.436 367.385 359.075 367.732C383.244 368.049 384.152 320.63 358.102 319.52ZM371.764 343.571C372.11 344.696 371.878 348.695 370.442 349.734C367.698 350.685 364.694 350.55 362.048 349.355C361.325 348.722 361.617 345.292 361.666 344.745C361.953 342.074 352.582 342.3 352.864 344.53C353.145 346.759 352.992 348.46 352.352 348.893C351.423 349.516 346.568 349.784 345.296 348.412C344.482 346.502 344.326 344.376 344.85 342.366C349.31 334.207 369.432 335.643 371.793 343.571H371.764Z" fill="#F56B0C"/>
<path d="M205.875 22.1644C204.837 21.4498 203.565 23.0038 204.472 23.8174C206.714 25.832 218.182 35.9417 220.991 37.0329C221.192 37.0843 221.404 37.0765 221.6 37.0103C221.797 36.9442 221.97 36.8226 222.1 36.6602C222.229 36.4978 222.308 36.3015 222.328 36.0949C222.349 35.8884 222.309 35.6804 222.214 35.4961C220.627 33.0575 208.312 23.8475 205.875 22.1644Z" fill="#F56B0C"/>
<path d="M238.115 25.8236C238.285 24.1748 234.632 13.8199 233.953 11.816C233.838 11.595 233.655 11.4173 233.43 11.3094C233.206 11.2016 232.952 11.1696 232.709 11.2181C232.464 11.2667 232.242 11.3932 232.077 11.5786C231.91 11.764 231.809 11.9984 231.787 12.2465C231.806 14.8401 234.431 24.8012 236.281 26.452C236.424 26.596 236.604 26.6969 236.801 26.7431C236.998 26.7893 237.204 26.779 237.395 26.7134C237.587 26.6478 237.756 26.5295 237.883 26.3721C238.011 26.2146 238.091 26.0245 238.115 25.8236Z" fill="#F56B0C"/>
<path d="M214.383 54.9797C212.963 54.2027 200.772 55.4748 198.789 56.0043C198.553 56.0834 198.349 56.2377 198.208 56.4438C198.069 56.6499 197.999 56.8963 198.012 57.1454C198.025 57.3944 198.119 57.6323 198.28 57.8227C198.442 58.0131 198.661 58.1456 198.903 58.1996C200.292 58.3503 212.995 58.0511 214.465 56.9276C214.629 56.8193 214.762 56.6706 214.85 56.4959C214.94 56.3213 214.983 56.1265 214.974 55.9306C214.965 55.7347 214.907 55.5442 214.804 55.3776C214.7 55.211 214.555 55.0739 214.383 54.9797Z" fill="#F56B0C"/>
</svg>
