<svg width="25" height="27" viewBox="0 0 25 27" fill="none" xmlns="http://www.w3.org/2000/svg">
<path d="M11.5916 13.1982L0.730469 24.7249C1.06323 25.982 2.20943 26.9063 3.56822 26.9063C4.11359 26.9063 4.62198 26.7584 5.05642 26.4996L5.0934 26.4811L17.3225 19.4284L11.6008 13.1982H11.5916Z" fill="#EA4335"/>
<path d="M22.5726 11.229H22.5634L17.2854 8.16016L11.3418 13.4567L17.3131 19.4187L22.5634 16.3869C23.4877 15.8877 24.1071 14.9171 24.1071 13.7987C24.1071 12.6802 23.4877 11.7189 22.5819 11.2198L22.5726 11.229Z" fill="#FBBC04"/>
<path d="M0.720819 2.84473C0.656114 3.08506 0.619141 3.33463 0.619141 3.60269V23.9753C0.619141 24.2342 0.656114 24.493 0.720819 24.7333L11.9517 13.5025L0.720819 2.84473Z" fill="#4285F4"/>
<path d="M11.665 13.7894L17.285 8.16932L5.07439 1.08881C4.6307 0.820748 4.11306 0.672852 3.55845 0.672852C2.19966 0.672852 1.05347 1.5972 0.720703 2.85431L11.665 13.7986V13.7894Z" fill="#34A853"/>
</svg>
