<svg width="24" height="27" viewBox="0 0 24 27" fill="none" xmlns="http://www.w3.org/2000/svg">
<path d="M11.155 13.3174L0.371094 24.7621C0.701495 26.0103 1.83954 26.9281 3.18868 26.9281C3.73017 26.9281 4.23495 26.7812 4.66631 26.5242L4.70302 26.5059L16.8453 19.5032L11.1642 13.3174H11.155Z" fill="#EA4335"/>
<path d="M22.0583 11.3625H22.0491L16.8086 8.31543L10.9072 13.5743L16.8361 19.494L22.0491 16.4837C22.9669 15.9881 23.5818 15.0244 23.5818 13.9139C23.5818 12.8034 22.9669 11.8489 22.0674 11.3533L22.0583 11.3625Z" fill="#FBBC04"/>
<path d="M0.361698 3.03809C0.297453 3.27671 0.260742 3.52451 0.260742 3.79067V24.0185C0.260742 24.2755 0.297453 24.5325 0.361698 24.7711L11.5127 13.6201L0.361698 3.03809Z" fill="#4285F4"/>
<path d="M11.2278 13.9047L16.808 8.32455L4.68407 1.29435C4.24354 1.02819 3.72958 0.881348 3.17891 0.881348C1.82978 0.881348 0.691729 1.79913 0.361328 3.04731L11.2278 13.9138V13.9047Z" fill="#34A853"/>
</svg>
