<svg width="24" height="24" viewBox="0 0 24 24" fill="none" xmlns="http://www.w3.org/2000/svg">
<path d="M2.49581 7.992H21.5038C21.9038 7.992 22.2518 7.844 22.5478 7.548C22.8438 7.252 22.9918 6.904 22.9918 6.504C22.9918 6.104 22.8438 5.752 22.5478 5.448C22.2518 5.144 21.9038 4.992 21.5038 4.992H2.49581C2.09581 4.992 1.74781 5.144 1.45181 5.448C1.15581 5.752 1.00781 6.104 1.00781 6.504C1.00781 6.904 1.15581 7.252 1.45181 7.548C1.74781 7.844 2.09581 7.992 2.49581 7.992ZM2.49581 13.992H21.5038C21.9038 13.992 22.2518 13.844 22.5478 13.548C22.8438 13.252 22.9918 12.904 22.9918 12.504C22.9918 12.104 22.8438 11.752 22.5478 11.448C22.2518 11.144 21.9038 10.992 21.5038 10.992H2.49581C2.09581 10.992 1.74781 11.144 1.45181 11.448C1.15581 11.752 1.00781 12.104 1.00781 12.504C1.00781 12.904 1.15581 13.252 1.45181 13.548C1.74781 13.844 2.09581 13.992 2.49581 13.992ZM2.49581 19.992H21.5038C21.9038 19.992 22.2518 19.844 22.5478 19.548C22.8438 19.252 22.9918 18.904 22.9918 18.504C22.9918 18.104 22.8438 17.752 22.5478 17.448C22.2518 17.144 21.9038 16.992 21.5038 16.992H2.49581C2.09581 16.992 1.74781 17.144 1.45181 17.448C1.15581 17.752 1.00781 18.104 1.00781 18.504C1.00781 18.904 1.15581 19.252 1.45181 19.548C1.74781 19.844 2.09581 19.992 2.49581 19.992Z" fill="#1F2124"/>
</svg>
