<svg width="50" height="57" viewBox="0 0 50 57" fill="none" xmlns="http://www.w3.org/2000/svg">
<path d="M11.6726 42.766L21.2543 28.4999L11.6726 14.2337V42.766ZM15.8247 48.941H34.8817L25.3 34.6748L15.8247 48.941ZM29.452 28.4999L38.9273 42.766V14.2337L29.452 28.4999ZM34.8817 8.05882H15.8247L25.3 22.325L34.8817 8.05882ZM4.85889 6.3554C4.92986 4.93588 5.42669 3.72929 6.34938 2.73563C7.34304 1.81294 8.54963 1.31611 9.96915 1.24513H40.6308C42.0503 1.31611 43.2569 1.81294 44.2505 2.73563C45.1732 3.72929 45.67 4.93588 45.741 6.3554V50.6444C45.67 52.0639 45.1732 53.2705 44.2505 54.2641C43.2569 55.1868 42.0503 55.6837 40.6308 55.7546H9.96915C8.54963 55.6837 7.34304 55.1868 6.34938 54.2641C5.42669 53.2705 4.92986 52.0639 4.85889 50.6444V6.3554Z" fill="#F56B0C"/>
</svg>
