<svg width="61" height="61" viewBox="0 0 61 61" fill="none" xmlns="http://www.w3.org/2000/svg">
<path d="M15.6988 45.8152L25.965 30.53L15.6988 15.2449V45.8152ZM20.1475 52.4312H40.5657L30.2996 37.146L20.1475 52.4312ZM34.7482 30.53L44.9003 45.8152V15.2449L34.7482 30.53ZM40.5657 8.62891H20.1475L30.2996 23.9141L40.5657 8.62891ZM8.39844 6.80381C8.47448 5.2829 9.0068 3.99012 9.9954 2.92548C11.06 1.93689 12.3528 1.40457 13.8737 1.32853H46.7254C48.2463 1.40457 49.5391 1.93689 50.6038 2.92548C51.5924 3.99012 52.1247 5.2829 52.2007 6.80381V54.2563C52.1247 55.7772 51.5924 57.07 50.6038 58.1346C49.5391 59.1232 48.2463 59.6555 46.7254 59.7316H13.8737C12.3528 59.6555 11.06 59.1232 9.9954 58.1346C9.0068 57.07 8.47448 55.7772 8.39844 54.2563V6.80381Z" fill="#F56B0C"/>
</svg>
