<svg width="23" height="23" viewBox="0 0 23 23" fill="none" xmlns="http://www.w3.org/2000/svg">
<g clip-path="url(#clip0_940_1553)">
<path d="M6.23638 17.2997L10.0006 11.6951L6.23638 6.09056V17.2997ZM7.86756 19.7255H15.3542L11.59 14.121L7.86756 19.7255ZM13.2212 11.6951L16.9436 17.2997V6.09056L13.2212 11.6951ZM15.3542 3.6647H7.86756L11.59 9.26926L15.3542 3.6647ZM3.55957 2.9955C3.58745 2.43783 3.78264 1.96381 4.14512 1.57345C4.53549 1.21096 5.00951 1.01578 5.56717 0.987896H17.6128C18.1705 1.01578 18.6445 1.21096 19.0349 1.57345C19.3973 1.96381 19.5925 2.43783 19.6204 2.9955V20.3947C19.5925 20.9524 19.3973 21.4264 19.0349 21.8168C18.6445 22.1793 18.1705 22.3745 17.6128 22.4023H5.56717C5.00951 22.3745 4.53549 22.1793 4.14512 21.8168C3.78264 21.4264 3.58745 20.9524 3.55957 20.3947V2.9955Z" fill="#414042"/>
</g>
<defs>
<clipPath id="clip0_940_1553">
<rect width="22" height="22" fill="white" transform="matrix(1 0 0 -1 0.589844 22.6951)"/>
</clipPath>
</defs>
</svg>
