<svg width="28" height="23" viewBox="0 0 28 23" fill="none" xmlns="http://www.w3.org/2000/svg">
<g clip-path="url(#clip0_940_1250)">
<path d="M8.73638 16.6545L12.5006 11.05L8.73638 5.44542V16.6545ZM10.3676 19.0804H17.8542L14.09 13.4758L10.3676 19.0804ZM15.7212 11.05L19.4436 16.6545V5.44542L15.7212 11.05ZM17.8542 3.01956H10.3676L14.09 8.62412L17.8542 3.01956ZM6.05957 2.35036C6.08745 1.79269 6.28264 1.31867 6.64512 0.928306C7.03549 0.565822 7.50951 0.370638 8.06717 0.342754H20.1128C20.6705 0.370638 21.1445 0.565822 21.5349 0.928306C21.8973 1.31867 22.0925 1.79269 22.1204 2.35036V19.7496C22.0925 20.3073 21.8973 20.7813 21.5349 21.1717C21.1445 21.5341 20.6705 21.7293 20.1128 21.7572H8.06717C7.50951 21.7293 7.03549 21.5341 6.64512 21.1717C6.28264 20.7813 6.08745 20.3073 6.05957 19.7496V2.35036Z" fill="#F56B0C"/>
</g>
<defs>
<clipPath id="clip0_940_1250">
<rect width="27.5" height="22" fill="white" transform="matrix(1 0 0 -1 0.339844 22.05)"/>
</clipPath>
</defs>
</svg>
