<svg width="35" height="34" viewBox="0 0 35 34" fill="none" xmlns="http://www.w3.org/2000/svg">
<path d="M3.92538 11.322H30.8534C31.4201 11.322 31.9131 11.1123 32.3324 10.693C32.7517 10.2737 32.9614 9.78066 32.9614 9.214C32.9614 8.64733 32.7517 8.14866 32.3324 7.718C31.9131 7.28733 31.4201 7.072 30.8534 7.072H3.92538C3.35872 7.072 2.86572 7.28733 2.44638 7.718C2.02705 8.14866 1.81738 8.64733 1.81738 9.214C1.81738 9.78066 2.02705 10.2737 2.44638 10.693C2.86572 11.1123 3.35872 11.322 3.92538 11.322ZM3.92538 19.822H30.8534C31.4201 19.822 31.9131 19.6123 32.3324 19.193C32.7517 18.7737 32.9614 18.2807 32.9614 17.714C32.9614 17.1473 32.7517 16.6487 32.3324 16.218C31.9131 15.7873 31.4201 15.572 30.8534 15.572H3.92538C3.35872 15.572 2.86572 15.7873 2.44638 16.218C2.02705 16.6487 1.81738 17.1473 1.81738 17.714C1.81738 18.2807 2.02705 18.7737 2.44638 19.193C2.86572 19.6123 3.35872 19.822 3.92538 19.822ZM3.92538 28.322H30.8534C31.4201 28.322 31.9131 28.1123 32.3324 27.693C32.7517 27.2737 32.9614 26.7807 32.9614 26.214C32.9614 25.6473 32.7517 25.1487 32.3324 24.718C31.9131 24.2873 31.4201 24.072 30.8534 24.072H3.92538C3.35872 24.072 2.86572 24.2873 2.44638 24.718C2.02705 25.1487 1.81738 25.6473 1.81738 26.214C1.81738 26.7807 2.02705 27.2737 2.44638 27.693C2.86572 28.1123 3.35872 28.322 3.92538 28.322Z" fill="#1F2124"/>
</svg>
