<svg width="34" height="31" viewBox="0 0 34 31" fill="none" xmlns="http://www.w3.org/2000/svg">
<g clip-path="url(#clip0_940_1416)">
<path d="M9.70439 23.1627L14.8375 15.5201L9.70439 7.8775V23.1627ZM11.9287 26.4707H22.1378L17.0048 18.8281L11.9287 26.4707ZM19.2291 15.5201L24.3051 23.1627V7.8775L19.2291 15.5201ZM22.1378 4.56952H11.9287L17.0048 12.2121L22.1378 4.56952ZM6.0542 3.65697C6.09222 2.89652 6.35838 2.25013 6.85268 1.71781C7.385 1.22351 8.03139 0.957352 8.79184 0.919329H25.2177C25.9782 0.957352 26.6245 1.22351 27.1569 1.71781C27.6512 2.25013 27.9173 2.89652 27.9553 3.65697V27.3832C27.9173 28.1437 27.6512 28.7901 27.1569 29.3224C26.6245 29.8167 25.9782 30.0828 25.2177 30.1208H8.79184C8.03139 30.0828 7.385 29.8167 6.85268 29.3224C6.35838 28.7901 6.09222 28.1437 6.0542 27.3832V3.65697Z" fill="#F56B0C"/>
</g>
<defs>
<clipPath id="clip0_940_1416">
<rect width="33.75" height="30" fill="white" transform="matrix(1 0 0 -1 0.129883 30.52)"/>
</clipPath>
</defs>
</svg>
