<svg width="80" height="81" viewBox="0 0 80 81" fill="none" xmlns="http://www.w3.org/2000/svg">
<g clip-path="url(#clip0_940_1682)">
<path d="M80 40.4893C80 18.3979 62.0914 0.489258 40 0.489258C17.9086 0.489258 0 18.3979 0 40.4893C0 62.5807 17.9086 80.4893 40 80.4893C62.0914 80.4893 80 62.5807 80 40.4893Z" fill="#F56B0C"/>
<path d="M32.6102 25.5801L39.7966 28.0433C34.0113 35.9084 31.1638 45.0267 31.2542 55.3983H20C20.5424 48.7432 21.9887 42.7363 24.339 37.3777C26.6893 31.9326 29.4463 28.0001 32.6102 25.5801ZM52.8136 25.5801L60 28.0433C54.2147 35.9084 51.3672 45.0267 51.4576 55.3983H40.2034C40.7458 48.7432 42.1921 42.7363 44.5424 37.3777C46.8927 31.9326 49.6497 28.0001 52.8136 25.5801Z" fill="white"/>
</g>
<defs>
<clipPath id="clip0_940_1682">
<rect width="80" height="81" fill="white"/>
</clipPath>
</defs>
</svg>
