<svg width="33" height="33" viewBox="0 0 33 33" fill="none" xmlns="http://www.w3.org/2000/svg">
<path d="M16.1777 31.1787C10.9205 31.1787 6.12051 28.4358 3.49194 23.8644C0.863364 19.3501 0.863364 13.8072 3.49194 9.23579C6.12051 4.72151 10.9205 1.92151 16.1777 1.92151C21.3777 1.92151 26.1777 4.72151 28.8062 9.23579C31.4348 13.8072 31.4348 19.3501 28.8062 23.8644C26.1777 28.4358 21.3777 31.1787 16.1777 31.1787ZM14.2348 12.4929C14.6919 12.2072 15.1491 12.0358 15.7205 12.0358H15.8919C17.0348 12.0358 18.0062 13.0072 18.0062 14.1501C18.0062 14.7215 17.7205 15.2929 17.3205 15.6929L11.0919 21.5215C10.6919 21.9215 10.5777 22.4929 10.7491 23.0072C10.9777 23.5215 11.4919 23.8644 12.0634 23.8644H20.2919C21.0348 23.8644 21.6634 23.2929 21.6634 22.4929C21.6634 21.7501 21.0348 21.1215 20.2919 21.1215H15.4919L19.2062 17.6929C20.1777 16.7787 20.6919 15.5215 20.6919 14.1501C20.6919 11.5215 18.5777 9.35008 15.9491 9.29294H15.7205C14.5777 9.29294 13.4919 9.63579 12.5777 10.3215L11.2062 11.3501C10.5777 11.8072 10.4634 12.7215 10.9205 13.2929C11.3777 13.9215 12.2919 14.0358 12.8634 13.5787L14.2348 12.4929Z" fill="#414042"/>
</svg>
