<svg width="137" height="42" viewBox="0 0 137 42" fill="none" xmlns="http://www.w3.org/2000/svg">
<path d="M131.848 1.44778C134.198 1.44778 136.107 3.35677 136.107 5.70628V36.094C136.107 38.4435 134.198 40.3525 131.848 40.3525H5.23119C2.88167 40.3525 0.972686 38.4435 0.972686 36.094V5.70628C0.972686 3.35677 2.88167 1.44778 5.23119 1.44778H131.848ZM131.848 0.640137H5.23119C2.44113 0.640137 0.165039 2.91623 0.165039 5.70628V36.094C0.165039 38.884 2.44113 41.1601 5.23119 41.1601H131.848C134.638 41.1601 136.914 38.884 136.914 36.094V5.70628C136.914 2.91623 134.638 0.640137 131.848 0.640137Z" fill="#A6A6A6"/>
</svg>
