<svg width="87" height="19" viewBox="0 0 87 19" fill="none" xmlns="http://www.w3.org/2000/svg">
<path d="M27.9617 5.57374C25.5584 5.57374 23.608 7.39471 23.608 9.90893C23.608 12.4232 25.5677 14.2441 27.9617 14.2441C30.3558 14.2441 32.3154 12.4047 32.3154 9.90893C32.3154 7.41319 30.3558 5.57374 27.9617 5.57374ZM27.9617 12.5433C26.6491 12.5433 25.5122 11.4618 25.5122 9.91818C25.5122 8.37451 26.6491 7.29303 27.9617 7.29303C29.2743 7.29303 30.4112 8.36527 30.4112 9.91818C30.4112 11.4711 29.2743 12.5433 27.9617 12.5433ZM18.4594 5.57374C16.0561 5.57374 14.1057 7.39471 14.1057 9.90893C14.1057 12.4232 16.0654 14.2441 18.4594 14.2441C20.8535 14.2441 22.8131 12.4047 22.8131 9.90893C22.8131 7.41319 20.8535 5.57374 18.4594 5.57374ZM18.4594 12.5433C17.1468 12.5433 16.0099 11.4618 16.0099 9.91818C16.0099 8.37451 17.1468 7.29303 18.4594 7.29303C19.772 7.29303 20.9089 8.36527 20.9089 9.91818C20.9089 11.4711 19.772 12.5433 18.4594 12.5433ZM7.15463 6.9048V8.74425H11.5638C11.4344 9.77953 11.0831 10.5375 10.5655 11.0644C9.92768 11.7022 8.92014 12.4139 7.16388 12.4139C4.45554 12.4139 2.32953 10.2325 2.32953 7.51487C2.32953 4.79729 4.44629 2.61582 7.16388 2.61582C8.62435 2.61582 9.69659 3.18892 10.4823 3.9284L11.7764 2.63431C10.6764 1.58055 9.21593 0.776367 7.15463 0.776367C3.43875 0.776367 0.314453 3.79899 0.314453 7.51487C0.314453 11.2308 3.43875 14.2534 7.15463 14.2534C9.16047 14.2534 10.6764 13.5971 11.8596 12.3677C13.0797 11.1476 13.4494 9.43752 13.4494 8.06024C13.4494 7.63504 13.4125 7.23756 13.3478 6.91404H7.15463V6.9048ZM53.3813 8.33754C53.0208 7.36697 51.9208 5.57374 49.6654 5.57374C47.41 5.57374 45.5706 7.33 45.5706 9.90893C45.5706 12.34 47.41 14.2441 49.878 14.2441C51.8654 14.2441 53.0208 13.024 53.4922 12.3215L52.0133 11.3324C51.5234 12.0534 50.8486 12.5341 49.878 12.5341C48.9075 12.5341 48.2142 12.0904 47.7705 11.2215L53.5754 8.8182L53.3813 8.3283V8.33754ZM47.4655 9.77952C47.4193 8.10645 48.7596 7.24681 49.7301 7.24681C50.4881 7.24681 51.1259 7.62579 51.3385 8.17116L47.4562 9.77952H47.4655ZM42.7513 13.9853H44.6555V1.2293H42.7513V13.9853ZM39.627 6.5443H39.5623C39.1371 6.03591 38.3144 5.57374 37.2792 5.57374C35.1069 5.57374 33.1196 7.4779 33.1196 9.92742C33.1196 12.3769 35.1069 14.2534 37.2792 14.2534C38.3144 14.2534 39.1371 13.7912 39.5623 13.2643H39.627V13.8929C39.627 15.5567 38.7396 16.4441 37.3069 16.4441C36.1422 16.4441 35.4212 15.6029 35.1254 14.9004L33.4616 15.5937C33.9423 16.7399 35.1994 18.1541 37.3069 18.1541C39.5438 18.1541 41.4295 16.8415 41.4295 13.6341V5.8418H39.6178V6.5443H39.627ZM37.4455 12.5433C36.133 12.5433 35.033 11.4434 35.033 9.92742C35.033 8.41149 36.133 7.28378 37.4455 7.28378C38.7581 7.28378 39.7657 8.40224 39.7657 9.92742C39.7657 11.4526 38.7489 12.5433 37.4455 12.5433ZM62.3198 1.23854H57.7627V13.9946H59.6669V9.16021H62.329C64.4365 9.16021 66.5163 7.63504 66.5163 5.19475C66.5163 2.75447 64.4458 1.2293 62.329 1.2293L62.3198 1.23854ZM62.366 7.38546H59.6576V3.01329H62.366C63.7895 3.01329 64.5937 4.18721 64.5937 5.19475C64.5937 6.2023 63.7895 7.37622 62.366 7.37622V7.38546ZM74.133 5.55525C72.7557 5.55525 71.3229 6.16532 70.7406 7.50563L72.4321 8.20813C72.7926 7.50563 73.4674 7.27454 74.1699 7.27454C75.159 7.27454 76.1573 7.86612 76.1758 8.91988V9.04929C75.8338 8.85518 75.0943 8.55938 74.1884 8.55938C72.3674 8.55938 70.5095 9.55768 70.5095 11.4341C70.5095 13.1442 72.007 14.2441 73.68 14.2441C74.9556 14.2441 75.6674 13.671 76.1111 12.9963H76.1758V13.9853H78.0152V9.09551C78.0152 6.83085 76.3237 5.56449 74.1422 5.56449L74.133 5.55525ZM73.9019 12.5433C73.2826 12.5433 72.4044 12.229 72.4044 11.4618C72.4044 10.4728 73.4859 10.103 74.4195 10.103C75.2607 10.103 75.6489 10.2879 76.1573 10.5282C76.0094 11.7114 74.9926 12.5433 73.8926 12.5433H73.9019ZM84.6983 5.83256L82.5168 11.3602H82.4521L80.1874 5.83256H78.1354L81.5277 13.5601L79.5958 17.8583H81.5832L86.815 5.83256H84.6983ZM67.5516 13.9946H69.4557V1.23854H67.5516V13.9946Z" fill="white"/>
</svg>
