<svg width="131" height="39" viewBox="0 0 131 39" fill="none" xmlns="http://www.w3.org/2000/svg">
<path d="M125.815 0.77137C128.059 0.77137 129.882 2.59461 129.882 4.8386V33.8614C129.882 36.1054 128.059 37.9286 125.815 37.9286H4.88498C2.641 37.9286 0.817757 36.1054 0.817757 33.8614V4.8386C0.817757 2.59461 2.641 0.77137 4.88498 0.77137H125.815ZM125.815 0H4.88498C2.22025 0 0.0463867 2.17386 0.0463867 4.8386V33.8614C0.0463867 36.5261 2.22025 38.7 4.88498 38.7H125.815C128.48 38.7 130.653 36.5261 130.653 33.8614V4.8386C130.653 2.17386 128.48 0 125.815 0Z" fill="#A6A6A6"/>
</svg>
