<svg width="139" height="42" viewBox="0 0 139 42" fill="none" xmlns="http://www.w3.org/2000/svg">
<path d="M133.077 1.19331C135.443 1.19331 137.366 3.11596 137.366 5.48229V36.0875C137.366 38.4538 135.443 40.3765 133.077 40.3765H5.55358C3.18724 40.3765 1.2646 38.4538 1.2646 36.0875V5.48229C1.2646 3.11596 3.18724 1.19331 5.55358 1.19331H133.077ZM133.077 0.379883H5.55358C2.74356 0.379883 0.451172 2.67227 0.451172 5.48229V36.0875C0.451172 38.8975 2.74356 41.1899 5.55358 41.1899H133.077C135.887 41.1899 138.179 38.8975 138.179 36.0875V5.48229C138.179 2.67227 135.887 0.379883 133.077 0.379883Z" fill="#A6A6A6"/>
</svg>
