<svg width="87" height="19" viewBox="0 0 87 19" fill="none" xmlns="http://www.w3.org/2000/svg">
<path d="M28.1822 5.67588C25.796 5.67588 23.8595 7.48391 23.8595 9.98027C23.8595 12.4766 25.8052 14.2847 28.1822 14.2847C30.5593 14.2847 32.505 12.4583 32.505 9.98027C32.505 7.50226 30.5593 5.67588 28.1822 5.67588ZM28.1822 12.5959C26.879 12.5959 25.7501 11.5221 25.7501 9.98944C25.7501 8.45675 26.879 7.38295 28.1822 7.38295C29.4855 7.38295 30.6144 8.44757 30.6144 9.98944C30.6144 11.5313 29.4855 12.5959 28.1822 12.5959ZM18.7475 5.67588C16.3612 5.67588 14.4247 7.48391 14.4247 9.98027C14.4247 12.4766 16.3704 14.2847 18.7475 14.2847C21.1245 14.2847 23.0702 12.4583 23.0702 9.98027C23.0702 7.50226 21.1245 5.67588 18.7475 5.67588ZM18.7475 12.5959C17.4442 12.5959 16.3154 11.5221 16.3154 9.98944C16.3154 8.45675 17.4442 7.38295 18.7475 7.38295C20.0507 7.38295 21.1796 8.44757 21.1796 9.98944C21.1796 11.5313 20.0507 12.5959 18.7475 12.5959ZM7.52302 6.99748V8.82386H11.9008C11.7723 9.85178 11.4236 10.6044 10.9096 11.1275C10.2764 11.7608 9.27598 12.4675 7.5322 12.4675C4.8431 12.4675 2.73221 10.3015 2.73221 7.60322C2.73221 4.90494 4.83392 2.73898 7.5322 2.73898C8.98229 2.73898 10.0469 3.308 10.827 4.04223L12.1119 2.75734C11.0198 1.71107 9.56967 0.912598 7.52302 0.912598C3.83354 0.912598 0.731445 3.91374 0.731445 7.60322C0.731445 11.2927 3.83354 14.2938 7.52302 14.2938C9.5146 14.2938 11.0198 13.6422 12.1945 12.4216C13.406 11.2101 13.7731 9.5122 13.7731 8.14471C13.7731 7.72253 13.7364 7.32788 13.6721 7.00666H7.52302V6.99748ZM53.4212 8.42004C53.0633 7.45637 51.9711 5.67588 49.7317 5.67588C47.4923 5.67588 45.666 7.41966 45.666 9.98027C45.666 12.394 47.4924 14.2847 49.9428 14.2847C51.9161 14.2847 53.0633 13.0732 53.5313 12.3757L52.0629 11.3936C51.5765 12.1095 50.9065 12.5868 49.9428 12.5868C48.9792 12.5868 48.2908 12.1462 47.8503 11.2835L53.6139 8.89729L53.4212 8.41086V8.42004ZM47.5474 9.85178C47.5015 8.1906 48.8323 7.33706 49.796 7.33706C50.5486 7.33706 51.1818 7.71335 51.3929 8.25484L47.5382 9.85178H47.5474ZM42.8667 14.0277H44.7574V1.36231H42.8667V14.0277ZM39.7646 6.63955H39.7004C39.2782 6.13477 38.4614 5.67588 37.4335 5.67588C35.2767 5.67588 33.3035 7.5665 33.3035 9.99862C33.3035 12.4307 35.2767 14.2938 37.4335 14.2938C38.4614 14.2938 39.2782 13.8349 39.7004 13.3118H39.7646V13.9359C39.7646 15.5879 38.8836 16.469 37.461 16.469C36.3046 16.469 35.5887 15.6338 35.295 14.9363L33.643 15.6246C34.1203 16.7627 35.3685 18.1669 37.461 18.1669C39.682 18.1669 41.5543 16.8636 41.5543 13.6789V5.94203H39.7555V6.63955H39.7646ZM37.5987 12.5959C36.2954 12.5959 35.2033 11.5038 35.2033 9.99862C35.2033 8.49346 36.2954 7.37377 37.5987 7.37377C38.9019 7.37377 39.9023 8.48428 39.9023 9.99862C39.9023 11.513 38.8927 12.5959 37.5987 12.5959ZM62.2961 1.37149H57.7715V14.0369H59.6621V9.23686H62.3053C64.3979 9.23686 66.4629 7.72253 66.4629 5.29959C66.4629 2.87665 64.407 1.36231 62.3053 1.36231L62.2961 1.37149ZM62.342 7.47473H59.6529V3.13363H62.342C63.7554 3.13363 64.5539 4.29921 64.5539 5.29959C64.5539 6.29997 63.7554 7.46555 62.342 7.46555V7.47473ZM74.0254 5.65752C72.6579 5.65752 71.2353 6.26326 70.6571 7.59404L72.3367 8.29155C72.6946 7.59404 73.3646 7.36459 74.0621 7.36459C75.0441 7.36459 76.0353 7.95197 76.0537 8.99824V9.12673C75.7141 8.934 74.9799 8.64031 74.0804 8.64031C72.2724 8.64031 70.4277 9.63151 70.4277 11.4946C70.4277 13.1925 71.9145 14.2847 73.5757 14.2847C74.8422 14.2847 75.5489 13.7156 75.9894 13.0457H76.0537V14.0277H77.8801V9.17262C77.8801 6.92406 76.2005 5.6667 74.0346 5.6667L74.0254 5.65752ZM73.7959 12.5959C73.181 12.5959 72.3091 12.2839 72.3091 11.5221C72.3091 10.5401 73.3829 10.173 74.3099 10.173C75.1451 10.173 75.5305 10.3566 76.0353 10.5952C75.8885 11.7699 74.8789 12.5959 73.7868 12.5959H73.7959ZM84.5156 5.93286L82.3496 11.4212H82.2854L80.0368 5.93286H77.9994L81.3676 13.6055L79.4495 17.8732H81.4227L86.6173 5.93286H84.5156ZM67.4908 14.0369H69.3814V1.37149H67.4908V14.0369Z" fill="white"/>
</svg>
